<?xml version="1.0" standalone="no"?>
<!DOCTYPE svg PUBLIC "-//W3C//DTD SVG 1.1//EN" "http://www.w3.org/Graphics/SVG/1.1/DTD/svg11.dtd" >
<svg xmlns="http://www.w3.org/2000/svg" xmlns:xlink="http://www.w3.org/1999/xlink" version="1.1">
<metadata>
Created by FontForge 20170731 at Thu Oct  2 19:55:07 2008
 By Aleksey,,,
Copyright (C) 2001, 2008 Hoefler &#38; Frere-Jones. http://www.typography.com
</metadata>
<defs>
<font id="GothamNarrow-Book" horiz-adv-x="353" >
  <font-face 
    font-family="Gotham Narrow Book"
    font-weight="325"
    font-stretch="condensed"
    units-per-em="1000"
    panose-1="0 0 0 0 0 0 0 0 0 0"
    ascent="800"
    descent="-200"
    x-height="521"
    cap-height="700"
    bbox="-190 -229 1034 972"
    underline-thickness="50"
    underline-position="-200"
    unicode-range="U+0020-FB04"
  />
<missing-glyph horiz-adv-x="500" 
d="M0 -200v1000h500v-1000h-500zM71 750l179 -390l179 390h-358zM50 -76l172 376l-172 376v-752zM450 676l-172 -376l172 -376v752zM250 240l-179 -390h358z" />
    <glyph glyph-name="f_f" unicode="ff" horiz-adv-x="639" 
d="M99 0v457h-64v63h64v48q0 79 40 121q37 37 101 37q36 0 69 -10v-64q-35 10 -59 10q-79 0 -79 -98v-44h136v-63h-135v-457h-73zM419 0v457h-64v63h64v48q0 81 40 121q37 37 101 37q36 0 68 -10v-64q-35 10 -58 10q-79 0 -79 -98v-44h135v-63h-135v-457h-72z" />
    <glyph glyph-name="fi" unicode="fi" horiz-adv-x="552" 
d="M99 0v457h-64v63h64v48q0 79 40 121q37 37 101 37q36 0 69 -10v-64q-35 10 -59 10q-79 0 -79 -98v-44h136v-63h-135v-457h-73zM399 0v521h73v-521h-73zM395 628v85h81v-85h-81z" />
    <glyph glyph-name="fl" unicode="fl" horiz-adv-x="552" 
d="M99 0v457h-64v63h64v48q0 79 40 121q37 37 101 37q36 0 69 -10v-64q-35 10 -59 10q-79 0 -79 -98v-44h136v-63h-135v-457h-73zM399 0v722h73v-722h-73z" />
    <glyph glyph-name="f_f_i" unicode="ffi" horiz-adv-x="870" 
d="M99 0v457h-64v63h64v48q0 79 40 121q37 37 101 37q36 0 69 -10v-64q-35 10 -59 10q-79 0 -79 -98v-44h136v-63h-135v-457h-73zM419 0v457h-64v63h64v48q0 81 40 121q37 37 101 37q36 0 68 -10v-64q-35 10 -58 10q-79 0 -79 -98v-44h135v-63h-135v-457h-72zM719 0v521h72
v-521h-72zM714 628v85h81v-85h-81z" />
    <glyph glyph-name="f_f_l" unicode="ffl" horiz-adv-x="870" 
d="M99 0v457h-64v63h64v48q0 79 40 121q37 37 101 37q36 0 69 -10v-64q-35 10 -59 10q-79 0 -79 -98v-44h136v-63h-135v-457h-73zM419 0v457h-64v63h64v48q0 81 40 121q37 37 101 37q36 0 68 -10v-64q-35 10 -58 10q-79 0 -79 -98v-44h135v-63h-135v-457h-72zM719 0v722h72
v-722h-72z" />
    <glyph glyph-name=".notdef" horiz-adv-x="500" 
d="M0 -200v1000h500v-1000h-500zM71 750l179 -390l179 390h-358zM50 -76l172 376l-172 376v-752zM450 676l-172 -376l172 -376v752zM250 240l-179 -390h358z" />
    <glyph glyph-name=".null" horiz-adv-x="0" 
 />
    <glyph glyph-name="nonmarkingreturn" horiz-adv-x="333" 
 />
    <glyph glyph-name="space" unicode=" " horiz-adv-x="259" 
 />
    <glyph glyph-name="exclam" unicode="!" horiz-adv-x="250" 
d="M105 196l-23 448v56h86v-56l-23 -448h-40zM80 0v103h89v-103h-89z" />
    <glyph glyph-name="quotedbl" unicode="&#x22;" horiz-adv-x="386" 
d="M232 431l21 269h85v-6l-70 -263h-36zM59 431l21 269h86v-6l-70 -263h-37z" />
    <glyph glyph-name="numbersign" unicode="#" horiz-adv-x="605" 
d="M534 243v-66h-113l-25 -177h-63l25 177h-162l-25 -177h-64l25 177h-95v66h105l31 217h-103v66h113l25 174h63l-25 -174h162l25 174h64l-25 -174h94v-66h-104l-31 -217h103zM236 461l-32 -218h164l32 218h-164z" />
    <glyph glyph-name="dollar" unicode="$" horiz-adv-x="547" 
d="M477 626l-42 -56q-63 54 -131 64v-249q101 -34 144.5 -80.5t43.5 -118.5v-1q0 -76 -51 -126.5t-135 -58.5v-99h-58v99q-119 9 -207 93l44 56q77 -74 165 -84v259q-98 33 -141.5 77.5t-43.5 117.5v1q0 73 50.5 123t132.5 58v60h58v-61q93 -8 171 -74zM420 183
q0 44 -25.5 73.5t-90.5 51.5v-244q54 6 85 38.5t31 79.5v1zM138 524q0 -44 24.5 -71t87.5 -51v234q-52 -6 -82 -36.5t-30 -74.5v-1z" />
    <glyph glyph-name="percent" unicode="%" horiz-adv-x="738" 
d="M186 354q-62 0 -102 49.5t-40 123.5v5q0 75 40.5 125t102.5 50t102 -49.5t40 -123.5v-5q0 -75 -40.5 -125t-102.5 -50zM186 653q-36 0 -58 -34t-22 -86v-4q0 -53 23.5 -87t57.5 -34q36 0 58.5 33.5t22.5 86.5v4q0 53 -23.5 87t-58.5 34zM347 363l217 337h64l-238 -364
l-215 -336h-64zM551 -7q-62 0 -102 49.5t-40 123.5v5q0 75 40.5 125t102.5 50t102 -49.5t40 -123.5v-5q0 -75 -40.5 -125t-102.5 -50zM552 47q36 0 58.5 33.5t22.5 86.5v4q0 53 -23.5 87t-58.5 34q-36 0 -58.5 -34t-22.5 -86v-4q0 -53 23.5 -87t58.5 -34z" />
    <glyph glyph-name="ampersand" unicode="&#x26;" horiz-adv-x="611" 
d="M529 -12l-92 106q-87 -103 -201 -103q-86 0 -142 53.5t-56 135.5v3q0 131 152 208q-69 89 -69 160v3q0 66 46.5 111.5t120.5 45.5q68 0 111.5 -44t43.5 -107v-3q0 -114 -148 -184l141 -170q33 57 68 152l61 -25q-40 -109 -84 -179l105 -122zM256 418q118 52 118 137v1
q0 40 -25 66.5t-63 26.5q-41 0 -68 -27.5t-27 -67.5v-2q0 -30 14 -59.5t51 -74.5zM242 55q83 0 153 88l-166 200q-58 -28 -86.5 -69t-28.5 -87v-3q0 -55 36 -92t92 -37z" />
    <glyph glyph-name="quotesingle" unicode="'" horiz-adv-x="211" 
d="M59 431l21 269h86v-6l-70 -263h-37z" />
    <glyph glyph-name="parenleft" unicode="(" horiz-adv-x="379" 
d="M308 -138q-120 69 -185 177t-65 249t65 249t185 177l29 -47q-205 -136 -205 -379t205 -379z" />
    <glyph glyph-name="parenright" unicode=")" horiz-adv-x="379" 
d="M71 -138l-29 47q205 137 205 379t-205 379l29 47q120 -69 184.5 -177t64.5 -249t-64.5 -249t-184.5 -177z" />
    <glyph glyph-name="asterisk" unicode="*" horiz-adv-x="386" 
d="M167 404l11 123l-97 -70l-26 45l109 51l-109 52l26 45l97 -70l-11 122h52l-11 -122l96 70l27 -45l-110 -52l110 -51l-27 -45l-96 70l11 -123h-52z" />
    <glyph glyph-name="plus" unicode="+" horiz-adv-x="542" 
d="M236 137v181h-180v68h180v181h70v-181h180v-68h-180v-181h-70z" />
    <glyph glyph-name="comma" unicode="," horiz-adv-x="222" 
d="M50 -121l-12 34q69 25 65 87h-37v103h90v-88q0 -58 -25 -90t-81 -46z" />
    <glyph glyph-name="hyphen" unicode="-" horiz-adv-x="371" 
d="M57 263v75h257v-75h-257z" />
    <glyph glyph-name="period" unicode="." horiz-adv-x="222" 
d="M66 0v103h90v-103h-90z" />
    <glyph glyph-name="slash" unicode="/" horiz-adv-x="437" 
d="M-16 -119l390 908h65l-389 -908h-66z" />
    <glyph glyph-name="zero" unicode="0" horiz-adv-x="615" 
d="M307 -11q-116 0 -184.5 98.5t-68.5 257.5v8q0 159 69.5 258.5t184.5 99.5t184 -98.5t69 -257.5v-8q0 -159 -69.5 -258.5t-184.5 -99.5zM308 57q79 0 127.5 80.5t48.5 207.5v8q0 127 -49 208.5t-128 81.5t-127.5 -80.5t-48.5 -207.5v-8q0 -127 49 -208.5t128 -81.5z" />
    <glyph glyph-name="one" unicode="1" horiz-adv-x="316" 
d="M153 0v624l-114 -40l-13 65l145 55h56v-704h-74z" />
    <glyph glyph-name="two" unicode="2" horiz-adv-x="520" 
d="M42 0v58l226 252q65 69 90.5 113.5t25.5 92.5q0 56 -36 90.5t-90 34.5q-86 0 -157 -100l-52 44q83 125 216 125q86 0 141.5 -52.5t55.5 -134.5v-3q0 -64 -31 -116.5t-110 -135.5l-175 -198h321v-70h-425z" />
    <glyph glyph-name="three" unicode="3" horiz-adv-x="523" 
d="M250 -11q-131 0 -213 96l48 52q69 -79 165 -79q61 0 101.5 38.5t40.5 101.5v3q0 66 -51 101t-135 35h-26l-11 47l194 247h-297v69h393v-56l-196 -247q89 -10 147 -58t58 -135v-3q0 -94 -63 -153t-155 -59z" />
    <glyph glyph-name="four" unicode="4" horiz-adv-x="576" 
d="M370 0v162h-321l-14 55l340 488h66v-480h93v-63h-93v-162h-71zM120 225h250v362z" />
    <glyph glyph-name="five" unicode="5" horiz-adv-x="528" 
d="M249 -11q-115 0 -205 87l45 56q79 -74 161 -74q67 0 109.5 44t42.5 113v3q0 68 -42.5 107t-109.5 39q-62 0 -122 -32l-48 33l18 335h350v-70h-285l-14 -223q59 25 113 25q93 0 154.5 -56t61.5 -155v-3q0 -101 -64.5 -165t-164.5 -64z" />
    <glyph glyph-name="six" unicode="6" horiz-adv-x="562" 
d="M289 -11q-94 0 -154 60q-41 41 -61 104t-20 169v8q0 175 69.5 278t189.5 103q89 0 169 -63l-40 -60q-64 54 -132 54q-85 0 -132.5 -83.5t-48.5 -215.5q60 95 170 95q89 0 150 -58t61 -156v-2q0 -101 -63.5 -167t-157.5 -66zM290 56q65 0 104.5 46.5t39.5 116.5v2
q0 68 -40.5 110t-104.5 42q-65 0 -107 -43.5t-42 -109.5v-2q0 -70 41.5 -116t108.5 -46z" />
    <glyph glyph-name="seven" unicode="7" horiz-adv-x="512" 
d="M114 0l270 630h-328v70h409v-57l-270 -643h-81z" />
    <glyph glyph-name="eight" unicode="8" horiz-adv-x="545" 
d="M272 -10q-98 0 -163 55t-65 141v3q0 61 34.5 105.5t92.5 67.5q-107 53 -107 161v3q0 81 61 132.5t147 51.5q87 0 147.5 -51.5t60.5 -132.5v-3q0 -109 -106 -161q58 -24 92.5 -68t34.5 -104v-3q0 -88 -65 -142.5t-164 -54.5zM272 390q57 0 96 37t39 93v2q0 54 -38.5 88.5
t-96.5 34.5t-96 -34.5t-38 -88.5v-2q0 -56 38.5 -93t95.5 -37zM272 55q70 0 112 38t42 96v2q0 59 -44.5 98t-109.5 39t-109 -39t-44 -98v-2q0 -57 42 -95.5t111 -38.5z" />
    <glyph glyph-name="nine" unicode="9" horiz-adv-x="562" 
d="M251 58q84 0 132.5 83t49.5 211q-60 -97 -169 -97q-92 0 -152 59t-60 158v2q0 102 63 169.5t158 67.5t154 -61q81 -81 81 -272v-8q0 -177 -71 -279t-188 -102q-93 0 -178 69l39 60q71 -60 141 -60zM273 319q65 0 107 45t42 113v2q0 72 -41.5 118.5t-109.5 46.5
q-65 0 -104 -48t-39 -119v-2q0 -71 40.5 -113.5t104.5 -42.5z" />
    <glyph glyph-name="colon" unicode=":" horiz-adv-x="232" 
d="M71 418v102h90v-102h-90zM71 0v103h90v-103h-90z" />
    <glyph glyph-name="semicolon" unicode=";" horiz-adv-x="232" 
d="M71 418v102h90v-102h-90zM55 -121l-12 34q69 25 65 87h-37v103h90v-88q0 -58 -25 -90t-81 -46z" />
    <glyph glyph-name="less" unicode="&#x3c;" horiz-adv-x="542" 
d="M464 108l-408 212v64l408 212v-77l-329 -166l329 -167v-78z" />
    <glyph glyph-name="equal" unicode="=" horiz-adv-x="542" 
d="M65 421v71h412v-71h-412zM65 212v71h412v-71h-412z" />
    <glyph glyph-name="greater" unicode="&#x3e;" horiz-adv-x="542" 
d="M78 108v77l330 166l-330 167v78l408 -212v-64z" />
    <glyph glyph-name="question" unicode="?" horiz-adv-x="467" 
d="M185 196l-13 166l5 5q84 8 129 45.5t45 100.5v2q0 55 -36.5 90t-95.5 35q-82 0 -151 -76l-45 50q87 94 200 94q91 0 147.5 -53.5t56.5 -136.5v-3q0 -83 -51 -133t-133 -67l-10 -119h-48zM165 0v103h89v-103h-89z" />
    <glyph glyph-name="at" unicode="@" horiz-adv-x="875" 
d="M438 -153q-168 0 -279.5 116t-111.5 293q0 186 116 320.5t287 134.5q161 0 269.5 -109.5t108.5 -261.5q0 -121 -52 -195t-125 -74q-49 0 -81 24.5t-41 64.5q-65 -89 -150 -89q-64 0 -107 46t-43 121q0 108 63.5 187t144.5 79q90 0 126 -85l14 71l63 -10l-42 -236
q-7 -36 -7 -63q0 -33 18.5 -52.5t51.5 -19.5q54 0 93 65t39 166q0 135 -98 236.5t-245 101.5q-105 0 -190.5 -59t-132 -155.5t-46.5 -207.5q0 -164 100.5 -270.5t257.5 -106.5q116 0 218 61l17 -27q-110 -66 -236 -66zM395 129q48 0 88 40q27 27 44.5 70t17.5 88
q0 51 -28.5 84t-72.5 33q-48 0 -88 -40q-27 -27 -43.5 -71.5t-16.5 -89.5q0 -54 27 -84t72 -30z" />
    <glyph glyph-name="A" unicode="A" horiz-adv-x="674" 
d="M33 0l267 704h74l267 -704h-80l-68 184h-315l-68 -184h-77zM203 252h265l-132 355z" />
    <glyph glyph-name="B" unicode="B" horiz-adv-x="618" 
d="M84 0v700h237q113 0 173 -60q46 -46 46 -115v-2q0 -117 -115 -163q145 -42 145 -168v-3q0 -88 -66.5 -138.5t-177.5 -50.5h-242zM464 513v2q0 54 -39 85.5t-108 31.5h-158v-246h151q71 0 112.5 33.5t41.5 93.5zM494 196q0 59 -45 91.5t-129 32.5h-161v-252h170
q76 0 120.5 33.5t44.5 92.5v2z" />
    <glyph glyph-name="C" unicode="C" horiz-adv-x="615" 
d="M359 -10q-131 0 -216.5 99t-85.5 257v6q0 158 87.5 258t219.5 100q120 0 213 -86l-46 -57q-76 73 -168 73q-98 0 -163 -80.5t-65 -206.5v-4q0 -128 65 -208.5t163 -80.5q92 0 173 78l45 -52q-98 -96 -222 -96z" />
    <glyph glyph-name="D" unicode="D" horiz-adv-x="668" 
d="M84 0v700h198q146 0 237.5 -96t91.5 -250v-7q0 -154 -91.5 -250.5t-237.5 -96.5h-198zM280 631h-121v-562h121q115 0 184 76t69 201v7q0 125 -69.5 201.5t-183.5 76.5z" />
    <glyph glyph-name="E" unicode="E" horiz-adv-x="566" 
d="M84 0v700h427v-69h-352v-244h316v-68h-316v-250h357v-69h-432z" />
    <glyph glyph-name="F" unicode="F" horiz-adv-x="550" 
d="M84 0v700h423v-69h-348v-254h311v-69h-311v-308h-75z" />
    <glyph glyph-name="G" unicode="G" horiz-adv-x="667" 
d="M371 -10q-142 0 -228 98.5t-86 257.5v7q0 154 87.5 255.5t224.5 101.5q120 0 212 -75l-45 -60q-74 65 -169 65q-100 0 -166 -81t-66 -206v-5q0 -132 65.5 -211t173.5 -79q87 0 151 50v197h-175v67h247v-300q-101 -82 -226 -82z" />
    <glyph glyph-name="H" unicode="H" horiz-adv-x="656" 
d="M84 0v700h75v-313h338v313h75v-700h-75v317h-338v-317h-75z" />
    <glyph glyph-name="I" unicode="I" horiz-adv-x="256" 
d="M91 0v700h75v-700h-75z" />
    <glyph glyph-name="J" unicode="J" horiz-adv-x="461" 
d="M198 -9q-113 0 -175 99l52 47q51 -76 124 -76q51 0 81.5 36.5t30.5 104.5v498h75v-498q0 -105 -55 -160q-51 -51 -133 -51z" />
    <glyph glyph-name="K" unicode="K" horiz-adv-x="616" 
d="M84 0v700h75v-404l332 404h93l-255 -306l269 -394h-91l-230 333l-118 -137v-196h-75z" />
    <glyph glyph-name="L" unicode="L" horiz-adv-x="519" 
d="M84 0v700h75v-631h325v-69h-400z" />
    <glyph glyph-name="M" unicode="M" horiz-adv-x="751" 
d="M84 0v700h78l213 -375l214 375h78v-700h-75v564l-216 -374h-3l-216 374v-564h-73z" />
    <glyph glyph-name="N" unicode="N" horiz-adv-x="679" 
d="M84 0v700h71l366 -551v551h74v-700h-63l-375 564v-564h-73z" />
    <glyph glyph-name="O" unicode="O" horiz-adv-x="716" 
d="M358 -11q-133 0 -217 100.5t-84 255.5v8q0 155 84.5 256.5t217.5 101.5t216.5 -100.5t83.5 -255.5v-8q0 -156 -84 -257t-217 -101zM359 58q97 0 160 81t63 207v7q0 126 -63.5 207.5t-160.5 81.5t-160 -81t-63 -207v-7q0 -126 63.5 -207.5t160.5 -81.5z" />
    <glyph glyph-name="P" unicode="P" horiz-adv-x="577" 
d="M84 0v700h211q112 0 179 -59.5t67 -162.5v-2q0 -107 -71.5 -167.5t-183.5 -61.5h-127v-247h-75zM159 315h129q81 0 129 43.5t48 115.5v1q0 75 -46.5 115.5t-127.5 40.5h-132v-316z" />
    <glyph glyph-name="Q" unicode="Q" horiz-adv-x="717" 
d="M670 32l-50 -52l-80 76q-78 -67 -182 -67q-133 0 -217 100.5t-84 255.5v8q0 155 84.5 256.5t217.5 101.5t216.5 -100.5t83.5 -255.5v-8q0 -141 -73 -241zM360 58q73 0 129 47l-112 101l49 52l107 -102q49 77 49 190v7q0 126 -63.5 207.5t-160.5 81.5t-160 -81t-63 -207
v-7q0 -127 63.5 -208t161.5 -81z" />
    <glyph glyph-name="R" unicode="R" horiz-adv-x="621" 
d="M84 0v700h239q121 0 184 -65q55 -55 55 -144v-2q0 -80 -45 -131.5t-121 -70.5l188 -287h-90l-176 272h-159v-272h-75zM159 340h151q84 0 130.5 39t46.5 107v2q0 68 -45 105.5t-124 37.5h-159v-291z" />
    <glyph glyph-name="S" unicode="S" horiz-adv-x="547" 
d="M280 -10q-137 0 -243 99l47 57q93 -87 197 -87q62 0 101 33.5t39 84.5v1q0 46 -32 77t-123 63q-111 41 -156.5 86.5t-45.5 118.5v2q0 79 59.5 132t151.5 53q119 0 210 -79l-45 -58q-79 68 -168 68q-59 0 -95.5 -31.5t-36.5 -77.5v-2q0 -47 33.5 -78t129.5 -66
q106 -39 150 -86t44 -117v-2q0 -84 -61.5 -137.5t-155.5 -53.5z" />
    <glyph glyph-name="T" unicode="T" horiz-adv-x="544" 
d="M234 0v630h-196v70h468v-70h-197v-630h-75z" />
    <glyph glyph-name="U" unicode="U" horiz-adv-x="654" 
d="M326 -11q-114 0 -182 71t-68 201v439h75v-437q0 -98 47 -151.5t130 -53.5q82 0 128.5 52t46.5 150v440h75v-435q0 -132 -68 -204t-184 -72z" />
    <glyph glyph-name="V" unicode="V" horiz-adv-x="640" 
d="M286 -5l-253 705h82l206 -596l207 596h79l-252 -705h-69z" />
    <glyph glyph-name="W" unicode="W" horiz-adv-x="956" 
d="M248 -5l-210 705h81l165 -576l163 578h64l164 -578l165 576h77l-209 -705h-66l-164 565l-164 -565h-66z" />
    <glyph glyph-name="X" unicode="X" horiz-adv-x="616" 
d="M484 700h84l-215 -340l226 -360h-86l-186 302l-186 -302h-84l226 358l-216 342h87l174 -285z" />
    <glyph glyph-name="Y" unicode="Y" horiz-adv-x="608" 
d="M266 0v282l-246 418h87l198 -342l198 342h85l-246 -416v-284h-76z" />
    <glyph glyph-name="Z" unicode="Z" horiz-adv-x="585" 
d="M55 0v51l380 581h-366v68h463v-51l-380 -581h380v-68h-477z" />
    <glyph glyph-name="bracketleft" unicode="[" horiz-adv-x="386" 
d="M88 -130v830h246v-56h-178v-718h178v-56h-246z" />
    <glyph glyph-name="backslash" unicode="\" horiz-adv-x="437" 
d="M387 -119l-390 908h66l390 -908h-66z" />
    <glyph glyph-name="bracketright" unicode="]" horiz-adv-x="386" 
d="M51 -130v56h178v718h-178v56h247v-830h-247z" />
    <glyph glyph-name="asciicircum" unicode="^" horiz-adv-x="455" 
d="M69 503l130 195h57l130 -195h-63l-96 140l-97 -140h-61z" />
    <glyph glyph-name="underscore" unicode="_" horiz-adv-x="555" 
d="M-2 -159v60h559v-60h-559z" />
    <glyph glyph-name="grave" unicode="`" horiz-adv-x="500" 
d="M262 589l-105 105l74 35l86 -140h-55z" />
    <glyph glyph-name="a" unicode="a" horiz-adv-x="503" 
d="M207 -11q-69 0 -118 44t-49 118v4q0 79 52 123.5t140 44.5q66 0 134 -21v31q0 63 -35 96t-98 33q-67 0 -133 -35l-23 59q86 42 164 42q94 0 146 -52q50 -50 50 -141v-335h-71v76q-55 -87 -159 -87zM223 49q60 -1 102 37t42 95v65q-58 21 -126 21q-61 0 -95 -29.5
t-34 -79.5v-3q0 -48 31.5 -77t79.5 -29z" />
    <glyph glyph-name="b" unicode="b" horiz-adv-x="571" 
d="M315 -10q-105 0 -169 107v-97h-72v722h72v-301q65 110 169 110q85 0 146.5 -71t61.5 -194v-10q0 -123 -61.5 -194.5t-146.5 -71.5zM301 55q64 0 106 54t42 147v8q0 92 -43 147t-105 55q-64 0 -111 -56t-47 -145v-10q0 -88 47 -144t111 -56z" />
    <glyph glyph-name="c" unicode="c" horiz-adv-x="477" 
d="M276 -11q-99 0 -164.5 74.5t-65.5 191.5v7q0 117 66.5 193t165.5 76q93 0 164 -71l-43 -54q-59 59 -122 59q-66 0 -111.5 -57t-45.5 -146v-5q0 -90 46 -146t114 -56q64 0 122 60l42 -48q-69 -78 -168 -78z" />
    <glyph glyph-name="d" unicode="d" horiz-adv-x="571" 
d="M256 -10q-85 0 -146.5 70.5t-61.5 194.5v10q0 123 61.5 194.5t146.5 71.5q105 0 169 -107v298h72v-722h-72v100q-65 -110 -169 -110zM271 55q64 0 110.5 56t46.5 145v9q0 89 -46.5 145t-110.5 56t-106.5 -54t-42.5 -147v-8q0 -92 43 -147t106 -55z" />
    <glyph glyph-name="e" unicode="e" horiz-adv-x="512" 
d="M277 -11q-98 0 -164.5 73t-66.5 194v5q0 118 61.5 194t153.5 76q97 0 153 -74.5t56 -194.5q0 -21 -1 -30h-350q6 -83 51.5 -131t109.5 -48q75 0 135 60l41 -46q-76 -78 -179 -78zM119 288h279q-4 78 -40 129t-97 51q-58 0 -97.5 -49.5t-44.5 -130.5z" />
    <glyph glyph-name="f" unicode="f" horiz-adv-x="319" 
d="M99 0v457h-64v63h64v48q0 79 40 121q37 37 101 37q36 0 69 -10v-64q-35 10 -59 10q-79 0 -79 -98v-44h136v-63h-135v-457h-73z" />
    <glyph glyph-name="g" unicode="g" horiz-adv-x="571" 
d="M267 -152q-108 0 -198 56l29 58q78 -51 168 -51q75 0 117 39.5t42 116.5v76q-66 -107 -172 -107q-84 0 -144.5 66t-60.5 179v4q0 113 61 179.5t145 66.5q105 0 171 -103v93h72v-452q0 -104 -57 -161q-60 -60 -173 -60zM270 101q63 0 110 50.5t47 130.5v3q0 81 -47 131
t-110 50q-64 0 -106 -49t-42 -132v-2q0 -82 42.5 -132t105.5 -50z" />
    <glyph glyph-name="h" unicode="h" horiz-adv-x="537" 
d="M74 0v722h72v-286q53 95 154 95q79 0 124.5 -51t45.5 -139v-341h-72v321q0 70 -31.5 107.5t-88.5 37.5q-58 0 -95 -41.5t-37 -107.5v-317h-72z" />
    <glyph glyph-name="i" unicode="i" horiz-adv-x="232" 
d="M76 628v85h80v-85h-80zM80 0v521h72v-521h-72z" />
    <glyph glyph-name="j" unicode="j" horiz-adv-x="234" 
d="M78 628v85h80v-85h-80zM34 -153q-20 0 -43 5v60q15 -3 31 -3q60 0 60 72v540h72v-545q0 -63 -30.5 -96t-89.5 -33z" />
    <glyph glyph-name="k" unicode="k" horiz-adv-x="493" 
d="M74 0v722h72v-485l231 284h87l-183 -219l190 -302h-85l-154 245l-86 -101v-144h-72z" />
    <glyph glyph-name="l" unicode="l" horiz-adv-x="232" 
d="M80 0v722h72v-722h-72z" />
    <glyph glyph-name="m" unicode="m" horiz-adv-x="831" 
d="M74 0v521h72v-83q55 93 146 93q102 0 144 -95q60 95 160 95q77 0 121.5 -50.5t44.5 -140.5v-340h-72v321q0 71 -29.5 108t-83.5 37q-53 0 -88 -40t-35 -108v-318h-72v322q0 69 -29.5 106.5t-83.5 37.5q-53 0 -88 -42t-35 -107v-317h-72z" />
    <glyph glyph-name="n" unicode="n" horiz-adv-x="537" 
d="M74 0v521h72v-85q53 95 154 95q79 0 124.5 -51t45.5 -139v-341h-72v321q0 70 -31.5 107.5t-88.5 37.5q-58 0 -95 -41.5t-37 -107.5v-317h-72z" />
    <glyph glyph-name="o" unicode="o" horiz-adv-x="555" 
d="M277 -11q-100 0 -165.5 76t-65.5 191v7q0 114 66 191t166 77t165.5 -76t65.5 -191v-6q0 -115 -66 -192t-166 -77zM278 54q69 0 113.5 58t44.5 145v5q0 87 -46 145.5t-113 58.5q-69 0 -113 -57.5t-44 -145.5v-5q0 -87 45.5 -145.5t112.5 -58.5z" />
    <glyph glyph-name="p" unicode="p" horiz-adv-x="571" 
d="M74 -150v671h72v-100q65 110 169 110q85 0 146.5 -71t61.5 -194v-10q0 -123 -61.5 -194.5t-146.5 -71.5q-105 0 -169 107v-247h-72zM301 55q64 0 106 54t42 147v8q0 92 -43 147t-105 55q-64 0 -111 -56t-47 -145v-10q0 -88 47 -144t111 -56z" />
    <glyph glyph-name="q" unicode="q" horiz-adv-x="571" 
d="M425 -150v250q-65 -110 -169 -110q-85 0 -146.5 70.5t-61.5 194.5v10q0 123 61.5 194.5t146.5 71.5q105 0 169 -107v97h72v-671h-72zM271 55q64 0 110.5 56t46.5 145v9q0 89 -46.5 145t-110.5 56t-106.5 -54t-42.5 -147v-8q0 -92 43 -147t106 -55z" />
    <glyph glyph-name="r" unicode="r" horiz-adv-x="351" 
d="M74 0v521h72v-115q24 57 71 91t108 31v-78h-4q-76 0 -125.5 -52.5t-49.5 -149.5v-248h-72z" />
    <glyph glyph-name="s" unicode="s" horiz-adv-x="428" 
d="M215 -9q-104 0 -188 73l38 53q75 -63 152 -63q43 0 70 22t27 59v1q0 32 -27 53.5t-86 45.5q-76 33 -112.5 64t-36.5 86v2q0 63 46 102.5t116 39.5q89 0 164 -56l-35 -55q-68 49 -131 49q-40 0 -65 -21t-25 -52v-2q0 -30 27 -50t89 -46q75 -33 110.5 -66t35.5 -87v-2
q0 -68 -48.5 -109t-120.5 -41z" />
    <glyph glyph-name="t" unicode="t" horiz-adv-x="347" 
d="M227 -8q-59 0 -94.5 31.5t-35.5 97.5v336h-63v64h63v152h72v-152h136v-64h-136v-324q0 -75 75 -75q28 0 61 14v-62q-38 -18 -78 -18z" />
    <glyph glyph-name="u" unicode="u" horiz-adv-x="537" 
d="M237 -10q-79 0 -124.5 51t-45.5 138v342h72v-321q0 -70 31.5 -107.5t88.5 -37.5q58 0 95 41t37 107v318h72v-521h-72v85q-53 -95 -154 -95z" />
    <glyph glyph-name="v" unicode="v" horiz-adv-x="510" 
d="M223 -4l-192 525h78l146 -428l148 428h76l-191 -525h-65z" />
    <glyph glyph-name="w" unicode="w" horiz-adv-x="753" 
d="M193 -4l-156 525h76l115 -415l119 416h61l119 -416l116 415h73l-156 -525h-65l-118 406l-119 -406h-65z" />
    <glyph glyph-name="x" unicode="x" horiz-adv-x="498" 
d="M122 521l127 -203l129 203h78l-166 -253l174 -268h-81l-135 215l-135 -215h-79l172 266l-165 255h81z" />
    <glyph glyph-name="y" unicode="y" horiz-adv-x="513" 
d="M264 92l140 429h77l-185 -530q-27 -79 -62.5 -112t-89.5 -33q-49 0 -94 24l22 60q35 -19 68 -19q30 0 50.5 20t39.5 69l-200 521h78z" />
    <glyph glyph-name="z" unicode="z" horiz-adv-x="470" 
d="M45 0v47l289 412h-278v62h370v-47l-289 -412h288v-62h-380z" />
    <glyph glyph-name="braceleft" unicode="{" horiz-adv-x="421" 
d="M366 -140q-112 18 -155 61.5t-43 117.5q0 16 6 54.5t6 55.5q0 111 -113 111h-22v55h22q113 0 113 112q0 16 -6 54.5t-6 54.5q0 74 43 117.5t155 61.5l11 -49q-84 -18 -111.5 -47.5t-27.5 -90.5q0 -18 6 -53t6 -53q0 -108 -104 -134q104 -29 104 -135q0 -17 -6 -53t-6 -53
q0 -61 27 -90t112 -48z" />
    <glyph glyph-name="bar" unicode="|" horiz-adv-x="280" 
d="M110 -119v908h60v-908h-60z" />
    <glyph glyph-name="braceright" unicode="}" horiz-adv-x="421" 
d="M54 -140l-10 49q85 19 112 48t27 90q0 17 -6 53t-6 53q0 107 104 135q-104 28 -104 134q0 18 6 53t6 53q0 61 -27.5 90.5t-111.5 47.5l10 49q113 -18 155.5 -61.5t42.5 -117.5q0 -16 -5.5 -54.5t-5.5 -54.5q0 -112 112 -112h22v-55h-22q-112 0 -112 -111q0 -17 5.5 -55.5
t5.5 -54.5q0 -74 -42.5 -117.5t-155.5 -61.5z" />
    <glyph glyph-name="asciitilde" unicode="~" horiz-adv-x="425" 
d="M275 248q-26 0 -66 22q-40 21 -55 21q-16 0 -25.5 -11t-19.5 -38l-44 12q13 52 33 75.5t52 23.5q26 0 66 -22q38 -20 55 -20q16 0 26 11t20 37l44 -12q-13 -52 -33.5 -75.5t-52.5 -23.5z" />
    <glyph glyph-name="uni00A0" unicode="&#xa0;" horiz-adv-x="259" 
 />
    <glyph glyph-name="exclamdown" unicode="&#xa1;" horiz-adv-x="250" 
d="M80 597v103h89v-103h-89zM82 0v57l23 447h40l23 -447v-57h-86z" />
    <glyph glyph-name="cent" unicode="&#xa2;" horiz-adv-x="494" 
d="M349 705l-12 -86q63 -16 115 -68l-43 -53q-44 42 -83 53l-55 -402h13q69 0 129 62l41 -48q-73 -80 -175 -80h-14l-13 -89h-59l14 101q-71 25 -114 93t-43 162v6q0 116 65 191.5t164 77.5l11 80h59zM124 352q0 -68 25.5 -117t68.5 -71l54 394q-65 -4 -106.5 -59
t-41.5 -143v-4z" />
    <glyph glyph-name="sterling" unicode="&#xa3;" horiz-adv-x="549" 
d="M56 0v43l73 21v237h-74v65h74v117q0 116 58 174q52 52 137 52q113 0 180 -91l-54 -47q-53 69 -126 69q-50 0 -81 -31q-39 -38 -39 -126v-117h230v-65h-230v-234h300v-67h-448z" />
    <glyph glyph-name="yen" unicode="&#xa5;" horiz-adv-x="586" 
d="M86 267v58h151l-216 375h86l187 -340l189 340h83l-217 -375h152v-58h-171v-88h171v-59h-171v-120h-73v120h-171v59h171v88h-171z" />
    <glyph glyph-name="section" unicode="&#xa7;" horiz-adv-x="554" 
d="M379 224q69 -42 69 -102v-2q0 -58 -46.5 -93.5t-122.5 -35.5q-111 0 -190 74l42 49q67 -60 150 -60q45 0 69 18t24 47v2q0 28 -31.5 49.5t-111.5 45.5q-100 30 -140.5 62t-40.5 80v2q0 43 33 74t91 42q-68 43 -68 102v2q0 58 46 93.5t122 35.5q111 0 190 -74l-42 -49
q-65 60 -150 60q-44 0 -68 -18t-24 -47v-2q0 -28 31 -49t112 -46q100 -30 140.5 -62t40.5 -80v-2q0 -43 -33 -74t-92 -42zM331 260q44 0 73.5 21t29.5 51v3q0 26 -27 47t-95 42q-55 16 -90 16q-43 0 -73 -21t-30 -51v-3q0 -27 27.5 -47.5t95.5 -41.5q53 -16 89 -16z" />
    <glyph glyph-name="dieresis" unicode="&#xa8;" horiz-adv-x="500" 
d="M287 592v89h81v-89h-81zM132 592v89h81v-89h-81z" />
    <glyph glyph-name="copyright" unicode="&#xa9;" horiz-adv-x="737" 
d="M368 -12q-138 0 -231 103.5t-93 251.5v13q0 148 93.5 252t231.5 104t231 -103.5t93 -251.5v-12q0 -148 -93.5 -252.5t-231.5 -104.5zM368 19q126 0 209.5 94.5t83.5 231.5v12q0 136 -83 230t-209 94q-127 0 -210 -94.5t-83 -230.5v-13q0 -136 83 -230t209 -94zM374 160
q-70 0 -116 53.5t-46 137.5v5q0 84 47 138t117 54q64 0 117 -48l-32 -39q-40 38 -85 38q-48 0 -79.5 -39.5t-31.5 -102.5v-6q0 -63 32 -102.5t80 -39.5q45 0 87 39l30 -36q-52 -52 -120 -52z" />
    <glyph glyph-name="ordfeminine" unicode="&#xaa;" horiz-adv-x="348" 
d="M149 406q-38 0 -65.5 24t-27.5 66v3q0 44 29 68.5t78 24.5q38 0 68 -11v12q0 66 -68 66q-32 0 -74 -20l-15 41q48 23 94 23q54 0 84 -31q26 -26 26 -78v-182h-47v37q-31 -43 -82 -43zM158 447q31 0 52.5 19t21.5 48v31q-30 10 -64 10q-30 0 -47.5 -15t-17.5 -39v-3
q0 -23 15.5 -37t39.5 -14zM53 297v43h232v-43h-232z" />
    <glyph glyph-name="guillemotleft" unicode="&#xab;" horiz-adv-x="496" 
d="M393 42l-153 213v8l153 212l52 -30l-123 -185l123 -188zM196 42l-153 213v8l153 212l52 -30l-123 -185l124 -188z" />
    <glyph glyph-name="registered" unicode="&#xae;" horiz-adv-x="375" 
d="M188 359q-68 0 -114 50.5t-46 122.5v6q0 73 46 123.5t114 50.5t114 -50.5t46 -122.5v-6q0 -72 -46.5 -123t-113.5 -51zM188 378q60 0 99.5 45t39.5 110v6q0 65 -39.5 109.5t-99.5 44.5t-100 -45t-40 -110v-6q0 -65 39.5 -109.5t100.5 -44.5zM127 448v182h68
q29 0 47 -15.5t18 -42.5q0 -40 -38 -54l44 -70h-37l-39 64h-31v-64h-32zM159 539h33q36 0 36 31t-36 31h-33v-62z" />
    <glyph glyph-name="macron" unicode="&#xaf;" horiz-adv-x="500" 
d="M113 606v58h274v-58h-274z" />
    <glyph glyph-name="degree" unicode="&#xb0;" horiz-adv-x="397" 
d="M198 398q-57 0 -98.5 44t-41.5 108v4q0 64 41.5 108t98.5 44t99 -44t42 -108v-4q0 -64 -42 -108t-99 -44zM198 448q37 0 61.5 29.5t24.5 72.5v3q0 44 -24.5 73.5t-61.5 29.5t-61 -29.5t-24 -73.5v-3q0 -43 24.5 -72.5t60.5 -29.5z" />
    <glyph glyph-name="plusminus" unicode="&#xb1;" horiz-adv-x="542" 
d="M481 351h-176l1 -174h-69v174h-175v68l175 -1v175h69l-1 -175l176 1v-68zM480 22h-418v65h418v-65z" />
    <glyph glyph-name="two.sup" unicode="&#xb2;" 
d="M49 436v41l132 132q35 33 49.5 55.5t14.5 47.5q0 27 -19 44t-47 17q-48 0 -93 -57l-34 29q55 74 130 74q50 0 82.5 -29t32.5 -75q0 -35 -17 -62t-58 -67l-104 -103h182v-47h-251z" />
    <glyph glyph-name="three.sup" unicode="&#xb3;" 
d="M170 428q-77 0 -128 58l30 35q45 -48 99 -48q31 0 52.5 19t21.5 50q0 33 -26.5 51t-72.5 18h-23l-7 32l112 122h-168v46h232v-39l-113 -121q53 -6 85 -32.5t32 -75.5q0 -51 -36 -83t-90 -32z" />
    <glyph glyph-name="acute" unicode="&#xb4;" horiz-adv-x="500" 
d="M182 589l86 140l74 -35l-105 -105h-55z" />
    <glyph glyph-name="paragraph" unicode="&#xb6;" horiz-adv-x="457" 
d="M302 0v260h-8q-113 1 -184 59t-71 160v2q0 102 68 160.5t179 58.5h91v-700h-75z" />
    <glyph glyph-name="periodcentered" unicode="&#xb7;" horiz-adv-x="224" 
d="M67 249v104h90v-104h-90z" />
    <glyph glyph-name="cedilla" unicode="&#xb8;" horiz-adv-x="500" 
d="M229 -142l-70 31l82 124h55z" />
    <glyph glyph-name="one.sup" unicode="&#xb9;" horiz-adv-x="287" 
d="M188 436h-51v326l-79 -33l-9 45l98 42h41v-380z" />
    <glyph glyph-name="ordmasculine" unicode="&#xba;" horiz-adv-x="348" 
d="M173 406q-56 0 -91.5 42t-35.5 104v5q0 63 36.5 105.5t92.5 42.5q55 0 91 -42t36 -104v-5q0 -63 -36.5 -105.5t-92.5 -42.5zM49 297v43h250v-43h-250zM175 451q34 0 55.5 29.5t21.5 71.5v5q0 43 -22 72.5t-57 29.5t-56 -29t-21 -72v-4q0 -44 22 -73.5t57 -29.5z" />
    <glyph glyph-name="guillemotright" unicode="&#xbb;" horiz-adv-x="496" 
d="M299 42l-52 30l124 186l-124 187l52 30l154 -212v-8zM103 42l-53 30l124 186l-124 187l53 30l153 -212v-8z" />
    <glyph glyph-name="onequarter" unicode="&#xbc;" horiz-adv-x="729" 
d="M188 325h-51v326l-79 -33l-9 45l98 42h41v-380zM119 0l218 359l200 341h50l-217 -359l-200 -341h-51zM639 82v-84h-47v84h-171l-8 42l169 255h57v-255h48v-42h-48zM593 123v194h-2l-128 -194h130z" />
    <glyph glyph-name="onehalf" unicode="&#xbd;" horiz-adv-x="729" 
d="M428 0v41l132 132q35 33 49.5 55.5t14.5 47.5q0 27 -19 44t-47 17q-48 0 -93 -57l-34 29q55 74 130 74q50 0 82.5 -29t32.5 -75q0 -35 -17 -62t-58 -67l-104 -103h182v-47h-251zM105 0l218 359l200 341h50l-217 -359l-200 -341h-51zM188 325h-51v326l-79 -33l-9 45l98 42
h41v-380z" />
    <glyph glyph-name="threequarters" unicode="&#xbe;" horiz-adv-x="794" 
d="M706 82v-84h-47v84h-171l-8 42l169 255h57v-255h48v-42h-48zM660 123v194h-2l-128 -194h130zM182 0l218 359l200 341h50l-217 -359l-200 -341h-51zM171 317q-77 0 -128 58l30 35q45 -48 99 -48q31 0 52.5 19.5t21.5 50.5q0 32 -26.5 50t-72.5 18h-23l-7 32l112 122h-168
v46h232v-39l-113 -121q53 -6 85 -32.5t32 -75.5q0 -51 -36.5 -83t-89.5 -32z" />
    <glyph glyph-name="questiondown" unicode="&#xbf;" horiz-adv-x="467" 
d="M213 597v103h89v-103h-89zM245 -8q-91 0 -147.5 53.5t-56.5 136.5v3q0 83 50.5 133t132.5 67l10 119h48l13 -166l-4 -5q-85 -7 -130 -45t-45 -101v-2q0 -55 36.5 -90t95.5 -35q82 0 151 76l45 -50q-85 -94 -199 -94z" />
    <glyph glyph-name="Agrave" unicode="&#xc0;" horiz-adv-x="674" 
d="M33 0l267 704h74l267 -704h-80l-68 184h-315l-68 -184h-77zM203 252h265l-132 355zM367 762h-59l-105 89l73 34z" />
    <glyph glyph-name="Aacute" unicode="&#xc1;" horiz-adv-x="674" 
d="M33 0l267 704h74l267 -704h-80l-68 184h-315l-68 -184h-77zM203 252h265l-132 355zM306 762l90 123l74 -34l-106 -89h-58z" />
    <glyph glyph-name="Acircumflex" unicode="&#xc2;" horiz-adv-x="674" 
d="M33 0l267 704h74l267 -704h-80l-68 184h-315l-68 -184h-77zM203 252h265l-132 355zM204 761l98 114h68l98 -114h-66l-67 59l-67 -59h-64z" />
    <glyph glyph-name="Atilde" unicode="&#xc3;" horiz-adv-x="674" 
d="M33 0l267 704h74l267 -704h-80l-68 184h-315l-68 -184h-77zM203 252h265l-132 355zM404 763q-25 0 -71 21q-38 17 -51 17q-16 0 -25.5 -10t-19.5 -34l-47 13q27 94 84 94q25 0 71 -22q36 -16 51 -16q16 0 25.5 9.5t19.5 33.5l46 -13q-14 -48 -33.5 -70.5t-49.5 -22.5z
" />
    <glyph glyph-name="Adieresis" unicode="&#xc4;" horiz-adv-x="674" 
d="M33 0l267 704h74l267 -704h-80l-68 184h-315l-68 -184h-77zM203 252h265l-132 355zM377 764v86h85v-86h-85zM211 764v86h86v-86h-86z" />
    <glyph glyph-name="Aring" unicode="&#xc5;" horiz-adv-x="674" 
d="M33 0l252 665q-50 25 -50 80q0 39 30 65.5t72 26.5t72 -26.5t30 -65.5q0 -53 -51 -80l253 -665h-80l-68 184h-315l-68 -184h-77zM203 251h265l-132 356zM337 689q26 0 43 16t17 40t-17 40t-43 16t-43 -16t-17 -40t17 -40t43 -16z" />
    <glyph glyph-name="AE" unicode="&#xc6;" horiz-adv-x="887" 
d="M12 0l346 700h474v-69h-340v-244h303v-68h-303v-250h344v-69h-419v184h-237l-90 -184h-78zM213 251h204v381h-20z" />
    <glyph glyph-name="Ccedilla" unicode="&#xc7;" horiz-adv-x="615" 
d="M312 -142l-70 31l69 105q-113 17 -183.5 113t-70.5 239v6q0 158 87.5 258t219.5 100q120 0 213 -86l-46 -57q-76 73 -168 73q-98 0 -163 -80.5t-65 -206.5v-4q0 -128 65 -208.5t163 -80.5q92 0 173 78l45 -52q-94 -92 -212 -96z" />
    <glyph glyph-name="Egrave" unicode="&#xc8;" horiz-adv-x="566" 
d="M330 755h-59l-105 89l73 34zM84 0v700h427v-69h-352v-244h316v-68h-316v-250h357v-69h-432z" />
    <glyph glyph-name="Eacute" unicode="&#xc9;" horiz-adv-x="566" 
d="M269 755l90 123l74 -34l-106 -89h-58zM84 0v700h427v-69h-352v-244h316v-68h-316v-250h357v-69h-432z" />
    <glyph glyph-name="Ecircumflex" unicode="&#xca;" horiz-adv-x="566" 
d="M84 0v700h427v-69h-352v-244h316v-68h-316v-250h357v-69h-432zM167 756l98 114h68l98 -114h-66l-67 59l-67 -59h-64z" />
    <glyph glyph-name="Edieresis" unicode="&#xcb;" horiz-adv-x="566" 
d="M340 757v86h85v-86h-85zM174 757v86h86v-86h-86zM84 0v700h427v-69h-352v-244h316v-68h-316v-250h357v-69h-432z" />
    <glyph glyph-name="Igrave" unicode="&#xcc;" horiz-adv-x="256" 
d="M91 0v700h75v-700h-75zM159 755h-59l-105 89l73 34z" />
    <glyph glyph-name="Iacute" unicode="&#xcd;" horiz-adv-x="256" 
d="M91 0v700h75v-700h-75zM99 755l90 123l74 -34l-106 -89h-58z" />
    <glyph glyph-name="Icircumflex" unicode="&#xce;" horiz-adv-x="256" 
d="M91 0v700h75v-700h-75zM-3 756l98 114h68l98 -114h-66l-67 59l-67 -59h-64z" />
    <glyph glyph-name="Idieresis" unicode="&#xcf;" horiz-adv-x="256" 
d="M91 0v700h75v-700h-75zM169 757v86h85v-86h-85zM3 757v86h86v-86h-86z" />
    <glyph glyph-name="Eth" unicode="&#xd0;" horiz-adv-x="691" 
d="M107 0v318h-68v68h68v314h198q146 0 237.5 -96t91.5 -250v-7q0 -154 -91.5 -250.5t-237.5 -96.5h-198zM352 318h-170v-249h122q114 0 183 76t69 201v7q0 125 -69 201.5t-183 76.5h-122v-245h170v-68z" />
    <glyph glyph-name="Ntilde" unicode="&#xd1;" horiz-adv-x="679" 
d="M407 753q-25 0 -71 21q-38 17 -51 17q-16 0 -25.5 -10t-19.5 -34l-47 13q27 94 84 94q25 0 71 -22q36 -16 51 -16q16 0 25.5 9.5t19.5 33.5l46 -13q-14 -48 -33.5 -70.5t-49.5 -22.5zM84 0v700h71l366 -551v551h74v-700h-63l-375 564v-564h-73z" />
    <glyph glyph-name="Ograve" unicode="&#xd2;" horiz-adv-x="716" 
d="M388 762h-59l-105 89l73 34zM358 -11q-133 0 -217 100.5t-84 255.5v8q0 155 84.5 256.5t217.5 101.5t216.5 -100.5t83.5 -255.5v-8q0 -156 -84 -257t-217 -101zM359 58q97 0 160 81t63 207v7q0 126 -63.5 207.5t-160.5 81.5t-160 -81t-63 -207v-7q0 -126 63.5 -207.5
t160.5 -81.5z" />
    <glyph glyph-name="Oacute" unicode="&#xd3;" horiz-adv-x="716" 
d="M327 762l90 123l74 -34l-106 -89h-58zM358 -11q-133 0 -217 100.5t-84 255.5v8q0 155 84.5 256.5t217.5 101.5t216.5 -100.5t83.5 -255.5v-8q0 -156 -84 -257t-217 -101zM359 58q97 0 160 81t63 207v7q0 126 -63.5 207.5t-160.5 81.5t-160 -81t-63 -207v-7
q0 -126 63.5 -207.5t160.5 -81.5z" />
    <glyph glyph-name="Ocircumflex" unicode="&#xd4;" horiz-adv-x="716" 
d="M358 -11q-133 0 -217 100.5t-84 255.5v8q0 155 84.5 256.5t217.5 101.5t216.5 -100.5t83.5 -255.5v-8q0 -156 -84 -257t-217 -101zM359 58q97 0 160 81t63 207v7q0 126 -63.5 207.5t-160.5 81.5t-160 -81t-63 -207v-7q0 -126 63.5 -207.5t160.5 -81.5zM225 763l98 114h68
l98 -114h-66l-67 59l-67 -59h-64z" />
    <glyph glyph-name="Otilde" unicode="&#xd5;" horiz-adv-x="716" 
d="M426 763q-25 0 -71 21q-38 17 -51 17q-16 0 -25.5 -10t-19.5 -34l-47 13q27 94 84 94q25 0 71 -22q36 -16 51 -16q16 0 25.5 9.5t19.5 33.5l46 -13q-14 -48 -33.5 -70.5t-49.5 -22.5zM358 -11q-133 0 -217 100.5t-84 255.5v8q0 155 84.5 256.5t217.5 101.5t216.5 -100.5
t83.5 -255.5v-8q0 -156 -84 -257t-217 -101zM359 58q97 0 160 81t63 207v7q0 126 -63.5 207.5t-160.5 81.5t-160 -81t-63 -207v-7q0 -126 63.5 -207.5t160.5 -81.5z" />
    <glyph glyph-name="Odieresis" unicode="&#xd6;" horiz-adv-x="716" 
d="M398 764v86h85v-86h-85zM232 764v86h86v-86h-86zM358 -11q-133 0 -217 100.5t-84 255.5v8q0 155 84.5 256.5t217.5 101.5t216.5 -100.5t83.5 -255.5v-8q0 -156 -84 -257t-217 -101zM359 58q97 0 160 81t63 207v7q0 126 -63.5 207.5t-160.5 81.5t-160 -81t-63 -207v-7
q0 -126 63.5 -207.5t160.5 -81.5z" />
    <glyph glyph-name="multiply" unicode="&#xd7;" horiz-adv-x="542" 
d="M419 151l-148 154l-149 -154l-49 47l153 153l-153 154l50 48l149 -154l148 154l49 -47l-153 -153l153 -154z" />
    <glyph glyph-name="Oslash" unicode="&#xd8;" horiz-adv-x="716" 
d="M591 706h74l-81 -107q75 -97 75 -244v-8q0 -155 -84.5 -256.5t-217.5 -101.5q-107 0 -183 67l-49 -62h-73l80 106q-75 98 -75 245v8q0 155 84.5 256.5t217.5 101.5q105 0 183 -67zM133 348q0 -109 47 -186l320 422q-60 60 -143 60q-98 0 -161 -81t-63 -209v-6zM359 56
q98 0 161 81t63 209v6q0 108 -47 185l-319 -422q59 -59 142 -59z" />
    <glyph glyph-name="Ugrave" unicode="&#xd9;" horiz-adv-x="654" 
d="M357 752h-59l-105 89l73 34zM326 -11q-114 0 -182 71t-68 201v439h75v-437q0 -98 47 -151.5t130 -53.5q82 0 128.5 52t46.5 150v440h75v-435q0 -132 -68 -204t-184 -72z" />
    <glyph glyph-name="Uacute" unicode="&#xda;" horiz-adv-x="654" 
d="M296 752l90 123l74 -34l-106 -89h-58zM326 -11q-114 0 -182 71t-68 201v439h75v-437q0 -98 47 -151.5t130 -53.5q82 0 128.5 52t46.5 150v440h75v-435q0 -132 -68 -204t-184 -72z" />
    <glyph glyph-name="Ucircumflex" unicode="&#xdb;" horiz-adv-x="654" 
d="M326 -11q-114 0 -182 71t-68 201v439h75v-437q0 -98 47 -151.5t130 -53.5q82 0 128.5 52t46.5 150v440h75v-435q0 -132 -68 -204t-184 -72zM194 753l98 114h68l98 -114h-66l-67 59l-67 -59h-64z" />
    <glyph glyph-name="Udieresis" unicode="&#xdc;" horiz-adv-x="654" 
d="M367 754v86h85v-86h-85zM201 754v86h86v-86h-86zM326 -11q-114 0 -182 71t-68 201v439h75v-437q0 -98 47 -151.5t130 -53.5q82 0 128.5 52t46.5 150v440h75v-435q0 -132 -68 -204t-184 -72z" />
    <glyph glyph-name="Yacute" unicode="&#xdd;" horiz-adv-x="608" 
d="M266 0v282l-246 418h87l198 -342l198 342h85l-246 -416v-284h-76zM273 752l90 123l74 -34l-106 -89h-58z" />
    <glyph glyph-name="Thorn" unicode="&#xde;" horiz-adv-x="581" 
d="M84 0v700h76v-119h135q113 0 179.5 -59t66.5 -162v-2q0 -108 -72 -169t-183 -61h-127v-128h-75zM159 196h129q81 0 129 43.5t48 115.5v2q0 75 -46.5 115t-127.5 40h-132v-316z" />
    <glyph glyph-name="germandbls" unicode="&#xdf;" horiz-adv-x="540" 
d="M251 -2v59q80 4 123.5 38.5t43.5 95.5v2q0 59 -43.5 94.5t-123.5 46.5v53q132 51 132 160v2q0 52 -31.5 83t-81.5 31q-55 0 -89.5 -42t-34.5 -112v-509h-72v507q0 101 54 161t146 60q82 0 132 -49t50 -124v-3q0 -64 -35.5 -110t-91.5 -71q163 -43 163 -177v-4
q0 -89 -64.5 -140.5t-176.5 -51.5z" />
    <glyph glyph-name="agrave" unicode="&#xe0;" horiz-adv-x="503" 
d="M207 -11q-69 0 -118 44t-49 118v4q0 79 52 123.5t140 44.5q66 0 134 -21v31q0 63 -35 96t-98 33q-67 0 -133 -35l-23 59q86 42 164 42q94 0 146 -52q50 -50 50 -141v-335h-71v76q-55 -87 -159 -87zM223 49q60 -1 102 37t42 95v65q-58 21 -126 21q-61 0 -95 -29.5
t-34 -79.5v-3q0 -48 31.5 -77t79.5 -29zM227 589l-105 105l74 35l86 -140h-55z" />
    <glyph glyph-name="aacute" unicode="&#xe1;" horiz-adv-x="503" 
d="M207 -11q-69 0 -118 44t-49 118v4q0 79 52 123.5t140 44.5q66 0 134 -21v31q0 63 -35 96t-98 33q-67 0 -133 -35l-23 59q86 42 164 42q94 0 146 -52q50 -50 50 -141v-335h-71v76q-55 -87 -159 -87zM223 49q60 -1 102 37t42 95v65q-58 21 -126 21q-61 0 -95 -29.5
t-34 -79.5v-3q0 -48 31.5 -77t79.5 -29zM222 589l86 140l74 -35l-105 -105h-55z" />
    <glyph glyph-name="acircumflex" unicode="&#xe2;" horiz-adv-x="503" 
d="M207 -11q-69 0 -118 44t-49 118v4q0 79 52 123.5t140 44.5q66 0 134 -21v31q0 63 -35 96t-98 33q-67 0 -133 -35l-23 59q86 42 164 42q94 0 146 -52q50 -50 50 -141v-335h-71v76q-55 -87 -159 -87zM223 49q60 -1 102 37t42 95v65q-58 21 -126 21q-61 0 -95 -29.5
t-34 -79.5v-3q0 -48 31.5 -77t79.5 -29zM126 590l94 130h62l94 -130h-59l-67 69l-67 -69h-57z" />
    <glyph glyph-name="atilde" unicode="&#xe3;" horiz-adv-x="503" 
d="M207 -11q-69 0 -118 44t-49 118v4q0 79 52 123.5t140 44.5q66 0 134 -21v31q0 63 -35 96t-98 33q-67 0 -133 -35l-23 59q86 42 164 42q94 0 146 -52q50 -50 50 -141v-335h-71v76q-55 -87 -159 -87zM223 49q60 -1 102 37t42 95v65q-58 21 -126 21q-61 0 -95 -29.5
t-34 -79.5v-3q0 -48 31.5 -77t79.5 -29zM317 589q-25 0 -67 22q-35 20 -53 20q-16 0 -25.5 -10.5t-18.5 -37.5l-45 13q14 52 33 75t50 23q25 0 67 -22q38 -20 53 -20q16 0 25.5 10.5t18.5 36.5l45 -12q-14 -52 -33 -75t-50 -23z" />
    <glyph glyph-name="adieresis" unicode="&#xe4;" horiz-adv-x="503" 
d="M207 -11q-69 0 -118 44t-49 118v4q0 79 52 123.5t140 44.5q66 0 134 -21v31q0 63 -35 96t-98 33q-67 0 -133 -35l-23 59q86 42 164 42q94 0 146 -52q50 -50 50 -141v-335h-71v76q-55 -87 -159 -87zM223 49q60 -1 102 37t42 95v65q-58 21 -126 21q-61 0 -95 -29.5
t-34 -79.5v-3q0 -48 31.5 -77t79.5 -29zM288 592v89h81v-89h-81zM133 592v89h81v-89h-81z" />
    <glyph glyph-name="aring" unicode="&#xe5;" horiz-adv-x="503" 
d="M207 -11q-69 0 -118 44t-49 118v4q0 79 52 123.5t140 44.5q66 0 134 -21v31q0 63 -35 96t-98 33q-67 0 -133 -35l-23 59q86 42 164 42q94 0 146 -52q50 -50 50 -141v-335h-71v76q-55 -87 -159 -87zM223 49q60 -1 102 37t42 95v65q-58 21 -126 21q-61 0 -95 -29.5
t-34 -79.5v-3q0 -48 31.5 -77t79.5 -29zM251 587q-41 0 -70.5 28.5t-29.5 68.5t29.5 69t70.5 29t70.5 -29t29.5 -69t-29.5 -68.5t-70.5 -28.5zM251 621q26 0 44 18.5t18 44.5t-18.5 45t-43.5 19t-43.5 -19t-18.5 -45t18 -44.5t44 -18.5z" />
    <glyph glyph-name="ae" unicode="&#xe6;" horiz-adv-x="824" 
d="M210 -11q-71 0 -120.5 44t-49.5 119v3q0 79 51.5 123.5t138.5 44.5q62 0 129 -21v31q0 63 -33.5 96t-96.5 33t-129 -34l-23 60q83 40 160 40q131 0 168 -102q27 49 71 77t97 28q95 0 151.5 -75t56.5 -194q0 -21 -1 -30h-350q6 -84 51 -131.5t109 -47.5q76 0 136 60
l41 -46q-80 -78 -180 -78q-58 0 -106.5 28t-78.5 79q-79 -107 -192 -107zM430 288h279q-4 78 -40.5 129t-97.5 51q-57 0 -96.5 -49.5t-44.5 -130.5zM221 49q90 0 155 99q-15 48 -17 99q-62 20 -121 20q-60 0 -93 -29.5t-33 -79.5v-3q0 -48 31 -77t78 -29z" />
    <glyph glyph-name="ccedilla" unicode="&#xe7;" horiz-adv-x="477" 
d="M230 -142l-70 31l69 105q-81 17 -132 87.5t-51 173.5v7q0 117 66.5 193t165.5 76q93 0 164 -71l-43 -54q-59 59 -122 59q-66 0 -111.5 -57t-45.5 -146v-5q0 -90 46 -146t114 -56q64 0 122 60l42 -48q-65 -74 -158 -78z" />
    <glyph glyph-name="egrave" unicode="&#xe8;" horiz-adv-x="512" 
d="M277 -11q-98 0 -164.5 73t-66.5 194v5q0 118 61.5 194t153.5 76q97 0 153 -74.5t56 -194.5q0 -21 -1 -30h-350q6 -83 51.5 -131t109.5 -48q75 0 135 60l41 -46q-76 -78 -179 -78zM119 288h279q-4 78 -40 129t-97 51q-58 0 -97.5 -49.5t-44.5 -130.5zM236 589l-105 105
l74 35l86 -140h-55z" />
    <glyph glyph-name="eacute" unicode="&#xe9;" horiz-adv-x="512" 
d="M231 589l86 140l74 -35l-105 -105h-55zM277 -11q-98 0 -164.5 73t-66.5 194v5q0 118 61.5 194t153.5 76q97 0 153 -74.5t56 -194.5q0 -21 -1 -30h-350q6 -83 51.5 -131t109.5 -48q75 0 135 60l41 -46q-76 -78 -179 -78zM119 288h279q-4 78 -40 129t-97 51
q-58 0 -97.5 -49.5t-44.5 -130.5z" />
    <glyph glyph-name="ecircumflex" unicode="&#xea;" horiz-adv-x="512" 
d="M136 590l94 130h62l94 -130h-59l-67 69l-67 -69h-57zM277 -11q-98 0 -164.5 73t-66.5 194v5q0 118 61.5 194t153.5 76q97 0 153 -74.5t56 -194.5q0 -21 -1 -30h-350q6 -83 51.5 -131t109.5 -48q75 0 135 60l41 -46q-76 -78 -179 -78zM119 288h279q-4 78 -40 129t-97 51
q-58 0 -97.5 -49.5t-44.5 -130.5z" />
    <glyph glyph-name="edieresis" unicode="&#xeb;" horiz-adv-x="512" 
d="M298 592v89h81v-89h-81zM143 592v89h81v-89h-81zM277 -11q-98 0 -164.5 73t-66.5 194v5q0 118 61.5 194t153.5 76q97 0 153 -74.5t56 -194.5q0 -21 -1 -30h-350q6 -83 51.5 -131t109.5 -48q75 0 135 60l41 -46q-76 -78 -179 -78zM119 288h279q-4 78 -40 129t-97 51
q-58 0 -97.5 -49.5t-44.5 -130.5z" />
    <glyph glyph-name="igrave" unicode="&#xec;" horiz-adv-x="232" 
d="M80 0v521h72v-521h-72zM91 589l-105 105l74 35l86 -140h-55z" />
    <glyph glyph-name="iacute" unicode="&#xed;" horiz-adv-x="232" 
d="M87 589l86 140l74 -35l-105 -105h-55zM80 0v521h72v-521h-72z" />
    <glyph glyph-name="icircumflex" unicode="&#xee;" horiz-adv-x="232" 
d="M-9 590l94 130h62l94 -130h-59l-67 69l-67 -69h-57zM80 0v521h72v-521h-72z" />
    <glyph glyph-name="idieresis" unicode="&#xef;" horiz-adv-x="232" 
d="M153 592v89h81v-89h-81zM-2 592v89h81v-89h-81zM80 0v521h72v-521h-72z" />
    <glyph glyph-name="eth" unicode="&#xf0;" horiz-adv-x="555" 
d="M428 679l-78 -35q158 -177 158 -358v-8q0 -131 -65 -210t-169 -79q-96 0 -162 77t-66 193v6q0 113 62 185t147 72q80 0 146 -64q-33 73 -113 158l-101 -45l-22 46l85 38q-24 23 -76 67h99l40 -39l93 42zM277 54q68 0 112.5 57t44.5 146v5q0 88 -46 143.5t-117 55.5
q-67 0 -109 -56.5t-42 -143.5v-4q0 -86 45 -144.5t112 -58.5z" />
    <glyph glyph-name="ntilde" unicode="&#xf1;" horiz-adv-x="537" 
d="M74 0v521h72v-85q53 95 154 95q79 0 124.5 -51t45.5 -139v-341h-72v321q0 70 -31.5 107.5t-88.5 37.5q-58 0 -95 -41.5t-37 -107.5v-317h-72zM337 589q-25 0 -67 22q-35 20 -53 20q-16 0 -25.5 -10.5t-18.5 -37.5l-45 13q14 52 33 75t50 23q25 0 67 -22q38 -20 53 -20
q16 0 25.5 10.5t18.5 36.5l45 -12q-14 -52 -33 -75t-50 -23z" />
    <glyph glyph-name="ograve" unicode="&#xf2;" horiz-adv-x="555" 
d="M277 -11q-100 0 -165.5 76t-65.5 191v7q0 114 66 191t166 77t165.5 -76t65.5 -191v-6q0 -115 -66 -192t-166 -77zM278 54q69 0 113.5 58t44.5 145v5q0 87 -46 145.5t-113 58.5q-69 0 -113 -57.5t-44 -145.5v-5q0 -87 45.5 -145.5t112.5 -58.5zM253 589l-105 105l74 35
l86 -140h-55z" />
    <glyph glyph-name="oacute" unicode="&#xf3;" horiz-adv-x="555" 
d="M247 589l86 140l74 -35l-105 -105h-55zM277 -11q-100 0 -165.5 76t-65.5 191v7q0 114 66 191t166 77t165.5 -76t65.5 -191v-6q0 -115 -66 -192t-166 -77zM278 54q69 0 113.5 58t44.5 145v5q0 87 -46 145.5t-113 58.5q-69 0 -113 -57.5t-44 -145.5v-5q0 -87 45.5 -145.5
t112.5 -58.5z" />
    <glyph glyph-name="ocircumflex" unicode="&#xf4;" horiz-adv-x="555" 
d="M152 590l94 130h62l94 -130h-59l-67 69l-67 -69h-57zM277 -11q-100 0 -165.5 76t-65.5 191v7q0 114 66 191t166 77t165.5 -76t65.5 -191v-6q0 -115 -66 -192t-166 -77zM278 54q69 0 113.5 58t44.5 145v5q0 87 -46 145.5t-113 58.5q-69 0 -113 -57.5t-44 -145.5v-5
q0 -87 45.5 -145.5t112.5 -58.5z" />
    <glyph glyph-name="otilde" unicode="&#xf5;" horiz-adv-x="555" 
d="M277 -11q-100 0 -165.5 76t-65.5 191v7q0 114 66 191t166 77t165.5 -76t65.5 -191v-6q0 -115 -66 -192t-166 -77zM278 54q69 0 113.5 58t44.5 145v5q0 87 -46 145.5t-113 58.5q-69 0 -113 -57.5t-44 -145.5v-5q0 -87 45.5 -145.5t112.5 -58.5zM343 589q-25 0 -67 22
q-35 20 -53 20q-16 0 -25.5 -10.5t-18.5 -37.5l-45 13q14 52 33 75t50 23q25 0 67 -22q38 -20 53 -20q16 0 25.5 10.5t18.5 36.5l45 -12q-14 -52 -33 -75t-50 -23z" />
    <glyph glyph-name="odieresis" unicode="&#xf6;" horiz-adv-x="555" 
d="M314 592v89h81v-89h-81zM159 592v89h81v-89h-81zM277 -11q-100 0 -165.5 76t-65.5 191v7q0 114 66 191t166 77t165.5 -76t65.5 -191v-6q0 -115 -66 -192t-166 -77zM278 54q69 0 113.5 58t44.5 145v5q0 87 -46 145.5t-113 58.5q-69 0 -113 -57.5t-44 -145.5v-5
q0 -87 45.5 -145.5t112.5 -58.5z" />
    <glyph glyph-name="divide" unicode="&#xf7;" horiz-adv-x="542" 
d="M225 483v98h92v-98h-92zM486 318h-430v68h430v-68zM225 123v98h92v-98h-92z" />
    <glyph glyph-name="oslash" unicode="&#xf8;" horiz-adv-x="555" 
d="M451 527h69l-67 -85q56 -74 56 -178v-6q0 -115 -66.5 -192t-165.5 -77q-78 0 -138 49l-35 -43h-68l65 83q-55 74 -55 178v7q0 114 66.5 191t165.5 77q77 0 137 -49zM278 53q70 0 115 58t45 146v4q0 70 -31 125l-227 -293q43 -40 98 -40zM118 259q0 -70 29 -123l228 291
q-43 41 -98 41q-70 0 -114.5 -58.5t-44.5 -146.5v-4z" />
    <glyph glyph-name="ugrave" unicode="&#xf9;" horiz-adv-x="537" 
d="M237 -10q-79 0 -124.5 51t-45.5 138v342h72v-321q0 -70 31.5 -107.5t88.5 -37.5q58 0 95 41t37 107v318h72v-521h-72v85q-53 -95 -154 -95zM240 588l-105 105l74 35l86 -140h-55z" />
    <glyph glyph-name="uacute" unicode="&#xfa;" horiz-adv-x="537" 
d="M234 588l86 140l74 -35l-105 -105h-55zM237 -10q-79 0 -124.5 51t-45.5 138v342h72v-321q0 -70 31.5 -107.5t88.5 -37.5q58 0 95 41t37 107v318h72v-521h-72v85q-53 -95 -154 -95z" />
    <glyph glyph-name="ucircumflex" unicode="&#xfb;" horiz-adv-x="537" 
d="M139 589l94 130h62l94 -130h-59l-67 69l-67 -69h-57zM237 -10q-79 0 -124.5 51t-45.5 138v342h72v-321q0 -70 31.5 -107.5t88.5 -37.5q58 0 95 41t37 107v318h72v-521h-72v85q-53 -95 -154 -95z" />
    <glyph glyph-name="udieresis" unicode="&#xfc;" horiz-adv-x="537" 
d="M301 591v89h81v-89h-81zM146 591v89h81v-89h-81zM237 -10q-79 0 -124.5 51t-45.5 138v342h72v-321q0 -70 31.5 -107.5t88.5 -37.5q58 0 95 41t37 107v318h72v-521h-72v85q-53 -95 -154 -95z" />
    <glyph glyph-name="yacute" unicode="&#xfd;" horiz-adv-x="513" 
d="M264 92l140 429h77l-185 -530q-27 -79 -62.5 -112t-89.5 -33q-49 0 -94 24l22 60q35 -19 68 -19q30 0 50.5 20t39.5 69l-200 521h78zM228 588l86 140l74 -35l-105 -105h-55z" />
    <glyph glyph-name="thorn" unicode="&#xfe;" horiz-adv-x="571" 
d="M74 -150v872h72v-301q65 110 168 110q85 0 147 -71.5t62 -193.5v-10q0 -122 -62 -194t-147 -72q-104 0 -168 107v-247h-72zM299 55q64 0 107 54.5t43 146.5v8q0 90 -43.5 146t-106.5 56t-109.5 -56.5t-46.5 -144.5v-10q0 -88 46.5 -144t109.5 -56z" />
    <glyph glyph-name="ydieresis" unicode="&#xff;" horiz-adv-x="513" 
d="M264 92l140 429h77l-185 -530q-27 -79 -62.5 -112t-89.5 -33q-49 0 -94 24l22 60q35 -19 68 -19q30 0 50.5 20t39.5 69l-200 521h78zM295 591v89h81v-89h-81zM140 591v89h81v-89h-81z" />
    <glyph glyph-name="Amacron" unicode="&#x100;" horiz-adv-x="674" 
d="M33 0l267 704h74l267 -704h-80l-68 184h-315l-68 -184h-77zM203 252h265l-132 355zM190 779v61h292v-61h-292z" />
    <glyph glyph-name="amacron" unicode="&#x101;" horiz-adv-x="503" 
d="M207 -11q-69 0 -118 44t-49 118v4q0 79 52 123.5t140 44.5q66 0 134 -21v31q0 63 -35 96t-98 33q-67 0 -133 -35l-23 59q86 42 164 42q94 0 146 -52q50 -50 50 -141v-335h-71v76q-55 -87 -159 -87zM223 49q60 -1 102 37t42 95v65q-58 21 -126 21q-61 0 -95 -29.5
t-34 -79.5v-3q0 -48 31.5 -77t79.5 -29zM114 606v58h274v-58h-274z" />
    <glyph glyph-name="Abreve" unicode="&#x102;" horiz-adv-x="674" 
d="M33 0l267 704h74l267 -704h-80l-68 184h-315l-68 -184h-77zM203 252h265l-132 355zM336 761q-57 0 -93.5 27.5t-40.5 77.5h56q16 -47 78 -47t78 47h56q-4 -50 -40.5 -77.5t-93.5 -27.5z" />
    <glyph glyph-name="abreve" unicode="&#x103;" horiz-adv-x="503" 
d="M207 -11q-69 0 -118 44t-49 118v4q0 79 52 123.5t140 44.5q66 0 134 -21v31q0 63 -35 96t-98 33q-67 0 -133 -35l-23 59q86 42 164 42q94 0 146 -52q50 -50 50 -141v-335h-71v76q-55 -87 -159 -87zM223 49q60 -1 102 37t42 95v65q-58 21 -126 21q-61 0 -95 -29.5
t-34 -79.5v-3q0 -48 31.5 -77t79.5 -29zM251 588q-56 0 -92 30.5t-41 85.5h53q17 -59 80 -59t80 59h53q-5 -55 -41 -85.5t-92 -30.5z" />
    <glyph glyph-name="Aogonek" unicode="&#x104;" horiz-adv-x="674" 
d="M646 -108v-44q-7 -1 -16 -1q-54 1 -82 20.5t-28 51.5q0 39 44 81h-3l-68 184h-315l-68 -184h-77l267 704h74l267 -704h-19q-40 -39 -40 -68q0 -37 64 -40zM203 252h265l-132 355z" />
    <glyph glyph-name="aogonek" unicode="&#x105;" horiz-adv-x="503" 
d="M446 -108v-44q-7 -1 -16 -1q-54 1 -82 20.5t-28 51.5q0 41 46 82v75q-55 -87 -159 -87q-69 0 -118 44t-49 118v4q0 79 52 123.5t140 44.5q66 0 134 -21v31q0 63 -35 96t-98 33q-67 0 -133 -35l-23 59q86 42 164 42q94 0 146 -52q50 -50 50 -141v-335h-15q-40 -39 -40 -68
q0 -37 64 -40zM223 49q60 -1 102 37t42 95v65q-58 21 -126 21q-61 0 -95 -29.5t-34 -79.5v-3q0 -48 31.5 -77t79.5 -29z" />
    <glyph glyph-name="Cacute" unicode="&#x106;" horiz-adv-x="615" 
d="M359 -10q-131 0 -216.5 99t-85.5 257v6q0 158 87.5 258t219.5 100q120 0 213 -86l-46 -57q-76 73 -168 73q-98 0 -163 -80.5t-65 -206.5v-4q0 -128 65 -208.5t163 -80.5q92 0 173 78l45 -52q-98 -96 -222 -96zM320 762l90 123l74 -34l-106 -89h-58z" />
    <glyph glyph-name="cacute" unicode="&#x107;" horiz-adv-x="477" 
d="M239 589l86 140l74 -35l-105 -105h-55zM276 -11q-99 0 -164.5 74.5t-65.5 191.5v7q0 117 66.5 193t165.5 76q93 0 164 -71l-43 -54q-59 59 -122 59q-66 0 -111.5 -57t-45.5 -146v-5q0 -90 46 -146t114 -56q64 0 122 60l42 -48q-69 -78 -168 -78z" />
    <glyph glyph-name="Cdotaccent" unicode="&#x10a;" horiz-adv-x="615" 
d="M306 764v86h88v-86h-88zM359 -10q-131 0 -216.5 99t-85.5 257v6q0 158 87.5 258t219.5 100q120 0 213 -86l-46 -57q-76 73 -168 73q-98 0 -163 -80.5t-65 -206.5v-4q0 -128 65 -208.5t163 -80.5q92 0 173 78l45 -52q-98 -96 -222 -96z" />
    <glyph glyph-name="cdotaccent" unicode="&#x10b;" horiz-adv-x="477" 
d="M276 -11q-99 0 -164.5 74.5t-65.5 191.5v7q0 117 66.5 193t165.5 76q93 0 164 -71l-43 -54q-59 59 -122 59q-66 0 -111.5 -57t-45.5 -146v-5q0 -90 46 -146t114 -56q64 0 122 60l42 -48q-69 -78 -168 -78zM227 592v89h84v-89h-84z" />
    <glyph glyph-name="Ccaron" unicode="&#x10c;" horiz-adv-x="615" 
d="M359 -10q-131 0 -216.5 99t-85.5 257v6q0 158 87.5 258t219.5 100q120 0 213 -86l-46 -57q-76 73 -168 73q-98 0 -163 -80.5t-65 -206.5v-4q0 -128 65 -208.5t163 -80.5q92 0 173 78l45 -52q-98 -96 -222 -96zM482 877l-98 -114h-68l-98 114h66l67 -59l67 59h64z" />
    <glyph glyph-name="ccaron" unicode="&#x10d;" horiz-adv-x="477" 
d="M394 720l-94 -130h-62l-94 130h59l67 -69l67 69h57zM276 -11q-99 0 -164.5 74.5t-65.5 191.5v7q0 117 66.5 193t165.5 76q93 0 164 -71l-43 -54q-59 59 -122 59q-66 0 -111.5 -57t-45.5 -146v-5q0 -90 46 -146t114 -56q64 0 122 60l42 -48q-69 -78 -168 -78z" />
    <glyph glyph-name="Dcaron" unicode="&#x10e;" horiz-adv-x="668" 
d="M84 0v700h198q146 0 237.5 -96t91.5 -250v-7q0 -154 -91.5 -250.5t-237.5 -96.5h-198zM280 631h-121v-562h121q115 0 184 76t69 201v7q0 125 -69.5 201.5t-183.5 76.5zM452 870l-98 -114h-68l-98 114h66l67 -59l67 59h64z" />
    <glyph glyph-name="dcaron" unicode="&#x10f;" horiz-adv-x="571" 
d="M550 576l13 160h66v-3l-45 -157h-34zM256 -10q-85 0 -146.5 70.5t-61.5 194.5v10q0 123 61.5 194.5t146.5 71.5q105 0 169 -107v298h72v-722h-72v100q-65 -110 -169 -110zM271 55q64 0 110.5 56t46.5 145v9q0 89 -46.5 145t-110.5 56t-106.5 -54t-42.5 -147v-8
q0 -92 43 -147t106 -55z" />
    <glyph glyph-name="Dcroat" unicode="&#x110;" horiz-adv-x="691" 
d="M107 0v318h-68v68h68v314h198q146 0 237.5 -96t91.5 -250v-7q0 -154 -91.5 -250.5t-237.5 -96.5h-198zM352 318h-170v-249h122q114 0 183 76t69 201v7q0 125 -69 201.5t-183 76.5h-122v-245h170v-68z" />
    <glyph glyph-name="dcroat" unicode="&#x111;" horiz-adv-x="571" 
d="M274 606v53h151v63h72v-63h61v-53h-61v-606h-72v100q-65 -110 -168 -110q-85 0 -147 71.5t-62 193.5v10q0 122 62 194t147 72q103 0 168 -107v182h-151zM272 55q63 0 109 56t46 144v10q0 89 -46 145t-109 56q-64 0 -107 -54.5t-43 -146.5v-8q0 -91 43.5 -146.5
t106.5 -55.5z" />
    <glyph glyph-name="Emacron" unicode="&#x112;" horiz-adv-x="566" 
d="M153 772v61h292v-61h-292zM84 0v700h427v-69h-352v-244h316v-68h-316v-250h357v-69h-432z" />
    <glyph glyph-name="emacron" unicode="&#x113;" horiz-adv-x="512" 
d="M277 -11q-98 0 -164.5 73t-66.5 194v5q0 118 61.5 194t153.5 76q97 0 153 -74.5t56 -194.5q0 -21 -1 -30h-350q6 -83 51.5 -131t109.5 -48q75 0 135 60l41 -46q-76 -78 -179 -78zM119 288h279q-4 78 -40 129t-97 51q-58 0 -97.5 -49.5t-44.5 -130.5zM124 606v58h274v-58
h-274z" />
    <glyph glyph-name="Ebreve" unicode="&#x114;" horiz-adv-x="566" 
d="M299 754q-57 0 -93.5 27.5t-40.5 77.5h56q16 -47 78 -47t78 47h56q-4 -50 -40.5 -77.5t-93.5 -27.5zM84 0v700h427v-69h-352v-244h316v-68h-316v-250h357v-69h-432z" />
    <glyph glyph-name="ebreve" unicode="&#x115;" horiz-adv-x="512" 
d="M277 -11q-98 0 -164.5 73t-66.5 194v5q0 118 61.5 194t153.5 76q97 0 153 -74.5t56 -194.5q0 -21 -1 -30h-350q6 -83 51.5 -131t109.5 -48q75 0 135 60l41 -46q-76 -78 -179 -78zM119 288h279q-4 78 -40 129t-97 51q-58 0 -97.5 -49.5t-44.5 -130.5zM261 588
q-56 0 -92 30.5t-41 85.5h53q17 -59 80 -59t80 59h53q-5 -55 -41 -85.5t-92 -30.5z" />
    <glyph glyph-name="Edotaccent" unicode="&#x116;" horiz-adv-x="566" 
d="M255 757v86h88v-86h-88zM84 0v700h427v-69h-352v-244h316v-68h-316v-250h357v-69h-432z" />
    <glyph glyph-name="edotaccent" unicode="&#x117;" horiz-adv-x="512" 
d="M277 -11q-98 0 -164.5 73t-66.5 194v5q0 118 61.5 194t153.5 76q97 0 153 -74.5t56 -194.5q0 -21 -1 -30h-350q6 -83 51.5 -131t109.5 -48q75 0 135 60l41 -46q-76 -78 -179 -78zM119 288h279q-4 78 -40 129t-97 51q-58 0 -97.5 -49.5t-44.5 -130.5zM219 592v89h84v-89
h-84z" />
    <glyph glyph-name="Eogonek" unicode="&#x118;" horiz-adv-x="566" 
d="M84 0v700h427v-69h-352v-244h316v-68h-316v-250h357v-69h-26q-40 -39 -40 -68q0 -37 64 -40v-44q-7 -1 -16 -1q-54 1 -82 20.5t-28 51.5q0 39 44 81h-348z" />
    <glyph glyph-name="eogonek" unicode="&#x119;" horiz-adv-x="512" 
d="M415 113l41 -46l-42 -41q-60 -51 -60 -91q0 -22 15 -31.5t49 -11.5v-44q-7 -1 -17 -1q-53 1 -81 20.5t-28 52.5q0 35 37 75q-24 -6 -52 -6q-98 0 -164.5 73t-66.5 194v5q0 118 61.5 194t153.5 76q97 0 153 -74.5t56 -194.5q0 -24 -1 -30h-350q6 -83 51.5 -131t109.5 -48
q75 0 135 60zM119 288h279q-4 78 -40 129t-97 51q-58 0 -97.5 -49.5t-44.5 -130.5z" />
    <glyph glyph-name="Ecaron" unicode="&#x11a;" horiz-adv-x="566" 
d="M431 870l-98 -114h-68l-98 114h66l67 -59l67 59h64zM84 0v700h427v-69h-352v-244h316v-68h-316v-250h357v-69h-432z" />
    <glyph glyph-name="ecaron" unicode="&#x11b;" horiz-adv-x="512" 
d="M386 720l-94 -130h-62l-94 130h59l67 -69l67 69h57zM277 -11q-98 0 -164.5 73t-66.5 194v5q0 118 61.5 194t153.5 76q97 0 153 -74.5t56 -194.5q0 -21 -1 -30h-350q6 -83 51.5 -131t109.5 -48q75 0 135 60l41 -46q-76 -78 -179 -78zM119 288h279q-4 78 -40 129t-97 51
q-58 0 -97.5 -49.5t-44.5 -130.5z" />
    <glyph glyph-name="Gbreve" unicode="&#x11e;" horiz-adv-x="667" 
d="M355 761q-57 0 -93.5 27.5t-40.5 77.5h56q16 -47 78 -47t78 47h56q-4 -50 -40.5 -77.5t-93.5 -27.5zM371 -10q-142 0 -228 98.5t-86 257.5v7q0 154 87.5 255.5t224.5 101.5q120 0 212 -75l-45 -60q-74 65 -169 65q-100 0 -166 -81t-66 -206v-5q0 -132 65.5 -211
t173.5 -79q87 0 151 50v197h-175v67h247v-300q-101 -82 -226 -82z" />
    <glyph glyph-name="gbreve" unicode="&#x11f;" horiz-adv-x="571" 
d="M267 -152q-108 0 -198 56l29 58q78 -51 168 -51q75 0 117 39.5t42 116.5v76q-66 -107 -172 -107q-84 0 -144.5 66t-60.5 179v4q0 113 61 179.5t145 66.5q105 0 171 -103v93h72v-452q0 -104 -57 -161q-60 -60 -173 -60zM270 101q63 0 110 50.5t47 130.5v3q0 81 -47 131
t-110 50q-64 0 -106 -49t-42 -132v-2q0 -82 42.5 -132t105.5 -50zM289 588q-56 0 -92 30.5t-41 85.5h53q17 -59 80 -59t80 59h53q-5 -55 -41 -85.5t-92 -30.5z" />
    <glyph glyph-name="Gdotaccent" unicode="&#x120;" horiz-adv-x="667" 
d="M311 764v86h88v-86h-88zM371 -10q-142 0 -228 98.5t-86 257.5v7q0 154 87.5 255.5t224.5 101.5q120 0 212 -75l-45 -60q-74 65 -169 65q-100 0 -166 -81t-66 -206v-5q0 -132 65.5 -211t173.5 -79q87 0 151 50v197h-175v67h247v-300q-101 -82 -226 -82z" />
    <glyph glyph-name="gdotaccent" unicode="&#x121;" horiz-adv-x="571" 
d="M267 -152q-108 0 -198 56l29 58q78 -51 168 -51q75 0 117 39.5t42 116.5v76q-66 -107 -172 -107q-84 0 -144.5 66t-60.5 179v4q0 113 61 179.5t145 66.5q105 0 171 -103v93h72v-452q0 -104 -57 -161q-60 -60 -173 -60zM270 101q63 0 110 50.5t47 130.5v3q0 81 -47 131
t-110 50q-64 0 -106 -49t-42 -132v-2q0 -82 42.5 -132t105.5 -50zM247 592v89h84v-89h-84z" />
    <glyph glyph-name="Gcommaaccent" unicode="&#x122;" horiz-adv-x="667" 
d="M305 -229l-8 28q56 13 52 58h-36v78h82v-69q0 -82 -90 -95zM371 -10q-142 0 -228 98.5t-86 257.5v7q0 154 87.5 255.5t224.5 101.5q120 0 212 -75l-45 -60q-74 65 -169 65q-100 0 -166 -81t-66 -206v-5q0 -132 65.5 -211t173.5 -79q87 0 151 50v197h-175v67h247v-300
q-101 -82 -226 -82z" />
    <glyph glyph-name="gcommaaccent" unicode="&#x123;" horiz-adv-x="571" 
d="M337 758l8 -28q-56 -13 -52 -58h36v-78h-82v69q0 82 90 95zM267 -152q-108 0 -198 56l29 58q78 -51 168 -51q75 0 117 39.5t42 116.5v76q-66 -107 -172 -107q-84 0 -144.5 66t-60.5 179v4q0 113 61 179.5t145 66.5q105 0 171 -103v93h72v-452q0 -104 -57 -161
q-60 -60 -173 -60zM270 101q63 0 110 50.5t47 130.5v3q0 81 -47 131t-110 50q-64 0 -106 -49t-42 -132v-2q0 -82 42.5 -132t105.5 -50z" />
    <glyph glyph-name="Hbar" unicode="&#x126;" horiz-adv-x="691" 
d="M35 520v60h66v120h75v-120h338v120h75v-120h67v-60h-67v-520h-75v315h-338v-315h-75v520h-66zM176 384h338v137h-338v-137z" />
    <glyph glyph-name="hbar" unicode="&#x127;" horiz-adv-x="537" 
d="M297 606h-151v-170q53 95 153 95q80 0 125.5 -52t45.5 -139v-340h-72v323q0 67 -31.5 105t-88.5 38q-58 0 -95 -41.5t-37 -107.5v-317h-72v606h-62v53h62v63h72v-63h151v-53z" />
    <glyph glyph-name="Imacron" unicode="&#x12a;" horiz-adv-x="256" 
d="M91 0v700h75v-700h-75zM-17 772v61h292v-61h-292z" />
    <glyph glyph-name="imacron" unicode="&#x12b;" horiz-adv-x="232" 
d="M80 0v521h72v-521h-72zM-21 606v58h274v-58h-274z" />
    <glyph glyph-name="Ibreve" unicode="&#x12c;" horiz-adv-x="256" 
d="M91 0v700h75v-700h-75zM129 754q-57 0 -93.5 27.5t-40.5 77.5h56q16 -47 78 -47t78 47h56q-4 -50 -40.5 -77.5t-93.5 -27.5z" />
    <glyph glyph-name="ibreve" unicode="&#x12d;" horiz-adv-x="232" 
d="M80 0v521h72v-521h-72zM116 588q-56 0 -92 30.5t-41 85.5h53q17 -59 80 -59t80 59h53q-5 -55 -41 -85.5t-92 -30.5z" />
    <glyph glyph-name="Iogonek" unicode="&#x12e;" horiz-adv-x="256" 
d="M91 0v700h75v-700h-11q-40 -39 -40 -68q0 -37 64 -40v-44q-7 -1 -16 -1q-54 1 -82 20.5t-28 51.5q0 39 44 81h-6z" />
    <glyph glyph-name="iogonek" unicode="&#x12f;" horiz-adv-x="232" 
d="M80 0v521h72v-521h-9q-40 -39 -40 -68q0 -37 64 -40v-44q-7 -1 -16 -1q-54 1 -82 20.5t-28 51.5q0 39 44 81h-5zM76 628v85h80v-85h-80z" />
    <glyph glyph-name="Idotaccent" unicode="&#x130;" horiz-adv-x="256" 
d="M91 0v700h75v-700h-75zM85 757v86h88v-86h-88z" />
    <glyph glyph-name="dotlessi" unicode="&#x131;" horiz-adv-x="232" 
d="M80 0v521h72v-521h-72z" />
    <glyph glyph-name="Kcommaaccent" unicode="&#x136;" horiz-adv-x="616" 
d="M262 -224l-8 28q56 13 52 58h-36v78h82v-69q0 -81 -90 -95zM84 0v700h75v-404l332 404h93l-255 -306l269 -394h-91l-230 333l-118 -137v-196h-75z" />
    <glyph glyph-name="kcommaaccent" unicode="&#x137;" horiz-adv-x="493" 
d="M208 -227l-8 28q56 13 52 58h-36v78h82v-69q0 -82 -90 -95zM74 0v722h72v-485l231 284h87l-183 -219l190 -302h-85l-154 245l-86 -101v-144h-72z" />
    <glyph glyph-name="Lacute" unicode="&#x139;" horiz-adv-x="519" 
d="M104 755l90 123l74 -34l-106 -89h-58zM84 0v700h75v-631h325v-69h-400z" />
    <glyph glyph-name="lacute" unicode="&#x13a;" horiz-adv-x="232" 
d="M89 768l90 123l74 -34l-106 -89h-58zM80 0v722h72v-722h-72z" />
    <glyph glyph-name="Lcommaaccent" unicode="&#x13b;" horiz-adv-x="519" 
d="M231 -228l-8 28q56 13 52 58h-36v78h82v-69q0 -81 -90 -95zM84 0v700h75v-631h325v-69h-400z" />
    <glyph glyph-name="lcommaaccent" unicode="&#x13c;" horiz-adv-x="232" 
d="M67 -228l-8 28q56 13 52 58h-36v78h82v-69q0 -81 -90 -95zM80 0v722h72v-722h-72z" />
    <glyph glyph-name="Lcaron" unicode="&#x13d;" horiz-adv-x="519" 
d="M234 540l13 160h66v-3l-45 -157h-34zM84 0v700h75v-631h325v-69h-400z" />
    <glyph glyph-name="lcaron" unicode="&#x13e;" horiz-adv-x="232" 
d="M205 576l13 160h66v-3l-45 -157h-34zM80 0v722h72v-722h-72z" />
    <glyph glyph-name="Ldot" unicode="&#x13f;" horiz-adv-x="519" 
d="M350 321v90h83v-90h-83zM84 0v700h75v-631h325v-69h-400z" />
    <glyph glyph-name="ldot" unicode="&#x140;" horiz-adv-x="297" 
d="M227 320v90h76v-90h-76zM80 0v722h72v-722h-72z" />
    <glyph glyph-name="Lslash" unicode="&#x141;" horiz-adv-x="543" 
d="M331 394l-150 -75v-250h325v-69h-399v282l-68 -34v74l68 34v344h74v-307l150 76v-75z" />
    <glyph glyph-name="lslash" unicode="&#x142;" horiz-adv-x="278" 
d="M244 389l-69 -39v-350h-72v309l-70 -39v74l70 39v339h72v-299l69 40v-74z" />
    <glyph glyph-name="Nacute" unicode="&#x143;" horiz-adv-x="679" 
d="M309 752l90 123l74 -34l-106 -89h-58zM84 0v700h71l366 -551v551h74v-700h-63l-375 564v-564h-73z" />
    <glyph glyph-name="nacute" unicode="&#x144;" horiz-adv-x="537" 
d="M241 589l86 140l74 -35l-105 -105h-55zM74 0v521h72v-85q53 95 154 95q79 0 124.5 -51t45.5 -139v-341h-72v321q0 70 -31.5 107.5t-88.5 37.5q-58 0 -95 -41.5t-37 -107.5v-317h-72z" />
    <glyph glyph-name="Ncommaaccent" unicode="&#x145;" horiz-adv-x="679" 
d="M289 -224l-8 28q56 13 52 58h-36v78h82v-69q0 -81 -90 -95zM84 0v700h71l366 -551v551h74v-700h-63l-375 564v-564h-73z" />
    <glyph glyph-name="ncommaaccent" unicode="&#x146;" horiz-adv-x="537" 
d="M221 -227l-8 28q56 13 52 58h-36v78h82v-69q0 -82 -90 -95zM74 0v521h72v-85q53 95 154 95q79 0 124.5 -51t45.5 -139v-341h-72v321q0 70 -31.5 107.5t-88.5 37.5q-58 0 -95 -41.5t-37 -107.5v-317h-72z" />
    <glyph glyph-name="Ncaron" unicode="&#x147;" horiz-adv-x="679" 
d="M470 867l-98 -114h-68l-98 114h66l67 -59l67 59h64zM84 0v700h71l366 -551v551h74v-700h-63l-375 564v-564h-73z" />
    <glyph glyph-name="ncaron" unicode="&#x148;" horiz-adv-x="537" 
d="M396 720l-94 -130h-62l-94 130h59l67 -69l67 69h57zM74 0v521h72v-85q53 95 154 95q79 0 124.5 -51t45.5 -139v-341h-72v321q0 70 -31.5 107.5t-88.5 37.5q-58 0 -95 -41.5t-37 -107.5v-317h-72z" />
    <glyph glyph-name="Omacron" unicode="&#x14c;" horiz-adv-x="716" 
d="M211 779v61h292v-61h-292zM358 -11q-133 0 -217 100.5t-84 255.5v8q0 155 84.5 256.5t217.5 101.5t216.5 -100.5t83.5 -255.5v-8q0 -156 -84 -257t-217 -101zM359 58q97 0 160 81t63 207v7q0 126 -63.5 207.5t-160.5 81.5t-160 -81t-63 -207v-7q0 -126 63.5 -207.5
t160.5 -81.5z" />
    <glyph glyph-name="omacron" unicode="&#x14d;" horiz-adv-x="555" 
d="M140 606v58h274v-58h-274zM277 -11q-100 0 -165.5 76t-65.5 191v7q0 114 66 191t166 77t165.5 -76t65.5 -191v-6q0 -115 -66 -192t-166 -77zM278 54q69 0 113.5 58t44.5 145v5q0 87 -46 145.5t-113 58.5q-69 0 -113 -57.5t-44 -145.5v-5q0 -87 45.5 -145.5t112.5 -58.5z
" />
    <glyph glyph-name="Obreve" unicode="&#x14e;" horiz-adv-x="716" 
d="M357 761q-57 0 -93.5 27.5t-40.5 77.5h56q16 -47 78 -47t78 47h56q-4 -50 -40.5 -77.5t-93.5 -27.5zM358 -11q-133 0 -217 100.5t-84 255.5v8q0 155 84.5 256.5t217.5 101.5t216.5 -100.5t83.5 -255.5v-8q0 -156 -84 -257t-217 -101zM359 58q97 0 160 81t63 207v7
q0 126 -63.5 207.5t-160.5 81.5t-160 -81t-63 -207v-7q0 -126 63.5 -207.5t160.5 -81.5z" />
    <glyph glyph-name="obreve" unicode="&#x14f;" horiz-adv-x="555" 
d="M277 -11q-100 0 -165.5 76t-65.5 191v7q0 114 66 191t166 77t165.5 -76t65.5 -191v-6q0 -115 -66 -192t-166 -77zM278 54q69 0 113.5 58t44.5 145v5q0 87 -46 145.5t-113 58.5q-69 0 -113 -57.5t-44 -145.5v-5q0 -87 45.5 -145.5t112.5 -58.5zM277 588q-56 0 -92 30.5
t-41 85.5h53q17 -59 80 -59t80 59h53q-5 -55 -41 -85.5t-92 -30.5z" />
    <glyph glyph-name="Ohungarumlaut" unicode="&#x150;" horiz-adv-x="716" 
d="M358 -11q-133 0 -217 100.5t-84 255.5v8q0 155 84.5 256.5t217.5 101.5t216.5 -100.5t83.5 -255.5v-8q0 -156 -84 -257t-217 -101zM359 58q97 0 160 81t63 207v7q0 126 -63.5 207.5t-160.5 81.5t-160 -81t-63 -207v-7q0 -126 63.5 -207.5t160.5 -81.5zM252 762l91 123
l71 -34l-104 -89h-58zM389 762l91 123l71 -34l-105 -89h-57z" />
    <glyph glyph-name="ohungarumlaut" unicode="&#x151;" horiz-adv-x="555" 
d="M308 589l86 140l69 -34l-101 -106h-54zM175 589l86 140l69 -34l-101 -106h-54zM277 -11q-100 0 -165.5 76t-65.5 191v7q0 114 66 191t166 77t165.5 -76t65.5 -191v-6q0 -115 -66 -192t-166 -77zM278 54q69 0 113.5 58t44.5 145v5q0 87 -46 145.5t-113 58.5
q-69 0 -113 -57.5t-44 -145.5v-5q0 -87 45.5 -145.5t112.5 -58.5z" />
    <glyph glyph-name="OE" unicode="&#x152;" horiz-adv-x="958" 
d="M386 0q-146 0 -237.5 96t-91.5 250v7q0 154 91.5 250.5t237.5 96.5h517v-69h-340v-244h304v-68h-304v-250h344v-69h-521zM386 69h102v562h-102q-114 0 -182.5 -76t-68.5 -201v-7q0 -125 69 -201.5t182 -76.5z" />
    <glyph glyph-name="oe" unicode="&#x153;" horiz-adv-x="901" 
d="M275 -11q-97 0 -163 76.5t-66 190.5v7q0 114 66.5 191t164.5 77q63 0 113.5 -35t77.5 -95q26 61 74 95.5t108 34.5q95 0 151.5 -75t56.5 -194q0 -21 -1 -30h-350q6 -84 51 -131.5t110 -47.5q75 0 135 60l41 -46q-80 -78 -179 -78q-64 0 -116.5 35t-80.5 97
q-28 -60 -79 -96t-114 -36zM507 288h279q-4 78 -40.5 129t-97.5 51q-57 0 -96.5 -49.5t-44.5 -130.5zM278 54q68 0 112 58t44 145v5q0 88 -45 146t-113 58t-112 -57.5t-44 -145.5v-5q0 -88 45 -146t113 -58z" />
    <glyph glyph-name="Racute" unicode="&#x154;" horiz-adv-x="621" 
d="M84 0v700h239q121 0 184 -65q55 -55 55 -144v-2q0 -80 -45 -131.5t-121 -70.5l188 -287h-90l-176 272h-159v-272h-75zM159 340h151q84 0 130.5 39t46.5 107v2q0 68 -45 105.5t-124 37.5h-159v-291zM269 755l90 123l74 -34l-106 -89h-58z" />
    <glyph glyph-name="racute" unicode="&#x155;" horiz-adv-x="351" 
d="M158 589l86 140l74 -35l-105 -105h-55zM74 0v521h72v-115q24 57 71 91t108 31v-78h-4q-76 0 -125.5 -52.5t-49.5 -149.5v-248h-72z" />
    <glyph glyph-name="Rcommaaccent" unicode="&#x156;" horiz-adv-x="621" 
d="M84 0v700h239q121 0 184 -65q55 -55 55 -144v-2q0 -80 -45 -131.5t-121 -70.5l188 -287h-90l-176 272h-159v-272h-75zM159 340h151q84 0 130.5 39t46.5 107v2q0 68 -45 105.5t-124 37.5h-159v-291zM251 -224l-8 28q56 13 52 58h-36v78h82v-69q0 -81 -90 -95z" />
    <glyph glyph-name="rcommaaccent" unicode="&#x157;" horiz-adv-x="351" 
d="M67 -228l-8 28q56 13 52 58h-36v78h82v-69q0 -81 -90 -95zM74 0v521h72v-115q24 57 71 91t108 31v-78h-4q-76 0 -125.5 -52.5t-49.5 -149.5v-248h-72z" />
    <glyph glyph-name="Rcaron" unicode="&#x158;" horiz-adv-x="621" 
d="M84 0v700h239q121 0 184 -65q55 -55 55 -144v-2q0 -80 -45 -131.5t-121 -70.5l188 -287h-90l-176 272h-159v-272h-75zM159 340h151q84 0 130.5 39t46.5 107v2q0 68 -45 105.5t-124 37.5h-159v-291zM431 870l-98 -114h-68l-98 114h66l67 -59l67 59h64z" />
    <glyph glyph-name="rcaron" unicode="&#x159;" horiz-adv-x="351" 
d="M313 720l-94 -130h-62l-94 130h59l67 -69l67 69h57zM74 0v521h72v-115q24 57 71 91t108 31v-78h-4q-76 0 -125.5 -52.5t-49.5 -149.5v-248h-72z" />
    <glyph glyph-name="Sacute" unicode="&#x15a;" horiz-adv-x="547" 
d="M280 -10q-137 0 -243 99l47 57q93 -87 197 -87q62 0 101 33.5t39 84.5v1q0 46 -32 77t-123 63q-111 41 -156.5 86.5t-45.5 118.5v2q0 79 59.5 132t151.5 53q119 0 210 -79l-45 -58q-79 68 -168 68q-59 0 -95.5 -31.5t-36.5 -77.5v-2q0 -47 33.5 -78t129.5 -66
q106 -39 150 -86t44 -117v-2q0 -84 -61.5 -137.5t-155.5 -53.5zM250 762l90 123l74 -34l-106 -89h-58z" />
    <glyph glyph-name="sacute" unicode="&#x15b;" horiz-adv-x="428" 
d="M187 589l86 140l74 -35l-105 -105h-55zM215 -9q-104 0 -188 73l38 53q75 -63 152 -63q43 0 70 22t27 59v1q0 32 -27 53.5t-86 45.5q-76 33 -112.5 64t-36.5 86v2q0 63 46 102.5t116 39.5q89 0 164 -56l-35 -55q-68 49 -131 49q-40 0 -65 -21t-25 -52v-2q0 -30 27 -50
t89 -46q75 -33 110.5 -66t35.5 -87v-2q0 -68 -48.5 -109t-120.5 -41z" />
    <glyph glyph-name="Scedilla" unicode="&#x15e;" horiz-adv-x="547" 
d="M252 -142l-70 31l67 103q-120 9 -212 97l47 57q93 -87 197 -87q62 0 101 33.5t39 84.5v1q0 46 -32 77t-123 63q-111 41 -156.5 86.5t-45.5 118.5v2q0 79 59.5 132t151.5 53q119 0 210 -79l-45 -58q-79 68 -168 68q-59 0 -95.5 -31.5t-36.5 -77.5v-2q0 -47 33.5 -78
t129.5 -66q106 -39 150 -86t44 -117v-2q0 -77 -52 -129t-135 -60z" />
    <glyph glyph-name="scedilla" unicode="&#x15f;" horiz-adv-x="428" 
d="M182 -142l-70 31l69 105q-86 10 -154 70l38 53q75 -63 152 -63q43 0 70 22t27 59v1q0 32 -27 53.5t-86 45.5q-76 33 -112.5 64t-36.5 86v2q0 63 46 102.5t116 39.5q89 0 164 -56l-35 -55q-68 49 -131 49q-40 0 -65 -21t-25 -52v-2q0 -30 27 -50t89 -46q75 -33 110.5 -66
t35.5 -87v-2q0 -62 -40.5 -102t-103.5 -46z" />
    <glyph glyph-name="Scaron" unicode="&#x160;" horiz-adv-x="547" 
d="M280 -10q-137 0 -243 99l47 57q93 -87 197 -87q62 0 101 33.5t39 84.5v1q0 46 -32 77t-123 63q-111 41 -156.5 86.5t-45.5 118.5v2q0 79 59.5 132t151.5 53q119 0 210 -79l-45 -58q-79 68 -168 68q-59 0 -95.5 -31.5t-36.5 -77.5v-2q0 -47 33.5 -78t129.5 -66
q106 -39 150 -86t44 -117v-2q0 -84 -61.5 -137.5t-155.5 -53.5zM412 877l-98 -114h-68l-98 114h66l67 -59l67 59h64z" />
    <glyph glyph-name="scaron" unicode="&#x161;" horiz-adv-x="428" 
d="M342 720l-94 -130h-62l-94 130h59l67 -69l67 69h57zM215 -9q-104 0 -188 73l38 53q75 -63 152 -63q43 0 70 22t27 59v1q0 32 -27 53.5t-86 45.5q-76 33 -112.5 64t-36.5 86v2q0 63 46 102.5t116 39.5q89 0 164 -56l-35 -55q-68 49 -131 49q-40 0 -65 -21t-25 -52v-2
q0 -30 27 -50t89 -46q75 -33 110.5 -66t35.5 -87v-2q0 -68 -48.5 -109t-120.5 -41z" />
    <glyph glyph-name="Tcommaaccent" unicode="&#x162;" horiz-adv-x="544" 
d="M222 -228l-8 28q56 13 52 58h-36v78h82v-69q0 -81 -90 -95zM234 0v630h-196v70h468v-70h-197v-630h-75z" />
    <glyph glyph-name="tcommaaccent" unicode="&#x163;" horiz-adv-x="347" 
d="M146 -228l-8 28q56 13 52 58h-36v78h82v-69q0 -81 -90 -95zM227 -8q-59 0 -94.5 31.5t-35.5 97.5v336h-63v64h63v152h72v-152h136v-64h-136v-324q0 -75 75 -75q28 0 61 14v-62q-38 -18 -78 -18z" />
    <glyph glyph-name="Tcaron" unicode="&#x164;" horiz-adv-x="544" 
d="M403 870l-98 -114h-68l-98 114h66l67 -59l67 59h64zM234 0v630h-196v70h468v-70h-197v-630h-75z" />
    <glyph glyph-name="tcaron" unicode="&#x165;" horiz-adv-x="347" 
d="M242 576l13 160h66v-3l-45 -157h-34zM227 -8q-59 0 -94.5 31.5t-35.5 97.5v336h-63v64h63v152h72v-152h136v-64h-136v-324q0 -75 75 -75q28 0 61 14v-62q-38 -18 -78 -18z" />
    <glyph glyph-name="Umacron" unicode="&#x16a;" horiz-adv-x="654" 
d="M180 769v61h292v-61h-292zM326 -11q-114 0 -182 71t-68 201v439h75v-437q0 -98 47 -151.5t130 -53.5q82 0 128.5 52t46.5 150v440h75v-435q0 -132 -68 -204t-184 -72z" />
    <glyph glyph-name="umacron" unicode="&#x16b;" horiz-adv-x="537" 
d="M237 -10q-79 0 -124.5 51t-45.5 138v342h72v-321q0 -70 31.5 -107.5t88.5 -37.5q58 0 95 41t37 107v318h72v-521h-72v85q-53 -95 -154 -95zM127 605v58h274v-58h-274z" />
    <glyph glyph-name="Ubreve" unicode="&#x16c;" horiz-adv-x="654" 
d="M326 749q-57 0 -93.5 27.5t-40.5 77.5h56q16 -47 78 -47t78 47h56q-4 -50 -40.5 -77.5t-93.5 -27.5zM326 -11q-114 0 -182 71t-68 201v439h75v-437q0 -98 47 -151.5t130 -53.5q82 0 128.5 52t46.5 150v440h75v-435q0 -132 -68 -204t-184 -72z" />
    <glyph glyph-name="ubreve" unicode="&#x16d;" horiz-adv-x="537" 
d="M237 -10q-79 0 -124.5 51t-45.5 138v342h72v-321q0 -70 31.5 -107.5t88.5 -37.5q58 0 95 41t37 107v318h72v-521h-72v85q-53 -95 -154 -95zM264 587q-56 0 -92 30.5t-41 85.5h53q17 -59 80 -59t80 59h53q-5 -55 -41 -85.5t-92 -30.5z" />
    <glyph glyph-name="Uring" unicode="&#x16e;" horiz-adv-x="654" 
d="M326 -11q-114 0 -182 71t-68 201v439h75v-437q0 -98 47 -151.5t130 -53.5q82 0 128.5 52t46.5 150v440h75v-435q0 -132 -68 -204t-184 -72zM326 738q-42 0 -72 26.5t-30 65.5t30 65.5t72 26.5t72 -26.5t30 -65.5t-30 -65.5t-72 -26.5zM326 773q26 0 43 16.5t17 40.5
t-17 40t-43 16t-43 -16t-17 -40t17 -40.5t43 -16.5z" />
    <glyph glyph-name="uring" unicode="&#x16f;" horiz-adv-x="537" 
d="M264 576q-41 0 -70.5 28.5t-29.5 68.5t29.5 69t70.5 29t70.5 -29t29.5 -69t-29.5 -68.5t-70.5 -28.5zM264 610q26 0 44 18.5t18 44.5t-18.5 45t-43.5 19t-43.5 -19t-18.5 -45t18 -44.5t44 -18.5zM237 -10q-79 0 -124.5 51t-45.5 138v342h72v-321q0 -70 31.5 -107.5
t88.5 -37.5q58 0 95 41t37 107v318h72v-521h-72v85q-53 -95 -154 -95z" />
    <glyph glyph-name="Uhungarumlaut" unicode="&#x170;" horiz-adv-x="654" 
d="M326 -11q-114 0 -182 71t-68 201v439h75v-437q0 -98 47 -151.5t130 -53.5q82 0 128.5 52t46.5 150v440h75v-435q0 -132 -68 -204t-184 -72zM220 752l91 123l71 -34l-104 -89h-58zM357 752l91 123l71 -34l-105 -89h-57z" />
    <glyph glyph-name="uhungarumlaut" unicode="&#x171;" horiz-adv-x="537" 
d="M237 -10q-79 0 -124.5 51t-45.5 138v342h72v-321q0 -70 31.5 -107.5t88.5 -37.5q58 0 95 41t37 107v318h72v-521h-72v85q-53 -95 -154 -95zM295 588l86 140l69 -34l-101 -106h-54zM162 588l86 140l69 -34l-101 -106h-54z" />
    <glyph glyph-name="Uogonek" unicode="&#x172;" horiz-adv-x="654" 
d="M384 -108v-44q-7 -1 -16 -1q-54 1 -82 20.5t-28 51.5q0 35 35 72q-100 10 -158.5 80t-58.5 190v439h75v-437q0 -98 47 -151.5t130 -53.5q82 0 128.5 52t46.5 150v440h75v-435q0 -125 -61 -196t-166 -79q-31 -34 -31 -58q0 -37 64 -40z" />
    <glyph glyph-name="uogonek" unicode="&#x173;" horiz-adv-x="537" 
d="M237 -10q-79 0 -124.5 51t-45.5 138v342h72v-321q0 -70 31.5 -107.5t88.5 -37.5q58 0 95 41t37 107v318h72v-521h-13q-40 -39 -40 -68q0 -37 64 -40v-44q-7 -1 -16 -1q-54 1 -82 20.5t-28 51.5q0 39 44 81h-1v85q-53 -95 -154 -95z" />
    <glyph glyph-name="Wcircumflex" unicode="&#x174;" horiz-adv-x="956" 
d="M248 -5l-210 705h81l165 -576l163 578h64l164 -578l165 576h77l-209 -705h-66l-164 565l-164 -565h-66zM345 756l98 114h68l98 -114h-66l-67 59l-67 -59h-64z" />
    <glyph glyph-name="wcircumflex" unicode="&#x175;" horiz-adv-x="753" 
d="M251 589l94 130h62l94 -130h-59l-67 69l-67 -69h-57zM193 -4l-156 525h76l115 -415l119 416h61l119 -416l116 415h73l-156 -525h-65l-118 406l-119 -406h-65z" />
    <glyph glyph-name="Ycircumflex" unicode="&#x176;" horiz-adv-x="608" 
d="M266 0v282l-246 418h87l198 -342l198 342h85l-246 -416v-284h-76zM172 753l98 114h68l98 -114h-66l-67 59l-67 -59h-64z" />
    <glyph glyph-name="ycircumflex" unicode="&#x177;" horiz-adv-x="513" 
d="M264 92l140 429h77l-185 -530q-27 -79 -62.5 -112t-89.5 -33q-49 0 -94 24l22 60q35 -19 68 -19q30 0 50.5 20t39.5 69l-200 521h78zM133 589l94 130h62l94 -130h-59l-67 69l-67 -69h-57z" />
    <glyph glyph-name="Ydieresis" unicode="&#x178;" horiz-adv-x="608" 
d="M266 0v282l-246 418h87l198 -342l198 342h85l-246 -416v-284h-76zM344 754v86h85v-86h-85zM178 754v86h86v-86h-86z" />
    <glyph glyph-name="Zacute" unicode="&#x179;" horiz-adv-x="585" 
d="M55 0v51l380 581h-366v68h463v-51l-380 -581h380v-68h-477zM269 755l90 123l74 -34l-106 -89h-58z" />
    <glyph glyph-name="zacute" unicode="&#x17a;" horiz-adv-x="470" 
d="M209 589l86 140l74 -35l-105 -105h-55zM45 0v47l289 412h-278v62h370v-47l-289 -412h288v-62h-380z" />
    <glyph glyph-name="Zdotaccent" unicode="&#x17b;" horiz-adv-x="585" 
d="M255 757v86h88v-86h-88zM55 0v51l380 581h-366v68h463v-51l-380 -581h380v-68h-477z" />
    <glyph glyph-name="zdotaccent" unicode="&#x17c;" horiz-adv-x="470" 
d="M45 0v47l289 412h-278v62h370v-47l-289 -412h288v-62h-380zM197 592v89h84v-89h-84z" />
    <glyph glyph-name="Zcaron" unicode="&#x17d;" horiz-adv-x="585" 
d="M431 870l-98 -114h-68l-98 114h66l67 -59l67 59h64zM55 0v51l380 581h-366v68h463v-51l-380 -581h380v-68h-477z" />
    <glyph glyph-name="zcaron" unicode="&#x17e;" horiz-adv-x="470" 
d="M364 720l-94 -130h-62l-94 130h59l67 -69l67 69h57zM45 0v47l289 412h-278v62h370v-47l-289 -412h288v-62h-380z" />
    <glyph glyph-name="florin" unicode="&#x192;" horiz-adv-x="457" 
d="M81 -5q-27 0 -50 5v63q26 -4 42 -4q58 0 70 74l38 243h-84v62h94l20 128q11 71 45.5 105t96.5 34q42 0 75 -11v-64q-35 10 -64 10q-35 0 -54 -20.5t-26 -65.5l-18 -116h129v-62h-139l-39 -251q-11 -67 -44 -98.5t-92 -31.5z" />
    <glyph glyph-name="Aringacute" unicode="&#x1fa;" horiz-adv-x="674" 
d="M33 0l252 665q-50 25 -50 80q0 39 30 65.5t72 26.5t72 -26.5t30 -65.5q0 -53 -51 -80l253 -665h-80l-68 184h-315l-68 -184h-77zM203 251h265l-132 356zM337 689q26 0 43 16t17 40t-17 40t-43 16t-43 -16t-17 -40t17 -40t43 -16zM304 864l92 108l72 -34l-104 -74h-60z
" />
    <glyph glyph-name="aringacute" unicode="&#x1fb;" horiz-adv-x="503" 
d="M221 810l88 119l71 -35l-102 -84h-57zM207 -11q-69 0 -118 44t-49 118v4q0 79 52 123.5t140 44.5q66 0 134 -21v31q0 63 -35 96t-98 33q-67 0 -133 -35l-23 59q86 42 164 42q94 0 146 -52q50 -50 50 -141v-335h-71v76q-55 -87 -159 -87zM223 49q60 -1 102 37t42 95v65
q-58 21 -126 21q-61 0 -95 -29.5t-34 -79.5v-3q0 -48 31.5 -77t79.5 -29zM251 587q-41 0 -70.5 28.5t-29.5 68.5t29.5 69t70.5 29t70.5 -29t29.5 -69t-29.5 -68.5t-70.5 -28.5zM251 621q26 0 44 18.5t18 44.5t-18.5 45t-43.5 19t-43.5 -19t-18.5 -45t18 -44.5t44 -18.5z" />
    <glyph glyph-name="AEacute" unicode="&#x1fc;" horiz-adv-x="887" 
d="M495 755l90 123l74 -34l-106 -89h-58zM12 0l346 700h474v-69h-340v-244h303v-68h-303v-250h344v-69h-419v184h-237l-90 -184h-78zM213 251h204v381h-20z" />
    <glyph glyph-name="aeacute" unicode="&#x1fd;" horiz-adv-x="824" 
d="M380 589l86 140l74 -35l-105 -105h-55zM210 -11q-71 0 -120.5 44t-49.5 119v3q0 79 51.5 123.5t138.5 44.5q62 0 129 -21v31q0 63 -33.5 96t-96.5 33t-129 -34l-23 60q83 40 160 40q131 0 168 -102q27 49 71 77t97 28q95 0 151.5 -75t56.5 -194q0 -21 -1 -30h-350
q6 -84 51 -131.5t109 -47.5q76 0 136 60l41 -46q-80 -78 -180 -78q-58 0 -106.5 28t-78.5 79q-79 -107 -192 -107zM430 288h279q-4 78 -40.5 129t-97.5 51q-57 0 -96.5 -49.5t-44.5 -130.5zM221 49q90 0 155 99q-15 48 -17 99q-62 20 -121 20q-60 0 -93 -29.5t-33 -79.5v-3
q0 -48 31 -77t78 -29z" />
    <glyph glyph-name="Oslashacute" unicode="&#x1fe;" horiz-adv-x="716" 
d="M591 706h74l-81 -107q75 -97 75 -244v-8q0 -155 -84.5 -256.5t-217.5 -101.5q-107 0 -183 67l-49 -62h-73l80 106q-75 98 -75 245v8q0 155 84.5 256.5t217.5 101.5q105 0 183 -67zM133 348q0 -109 47 -186l320 422q-60 60 -143 60q-98 0 -161 -81t-63 -209v-6zM359 56
q98 0 161 81t63 209v6q0 108 -47 185l-319 -422q59 -59 142 -59zM328 762l90 123l74 -34l-106 -89h-58z" />
    <glyph glyph-name="oslashacute" unicode="&#x1ff;" horiz-adv-x="555" 
d="M451 527h69l-67 -85q56 -74 56 -178v-6q0 -115 -66.5 -192t-165.5 -77q-78 0 -138 49l-35 -43h-68l65 83q-55 74 -55 178v7q0 114 66.5 191t165.5 77q77 0 137 -49zM278 53q70 0 115 58t45 146v4q0 70 -31 125l-227 -293q43 -40 98 -40zM118 259q0 -70 29 -123l228 291
q-43 41 -98 41q-70 0 -114.5 -58.5t-44.5 -146.5v-4zM247 589l86 140l74 -35l-105 -105h-55z" />
    <glyph glyph-name="Scommaaccent" unicode="&#x218;" horiz-adv-x="547" 
d="M226 -228l-8 28q56 13 52 58h-36v78h82v-69q0 -81 -90 -95zM280 -10q-137 0 -243 99l47 57q93 -87 197 -87q62 0 101 33.5t39 84.5v1q0 46 -32 77t-123 63q-111 41 -156.5 86.5t-45.5 118.5v2q0 79 59.5 132t151.5 53q119 0 210 -79l-45 -58q-79 68 -168 68
q-59 0 -95.5 -31.5t-36.5 -77.5v-2q0 -47 33.5 -78t129.5 -66q106 -39 150 -86t44 -117v-2q0 -84 -61.5 -137.5t-155.5 -53.5z" />
    <glyph glyph-name="scommaaccent" unicode="&#x219;" horiz-adv-x="428" 
d="M166 -228l-8 28q56 13 52 58h-36v78h82v-69q0 -81 -90 -95zM215 -9q-104 0 -188 73l38 53q75 -63 152 -63q43 0 70 22t27 59v1q0 32 -27 53.5t-86 45.5q-76 33 -112.5 64t-36.5 86v2q0 63 46 102.5t116 39.5q89 0 164 -56l-35 -55q-68 49 -131 49q-40 0 -65 -21t-25 -52
v-2q0 -30 27 -50t89 -46q75 -33 110.5 -66t35.5 -87v-2q0 -68 -48.5 -109t-120.5 -41z" />
    <glyph glyph-name="schwa" unicode="&#x259;" horiz-adv-x="512" 
d="M235 531q98 0 164.5 -73t66.5 -194v-5q0 -118 -61.5 -194t-153.5 -76q-97 0 -153 74.5t-56 194.5q0 21 1 30h350q-6 83 -51.5 131t-109.5 48q-75 0 -135 -60l-41 46q76 78 179 78zM393 232h-279q4 -78 40 -129t97 -51q58 0 97.5 49.5t44.5 130.5z" />
    <glyph glyph-name="circumflex" unicode="&#x2c6;" horiz-adv-x="500" 
d="M125 590l94 130h62l94 -130h-59l-67 69l-67 -69h-57z" />
    <glyph glyph-name="caron" unicode="&#x2c7;" horiz-adv-x="500" 
d="M375 720l-94 -130h-62l-94 130h59l67 -69l67 69h57z" />
    <glyph glyph-name="breve" unicode="&#x2d8;" horiz-adv-x="500" 
d="M250 588q-56 0 -92 30.5t-41 85.5h53q17 -59 80 -59t80 59h53q-5 -55 -41 -85.5t-92 -30.5z" />
    <glyph glyph-name="dotaccent" unicode="&#x2d9;" horiz-adv-x="500" 
d="M208 592v89h84v-89h-84z" />
    <glyph glyph-name="ring" unicode="&#x2da;" horiz-adv-x="500" 
d="M250 587q-41 0 -70.5 28.5t-29.5 68.5t29.5 69t70.5 29t70.5 -29t29.5 -69t-29.5 -68.5t-70.5 -28.5zM250 621q26 0 44 18.5t18 44.5t-18.5 45t-43.5 19t-43.5 -19t-18.5 -45t18 -44.5t44 -18.5z" />
    <glyph glyph-name="ogonek" unicode="&#x2db;" horiz-adv-x="500" 
d="M319 -108v-44q-7 -1 -16 -1q-54 1 -82 20.5t-28 51.5q0 43 58 93l49 -8q-45 -44 -45 -72q0 -37 64 -40z" />
    <glyph glyph-name="tilde" unicode="&#x2dc;" horiz-adv-x="500" 
d="M313 589q-25 0 -67 22q-35 20 -53 20q-16 0 -25.5 -10.5t-18.5 -37.5l-45 13q14 52 33 75t50 23q25 0 67 -22q38 -20 53 -20q16 0 25.5 10.5t18.5 36.5l45 -12q-14 -52 -33 -75t-50 -23z" />
    <glyph glyph-name="hungarumlaut" unicode="&#x2dd;" horiz-adv-x="500" 
d="M239 589l86 140l69 -34l-101 -106h-54zM106 589l86 140l69 -34l-101 -106h-54z" />
    <glyph glyph-name="commaaccent" unicode="&#x326;" horiz-adv-x="500" 
d="M202 -228l-8 28q56 13 52 58h-36v78h82v-69q0 -81 -90 -95z" />
    <glyph glyph-name="baht" unicode="&#xe3f;" horiz-adv-x="558" 
d="M301 780h56l-13 -87q68 -15 108 -59t40 -109v-2q0 -123 -123 -165q143 -40 143 -168v-1q0 -89 -64.5 -139t-171.5 -50h-26l-16 -119h-56l16 119h-116v700h201h11zM441 193q0 59 -38.5 92t-110.5 37l-36 -257h22q76 0 119.5 33.5t43.5 94.5zM149 383h100l34 252h-5h-129
v-252zM421 514q0 90 -89 114l-34 -244q58 7 90.5 40.5t32.5 89.5zM149 65h58l35 258h-93v-258z" />
    <glyph glyph-name="Wgrave" unicode="&#x1e80;" horiz-adv-x="956" 
d="M507 755h-59l-105 89l73 34zM248 -5l-210 705h81l165 -576l163 578h64l164 -578l165 576h77l-209 -705h-66l-164 565l-164 -565h-66z" />
    <glyph glyph-name="wgrave" unicode="&#x1e81;" horiz-adv-x="753" 
d="M193 -4l-156 525h76l115 -415l119 416h61l119 -416l116 415h73l-156 -525h-65l-118 406l-119 -406h-65zM350 589l-105 105l74 35l86 -140h-55z" />
    <glyph glyph-name="Wacute" unicode="&#x1e82;" horiz-adv-x="956" 
d="M447 755l90 123l74 -34l-106 -89h-58zM248 -5l-210 705h81l165 -576l163 578h64l164 -578l165 576h77l-209 -705h-66l-164 565l-164 -565h-66z" />
    <glyph glyph-name="wacute" unicode="&#x1e83;" horiz-adv-x="753" 
d="M346 589l86 140l74 -35l-105 -105h-55zM193 -4l-156 525h76l115 -415l119 416h61l119 -416l116 415h73l-156 -525h-65l-118 406l-119 -406h-65z" />
    <glyph glyph-name="Wdieresis" unicode="&#x1e84;" horiz-adv-x="956" 
d="M517 757v86h85v-86h-85zM351 757v86h86v-86h-86zM248 -5l-210 705h81l165 -576l163 578h64l164 -578l165 576h77l-209 -705h-66l-164 565l-164 -565h-66z" />
    <glyph glyph-name="wdieresis" unicode="&#x1e85;" horiz-adv-x="753" 
d="M413 592v89h81v-89h-81zM258 592v89h81v-89h-81zM193 -4l-156 525h76l115 -415l119 416h61l119 -416l116 415h73l-156 -525h-65l-118 406l-119 -406h-65z" />
    <glyph glyph-name="Ygrave" unicode="&#x1ef2;" horiz-adv-x="608" 
d="M266 0v282l-246 418h87l198 -342l198 342h85l-246 -416v-284h-76zM334 752h-59l-105 89l73 34z" />
    <glyph glyph-name="ygrave" unicode="&#x1ef3;" horiz-adv-x="513" 
d="M264 92l140 429h77l-185 -530q-27 -79 -62.5 -112t-89.5 -33q-49 0 -94 24l22 60q35 -19 68 -19q30 0 50.5 20t39.5 69l-200 521h78zM233 588l-105 105l74 35l86 -140h-55z" />
    <glyph glyph-name="enspace" unicode="&#x2002;" horiz-adv-x="500" 
 />
    <glyph glyph-name="emspace" unicode="&#x2003;" horiz-adv-x="1000" 
 />
    <glyph glyph-name="threeperemspace" unicode="&#x2004;" horiz-adv-x="333" 
 />
    <glyph glyph-name="fourperemspace" unicode="&#x2005;" horiz-adv-x="250" 
 />
    <glyph glyph-name="figurespace" unicode="&#x2007;" horiz-adv-x="530" 
 />
    <glyph glyph-name="thinspace" unicode="&#x2009;" horiz-adv-x="126" 
 />
    <glyph glyph-name="hairspace" unicode="&#x200a;" horiz-adv-x="70" 
 />
    <glyph glyph-name="endash" unicode="&#x2013;" horiz-adv-x="493" 
d="M57 264v72h379v-72h-379z" />
    <glyph glyph-name="emdash" unicode="&#x2014;" horiz-adv-x="809" 
d="M57 264v72h695v-72h-695z" />
    <glyph glyph-name="quoteleft" unicode="&#x2018;" horiz-adv-x="222" 
d="M62 479v89q0 58 25 90t81 46l12 -34q-69 -25 -65 -87h37v-104h-90z" />
    <glyph glyph-name="quoteright" unicode="&#x2019;" horiz-adv-x="222" 
d="M54 476l-12 34q71 26 65 87h-36v103h89v-88q0 -58 -25 -90t-81 -46z" />
    <glyph glyph-name="quotesinglbase" unicode="&#x201a;" horiz-adv-x="224" 
d="M51 -121l-12 34q71 26 65 87h-36v103h89v-88q0 -59 -25 -90.5t-81 -45.5z" />
    <glyph glyph-name="quotedblleft" unicode="&#x201c;" horiz-adv-x="406" 
d="M246 479v89q0 58 25 90t81 46l12 -34q-71 -26 -65 -87h36v-104h-89zM62 479v89q0 58 25 90t81 46l12 -34q-69 -25 -65 -87h37v-104h-90z" />
    <glyph glyph-name="quotedblright" unicode="&#x201d;" horiz-adv-x="406" 
d="M238 476l-12 34q71 26 65 87h-36v103h89v-88q0 -58 -25 -90t-81 -46zM54 476l-12 34q71 26 65 87h-36v103h89v-88q0 -58 -25 -90t-81 -46z" />
    <glyph glyph-name="quotedblbase" unicode="&#x201e;" horiz-adv-x="409" 
d="M235 -121l-12 34q72 26 66 87h-36v103h89v-88q0 -58 -25.5 -90t-81.5 -46zM51 -121l-12 34q71 26 65 87h-36v103h89v-88q0 -59 -25 -90.5t-81 -45.5z" />
    <glyph glyph-name="dagger" unicode="&#x2020;" horiz-adv-x="356" 
d="M151 238l8 283l-111 -9v55l110 -9l-10 142h61l-10 -142l110 9v-55l-111 9l8 -283h-55z" />
    <glyph glyph-name="daggerdbl" unicode="&#x2021;" horiz-adv-x="377" 
d="M158 0l10 142l-110 -9v55l111 -9l-8 171l8 171l-111 -9v55l110 -9l-10 142h61l-10 -142l110 9v-55l-110 9l7 -171l-7 -171l110 9v-55l-110 9l10 -142h-61z" />
    <glyph glyph-name="bullet" unicode="&#x2022;" horiz-adv-x="431" 
d="M216 225q-50 0 -84.5 35.5t-34.5 89.5v5q0 55 34.5 90t84.5 35q48 0 83 -35.5t35 -89.5v-5q0 -54 -34.5 -89.5t-83.5 -35.5z" />
    <glyph glyph-name="ellipsis" unicode="&#x2026;" horiz-adv-x="668" 
d="M513 0v102h88v-102h-88zM290 0v102h88v-102h-88zM67 0v102h88v-102h-88z" />
    <glyph glyph-name="perthousand" unicode="&#x2030;" horiz-adv-x="1078" 
d="M187 408q36 0 58.5 33.5t22.5 86.5v4q0 53 -23.5 87t-58.5 34q-36 0 -58 -34t-22 -86v-4q0 -53 23.5 -87t57.5 -34zM186 354q-62 0 -102 49.5t-40 123.5v5q0 75 40.5 125t102.5 50t102 -49.5t40 -123.5v-5q0 -75 -40.5 -125t-102.5 -50zM628 700l-238 -364l-215 -336h-64
l236 363l217 337h64zM552 47q36 0 58.5 33.5t22.5 86.5v4q0 53 -23.5 87t-58.5 34q-36 0 -58.5 -34t-22.5 -86v-4q0 -53 23.5 -87t58.5 -34zM551 -7q-62 0 -102 49.5t-40 123.5v5q0 75 40.5 125t102.5 50t102 -49.5t40 -123.5v-5q0 -75 -40.5 -125t-102.5 -50zM892 47
q36 0 58.5 33.5t22.5 86.5v4q0 53 -23.5 87t-58.5 34q-36 0 -58.5 -34t-22.5 -86v-4q0 -53 23.5 -87t58.5 -34zM891 -7q-62 0 -102 49.5t-40 123.5v5q0 75 40.5 125t102.5 50t102 -49.5t40 -123.5v-5q0 -75 -40.5 -125t-102.5 -50z" />
    <glyph glyph-name="guilsinglleft" unicode="&#x2039;" horiz-adv-x="299" 
d="M196 42l-153 213v8l153 212l52 -30l-123 -185l124 -188z" />
    <glyph glyph-name="guilsinglright" unicode="&#x203a;" horiz-adv-x="299" 
d="M103 42l-53 30l124 186l-124 187l53 30l153 -212v-8z" />
    <glyph glyph-name="fraction" unicode="&#x2044;" horiz-adv-x="88" 
d="M-190 0l218 359l200 341h50l-217 -359l-200 -341h-51z" />
    <glyph glyph-name="zero.sup" unicode="&#x2070;" 
d="M176 428q-60 0 -95.5 52t-35.5 140v5q0 89 35.5 141.5t96.5 52.5q60 0 95.5 -51.5t35.5 -140.5v-5q0 -89 -36 -141.5t-96 -52.5zM176 773q-37 0 -58.5 -39.5t-21.5 -107.5v-5q0 -68 21.5 -107.5t59.5 -39.5q37 0 58.5 39.5t21.5 107.5v5q0 68 -21.5 107.5t-59.5 39.5z
" />
    <glyph glyph-name="four.sup" unicode="&#x2074;" 
d="M268 518v-84h-47v84h-171l-8 42l169 255h57v-255h48v-42h-48zM222 559v194h-2l-128 -194h130z" />
    <glyph glyph-name="five.sup" unicode="&#x2075;" 
d="M170 428q-71 0 -125 54l30 37q46 -46 96 -46q36 0 58 22.5t22 55.5q0 34 -22.5 52.5t-58.5 18.5t-72 -17l-33 18l14 188h206v-48h-164l-8 -108q31 12 66 12q53 0 88 -30.5t35 -83.5q0 -55 -37 -90t-95 -35z" />
    <glyph glyph-name="six.sup" unicode="&#x2076;" 
d="M176 428q-52 0 -85 33q-44 44 -44 145v5q0 98 39.5 153t105.5 55q55 0 97 -37l-26 -38q-36 30 -72 30q-40 0 -66.5 -38t-28.5 -102q34 42 90 42q48 0 81 -31.5t33 -88.5q0 -56 -35.5 -92t-88.5 -36zM176 472q34 0 54.5 22.5t20.5 59.5t-20 58t-54 21q-33 0 -54.5 -21.5
t-21.5 -57.5t21.5 -59t53.5 -23z" />
    <glyph glyph-name="seven.sup" unicode="&#x2077;" 
d="M144 434h-56l155 328h-186v49h243v-38z" />
    <glyph glyph-name="eight.sup" unicode="&#x2078;" 
d="M177 428q-57 0 -93 30t-36 79q0 64 65 93q-55 28 -55 87q0 45 34.5 73.5t85.5 28.5q50 0 84 -28.5t34 -73.5q0 -58 -55 -87q29 -12 47 -36.5t18 -55.5q0 -50 -36 -80t-93 -30zM177 777q-31 0 -51 -17.5t-20 -44.5q0 -29 20 -47.5t51 -18.5t51 18.5t20 47.5q0 27 -20 44.5
t-51 17.5zM177 608q-36 0 -58.5 -19.5t-22.5 -50.5q0 -30 22 -49t59 -19t59 19t22 49q0 31 -22.5 50.5t-58.5 19.5z" />
    <glyph glyph-name="nine.sup" unicode="&#x2079;" 
d="M177 819q52 0 85 -33q45 -43 45 -145v-6q0 -98 -39.5 -152.5t-106.5 -54.5q-57 0 -102 39l26 39q38 -33 78 -33q39 0 66 37t28 99q-34 -42 -89 -42q-48 0 -81.5 32.5t-33.5 89.5t35.5 93.5t88.5 36.5zM176 610q33 0 55 22t22 59t-21 60.5t-54 23.5q-35 0 -55.5 -23
t-20.5 -61t20 -59.5t54 -21.5z" />
    <glyph glyph-name="zero.inf" unicode="&#x2080;" 
d="M176 -140q-60 0 -95.5 52t-35.5 140v5q0 89 35.5 141.5t96.5 52.5q60 0 95.5 -51.5t35.5 -140.5v-5q0 -89 -36 -141.5t-96 -52.5zM176 205q-37 0 -58.5 -39.5t-21.5 -107.5v-5q0 -68 21.5 -107.5t59.5 -39.5q37 0 58.5 39.5t21.5 107.5v5q0 68 -21.5 107.5t-59.5 39.5z
" />
    <glyph glyph-name="one.inf" unicode="&#x2081;" horiz-adv-x="287" 
d="M188 -132h-51v326l-79 -33l-9 45l98 42h41v-380z" />
    <glyph glyph-name="two.inf" unicode="&#x2082;" 
d="M49 -132v41l132 132q35 33 49.5 55.5t14.5 47.5q0 27 -19 44t-47 17q-48 0 -93 -57l-34 29q55 74 130 74q50 0 82.5 -29t32.5 -75q0 -35 -17 -62t-58 -67l-104 -103h182v-47h-251z" />
    <glyph glyph-name="three.inf" unicode="&#x2083;" 
d="M170 -140q-77 0 -128 58l30 35q45 -48 99 -48q31 0 52.5 19t21.5 50q0 33 -26.5 51t-72.5 18h-23l-7 32l112 122h-168v46h232v-39l-113 -121q53 -6 85 -32.5t32 -75.5q0 -51 -36 -83t-90 -32z" />
    <glyph glyph-name="four.inf" unicode="&#x2084;" 
d="M268 -50v-84h-47v84h-171l-8 42l169 255h57v-255h48v-42h-48zM222 -9v194h-2l-128 -194h130z" />
    <glyph glyph-name="five.inf" unicode="&#x2085;" 
d="M170 -140q-71 0 -125 54l30 37q46 -46 96 -46q36 0 58 22.5t22 55.5q0 34 -22.5 52.5t-58.5 18.5t-72 -17l-33 18l14 188h206v-48h-164l-8 -108q31 12 66 12q53 0 88 -30.5t35 -83.5q0 -55 -37 -90t-95 -35z" />
    <glyph glyph-name="six.inf" unicode="&#x2086;" 
d="M176 -140q-52 0 -85 33q-44 44 -44 145v5q0 98 39.5 153t105.5 55q55 0 97 -37l-26 -38q-36 30 -72 30q-40 0 -66.5 -38t-28.5 -102q34 42 90 42q48 0 81 -31.5t33 -88.5q0 -56 -35.5 -92t-88.5 -36zM176 -96q34 0 54.5 22.5t20.5 59.5t-20 58t-54 21q-33 0 -54.5 -21.5
t-21.5 -57.5t21.5 -59t53.5 -23z" />
    <glyph glyph-name="seven.inf" unicode="&#x2087;" 
d="M144 -134h-56l155 328h-186v49h243v-38z" />
    <glyph glyph-name="eight.inf" unicode="&#x2088;" 
d="M177 -140q-57 0 -93 30t-36 79q0 64 65 93q-55 28 -55 87q0 45 34.5 73.5t85.5 28.5q50 0 84 -28.5t34 -73.5q0 -58 -55 -87q29 -12 47 -36.5t18 -55.5q0 -50 -36 -80t-93 -30zM177 209q-31 0 -51 -17.5t-20 -44.5q0 -29 20 -47.5t51 -18.5t51 18.5t20 47.5
q0 27 -20 44.5t-51 17.5zM177 40q-36 0 -58.5 -19.5t-22.5 -50.5q0 -30 22 -49t59 -19t59 19t22 49q0 31 -22.5 50.5t-58.5 19.5z" />
    <glyph glyph-name="nine.inf" unicode="&#x2089;" 
d="M177 251q52 0 85 -33q45 -43 45 -145v-6q0 -98 -39.5 -152.5t-106.5 -54.5q-57 0 -102 39l26 39q38 -33 78 -33q39 0 66 37t28 99q-34 -42 -89 -42q-48 0 -81.5 32.5t-33.5 89.5t35.5 93.5t88.5 36.5zM176 42q33 0 55 22t22 59t-21 60.5t-54 23.5q-35 0 -55.5 -23
t-20.5 -61t20 -59.5t54 -21.5z" />
    <glyph glyph-name="colonmonetary" unicode="&#x20a1;" horiz-adv-x="529" 
d="M412 779h47l-15 -107q25 -14 53 -37l-36 -57l-31 25l-78 -539q52 7 109 59l38 -51q-72 -65 -154 -73l-16 -117h-47l17 116q-46 3 -78 18l-19 -134h-47l23 158q-60 42 -94.5 120t-34.5 184v11q0 143 62 233.5t163 109.5l11 81h47l-11 -76q42 0 78 -11zM228 88
q38 -24 84 -26l80 561q-35 15 -71 15q-9 0 -13 -1zM120 344q0 -149 72 -226l74 511q-67 -22 -106.5 -93t-39.5 -181v-11z" />
    <glyph glyph-name="naira" unicode="&#x20a6;" horiz-adv-x="725" 
d="M690 228h-91v-228h-87l-121 228h-194v-228h-71v228h-91v55h91v138h-91v55h91v224h94l118 -224h190v224h71v-224h91v-55h-91v-138h91v-55zM196 422v-140h168l-75 140h-93zM364 422l75 -140h89v140h-164zM196 596v-121h65l-64 121h-1zM467 229l61 -114v114h-61z" />
    <glyph glyph-name="rupee" unicode="&#x20a8;" horiz-adv-x="939" 
d="M70 0v700h191q104 0 165.5 -57t61.5 -154v-3q0 -77 -39.5 -128.5t-105.5 -72.5l165 -285h-84l-154 269h-129v-269h-71zM141 332h119q71 0 113.5 40.5t42.5 111.5v3q0 71 -42.5 109t-116.5 38h-116v-302zM734 -9q-101 0 -181 68l37 53q73 -60 146 -60q41 0 67.5 22.5
t26.5 57.5v2q0 30 -23 51t-85 49q-78 34 -112 68.5t-34 85.5v2q0 61 44.5 100t113.5 39q85 0 157 -52l-34 -56q-64 47 -125 47q-40 0 -64 -21t-24 -52v-2q0 -30 23.5 -51t87.5 -49q78 -35 110.5 -69.5t32.5 -85.5v-2q0 -66 -46.5 -105.5t-117.5 -39.5z" />
    <glyph glyph-name="won" unicode="&#x20a9;" horiz-adv-x="963" 
d="M887 700l-54 -225h101v-56h-114l-32 -135h146v-56h-159l-54 -231h-86l-58 231h-191l-58 -231h-86l-55 231h-158v56h145l-32 135h-113v56h100l-53 225h80l49 -225h178l56 227h88l55 -227h180l49 225h76zM434 421l-35 -138h164l-34 138h-95zM214 420l29 -136h94l33 136
h-156zM595 420l33 -136h94l28 136h-155zM286 87h4l34 141h-69zM676 87h4l30 141h-68zM480 606l-33 -132h69l-32 132h-4z" />
    <glyph glyph-name="sheqel" unicode="&#x20aa;" horiz-adv-x="559" 
d="M210 139l-28 203h51l26 -179q7 -51 29.5 -75t66.5 -24h80v453h61v-517h-143q-65 0 -99 33.5t-44 105.5zM313 353q0 52 -22 76t-70 24h-97v-453h-61v517h166q135 0 135 -143v-191h-51v170z" />
    <glyph glyph-name="Euro" unicode="&#x20ac;" horiz-adv-x="612" 
d="M569 605l-52 -46q-31 42 -64 62.5t-80 20.5q-61 0 -105.5 -47.5t-64.5 -127.5h223v-59h-234q-2 -18 -2 -55v-5q0 -34 1 -49h235v-59h-226q19 -85 66.5 -133.5t111.5 -48.5q80 0 143 88l50 -43q-82 -113 -195 -113q-96 0 -162.5 67.5t-89.5 182.5h-81v59h73q-2 30 -2 47v6
q0 29 3 56h-74v59h83q25 109 90.5 176t157.5 67q65 0 110.5 -27t84.5 -78z" />
    <glyph glyph-name="peso" unicode="&#x20b1;" horiz-adv-x="632" 
d="M116 0v444h-90v54h90v202h170q105 0 171 -54.5t73 -147.5h90v-54h-91q-9 -96 -79 -151t-174 -56h-85v-237h-75zM278 303q75 0 122.5 38.5t55.5 103.5h-266v-142h88zM190 633v-137h266q-7 66 -54 101.5t-122 35.5h-90z" />
    <glyph glyph-name="published" unicode="&#x2117;" horiz-adv-x="737" 
d="M368 -12q-138 0 -231 103.5t-93 251.5v13q0 148 93.5 252t231.5 104t231 -103.5t93 -251.5v-12q0 -148 -93.5 -252.5t-231.5 -104.5zM368 19q126 0 209.5 94.5t83.5 231.5v12q0 136 -83 230t-209 94q-127 0 -210 -94.5t-83 -230.5v-13q0 -136 83 -230t209 -94zM262 170
v375h118q62 0 99 -32t37 -89v-2q0 -60 -40 -92.5t-100 -33.5h-63v-126h-51zM313 344h64q40 0 63 20t23 56v2q0 37 -22.5 56t-62.5 19h-65v-153z" />
    <glyph glyph-name="servicemark" unicode="&#x2120;" horiz-adv-x="621" 
d="M307 390v310h47l90 -160l90 160h46v-310h-42v237l-92 -165h-5l-92 165v-237h-42zM142 385q-62 0 -114 44l24 33q44 -39 91 -39q26 0 41.5 12.5t15.5 32.5q0 19 -14 31.5t-52 27.5q-50 20 -71.5 39.5t-21.5 53.5q0 37 28 61t72 24q55 0 99 -36l-24 -32q-37 29 -77 29
q-25 0 -40 -12t-15 -31q0 -18 14 -30t54 -27q48 -19 70 -40.5t22 -54.5q0 -38 -29 -62t-73 -24z" />
    <glyph glyph-name="trademark" unicode="&#x2122;" horiz-adv-x="602" 
d="M289 390v310h47l90 -160l90 160h46v-310h-42v237l-92 -165h-5l-92 165v-237h-42zM103 390v269h-83v41h209v-41h-83v-269h-43z" />
    <glyph glyph-name="onethird" unicode="&#x2153;" horiz-adv-x="729" 
d="M554 -8q-77 0 -128 58l30 35q45 -48 99 -48q31 0 52.5 19t21.5 50q0 33 -26.5 51t-72.5 18h-23l-7 32l112 122h-168v46h232v-39l-113 -121q53 -6 85 -32.5t32 -75.5q0 -51 -36.5 -83t-89.5 -32zM188 325h-51v326l-79 -33l-9 45l98 42h41v-380zM96 0l218 359l200 341h50
l-217 -359l-200 -341h-51z" />
    <glyph glyph-name="twothirds" unicode="&#x2154;" horiz-adv-x="794" 
d="M621 -8q-77 0 -128 58l30 35q45 -48 99 -48q31 0 52.5 19t21.5 50q0 33 -26.5 51t-72.5 18h-23l-7 32l112 122h-168v46h232v-39l-113 -121q53 -6 85 -32.5t32 -75.5q0 -51 -36.5 -83t-89.5 -32zM43 325v41l132 132q35 33 49.5 55.5t14.5 47.5q0 27 -19 44t-47 17
q-48 0 -93 -57l-34 29q55 74 130 74q50 0 82.5 -29t32.5 -75q0 -35 -17 -62t-58 -67l-104 -103h182v-47h-251zM164 0l218 359l200 341h50l-217 -359l-200 -341h-51z" />
    <glyph glyph-name="onefifth" unicode="&#x2155;" horiz-adv-x="729" 
d="M551 -8q-71 0 -125 54l30 37q46 -46 96 -46q36 0 58 22.5t22 55.5q0 34 -22.5 52.5t-58.5 18.5t-72 -17l-33 18l14 188h206v-48h-164l-8 -108q31 12 66 12q53 0 88 -30.5t35 -83.5q0 -55 -37 -90t-95 -35zM188 325h-51v326l-79 -33l-9 45l98 42h41v-380zM99 0l218 359
l200 341h50l-217 -359l-200 -341h-51z" />
    <glyph glyph-name="twofifths" unicode="&#x2156;" horiz-adv-x="794" 
d="M622 -8q-71 0 -125 54l30 37q46 -46 96 -46q36 0 58 22.5t22 55.5q0 34 -22.5 52.5t-58.5 18.5t-72 -17l-33 18l14 188h206v-48h-164l-8 -108q31 12 66 12q53 0 88 -30.5t35 -83.5q0 -55 -37 -90t-95 -35zM172 0l218 359l200 341h50l-217 -359l-200 -341h-51zM43 325v41
l132 132q35 33 49.5 55.5t14.5 47.5q0 27 -19 44t-47 17q-48 0 -93 -57l-34 29q55 74 130 74q50 0 82.5 -29t32.5 -75q0 -35 -17 -62t-58 -67l-104 -103h182v-47h-251z" />
    <glyph glyph-name="threefifths" unicode="&#x2157;" horiz-adv-x="794" 
d="M622 -8q-71 0 -125 54l30 37q46 -46 96 -46q36 0 58 22.5t22 55.5q0 34 -22.5 52.5t-58.5 18.5t-72 -17l-33 18l14 188h206v-48h-164l-8 -108q31 12 66 12q53 0 88 -30.5t35 -83.5q0 -55 -37 -90t-95 -35zM159 0l218 359l200 341h50l-217 -359l-200 -341h-51zM163 317
q-77 0 -128 58l30 35q45 -48 99 -48q31 0 52.5 19.5t21.5 50.5q0 32 -26.5 50t-72.5 18h-23l-7 32l112 122h-168v46h232v-39l-113 -121q53 -6 85 -32.5t32 -75.5q0 -51 -36.5 -83t-89.5 -32z" />
    <glyph glyph-name="fourfifths" unicode="&#x2158;" horiz-adv-x="794" 
d="M260 407v-84h-47v84h-171l-8 42l169 255h57v-255h48v-42h-48zM214 448v194h-2l-128 -194h130zM622 -8q-71 0 -125 54l30 37q46 -46 96 -46q36 0 58 22.5t22 55.5q0 34 -22.5 52.5t-58.5 18.5t-72 -17l-33 18l14 188h206v-48h-164l-8 -108q31 12 66 12q53 0 88 -30.5
t35 -83.5q0 -55 -37 -90t-95 -35zM170 0l218 359l200 341h50l-217 -359l-200 -341h-51z" />
    <glyph glyph-name="onesixth" unicode="&#x2159;" horiz-adv-x="729" 
d="M554 -8q-52 0 -85 33q-44 44 -44 145v5q0 98 39.5 153t105.5 55q55 0 97 -37l-26 -38q-36 30 -72 30q-40 0 -66.5 -38t-28.5 -102q34 42 90 42q48 0 81 -31.5t33 -88.5q0 -56 -35.5 -92t-88.5 -36zM106 0l218 359l200 341h50l-217 -359l-200 -341h-51zM188 325h-51v326
l-79 -33l-9 45l98 42h41v-380zM554 36q34 0 54.5 22.5t20.5 59.5t-20 58t-54 21q-33 0 -54.5 -21.5t-21.5 -57.5t21.5 -59t53.5 -23z" />
    <glyph glyph-name="fivesixths" unicode="&#x215a;" horiz-adv-x="794" 
d="M625 -8q-52 0 -85 33q-44 44 -44 145v5q0 98 39.5 153t105.5 55q55 0 97 -37l-26 -38q-36 30 -72 30q-40 0 -66.5 -38t-28.5 -102q34 42 90 42q48 0 81 -31.5t33 -88.5q0 -56 -35.5 -92t-88.5 -36zM165 317q-71 0 -125 54l30 37q46 -46 96 -46q36 0 58 22.5t22 55.5
q0 34 -22.5 52.5t-58.5 18.5t-72 -17l-33 18l14 188h206v-48h-164l-8 -108q31 12 66 12q53 0 88 -30.5t35 -83.5q0 -55 -37 -90t-95 -35zM163 0l218 359l200 341h50l-217 -359l-200 -341h-51zM625 36q34 0 54.5 22.5t20.5 59.5t-20 58t-54 21q-33 0 -54.5 -21.5t-21.5 -57.5
t21.5 -59t53.5 -23z" />
    <glyph glyph-name="oneeighth" unicode="&#x215b;" horiz-adv-x="729" 
d="M555 -8q-57 0 -93 30t-36 79q0 64 65 93q-55 28 -55 87q0 45 34.5 73.5t85.5 28.5q50 0 84 -28.5t34 -73.5q0 -58 -55 -87q29 -12 47 -36.5t18 -55.5q0 -50 -36 -80t-93 -30zM555 341q-31 0 -51 -17.5t-20 -44.5q0 -29 20 -47.5t51 -18.5t51 18.5t20 47.5q0 27 -20 44.5
t-51 17.5zM555 172q-36 0 -58.5 -19.5t-22.5 -50.5q0 -30 22 -49t59 -19t59 19t22 49q0 31 -22.5 50.5t-58.5 19.5zM188 325h-51v326l-79 -33l-9 45l98 42h41v-380zM104 0l218 359l200 341h50l-217 -359l-200 -341h-51z" />
    <glyph glyph-name="threeeighths" unicode="&#x215c;" horiz-adv-x="794" 
d="M626 -8q-57 0 -93 30t-36 79q0 64 65 93q-55 28 -55 87q0 45 34.5 73.5t85.5 28.5q50 0 84 -28.5t34 -73.5q0 -58 -55 -87q29 -12 47 -36.5t18 -55.5q0 -50 -36 -80t-93 -30zM626 341q-31 0 -51 -17.5t-20 -44.5q0 -29 20 -47.5t51 -18.5t51 18.5t20 47.5q0 27 -20 44.5
t-51 17.5zM626 172q-36 0 -58.5 -19.5t-22.5 -50.5q0 -30 22 -49t59 -19t59 19t22 49q0 31 -22.5 50.5t-58.5 19.5zM163 0l218 359l200 341h50l-217 -359l-200 -341h-51zM165 317q-77 0 -128 58l30 35q45 -48 99 -48q31 0 52.5 19.5t21.5 50.5q0 32 -26.5 50t-72.5 18h-23
l-7 32l112 122h-168v46h232v-39l-113 -121q53 -6 85 -32.5t32 -75.5q0 -51 -36.5 -83t-89.5 -32z" />
    <glyph glyph-name="fiveeighths" unicode="&#x215d;" horiz-adv-x="794" 
d="M626 -8q-57 0 -93 30t-36 79q0 64 65 93q-55 28 -55 87q0 45 34.5 73.5t85.5 28.5q50 0 84 -28.5t34 -73.5q0 -58 -55 -87q29 -12 47 -36.5t18 -55.5q0 -50 -36 -80t-93 -30zM626 341q-31 0 -51 -17.5t-20 -44.5q0 -29 20 -47.5t51 -18.5t51 18.5t20 47.5q0 27 -20 44.5
t-51 17.5zM626 172q-36 0 -58.5 -19.5t-22.5 -50.5q0 -30 22 -49t59 -19t59 19t22 49q0 31 -22.5 50.5t-58.5 19.5zM163 0l218 359l200 341h50l-217 -359l-200 -341h-51zM165 317q-71 0 -125 54l30 37q46 -46 96 -46q36 0 58 22.5t22 55.5q0 34 -22.5 52.5t-58.5 18.5
t-72 -17l-33 18l14 188h206v-48h-164l-8 -108q31 12 66 12q53 0 88 -30.5t35 -83.5q0 -55 -37 -90t-95 -35z" />
    <glyph glyph-name="seveneighths" unicode="&#x215e;" horiz-adv-x="794" 
d="M620 -8q-57 0 -93 30t-36 79q0 64 65 93q-55 28 -55 87q0 45 34.5 73.5t85.5 28.5q50 0 84 -28.5t34 -73.5q0 -58 -55 -87q29 -12 47 -36.5t18 -55.5q0 -50 -36 -80t-93 -30zM620 341q-31 0 -51 -17.5t-20 -44.5q0 -29 20 -47.5t51 -18.5t51 18.5t20 47.5q0 27 -20 44.5
t-51 17.5zM620 172q-36 0 -58.5 -19.5t-22.5 -50.5q0 -30 22 -49t59 -19t59 19t22 49q0 31 -22.5 50.5t-58.5 19.5zM146 323h-56l155 328h-186v49h243v-38zM131 0l218 359l200 341h50l-217 -359l-200 -341h-51z" />
    <glyph glyph-name="minus" unicode="&#x2212;" horiz-adv-x="542" 
d="M486 316h-430v72h430v-72z" />
    <glyph glyph-name="Q.alt" horiz-adv-x="716" 
d="M592 -98l-112 114q-57 -27 -122 -27q-133 0 -217 100.5t-84 255.5v8q0 155 84.5 256.5t217.5 101.5t216.5 -100.5t83.5 -255.5v-8q0 -185 -113 -287l149 -156v-2h-103zM359 58q97 0 160 81t63 207v7q0 126 -63.5 207.5t-160.5 81.5t-160 -81t-63 -207v-7
q0 -126 63.5 -207.5t160.5 -81.5z" />
    <glyph glyph-name="a.alt" horiz-adv-x="571" 
d="M256 -10q-85 0 -146.5 70.5t-61.5 194.5v10q0 123 61.5 194.5t146.5 71.5q105 0 169 -107v97h72v-521h-72v100q-65 -110 -169 -110zM271 55q64 0 110.5 56t46.5 145v9q0 89 -46.5 145t-110.5 56t-106.5 -54t-42.5 -147v-8q0 -92 43 -147t106 -55z" />
    <glyph glyph-name="aacute.alt" horiz-adv-x="571" 
d="M259 589l86 140l74 -35l-105 -105h-55zM256 -10q-85 0 -146.5 70.5t-61.5 194.5v10q0 123 61.5 194.5t146.5 71.5q105 0 169 -107v97h72v-521h-72v100q-65 -110 -169 -110zM271 55q64 0 110.5 56t46.5 145v9q0 89 -46.5 145t-110.5 56t-106.5 -54t-42.5 -147v-8
q0 -92 43 -147t106 -55z" />
    <glyph glyph-name="abreve.alt" horiz-adv-x="571" 
d="M256 -10q-85 0 -146.5 70.5t-61.5 194.5v10q0 123 61.5 194.5t146.5 71.5q105 0 169 -107v97h72v-521h-72v100q-65 -110 -169 -110zM271 55q64 0 110.5 56t46.5 145v9q0 89 -46.5 145t-110.5 56t-106.5 -54t-42.5 -147v-8q0 -92 43 -147t106 -55zM289 588q-56 0 -92 30.5
t-41 85.5h53q17 -59 80 -59t80 59h53q-5 -55 -41 -85.5t-92 -30.5z" />
    <glyph glyph-name="acircumflex.alt" horiz-adv-x="571" 
d="M164 590l94 130h62l94 -130h-59l-67 69l-67 -69h-57zM256 -10q-85 0 -146.5 70.5t-61.5 194.5v10q0 123 61.5 194.5t146.5 71.5q105 0 169 -107v97h72v-521h-72v100q-65 -110 -169 -110zM271 55q64 0 110.5 56t46.5 145v9q0 89 -46.5 145t-110.5 56t-106.5 -54
t-42.5 -147v-8q0 -92 43 -147t106 -55z" />
    <glyph glyph-name="adieresis.alt" horiz-adv-x="571" 
d="M326 592v89h81v-89h-81zM171 592v89h81v-89h-81zM256 -10q-85 0 -146.5 70.5t-61.5 194.5v10q0 123 61.5 194.5t146.5 71.5q105 0 169 -107v97h72v-521h-72v100q-65 -110 -169 -110zM271 55q64 0 110.5 56t46.5 145v9q0 89 -46.5 145t-110.5 56t-106.5 -54t-42.5 -147v-8
q0 -92 43 -147t106 -55z" />
    <glyph glyph-name="agrave.alt" horiz-adv-x="571" 
d="M256 -10q-85 0 -146.5 70.5t-61.5 194.5v10q0 123 61.5 194.5t146.5 71.5q105 0 169 -107v97h72v-521h-72v100q-65 -110 -169 -110zM271 55q64 0 110.5 56t46.5 145v9q0 89 -46.5 145t-110.5 56t-106.5 -54t-42.5 -147v-8q0 -92 43 -147t106 -55zM264 589l-105 105l74 35
l86 -140h-55z" />
    <glyph glyph-name="amacron.alt" horiz-adv-x="571" 
d="M256 -10q-85 0 -146.5 70.5t-61.5 194.5v10q0 123 61.5 194.5t146.5 71.5q105 0 169 -107v97h72v-521h-72v100q-65 -110 -169 -110zM271 55q64 0 110.5 56t46.5 145v9q0 89 -46.5 145t-110.5 56t-106.5 -54t-42.5 -147v-8q0 -92 43 -147t106 -55zM152 606v58h274v-58
h-274z" />
    <glyph glyph-name="aogonek.alt" horiz-adv-x="571" 
d="M508 -108v-44q-7 -1 -16 -1q-54 1 -82 20.5t-28 51.5q0 39 44 81h-1v100q-65 -110 -169 -110q-85 0 -146.5 70.5t-61.5 194.5v10q0 123 61.5 194.5t146.5 71.5q105 0 169 -107v97h72v-521h-13q-40 -39 -40 -68q0 -37 64 -40zM271 55q64 0 110.5 56t46.5 145v9
q0 89 -46.5 145t-110.5 56t-106.5 -54t-42.5 -147v-8q0 -92 43 -147t106 -55z" />
    <glyph glyph-name="aring.alt" horiz-adv-x="571" 
d="M289 587q-41 0 -70.5 28.5t-29.5 68.5t29.5 69t70.5 29t70.5 -29t29.5 -69t-29.5 -68.5t-70.5 -28.5zM289 621q26 0 44 18.5t18 44.5t-18.5 45t-43.5 19t-43.5 -19t-18.5 -45t18 -44.5t44 -18.5zM256 -10q-85 0 -146.5 70.5t-61.5 194.5v10q0 123 61.5 194.5t146.5 71.5
q105 0 169 -107v97h72v-521h-72v100q-65 -110 -169 -110zM271 55q64 0 110.5 56t46.5 145v9q0 89 -46.5 145t-110.5 56t-106.5 -54t-42.5 -147v-8q0 -92 43 -147t106 -55z" />
    <glyph glyph-name="aring.alt2" horiz-adv-x="503" 
d="M208 -11q-70 0 -119.5 44t-49.5 118v4q0 79 52.5 123.5t140.5 44.5q68 0 134 -22v32q0 62 -34.5 95.5t-97.5 33.5q-68 0 -134 -35l-23 60q56 26 104 35q-30 27 -30 69q0 40 29.5 68.5t70.5 28.5t70.5 -28.5t29.5 -68.5q0 -44 -35 -74q43 -12 72 -41q49 -51 49 -141v-335
h-71v76q-56 -87 -158 -87zM223 49q60 -1 102 37t42 94v67q-60 20 -126 20q-61 0 -95 -29.5t-34 -79.5v-4q0 -48 31.5 -76.5t79.5 -28.5zM251 528q26 0 44 18.5t18 44.5t-18 44.5t-44 18.5q-25 0 -43 -18.5t-18 -44.5t18 -44.5t43 -18.5z" />
    <glyph glyph-name="aringacute.alt" horiz-adv-x="571" 
d="M259 810l89 119l70 -35l-102 -84h-57zM289 587q-41 0 -70.5 28.5t-29.5 68.5t29.5 69t70.5 29t70.5 -29t29.5 -69t-29.5 -68.5t-70.5 -28.5zM289 621q26 0 44 18.5t18 44.5t-18.5 45t-43.5 19t-43.5 -19t-18.5 -45t18 -44.5t44 -18.5zM256 -10q-85 0 -146.5 70.5
t-61.5 194.5v10q0 123 61.5 194.5t146.5 71.5q105 0 169 -107v97h72v-521h-72v100q-65 -110 -169 -110zM271 55q64 0 110.5 56t46.5 145v9q0 89 -46.5 145t-110.5 56t-106.5 -54t-42.5 -147v-8q0 -92 43 -147t106 -55z" />
    <glyph glyph-name="aringacute.alt2" horiz-adv-x="503" 
d="M221 718l88 119l71 -35l-102 -84h-57zM208 -11q-70 0 -119.5 44t-49.5 118v4q0 79 52.5 123.5t140.5 44.5q68 0 134 -22v32q0 62 -34.5 95.5t-97.5 33.5q-68 0 -134 -35l-23 60q56 26 104 35q-30 27 -30 69q0 40 29.5 68.5t70.5 28.5t70.5 -28.5t29.5 -68.5
q0 -44 -35 -74q43 -12 72 -41q49 -51 49 -141v-335h-71v76q-56 -87 -158 -87zM223 49q60 -1 102 37t42 94v67q-60 20 -126 20q-61 0 -95 -29.5t-34 -79.5v-4q0 -48 31.5 -76.5t79.5 -28.5zM251 528q26 0 44 18.5t18 44.5t-18 44.5t-44 18.5q-25 0 -43 -18.5t-18 -44.5
t18 -44.5t43 -18.5z" />
    <glyph glyph-name="atilde.alt" horiz-adv-x="571" 
d="M256 -10q-85 0 -146.5 70.5t-61.5 194.5v10q0 123 61.5 194.5t146.5 71.5q105 0 169 -107v97h72v-521h-72v100q-65 -110 -169 -110zM271 55q64 0 110.5 56t46.5 145v9q0 89 -46.5 145t-110.5 56t-106.5 -54t-42.5 -147v-8q0 -92 43 -147t106 -55zM355 589q-25 0 -67 22
q-35 20 -53 20q-16 0 -25.5 -10.5t-18.5 -37.5l-45 13q14 52 33 75t50 23q25 0 67 -22q38 -20 53 -20q16 0 25.5 10.5t18.5 36.5l45 -12q-14 -52 -33 -75t-50 -23z" />
    <glyph glyph-name="three.alt" horiz-adv-x="517" 
d="M246 -11q-132 0 -215 97l49 52q68 -80 166 -80q64 0 105 37t41 97v2q0 61 -46 95.5t-132 34.5h-47v65h48q74 0 118.5 36t44.5 96v2q0 53 -36.5 86t-95.5 33q-88 0 -152 -79l-49 45q81 103 204 103q90 0 147.5 -50.5t57.5 -128.5v-2q0 -119 -122 -169q63 -19 99.5 -61
t36.5 -107v-2q0 -86 -62.5 -144t-159.5 -58z" />
    <glyph glyph-name="registered.alt" horiz-adv-x="737" 
d="M368 -12q-138 0 -231 103.5t-93 251.5v13q0 148 93.5 252t231.5 104t231 -103.5t93 -251.5v-12q0 -148 -93.5 -252.5t-231.5 -104.5zM368 19q126 0 209.5 94.5t83.5 231.5v12q0 136 -83 230t-209 94q-127 0 -210 -94.5t-83 -230.5v-13q0 -136 83 -230t209 -94zM246 171
v376h134q68 0 102 -36q30 -30 30 -77v-2q0 -84 -84 -108l100 -153h-62l-92 143q-2 -1 -5 -1h-72v-142h-51zM297 360h80q37 0 59.5 18t22.5 52v1q0 33 -21.5 50.5t-59.5 17.5h-81v-139z" />
    <glyph glyph-name="R_p" horiz-adv-x="1033" 
d="M70 0v700h191q104 0 165.5 -57t61.5 -154v-3q0 -77 -39.5 -128.5t-105.5 -72.5l165 -285h-84l-154 269h-129v-269h-71zM590 -151v674h69v-96q59 106 150 106q76 0 130.5 -70.5t54.5 -193.5v-15q0 -122 -54.5 -193t-130.5 -71q-93 0 -150 103v-244h-69zM794 53q56 0 93 54
t37 147v14q0 92 -38 147.5t-92 55.5q-55 0 -96 -56t-41 -146v-16q0 -89 41 -144.5t96 -55.5zM141 332h119q71 0 113.5 40.5t42.5 111.5v3q0 71 -42.5 109t-116.5 38h-116v-302z" />
    <glyph glyph-name="onehalf.alt" horiz-adv-x="794" 
d="M304 325h-246v44h102v283l-92 -37l-9 46l111 44h41v-336h93v-44zM499 0v41l132 132q35 33 49.5 55.5t14.5 47.5q0 27 -19 44t-47 17q-48 0 -93 -57l-34 29q55 74 130 74q50 0 82.5 -29t32.5 -75q0 -35 -17 -62t-58 -67l-104 -103h182v-47h-251zM179 0l218 359l200 341h50
l-217 -359l-200 -341h-51z" />
    <glyph glyph-name="onethird.alt" horiz-adv-x="794" 
d="M305 325h-246v44h102v283l-92 -37l-9 46l111 44h41v-336h93v-44zM620 -8q-77 0 -128 58l30 35q45 -48 99 -48q31 0 52.5 19t21.5 50q0 33 -26.5 51t-72.5 18h-23l-7 32l112 122h-168v46h232v-39l-113 -121q53 -6 85 -32.5t32 -75.5q0 -51 -36 -83t-90 -32zM171 0l218 359
l200 341h50l-217 -359l-200 -341h-51z" />
    <glyph glyph-name="onequarter.alt" horiz-adv-x="794" 
d="M306 325h-246v44h102v283l-92 -37l-9 46l111 44h41v-336h93v-44zM186 0l218 359l200 341h50l-217 -359l-200 -341h-51zM707 82v-84h-47v84h-171l-8 42l169 255h57v-255h48v-42h-48zM661 123v194h-2l-128 -194h130z" />
    <glyph glyph-name="onefifth.alt" horiz-adv-x="794" 
d="M305 325h-246v44h102v283l-92 -37l-9 46l111 44h41v-336h93v-44zM621 -8q-71 0 -125 54l30 37q46 -46 96 -46q36 0 58 22.5t22 55.5q0 34 -22.5 52.5t-58.5 18.5t-72 -17l-33 18l14 188h206v-48h-164l-8 -108q31 12 66 12q53 0 88 -30.5t35 -83.5q0 -55 -37 -90t-95 -35z
M176 0l218 359l200 341h50l-217 -359l-200 -341h-51z" />
    <glyph glyph-name="onesixth.alt" horiz-adv-x="794" 
d="M626 -8q-52 0 -85 33q-44 44 -44 145v5q0 98 39.5 153t105.5 55q55 0 97 -37l-26 -38q-36 30 -72 30q-40 0 -66.5 -38t-28.5 -102q34 42 90 42q48 0 81 -31.5t33 -88.5q0 -56 -35.5 -92t-88.5 -36zM178 0l218 359l200 341h50l-217 -359l-200 -341h-51zM305 325h-246v44
h102v283l-92 -37l-9 46l111 44h41v-336h93v-44zM626 36q34 0 54.5 22.5t20.5 59.5t-20 58t-54 21q-33 0 -54.5 -21.5t-21.5 -57.5t21.5 -59t53.5 -23z" />
    <glyph glyph-name="oneeighth.alt" horiz-adv-x="794" 
d="M304 325h-246v44h102v283l-92 -37l-9 46l111 44h41v-336h93v-44zM628 -8q-57 0 -93 30t-36 79q0 64 65 93q-55 28 -55 87q0 45 34.5 73.5t85.5 28.5q50 0 84 -28.5t34 -73.5q0 -58 -55 -87q29 -12 47 -36.5t18 -55.5q0 -50 -36 -80t-93 -30zM628 341q-31 0 -51 -17.5
t-20 -44.5q0 -29 20 -47.5t51 -18.5t51 18.5t20 47.5q0 27 -20 44.5t-51 17.5zM628 172q-36 0 -58.5 -19.5t-22.5 -50.5q0 -30 22 -49t59 -19t59 19t22 49q0 31 -22.5 50.5t-58.5 19.5zM177 0l218 359l200 341h50l-217 -359l-200 -341h-51z" />
    <glyph glyph-name="one.sup_alt" 
d="M310 436h-246v44h102v283l-92 -37l-9 46l111 44h41v-336h93v-44z" />
    <glyph glyph-name="one.inf_alt" 
d="M310 -132h-246v44h102v283l-92 -37l-9 46l111 44h41v-336h93v-44z" />
    <glyph glyph-name="zero.tab" horiz-adv-x="530" 
d="M264 -11q-100 0 -159 92.5t-59 261.5v12q0 170 59.5 263t159.5 93t159 -92.5t59 -261.5v-12q0 -170 -59.5 -263t-159.5 -93zM265 645q-66 0 -105.5 -74t-39.5 -214v-12q0 -140 39.5 -215t105.5 -75t105 74t39 214v12q0 140 -39 215t-105 75z" />
    <glyph glyph-name="one.tab" horiz-adv-x="530" 
d="M494 0h-420v65h183v558l-166 -67l-14 67l197 81h56v-639h164v-65z" />
    <glyph glyph-name="two.tab" horiz-adv-x="530" 
d="M472 0h-426v58l225 252q66 71 92.5 116.5t26.5 91.5q-1 56 -36.5 89.5t-87.5 33.5q-49 0 -87 -26t-75 -79l-51 43q45 66 96 98.5t122 32.5q86 0 140.5 -52t54.5 -134v-2q0 -62 -29.5 -112.5t-102.5 -130.5l-186 -209h324v-70z" />
    <glyph glyph-name="three.tab" horiz-adv-x="530" 
d="M251 -11q-126 0 -211 97l47 53q73 -82 166 -82q61 0 102.5 39t41.5 103v3q0 64 -47 98t-131 34h-36l-15 48l204 249h-305v69h396v-62l-204 -245q92 -6 152.5 -53t60.5 -135v-3q0 -95 -64 -154t-157 -59z" />
    <glyph glyph-name="three.tab_alt" horiz-adv-x="530" 
d="M253 -11q-130 0 -215 101l48 49q70 -83 168 -83q66 0 106.5 37t40.5 99q0 63 -47.5 97.5t-131.5 34.5h-48v64h53q72 0 118 37t46 99q0 55 -36.5 87.5t-96.5 32.5q-91 0 -160 -84l-47 44q84 107 211 107q91 0 147.5 -50.5t56.5 -130.5q0 -64 -35.5 -106.5t-89.5 -63.5
q134 -44 134 -171q0 -87 -62 -143.5t-160 -56.5z" />
    <glyph glyph-name="four.tab" horiz-adv-x="530" 
d="M347 0v160h-303l-12 64l298 480h85v-482h85v-62h-85v-160h-68zM347 221v388h-1l-244 -388h245z" />
    <glyph glyph-name="five.tab" horiz-adv-x="530" 
d="M252 -11q-118 0 -207 89l44 55q79 -77 164 -77q67 0 108.5 44t41.5 113v3q0 68 -41 107t-108 39q-64 0 -127 -36l-48 31l21 343h348v-69h-286l-15 -230q58 27 119 27q92 0 152 -55.5t60 -153.5v-2q0 -101 -64 -164.5t-162 -63.5z" />
    <glyph glyph-name="six.tab" horiz-adv-x="530" 
d="M287 444q84 0 141 -57.5t57 -158.5v-4q0 -102 -60.5 -168.5t-149.5 -66.5q-88 0 -144 56q-40 41 -59.5 104t-19.5 171v10q0 179 66 280t184 101q84 0 157 -59l-37 -59q-59 50 -122 50q-84 0 -129.5 -81.5t-46.5 -210.5q55 93 163 93zM274 54q63 0 100.5 47.5t37.5 119.5
v2q0 73 -37.5 115t-98.5 42q-64 0 -103 -44.5t-39 -114.5v-1q0 -73 38.5 -119.5t101.5 -46.5z" />
    <glyph glyph-name="seven.tab" horiz-adv-x="530" 
d="M395 630h-334v70h416v-57l-275 -643h-81z" />
    <glyph glyph-name="eight.tab" horiz-adv-x="530" 
d="M265 -10q-96 0 -157.5 54.5t-61.5 140.5v5q0 60 33 105t90 68q-105 49 -105 161v3q0 81 58.5 132t142.5 51t142 -51t58 -132v-3q0 -112 -104 -161q56 -23 89.5 -68t33.5 -105v-4q0 -87 -62 -141.5t-157 -54.5zM265 53q67 0 106 38t39 97v3q0 60 -41.5 99t-103.5 39
t-104 -39t-42 -99v-3q0 -59 39.5 -97t106.5 -38zM265 390q55 0 91.5 37t36.5 92v3q0 55 -36 90.5t-92 35.5t-92.5 -35t-36.5 -90v-4q0 -55 37 -92t92 -37z" />
    <glyph glyph-name="nine.tab" horiz-adv-x="530" 
d="M244 250q-84 0 -141 58t-57 161v4q0 104 60 171t150 67q88 0 144 -56q40 -40 59.5 -103.5t19.5 -171.5v-10q0 -179 -66 -280t-184 -101q-87 0 -167 64l37 59q68 -55 132 -55q82 0 128 80.5t48 204.5q-54 -92 -163 -92zM257 646q-63 0 -100.5 -48t-37.5 -122v-2
q0 -75 37.5 -118t97.5 -43q65 0 104 45.5t39 117.5v1q0 75 -38.5 122t-101.5 47z" />
    <glyph glyph-name="period.tab" horiz-adv-x="265" 
d="M83 0v111h99v-111h-99z" />
    <glyph glyph-name="comma.tab" horiz-adv-x="265" 
d="M72 -120l-12 34q70 25 64 86h-41v111h99v-96q0 -58 -27 -89.5t-83 -45.5z" />
    <glyph glyph-name="colon.tab" horiz-adv-x="265" 
d="M83 409v111h99v-111h-99zM83 0v111h99v-111h-99z" />
    <glyph glyph-name="semicolon.tab" horiz-adv-x="265" 
d="M83 409v111h99v-111h-99zM72 -120l-12 34q70 25 64 86h-41v111h99v-96q0 -58 -27 -89.5t-83 -45.5z" />
    <glyph glyph-name="twodotleader.tab" horiz-adv-x="530" 
d="M349 0v106h95v-106h-95zM86 0v106h94v-106h-94z" />
    <glyph glyph-name="periodcentered.tab" horiz-adv-x="265" 
d="M83 245v112h99v-112h-99z" />
    <glyph glyph-name="slash.tab" horiz-adv-x="530" 
d="M509 789l-436 -908h-66l435 908h67z" />
    <glyph glyph-name="bar.tab" horiz-adv-x="265" 
d="M102 -119v908h60v-908h-60z" />
    <glyph glyph-name="underscore.tab" horiz-adv-x="530" 
d="M-1 -159v60h531v-60h-531z" />
    <glyph glyph-name="dollar.tab" horiz-adv-x="530" 
d="M343 779l-8 -83q70 -14 133 -64l-37 -57q-55 42 -107 56l-26 -249q96 -33 139.5 -79t43.5 -117v-1q0 -82 -60 -135t-153 -53h-7l-12 -113h-56l13 118q-93 18 -168 83l39 56q66 -60 138 -75l27 260q-93 32 -136 77.5t-43 116.5q0 81 57.5 132t147.5 51h10l9 76h56z
M411 181q0 46 -26.5 76t-91.5 53l-27 -249h4q66 0 103.5 34t37.5 86zM134 525q0 -45 26 -74.5t89 -52.5l25 241h-9q-60 0 -95.5 -31.5t-35.5 -82.5z" />
    <glyph glyph-name="sterling.tab" horiz-adv-x="530" 
d="M125 367v119q0 114 58 172q53 51 136 51q99 0 170 -82l-49 -50q-55 64 -121 64q-50 0 -82 -32q-38 -38 -38 -122v-120h221v-64h-221v-237h288v-66h-432v42l70 21v240h-71v64h71z" />
    <glyph glyph-name="Euro.tab" horiz-adv-x="530" 
d="M32 409v55h75q21 113 82.5 179.5t148.5 66.5q90 0 156 -76l-43 -51q-51 61 -114 61q-58 0 -99 -47.5t-58 -132.5h199v-55h-207q-2 -36 -2 -53v-11q0 -33 1 -48h208v-55h-200q15 -86 56.5 -136t100.5 -50q64 0 118 64l42 -47q-68 -83 -163 -83q-88 0 -148 66.5t-80 185.5
h-73v55h67q-2 30 -2 47v12q0 17 2 53h-67z" />
    <glyph glyph-name="yen.tab" horiz-adv-x="530" 
d="M78 171h152v97h-152v55h137l-197 377h82l166 -337l166 337h79l-197 -377h138v-55h-152v-97h152v-55h-152v-116h-70v116h-152v55z" />
    <glyph glyph-name="cent.tab" horiz-adv-x="530" 
d="M365 705l-13 -88q70 -16 125 -76l-42 -49q-48 50 -94 62l-57 -406h8q82 0 146 71l40 -45q-77 -89 -190 -89h-11l-13 -91h-59l15 101q-74 22 -119 89.5t-45 162.5v6q0 117 67 193t171 77l13 82h58zM126 349q0 -72 28.5 -121.5t77.5 -68.5l55 401q-71 -3 -116 -59.5
t-45 -147.5v-4z" />
    <glyph glyph-name="numbersign.tab" horiz-adv-x="530" 
d="M28 242h91l25 219h-87v64h95l20 175h58l-20 -175h149l21 175h58l-21 -175h84v-64h-91l-26 -219h89v-63h-96l-21 -179h-58l21 179h-150l-20 -179h-58l20 179h-83v63zM202 462l-26 -221h150l27 221h-151z" />
    <glyph glyph-name="paragraph.tab" horiz-adv-x="530" 
d="M358 0v260h-48q-115 1 -185 59t-70 160q0 104 70.5 162.5t188.5 58.5h120v-700h-76z" />
    <glyph glyph-name="section.tab" horiz-adv-x="530" 
d="M267 -9q-104 0 -180 68l39 51q65 -58 143 -58q40 0 63 18t23 47v1q0 30 -28.5 51.5t-98.5 45.5q-102 34 -142 66t-40 80v1q0 43 33 74t92 41q-67 44 -67 104v1q0 56 44.5 91.5t114.5 35.5q103 0 179 -68l-38 -51q-67 58 -144 58q-40 0 -62.5 -18t-22.5 -47v-1
q0 -30 28.5 -51.5t98.5 -45.5q102 -34 142 -66t40 -80v-1q0 -43 -33 -74t-93 -41q68 -44 68 -104v-1q0 -55 -45 -91t-114 -36zM211 441q-43 0 -70.5 -20.5t-27.5 -51.5v-1q0 -28 25.5 -48.5t88.5 -40.5q62 -20 92 -20q42 0 69.5 20.5t27.5 51.5v1q0 28 -25.5 48.5
t-88.5 40.5q-56 18 -91 20z" />
    <glyph glyph-name="degree.tab" horiz-adv-x="530" 
d="M264 312q-75 0 -127.5 56.5t-52.5 139.5v3q0 83 53.5 140t127.5 57q75 0 128 -57t53 -140v-3q0 -83 -53.5 -139.5t-128.5 -56.5zM265 364q54 0 89 40.5t35 103.5v3q0 63 -35 104t-90 41t-89.5 -41t-34.5 -104v-3q0 -62 35.5 -103t89.5 -41z" />
    <glyph glyph-name="percent.tab" horiz-adv-x="530" 
d="M391 335q50 0 80 -46t30 -120v-8q0 -75 -30 -121.5t-80 -46.5t-80 46.5t-30 120.5v8q0 74 30 120.5t80 46.5zM138 707q50 0 80 -46.5t30 -120.5v-7q0 -75 -30 -121.5t-80 -46.5t-80 46t-30 120v8q0 74 30 121t80 47zM411 700h49l-179 -359l-163 -341h-48l179 358z
M139 660q-29 0 -44.5 -32.5t-15.5 -86.5v-11q0 -54 15.5 -86t44.5 -32q28 0 43.5 32.5t15.5 85.5v11q0 54 -15.5 86.5t-43.5 32.5zM391 288q-28 0 -43.5 -32.5t-15.5 -85.5v-11q0 -54 15.5 -86.5t43.5 -32.5q29 0 44 32.5t15 86.5v11q0 54 -15 86t-44 32z" />
    <glyph glyph-name="quotedbl.tab" horiz-adv-x="530" 
d="M307 431l44 269h87v-6l-94 -263h-37zM111 431l44 269h87v-6l-94 -263h-37z" />
    <glyph glyph-name="quotesingle.tab" horiz-adv-x="265" 
d="M77 431l45 269h86v-6l-93 -263h-38z" />
    <glyph glyph-name="plus.tab" horiz-adv-x="530" 
d="M474 319h-175v-180h-69l1 180h-175v66h175l-1 180h69v-180h175v-66z" />
    <glyph glyph-name="minus.tab" horiz-adv-x="530" 
d="M473 316h-417v72h417v-72z" />
    <glyph glyph-name="divide.tab" horiz-adv-x="530" 
d="M219 484v98h91v-98h-91zM473 318h-417v68h417v-68zM219 123v97h91v-97h-91z" />
    <glyph glyph-name="equal.tab" horiz-adv-x="530" 
d="M461 421h-392v69h392v-69zM461 214h-392v69h392v-69z" />
    <glyph glyph-name="multiply.tab" horiz-adv-x="530" 
d="M412 153l-148 152l-147 -152l-49 46l152 152l-152 153l50 47l147 -152l148 152l48 -46l-151 -152l151 -153z" />
    <glyph glyph-name="less.tab" horiz-adv-x="530" 
d="M450 111l-391 210v62l391 210v-75l-316 -165l316 -167v-75z" />
    <glyph glyph-name="greater.tab" horiz-adv-x="530" 
d="M470 321l-390 -210v75l316 165l-316 167v75l390 -210v-62z" />
    <glyph glyph-name="plusminus.tab" horiz-adv-x="530" 
d="M474 352h-175v-173h-69l1 173h-175v67h175l-1 174h69v-174h175v-67zM473 21h-417v65h417v-65z" />
    <glyph glyph-name="space.tab" horiz-adv-x="265" 
 />
    <glyph glyph-name="NUL" horiz-adv-x="0" 
 />
    <glyph glyph-name="hfjslug" horiz-adv-x="694" 
d="M644 -200h-208l-8 14h-163l-8 -14h-207v303q14 0 23 9.5t9 22.5t-9.5 22.5t-22.5 9.5v554h100l30 79h334l29 -79h101v-921zM400 563v-172h15v78h38v14h-38v66h43v14h-58zM184 563v-172h15v79h47v-79h15v172h-15v-79h-47v79h-15zM460 394q10 -4 21 -4q31 0 31 36v137h-16
v-137q0 -22 -16 -22q-8 0 -20 5v-15zM371 465l-13 3q-4 -18 -8 -30h-1l-16 31q23 21 23 42q0 31 -27 31q-12 0 -20 -9t-8 -22t14 -39q-23 -18 -23 -47q0 -16 8 -26.5t21 -10.5q19 0 29 24h1l12 -24l12 6l-17 32q6 14 13 39zM523 323v-46h8v12l8 8l15 -20h10l-20 26l18 20
h-10l-20 -24h-1v24h-8zM488 292l10 -15h9l-12 17q10 4 10 14q0 15 -17 15h-20v-46h8v15h12zM426 276q10 0 17 7t7 17q0 9 -7 16.5t-17 7.5t-17 -7.5t-7 -16.5q0 -10 7 -17t17 -7zM370 301l-13 22h-9l18 -29v-17h8v17l18 29h-9zM193 323v-46h34v7h-26v13h23v7h-23v12h26v7
h-34zM132 323v-46h8v32l25 -32h7v46h-8v-32l-25 32h-7zM241 323l14 -47h8l11 34h1l11 -34h8l14 47h-8l-10 -35h-1l-11 35h-7l-11 -35h-1l-10 35h-8zM327 479q-12 22 -12 32q0 19 14 19q13 0 13 -19q0 -15 -15 -32zM342 423q-8 -21 -20 -21q-16 0 -16 25q0 19 16 35zM487 299
h-11v17h11q10 0 10 -8q0 -9 -10 -9zM426 283q-16 0 -16 17q0 6 4.5 11.5t11.5 5.5t11.5 -5.5t4.5 -11.5q0 -17 -16 -17z" />
    <glyph glyph-name="i.dot" horiz-adv-x="232" 
d="M76 628v85h80v-85h-80zM80 0v521h72v-521h-72z" />
    <glyph glyph-name="zero.num" 
d="M176 317q-60 0 -95.5 52t-35.5 140v5q0 89 35.5 141.5t96.5 52.5q60 0 95.5 -51.5t35.5 -140.5v-5q0 -89 -36 -141.5t-96 -52.5zM176 662q-37 0 -58.5 -39.5t-21.5 -107.5v-5q0 -68 21.5 -107.5t59.5 -39.5q37 0 58.5 39.5t21.5 107.5v5q0 68 -21.5 107.5t-59.5 39.5z
" />
    <glyph glyph-name="one.num" horiz-adv-x="287" 
d="M188 325h-51v326l-79 -33l-9 45l98 42h41v-380z" />
    <glyph glyph-name="one.num_alt" 
d="M310 325h-246v44h102v283l-92 -37l-9 46l111 44h41v-336h93v-44z" />
    <glyph glyph-name="two.num" 
d="M49 325v41l132 132q35 33 49.5 55.5t14.5 47.5q0 27 -19 44t-47 17q-48 0 -93 -57l-34 29q55 74 130 74q50 0 82.5 -29t32.5 -75q0 -35 -17 -62t-58 -67l-104 -103h182v-47h-251z" />
    <glyph glyph-name="three.num" 
d="M170 317q-77 0 -128 58l30 35q45 -48 99 -48q31 0 52.5 19.5t21.5 50.5q0 32 -26.5 50t-72.5 18h-23l-7 32l112 122h-168v46h232v-39l-113 -121q53 -6 85 -32.5t32 -75.5q0 -51 -36 -83t-90 -32z" />
    <glyph glyph-name="four.num" 
d="M268 407v-84h-47v84h-171l-8 42l169 255h57v-255h48v-42h-48zM222 448v194h-2l-128 -194h130z" />
    <glyph glyph-name="five.num" 
d="M170 317q-71 0 -125 54l30 37q46 -46 96 -46q36 0 58 22.5t22 55.5q0 34 -22.5 52.5t-58.5 18.5t-72 -17l-33 18l14 188h206v-48h-164l-8 -108q31 12 66 12q53 0 88 -30.5t35 -83.5q0 -55 -37 -90t-95 -35z" />
    <glyph glyph-name="six.num" 
d="M176 317q-52 0 -85 33q-44 44 -44 145v6q0 97 39.5 152t105.5 55q55 0 97 -37l-26 -38q-36 30 -72 30q-40 0 -66.5 -38t-28.5 -102q34 42 90 42q48 0 81 -31.5t33 -88.5q0 -56 -35.5 -92t-88.5 -36zM176 361q34 0 54.5 22.5t20.5 59.5t-20 58t-54 21q-33 0 -54.5 -21.5
t-21.5 -57.5t21.5 -59t53.5 -23z" />
    <glyph glyph-name="seven.num" 
d="M144 323h-56l155 328h-186v49h243v-38z" />
    <glyph glyph-name="eight.num" 
d="M177 317q-57 0 -93.5 30t-36.5 79q0 64 66 93q-55 28 -55 87q0 45 34.5 73.5t84.5 28.5t84.5 -28.5t34.5 -73.5q0 -58 -55 -87q29 -12 47 -36.5t18 -55.5q0 -50 -36 -80t-93 -30zM177 666q-31 0 -51 -17.5t-20 -44.5q0 -29 20 -47.5t51 -18.5t51 18.5t20 47.5
q0 27 -20 44.5t-51 17.5zM177 497q-36 0 -58.5 -19.5t-22.5 -50.5q0 -30 22 -49t59 -19t59 19t22 49q0 31 -22.5 50.5t-58.5 19.5z" />
    <glyph glyph-name="nine.num" 
d="M177 708q52 0 85 -33q45 -43 45 -145v-5q0 -99 -39.5 -153.5t-106.5 -54.5q-57 0 -102 39l26 39q38 -33 78 -33q39 0 66 37t28 99q-34 -42 -89 -42q-48 0 -81.5 32.5t-33.5 89.5t35.5 93.5t88.5 36.5zM176 499q33 0 55 22t22 59t-21 60.5t-54 23.5q-35 0 -55.5 -23
t-20.5 -61t20 -59.5t54 -21.5z" />
    <glyph glyph-name="zero.den" 
d="M176 -8q-60 0 -95.5 52t-35.5 140v5q0 89 35.5 141.5t96.5 52.5q60 0 95.5 -51.5t35.5 -140.5v-5q0 -89 -36 -141.5t-96 -52.5zM176 337q-37 0 -58.5 -39.5t-21.5 -107.5v-5q0 -68 21.5 -107.5t59.5 -39.5q37 0 58.5 39.5t21.5 107.5v5q0 68 -21.5 107.5t-59.5 39.5z" />
    <glyph glyph-name="one.den" horiz-adv-x="287" 
d="M188 0h-51v326l-79 -33l-9 45l98 42h41v-380z" />
    <glyph glyph-name="one.den_alt" 
d="M310 0h-246v44h102v283l-92 -37l-9 46l111 44h41v-336h93v-44z" />
    <glyph glyph-name="two.den" 
d="M49 0v41l132 132q35 33 49.5 55.5t14.5 47.5q0 27 -19 44t-47 17q-48 0 -93 -57l-34 29q55 74 130 74q50 0 82.5 -29t32.5 -75q0 -35 -17 -62t-58 -67l-104 -103h182v-47h-251z" />
    <glyph glyph-name="three.den" 
d="M170 -8q-77 0 -128 58l30 35q45 -48 99 -48q31 0 52.5 19t21.5 50q0 33 -26.5 51t-72.5 18h-23l-7 32l112 122h-168v46h232v-39l-113 -121q53 -6 85 -32.5t32 -75.5q0 -51 -36 -83t-90 -32z" />
    <glyph glyph-name="four.den" 
d="M268 82v-84h-47v84h-171l-8 42l169 255h57v-255h48v-42h-48zM222 123v194h-2l-128 -194h130z" />
    <glyph glyph-name="five.den" 
d="M170 -8q-71 0 -125 54l30 37q46 -46 96 -46q36 0 58 22.5t22 55.5q0 34 -22.5 52.5t-58.5 18.5t-72 -17l-33 18l14 188h206v-48h-164l-8 -108q31 12 66 12q53 0 88 -30.5t35 -83.5q0 -55 -37 -90t-95 -35z" />
    <glyph glyph-name="six.den" 
d="M176 -8q-52 0 -85 33q-44 44 -44 145v5q0 98 39.5 153t105.5 55q55 0 97 -37l-26 -38q-36 30 -72 30q-40 0 -66.5 -38t-28.5 -102q34 42 90 42q48 0 81 -31.5t33 -88.5q0 -56 -35.5 -92t-88.5 -36zM176 36q34 0 54.5 22.5t20.5 59.5t-20 58t-54 21q-33 0 -54.5 -21.5
t-21.5 -57.5t21.5 -59t53.5 -23z" />
    <glyph glyph-name="seven.den" 
d="M144 -2h-56l155 328h-186v49h243v-38z" />
    <glyph glyph-name="eight.den" 
d="M177 -8q-57 0 -93 30t-36 79q0 64 65 93q-55 28 -55 87q0 45 34.5 73.5t85.5 28.5q50 0 84 -28.5t34 -73.5q0 -58 -55 -87q29 -12 47 -36.5t18 -55.5q0 -50 -36 -80t-93 -30zM177 341q-31 0 -51 -17.5t-20 -44.5q0 -29 20 -47.5t51 -18.5t51 18.5t20 47.5q0 27 -20 44.5
t-51 17.5zM177 172q-36 0 -58.5 -19.5t-22.5 -50.5q0 -30 22 -49t59 -19t59 19t22 49q0 31 -22.5 50.5t-58.5 19.5z" />
    <glyph glyph-name="nine.den" 
d="M177 383q52 0 85 -33q45 -43 45 -145v-6q0 -98 -39.5 -152.5t-106.5 -54.5q-57 0 -102 39l26 39q38 -33 78 -33q39 0 66 37t28 99q-34 -42 -89 -42q-48 0 -81.5 32.5t-33.5 89.5t35.5 93.5t88.5 36.5zM176 174q33 0 55 22t22 59t-21 60.5t-54 23.5q-35 0 -55.5 -23
t-20.5 -61t20 -59.5t54 -21.5z" />
    <glyph glyph-name="caron.alt" horiz-adv-x="500" 
d="M203 576l13 160h66v-3l-45 -157h-34z" />
    <glyph glyph-name="acute.cap" horiz-adv-x="500" 
d="M179 755l90 123l74 -34l-106 -89h-58z" />
    <glyph glyph-name="hungarumlaut.cap" horiz-adv-x="500" 
d="M100 755l91 123l71 -34l-104 -89h-58zM237 755l91 123l71 -34l-105 -89h-57z" />
    <glyph glyph-name="grave.cap" horiz-adv-x="500" 
d="M320 755h-59l-105 89l73 34z" />
    <glyph glyph-name="circumflex.cap" horiz-adv-x="500" 
d="M118 756l98 114h68l98 -114h-66l-67 59l-67 -59h-64z" />
    <glyph glyph-name="caron.cap" horiz-adv-x="500" 
d="M382 870l-98 -114h-68l-98 114h66l67 -59l67 59h64z" />
    <glyph glyph-name="breve.cap" horiz-adv-x="500" 
d="M250 754q-57 0 -93.5 27.5t-40.5 77.5h56q16 -47 78 -47t78 47h56q-4 -50 -40.5 -77.5t-93.5 -27.5z" />
    <glyph glyph-name="tilde.cap" horiz-adv-x="500" 
d="M315 756q-25 0 -71 21q-38 17 -51 17q-16 0 -25.5 -10t-19.5 -34l-47 13q27 94 84 94q25 0 71 -22q36 -16 51 -16q16 0 25.5 9.5t19.5 33.5l46 -13q-14 -48 -33.5 -70.5t-49.5 -22.5z" />
    <glyph glyph-name="macron.cap" horiz-adv-x="500" 
d="M104 772v61h292v-61h-292z" />
    <glyph glyph-name="dieresis.cap" horiz-adv-x="500" 
d="M290 757v86h85v-86h-85zM124 757v86h86v-86h-86z" />
    <glyph glyph-name="dotaccent.cap" horiz-adv-x="500" 
d="M206 757v86h88v-86h-88z" />
    <glyph glyph-name="ring.cap" horiz-adv-x="500" 
d="M250 754q-42 0 -72 26.5t-30 65.5t30 65.5t72 26.5t72 -26.5t30 -65.5t-30 -65.5t-72 -26.5zM250 789q26 0 43 16.5t17 40.5t-17 40t-43 16t-43 -16t-17 -40t17 -40.5t43 -16.5z" />
    </font>
</defs>
</svg>
