<?xml version="1.0" standalone="no"?>
<!DOCTYPE svg PUBLIC "-//W3C//DTD SVG 1.1//EN" "http://www.w3.org/Graphics/SVG/1.1/DTD/svg11.dtd" >
<svg xmlns="http://www.w3.org/2000/svg" xmlns:xlink="http://www.w3.org/1999/xlink" version="1.1">
<metadata>
Created by FontForge 20161003 at Wed May 15 03:01:29 2019
 By www-data
(c) 1990, 1991, 1992, 1994, 1997, 1998, 2000, 2002, 2004 Adobe Systems Incorporated. All rights reserved.
</metadata>
<defs>
<font id="minionprobold" horiz-adv-x="400" >
  <font-face 
    font-family="minionprobold"
    font-weight="700"
    font-stretch="normal"
    units-per-em="1000"
    panose-1="2 4 7 3 6 3 6 2 2 3"
    ascent="727"
    descent="-273"
    x-height="442"
    cap-height="650"
    bbox="-319 -360 1684 1024"
    underline-thickness="50"
    underline-position="-150"
    unicode-range="U+0020-FB06"
  />
<missing-glyph horiz-adv-x="500" 
d="M500 0h-500v700h500v-700zM420 650h-340l170 -255zM450 95v510l-170 -255zM80 50h340l-170 255zM50 605v-510l170 255z" />
    <glyph glyph-name="T_h" unicode="Th" horiz-adv-x="1105" 
d="M1087 0h-236v32q35 5 43 16t8 52v177q0 103 -73 103q-43 0 -72 -29v-251q0 -41 7.5 -52t38.5 -16v-32h-239v32q46 5 55.5 16t9.5 59v490q-69 9 -195 9h-39v-475q0 -62 14.5 -77t74.5 -20v-34h-309v34q58 5 72 20t14 77v475h-39q-61 0 -84.5 -7t-36.5 -25q-22 -28 -38 -91
h-36q2 31 6.5 97.5t5.5 94.5h22q11 -16 22.5 -20.5t34.5 -4.5h413q57 0 77.5 4.5t20.5 15.5v13q85 13 128 27v-320q64 64 133 64q67 0 103 -42t36 -124v-182q0 -46 9 -57t49 -17v-32z" />
    <glyph glyph-name="Tcaron_h" unicode="&#x164;h" horiz-adv-x="1105" 
d="M1087 0h-236v32q35 5 43 16t8 52v177q0 103 -73 103q-43 0 -72 -29v-251q0 -41 7.5 -52t38.5 -16v-32h-239v32q46 5 55.5 16t9.5 59v490q-69 9 -195 9h-39v-475q0 -62 14.5 -77t74.5 -20v-34h-309v34q58 5 72 20t14 77v475h-39q-61 0 -84.5 -7t-36.5 -25q-22 -28 -38 -91
h-36q2 31 6.5 97.5t5.5 94.5h22q11 -16 22.5 -20.5t34.5 -4.5h413q57 0 77.5 4.5t20.5 15.5v13q85 13 128 27v-320q64 64 133 64q67 0 103 -42t36 -124v-182q0 -46 9 -57t49 -17v-32zM461 830l15 -26q-49 -38 -132 -123h-30q-61 66 -133 123l17 26q66 -27 131 -59
q59 29 132 59z" />
    <glyph glyph-name="uni021A_h" unicode="&#x21a;h" horiz-adv-x="1105" 
d="M1087 0h-236v32q35 5 43 16t8 52v177q0 103 -73 103q-43 0 -72 -29v-251q0 -41 7.5 -52t38.5 -16v-32h-239v32q46 5 55.5 16t9.5 59v490q-69 9 -195 9h-39v-475q0 -62 14.5 -77t74.5 -20v-34h-309v34q58 5 72 20t14 77v475h-39q-61 0 -84.5 -7t-36.5 -25q-22 -28 -38 -91
h-36q2 31 6.5 97.5t5.5 94.5h22q11 -16 22.5 -20.5t34.5 -4.5h413q57 0 77.5 4.5t20.5 15.5v13q85 13 128 27v-320q64 64 133 64q67 0 103 -42t36 -124v-182q0 -46 9 -57t49 -17v-32zM317 -31q35 0 60.5 -26.5t25.5 -66.5q0 -47 -33.5 -76.5t-88.5 -42.5l-10 26q64 31 64 69
q0 35 -51 48q-15 4 -15 26q0 20 14.5 31.5t33.5 11.5z" />
    <glyph glyph-name="f_b" unicode="fb" horiz-adv-x="853" 
d="M509 417l36 17q45 20 70 20q87 0 147.5 -63t60.5 -148q0 -109 -76 -182t-188 -73q-82 0 -178 36v574q-19 23 -49 38.5t-55 15.5q-34 0 -45 -37q-11 -32 -11 -138v-35h94q3 -9 -0.5 -26t-12.5 -23h-81v-281q0 -49 11 -61.5t60 -17.5v-33h-261v33q40 5 51 17.5t11 61.5v281
h-67l-4 12l29 37h42v22q0 33 13 70q23 67 88 115q59 45 123 54q53 -3 89 -25q63 12 97 25l6 -7v-279zM509 381v-272q0 -24 4 -35q7 -16 24.5 -31.5t39.5 -16.5q42 -1 75 48.5t33 140.5q0 88 -39 131.5t-92 43.5q-23 0 -45 -9z" />
    <glyph glyph-name="f_f_b" unicode="ffb" horiz-adv-x="1140" 
d="M796 695v-278q7 4 37 16q42 21 70 21q87 0 147 -62.5t60 -147.5q0 -109 -76.5 -182.5t-187.5 -73.5q-82 0 -178 36v571q-45 60 -99 60q-33 0 -49 -41q-12 -30 -12 -137v-35h94q5 -7 2 -24t-14 -23h-82v-290q0 -46 11 -56.5t57 -15.5v-33h-244v33q32 4 40.5 15.5t8.5 57.5
v289h-161v-291q0 -44 9 -55t44 -16v-33h-243v33q44 5 53.5 15.5t9.5 55.5v291h-67l-5 12l30 35h42v17q0 33 20 76q27 56 86 95q63 46 140 52q85 -3 123 -45q68 60 145 66q51 -1 89 -25q46 9 94 25zM381 442v21q0 59 27 105q-42 67 -108 67q-24 0 -42.5 -17.5t-26.5 -43.5
q-10 -37 -10 -101v-31h160zM796 380v-271q0 -24 5 -34q6 -15 23.5 -30.5t39.5 -16.5q43 -1 75.5 49t32.5 138t-38.5 130.5t-92.5 42.5q-26 0 -45 -8z" />
    <glyph glyph-name="f_f_h" unicode="ffh" horiz-adv-x="1147" 
d="M1128 0h-235v33q36 4 43.5 14t7.5 50v181q0 103 -72 103q-45 0 -76 -31v-253q0 -39 7.5 -49t39.5 -15v-33h-224v33q35 5 42.5 14.5t7.5 53.5v496q-19 26 -45.5 42.5t-51.5 16.5q-36 0 -52 -47q-11 -34 -11 -132v-35h93q5 -7 1.5 -24.5t-13.5 -22.5h-81v-296
q0 -41 10.5 -51t53.5 -15v-33h-241v33q32 4 40.5 14.5t8.5 52.5v295h-160v-294q0 -42 9 -52.5t43 -15.5v-33h-239v33q40 5 49.5 15.5t9.5 52.5v294h-64l-5 11l30 36h39v17q0 34 22 78q29 56 84 93q67 49 143 52q76 -1 122 -43q68 58 143 64q52 -3 86 -23q59 10 98 23l5 -6
v-307q66 64 136 64q66 0 102.5 -43t36.5 -125v-188q0 -40 9 -50t48 -15v-33zM381 442v23q0 63 28 106q-41 63 -110 63q-51 0 -68 -66q-10 -40 -10 -95v-31h160z" />
    <glyph glyph-name="f_f_j" unicode="ffj" horiz-adv-x="859" 
d="M506 442h102q123 0 183 12v-326q0 -94 -28 -162q-27 -63 -71.5 -121t-68.5 -75q-20 -15 -36 -15q-12 0 -26 16.5t-14 38.5q0 26 23 28q68 3 77 20q9 16 12 71q4 77 4 187v207q0 49 -7 60t-42 11h-108v-289q0 -45 10 -55.5t55 -17.5v-32h-242v32q32 5 40.5 16.5t8.5 56.5
v289h-158v-290q0 -44 9 -55.5t44 -16.5v-32h-243v32q42 5 52.5 16.5t10.5 56.5v289h-68l-5 12l30 36h43v17q0 39 18 76q28 58 86 99q66 47 137 53q91 -3 132 -54q83 68 161 71q71 -1 117 -45q24 -26 12 -54q-8 -19 -31 -35q-28 -18 -44 -2q-2 2 -15.5 19.5t-24.5 29
t-31.5 23t-42.5 11.5q-39 0 -53 -59q-8 -33 -8 -113v-37zM378 442v21q0 28 10 59q8 28 18 42q-12 25 -44.5 50.5t-71.5 25.5q-44 0 -60 -58q-10 -37 -10 -109v-31h158z" />
    <glyph glyph-name="f_f_k" unicode="ffk" horiz-adv-x="1112" 
d="M1134 0l-175 -2q-49 59 -137 198q-11 17 -18 17q-6 2 -10 2v-112q0 -44 10.5 -54.5t55.5 -15.5v-33h-245v33q37 5 45 15.5t8 54.5v492q-19 26 -45.5 42.5t-51.5 16.5q-36 0 -52 -47q-11 -33 -11 -130v-35h96q3 -9 -1.5 -27t-12.5 -22h-82v-295q0 -40 10 -50t49 -15v-33
h-239v33q35 4 44 14.5t9 50.5v295h-161v-291q0 -42 9 -53t44 -16v-33h-243v33q43 5 53 15.5t10 52.5v292h-67l-6 12l30 37h43v15q0 40 23 84q26 48 81 88q68 50 147 53q79 -1 121 -43q64 58 142 64q60 -3 84 -24q65 13 98 24l5 -6v-453q35 8 61 37q36 42 59 84q12 16 6 27.5
t-36 15.5v31l216 9v-31q-78 -13 -122 -52q-33 -30 -74 -82q22 -36 71.5 -102t74.5 -93q24 -26 41 -37.5t43 -17.5v-33zM381 442v23q0 61 27 104q-16 26 -44.5 46.5t-64.5 20.5q-26 0 -44 -19t-26 -49t-8 -95v-31h160z" />
    <glyph glyph-name="f_f_t" unicode="fft" horiz-adv-x="924" 
d="M915 37l-83 -38q-25 -11 -41 -11q-122 0 -122 126v281h-160v-297q0 -41 10.5 -50.5t56.5 -14.5v-33h-244v33q33 4 41 14t8 52v296h-160v-297q0 -39 9 -49.5t44 -15.5v-33h-244v33q44 5 53.5 14.5t9.5 50.5v297h-68l-5 12l30 35h43v17q0 38 21 78q26 51 82 91
q67 50 147 54q74 -1 121 -44q68 60 139 65q62 -3 94 -35q19 -19 9 -42t-32 -37q-18 -13 -33 0q-21 22 -49 40.5t-47 18.5q-24 0 -34 -32q-8 -31 -3 -139l1 -35h160v59l113 82l14 -8v-133h100q9 -7 7 -24t-14 -23h-93v-245q0 -51 17 -71.5t37 -20.5q27 0 54 12zM381 442v23
q0 55 26 104q-16 24 -46 45.5t-66 21.5q-45 0 -64 -57q-11 -33 -11 -106v-31h161z" />
    <glyph glyph-name="f_h" unicode="fh" horiz-adv-x="859" 
d="M841 0h-236v33q35 4 43 15t8 52v177q0 102 -73 102q-45 0 -74 -30v-249q0 -41 7.5 -52t38.5 -15v-33h-230v33q39 5 47.5 15t8.5 54v494q-18 24 -47.5 40t-56.5 16q-32 0 -45 -36q-11 -33 -11 -141v-33h93q6 -8 2.5 -26t-14.5 -23h-81v-288q0 -45 8.5 -56t47.5 -16v-33
h-245v33q43 5 52 15.5t9 56.5v288h-63l-4 12l29 37h38v19q0 35 13 72q27 69 86 114q61 47 125 56q50 -2 88 -24q68 13 98 24l6 -6v-307q64 64 135 64q67 0 103.5 -42.5t36.5 -123.5v-183q0 -46 8.5 -56.5t48.5 -15.5v-33z" />
    <glyph glyph-name="f_j" unicode="fj" horiz-adv-x="575" 
d="M221 442h102q122 0 183 12v-328q0 -93 -29 -160q-26 -63 -70.5 -121t-68.5 -75q-20 -15 -37 -15q-12 0 -26.5 17t-14.5 38q0 27 23 27q66 0 78 21q9 16 12 71q5 97 5 187v207q0 47 -7.5 59t-43.5 12h-106v-294q0 -40 10.5 -51t51.5 -17v-32h-251v32q42 6 51.5 16t9.5 52
v294h-65l-5 12l30 36h40v22q0 44 24 94q23 46 78 87q70 54 149 58q76 -3 114 -46q24 -27 10 -54q-10 -21 -31 -33q-28 -16 -42 3q-1 2 -9.5 12.5t-13.5 17t-15.5 17t-20.5 16.5t-23.5 10.5t-27.5 4.5q-42 0 -55 -62q-9 -36 -9 -116v-31z" />
    <glyph glyph-name="f_k" unicode="fk" horiz-adv-x="826" 
d="M847 0l-176 -2q-58 76 -136 198q-11 17 -19 17q-6 2 -9 2v-110q0 -46 10 -56.5t53 -15.5v-33h-242v33q37 5 45 15.5t8 56.5v493q-17 24 -46 39t-56 15q-35 0 -47 -40q-11 -34 -11 -138v-32h93q5 -8 1.5 -26.5t-13.5 -22.5h-81v-283q0 -48 9 -60t48 -17v-33h-248v33
q44 5 53.5 16.5t9.5 60.5v283h-67l-4 11l29 38h42v19q0 35 13 72q23 66 90 116q59 45 121 54q55 -3 87 -24q75 16 97 24l6 -6v-453q37 8 62 38q36 42 61 85q12 16 6.5 26.5t-38.5 14.5v31l215 9v-31q-81 -14 -122 -51q-34 -32 -73 -83q19 -32 69 -99t76 -96q23 -26 40.5 -38
t43.5 -17v-33z" />
    <glyph glyph-name="f_t" unicode="ft" horiz-adv-x="637" 
d="M628 37l-84 -38q-23 -11 -40 -11q-123 0 -123 126v280h-160v-294q0 -42 9.5 -52t52.5 -15v-33h-254v33q45 5 54.5 15t9.5 52v294h-67l-5 12l30 36h42v18q0 31 14 75q24 66 85 114q53 45 122 54q64 -3 94 -34q19 -19 8 -42q-8 -21 -33 -38q-18 -12 -33 1q-20 20 -47 36.5
t-47 16.5q-25 0 -33 -29q-10 -31 -3 -141l1 -31h160v63l113 78l15 -7v-134h100q9 -8 6.5 -25t-14.5 -23h-92v-244q0 -52 17.5 -72t37.5 -20q23 0 54 12z" />
    <glyph glyph-name="longs_b" unicode="&#x17f;b" horiz-adv-x="844" 
d="M505 417l35 17q40 20 68 20q88 0 147 -62t59 -150q0 -109 -75 -181.5t-186 -72.5q-80 0 -176 36v577q-46 55 -91 55q-39 0 -53 -49q-13 -45 -13 -171v-327q0 -49 10 -60t55 -17v-32h-253v32q43 6 52 17t9 60v285h-65l-5 12l30 36h40v21q0 34 12 67q19 66 86 118
q58 46 124 55q53 -3 89 -25q59 12 95 25l6 -8v-278zM505 382v-273q0 -23 6 -33q6 -16 22.5 -31t38.5 -15q42 -1 73 47t31 140q0 85 -37 129t-90 44q-10 0 -44 -8z" />
    <glyph glyph-name="longs_h" unicode="&#x17f;h" horiz-adv-x="854" 
d="M834 0h-234v32q35 5 43 16t8 51v182q0 53 -21 76.5t-54 23.5q-41 0 -71 -30v-251q0 -41 7.5 -52t39.5 -16v-32h-229v32q38 5 46 15t8 55v500q-44 53 -95 53q-34 0 -49 -46q-13 -46 -13 -181v-324q0 -44 9 -55t49 -17v-32h-246v32q42 7 51.5 17.5t9.5 54.5v290h-67l-5 11
l29 37h43v21q0 34 12 67q19 67 87 118q60 46 123 55q51 -3 86 -24q70 13 100 24l4 -6v-306q63 63 133 63q67 0 103.5 -42.5t36.5 -123.5v-186q0 -44 8.5 -54t47.5 -16v-32z" />
    <glyph glyph-name="longs_i" unicode="&#x17f;i" horiz-adv-x="581" 
d="M51 442h42v16q0 48 23 94q24 50 81 93q73 55 150 58q72 -3 114 -46q23 -25 11 -53q-9 -21 -31 -36q-26 -18 -42 0l-15 20q-15 20 -25 30t-31.5 21t-45.5 11q-40 0 -52 -60q-10 -40 -10 -176v-316q0 -40 9.5 -50.5t45.5 -15.5v-32h-245v32q45 6 54 15.5t9 50.5v296h-68
l-4 12zM567 0h-245v32q41 6 48.5 16.5t7.5 63.5v200q0 47 -8.5 58.5t-48.5 19.5v28q104 13 184 36v-342q0 -53 9 -64t53 -16v-32z" />
    <glyph glyph-name="longs_k" unicode="&#x17f;k" horiz-adv-x="815" 
d="M838 0l-176 -2q-43 56 -132 198q-11 17 -19 17q-6 2 -8 2v-111q0 -45 10.5 -56t56.5 -16v-32h-246v32q37 5 45.5 15.5t8.5 52.5v501q-48 55 -96 55q-37 0 -49 -48q-13 -48 -13 -172v-331q0 -45 9.5 -56t50.5 -17v-32h-251v32q45 6 54.5 17t9.5 56v289h-67l-5 12l29 36h43
v21q0 32 11 67q22 68 90 119q62 46 119 54q59 -3 86 -24q73 15 98 24l6 -6v-453q25 5 56 36q28 28 59 84q13 18 8 29t-37 15v31l214 9v-31q-83 -13 -122 -51q-30 -29 -72 -83q19 -31 65.5 -94.5t78.5 -101.5q22 -25 39.5 -36.5t45.5 -18.5v-32z" />
    <glyph glyph-name="longs_l" unicode="&#x17f;l" horiz-adv-x="581" 
d="M567 0h-244v32q36 5 45 17t9 58v493q-39 55 -88 55q-36 0 -51 -40q-18 -42 -18 -186v-321q0 -47 8.5 -58.5t47.5 -17.5v-32h-245v32q44 5 53 16.5t9 59.5v286h-67l-4 11l29 37h42v21q0 31 12 69q20 65 86 114q63 49 129 57q56 -3 88 -24q73 18 91 24l6 -7v-589
q0 -46 10 -57.5t52 -17.5v-32z" />
    <glyph glyph-name="longs_longs" unicode="&#x17f;&#x17f;" horiz-adv-x="581" 
d="M93 442v9q0 35 23 78q23 51 82 96q66 50 146 55q78 -3 119 -42q63 55 132 65q57 -3 83 -31q20 -19 10 -43q-9 -18 -30 -34q-20 -14 -34 0q-52 52 -85 52q-26 0 -33 -38q-3 -16 -3 -44t1 -78.5t1 -82.5v-294q0 -48 9.5 -59t51.5 -19v-32h-244v32q38 6 47 17.5t9 60.5v282
h-67l-5 12l29 38h43v17q0 54 30 106q-52 69 -110 69q-47 0 -66 -68q-12 -44 -12 -175v-293q0 -40 8.5 -50.5t44.5 -15.5v-32h-240v32q42 6 51 16t9 50v294h-66l-4 12l30 38h40z" />
    <glyph glyph-name="longs_longs_i" unicode="&#x17f;&#x17f;i" horiz-adv-x="870" 
d="M93 442v9q0 34 20 76q25 53 84 97q67 51 151 56q74 -2 120 -48q33 30 80 50.5t90 20.5q73 -3 114 -48q23 -25 11 -53q-10 -22 -31 -36q-26 -17 -42 0q-1 1 -11.5 16t-18.5 23t-22 20.5t-31 18.5t-37 6q-41 0 -54 -63q-8 -32 -8 -169v-312q0 -45 9 -57t47 -17v-32h-239v32
q37 5 46 17t9 57v287h-68l-4 11l30 38h42v17q0 65 27 105q-49 67 -110 67q-50 0 -66 -65q-10 -37 -10 -171v-294q0 -41 8.5 -52.5t43.5 -16.5v-32h-242v32q42 7 52 17.5t10 51.5v292h-68l-5 11l30 38h43zM857 0h-241v32q35 5 43.5 17t8.5 58v205q0 48 -8.5 59t-48.5 19v28
q112 14 184 36v-343q0 -49 10 -61.5t52 -17.5v-32z" />
    <glyph glyph-name="longs_longs_l" unicode="&#x17f;&#x17f;l" horiz-adv-x="870" 
d="M858 0h-246v33q37 5 46.5 17.5t9.5 60.5v488q-43 53 -92 53q-40 0 -54 -39q-14 -36 -14 -188v-317q0 -47 9 -59t46 -16v-33h-243v33q41 5 50.5 17t9.5 58v285h-68l-4 11l30 38h42v19q0 56 29 106q-42 65 -110 65q-49 0 -67 -67q-11 -40 -11 -171v-291q0 -43 8.5 -54.5
t43.5 -15.5v-33h-240v33q41 5 50.5 16t9.5 54v290h-68l-4 11l29 38h43v7q0 40 21 79q24 51 85 98q66 49 148 54q74 -2 121 -45q73 64 143 68q54 -3 85 -24q74 17 94 24l5 -6v-586q0 -49 10 -61t53 -17v-33z" />
    <glyph glyph-name="f_f" unicode="ff" horiz-adv-x="615" 
d="M93 442v18q0 42 22 85q23 48 76 87q65 47 134 54q87 -2 131 -50q65 61 135 68q59 0 90 -35q17 -20 6 -43q-7 -19 -31 -36q-20 -15 -35 2q-1 1 -7 6.5t-7.5 7.5t-7.5 7l-9 7.5t-8.5 7t-9 6.5t-8.5 5t-9 4.5t-9 2.5t-9 1q-28 0 -33 -31q-7 -36 0 -137l2 -37h116
q4 -8 0.5 -25.5t-13.5 -23.5h-103v-288q0 -44 12.5 -55.5t62.5 -17.5v-32h-251v32q31 5 39.5 17.5t8.5 56.5v287h-158v-288q0 -43 9.5 -55.5t44.5 -17.5v-32h-245v32q42 5 53 17t11 56v288h-68l-5 12l29 37h44zM378 442v19q0 28 7 58q6 21 16 42q-15 30 -46 54.5t-67 24.5
q-41 0 -57 -54q-11 -38 -11 -113v-31h158z" />
    <glyph glyph-name="f_f_i" unicode="ffi" horiz-adv-x="867" 
d="M852 0h-236v32q30 5 38.5 17t8.5 52v222q0 48 -8 59.5t-44 11.5h-105v-289q0 -45 9 -56t44 -17v-32h-230v32q32 5 40.5 17t8.5 56v289h-158v-290q0 -43 9 -55t44 -17v-32h-241v32q40 5 50.5 17t10.5 56v289h-66l-5 12l30 36h41v17q0 42 18 78q28 58 85 99q70 48 135 53
q97 -3 134 -53q81 67 164 70q74 -1 120 -47q25 -26 13 -54q-10 -21 -32 -35q-28 -18 -44 -2q-2 2 -16 20t-26 30.5t-33 24.5t-43 12q-40 0 -54 -61q-8 -33 -8 -115v-37h100q125 0 185 12v-353q0 -40 10 -51.5t51 -17.5v-32zM378 442v21q0 34 9 62q7 24 18 41
q-12 25 -44 50.5t-71 25.5q-45 0 -61 -58q-9 -34 -9 -111v-31h158z" />
    <glyph glyph-name="f_f_l" unicode="ffl" horiz-adv-x="867" 
d="M855 0h-235v32q28 5 35.5 15.5t7.5 52.5v508q-28 52 -82 52q-32 0 -54 -32q-21 -32 -21 -117v-69h105q3 -9 -0.5 -26t-13.5 -22h-91v-289q0 -45 9.5 -56t47.5 -17v-32h-234v32q32 5 40.5 16.5t8.5 57.5v288h-158v-290q0 -44 8.5 -55.5t43.5 -16.5v-32h-239v32
q40 6 50 17.5t10 55.5v289h-64l-5 12l29 36h40v19q0 39 21 81q28 52 82 91q72 51 144 54q82 -1 128 -45q74 59 149 62q60 1 108 -26q22 7 55 22l11 -5v-595q0 -42 10.5 -52t53.5 -16v-32zM378 442v20q0 15 10 65q4 15 20 46q-38 67 -111 67q-51 0 -68 -66q-9 -34 -9 -104
v-28h158z" />
    <glyph glyph-name="longs_t" unicode="&#x17f;t" horiz-adv-x="630" 
d="M50 442h43v19q0 32 14 71q20 61 86 115q57 47 126 56q58 -3 90 -33q19 -20 9 -44q-11 -22 -33 -36q-18 -14 -33 1q-50 55 -89 55q-24 0 -34 -32q-9 -29 -9 -180v-329q0 -44 11.5 -56t56.5 -17v-32h-257v32q43 6 52.5 17.5t9.5 55.5v289h-68l-5 12zM621 36l-79 -37
q-23 -11 -42 -11q-123 0 -123 127v279h-63l-6 12l29 36h40v63l113 78l15 -7v-134h98q8 -7 6.5 -24.5t-13.5 -23.5h-91v-245q0 -51 17.5 -71.5t38.5 -20.5q20 0 51 12z" />
    <glyph glyph-name="f_i" unicode="fi" horiz-adv-x="581" 
d="M566 0h-236v33q32 4 40 16t8 56v218q0 47 -8 58.5t-44 11.5h-106v-290q0 -41 11 -53t48 -17v-33h-247v33q40 4 50.5 16t10.5 54v290h-68l-4 13l30 36h42v22q0 46 24 94q23 46 78 87q71 55 148 58q76 -3 116 -47q22 -28 9 -55q-9 -22 -31 -33q-27 -17 -42 3l-9 13
q-9 12 -13.5 17.5t-16 17t-21 17t-23.5 10.5t-28 5q-41 0 -54 -59q-10 -39 -10 -119v-31h100q125 0 186 12v-349q0 -44 9.5 -56t50.5 -16v-33z" />
    <glyph glyph-name="f_l" unicode="fl" horiz-adv-x="581" 
d="M568 0h-234v33q29 4 36.5 16t7.5 56v502q-33 50 -82 50q-34 0 -54 -33q-22 -38 -22 -115v-67h103q4 -8 0.5 -26t-13.5 -23h-90v-290q0 -43 8.5 -54t46.5 -16v-33h-246v33q44 6 53.5 16.5t9.5 53.5v290h-68l-4 14l30 35h42v17q0 51 24 99q27 55 80 93q67 48 136 52
q56 0 104 -24q8 2 17 5t22 7.5t21 7.5l9 -5v-589q0 -44 10 -55t53 -17v-33z" />
    <glyph glyph-name=".notdef" horiz-adv-x="500" 
d="M500 0h-500v700h500v-700zM420 650h-340l170 -255zM450 95v510l-170 -255zM80 50h340l-170 255zM50 605v-510l170 255z" />
    <glyph glyph-name=".null" horiz-adv-x="0" 
 />
    <glyph glyph-name="nonmarkingreturn" horiz-adv-x="333" 
 />
    <glyph glyph-name="space" unicode=" " horiz-adv-x="217" 
 />
    <glyph glyph-name="exclam" unicode="!" horiz-adv-x="285" 
d="M141 665q82 0 82 -43q0 -11 -10 -73q-23 -131 -49 -330q-2 -9 -23 -9.5t-23 9.5q-26 199 -49 330q-10 53 -10 73q0 43 82 43zM142 -12q-33 0 -54 22t-21 57q0 34 21.5 56t53.5 22q33 0 55 -22t22 -56q0 -35 -22 -57t-55 -22z" />
    <glyph glyph-name="quotedbl" unicode="&#x22;" horiz-adv-x="380" 
d="M148 708l9 -7q-2 -29 -36 -260l-38 -19q-43 243 -47 252zM331 708l9 -7q-4 -69 -37 -260l-37 -19q-7 37 -18.5 102.5t-18.5 104t-10 45.5z" />
    <glyph glyph-name="numbersign" unicode="#" horiz-adv-x="500" 
d="M468 469l-11 -82h-95l-30 -121h84l-13 -82h-90l-41 -169h-49l41 169h-97l-40 -169h-50l40 169h-96l11 82h105l29 121h-90l10 82h99l35 145h51l-35 -145h96l35 145h49l-35 -145h87zM313 387h-96l-30 -121h97z" />
    <glyph glyph-name="dollar" unicode="$" horiz-adv-x="500" 
d="M275 381l38 -14q149 -57 149 -169q-1 -78 -51 -127t-136 -59v-83h-41v80q-97 1 -165 42q-9 29 -27 142l32 6q53 -138 160 -148v210l-30 13q-148 59 -148 165q0 69 47 116.5t131 58.5v75h41v-72q51 0 92 -13q18 -5 37 -8q17 -87 23 -134l-33 -5q-14 47 -40.5 79t-78.5 39
v-194zM234 397v178q-39 -6 -59.5 -30.5t-20.5 -56.5q0 -58 80 -91zM275 247v-194q37 6 59.5 30.5t22.5 67.5q0 56 -68 89z" />
    <glyph glyph-name="percent" unicode="%" horiz-adv-x="764" 
d="M601 624l-409 -662l-37 27l409 661zM196 635q75 0 115.5 -54.5t40.5 -119.5q0 -67 -40 -121.5t-116 -54.5q-74 0 -114.5 55t-40.5 120q0 41 15.5 79.5t52 67t87.5 28.5zM198 599q-31 0 -45 -44.5t-14 -92.5q0 -50 14 -95.5t45 -45.5t43.5 45t12.5 95q0 138 -56 138z
M570 338q75 0 115 -54.5t40 -120.5q0 -67 -39.5 -121t-115.5 -54q-75 0 -115.5 54.5t-40.5 119.5q0 67 40.5 121.5t115.5 54.5zM570 302q-31 0 -44.5 -43t-13.5 -94t13.5 -96t45.5 -45q31 0 43.5 45t12.5 95q0 52 -12.5 95t-44.5 43z" />
    <glyph glyph-name="ampersand" unicode="&#x26;" horiz-adv-x="715" 
d="M732 426v-34q-46 -5 -69 -18t-50 -49q-13 -16 -84 -117q95 -92 173 -210l-6 -12q-67 0 -113.5 12t-58.5 24q-2 2 -29.5 32t-49.5 51q-91 -119 -193 -119q-96 0 -152.5 57.5t-56.5 128.5q0 31 8 54t30 46t41 38t61 44q-67 65 -67 142q0 67 54 117t128 50q75 0 122.5 -41
t47.5 -104q0 -47 -43 -82q-27 -24 -80 -59q73 -63 156 -140q26 39 49 86q16 34 5.5 48t-60.5 21v34h237zM289 625q-29 0 -48.5 -26.5t-19.5 -62.5t21.5 -65.5t73.5 -70.5q50 42 50 123q0 42 -20.5 72t-56.5 30zM300 77q32 0 65.5 17t53.5 41q-71 72 -210 193
q-42 -45 -42 -110q0 -68 39 -104.5t94 -36.5z" />
    <glyph glyph-name="quotesingle" unicode="'" horiz-adv-x="199" 
d="M148 708l9 -7q-3 -54 -36 -260l-38 -19q-42 234 -49 252z" />
    <glyph glyph-name="parenleft" unicode="(" horiz-adv-x="352" 
d="M314 -145l-27 -27q-211 152 -211 444q0 289 211 442l27 -27q-68 -68 -105.5 -177.5t-37.5 -238.5q0 -128 39.5 -242t103.5 -174z" />
    <glyph glyph-name="parenright" unicode=")" horiz-adv-x="352" 
d="M38 689l26 25q211 -154 211 -443q0 -290 -211 -443l-26 26q67 65 104.5 176.5t37.5 240.5q0 127 -40 242t-102 176z" />
    <glyph glyph-name="asterisk" unicode="*" horiz-adv-x="405" 
d="M372 483l-131 -28l34 -137l-27 -12l-72 128l-123 -74l-18 26l100 96l-104 105l19 25l122 -79l60 132l29 -7l-24 -140l134 -6z" />
    <glyph glyph-name="plus" unicode="+" horiz-adv-x="577" 
d="M531 221h-204v-221h-75v221h-205v65h205v200h75v-200h204v-65z" />
    <glyph glyph-name="comma" unicode="," horiz-adv-x="254" 
d="M101 161q41 0 78.5 -36.5t37.5 -90.5q0 -64 -49.5 -107t-119.5 -60l-13 35q90 37 90 97q0 26 -19 46.5t-54 27.5q-14 7 -14 36q0 23 18.5 37.5t44.5 14.5z" />
    <glyph glyph-name="hyphen" unicode="-" horiz-adv-x="342" 
d="M302 265l-16 -72h-245l15 72h246z" />
    <glyph glyph-name="period" unicode="." horiz-adv-x="254" 
d="M126 -12q-31 0 -52 21.5t-21 54.5t21 54.5t52 21.5q32 0 53.5 -21.5t21.5 -54.5q0 -34 -21.5 -55t-53.5 -21z" />
    <glyph glyph-name="slash" unicode="/" horiz-adv-x="327" 
d="M304 665l-216 -710h-70l216 710h70z" />
    <glyph glyph-name="zero" unicode="0" horiz-adv-x="500" 
d="M250 635q60 0 105 -29.5t69 -78.5t35.5 -103t11.5 -112q0 -59 -11.5 -113t-35.5 -103t-69 -78.5t-105 -29.5t-105 29.5t-69.5 78.5t-36 103t-11.5 112q0 46 7 90.5t24 87.5t41.5 75t63 51.5t86.5 19.5zM249 594q-84 0 -84 -279q0 -118 21 -202t66 -84q83 0 83 285
q0 120 -20.5 200t-65.5 80z" />
    <glyph glyph-name="one" unicode="1" horiz-adv-x="500" 
d="M409 0h-307v34q58 4 73 20t15 71v363q0 39 -7.5 49.5t-37.5 12.5l-51 4v29q84 13 228 52v-510q0 -54 14.5 -70.5t72.5 -20.5v-34z" />
    <glyph glyph-name="two" unicode="2" horiz-adv-x="500" 
d="M440 175l33 -12q-9 -32 -22 -89.5t-17 -73.5h-401v26q120 118 160 165q110 130 110 234q0 53 -27.5 86t-77.5 33q-72 0 -134 -89l-29 24l64 94q64 62 151 62q77 0 129.5 -48.5t52.5 -129.5q0 -58 -32 -110.5t-108 -124.5l-120 -114h163q46 0 62 9.5t43 57.5z" />
    <glyph glyph-name="three" unicode="3" horiz-adv-x="500" 
d="M82 482l-26 24l49 67q58 62 143 62q76 0 119.5 -37.5t43.5 -97.5q0 -38 -32 -67q-20 -17 -74 -51v-2q71 -12 110 -56t39 -102q0 -57 -34.5 -104.5t-83 -74t-92 -41t-70.5 -14.5q-71 0 -112 33q-23 19 -23 40q0 24 29 46q19 14 38 1l7 -6q7 -6 9.5 -8l10 -8t11.5 -9t12 -8
t14 -8t14.5 -6.5t16 -5.5t16 -3.5t17.5 -1.5q40 0 65 34t25 101q0 66 -36.5 98t-83.5 32q-28 0 -54 -7l-7 34q144 48 144 130q0 46 -24.5 68.5t-61.5 22.5q-65 0 -119 -75z" />
    <glyph glyph-name="four" unicode="4" horiz-adv-x="500" 
d="M486 174h-90v-63q0 -46 13 -59t68 -18v-34h-298v34q61 5 75.5 19.5t14.5 62.5v58h-254v41q181 256 309 414h72v-398h90v-57zM269 231v262h-2q-94 -130 -177 -262h179z" />
    <glyph glyph-name="five" unicode="5" horiz-adv-x="500" 
d="M152 515l-27 -154q85 33 129 33q92 0 146 -50t54 -118q0 -99 -101 -170q-91 -66 -187 -68q-65 0 -104 32q-24 19 -24 41q0 11 9.5 26t22.5 25q16 11 36 -6q67 -61 129 -61q45 0 68.5 35.5t23.5 93.5q0 67 -40 107.5t-108 40.5q-52 0 -109 -19l45 320h317l6 -10l-32 -98
h-254z" />
    <glyph glyph-name="six" unicode="6" horiz-adv-x="500" 
d="M179 359l50 24q43 19 59 19q86 0 139 -51t53 -136q0 -95 -65 -161t-163 -66q-96 0 -160 69.5t-64 185.5q0 76 24.5 140.5t65.5 108.5t85 72.5t91 44.5q59 20 149 32l7 -38q-57 -12 -107 -36q-130 -66 -164 -208zM235 331q-32 0 -63 -11q-6 -26 -6 -80q0 -95 32.5 -153
t74.5 -58q41 1 58.5 42.5t17.5 99.5q0 71 -32 115.5t-82 44.5z" />
    <glyph glyph-name="seven" unicode="7" horiz-adv-x="500" 
d="M476 623l9 -12q-26 -55 -90 -188t-110 -232t-87 -191l-103 -12l-8 13q151 224 304 514h-213q-50 0 -66.5 -10.5t-37.5 -55.5h-35q8 46 17 106t10 68h410z" />
    <glyph glyph-name="eight" unicode="8" horiz-adv-x="500" 
d="M261 635q82 0 133 -44t51 -111q0 -42 -33 -74q-35 -31 -73 -55q63 -34 98 -73.5t35 -99.5q0 -88 -70 -139t-153 -51q-98 0 -157.5 46t-59.5 123q0 48 42 88q26 23 93 61q-110 61 -110 155q0 73 57.5 123.5t146.5 50.5zM247 595q-34 0 -54.5 -27t-20.5 -61
q0 -47 31.5 -76.5t97.5 -60.5q37 35 37 105q0 59 -28 89.5t-63 30.5zM258 28q43 0 68.5 30t24.5 79q-1 26 -9 45.5t-30.5 38t-42.5 30.5t-65 36q-23 -17 -37.5 -48.5t-14.5 -69.5q0 -67 32.5 -104t73.5 -37z" />
    <glyph glyph-name="nine" unicode="9" horiz-adv-x="500" 
d="M252 635q105 0 162 -72t57 -181q0 -131 -68 -225.5t-179 -138.5q-30 -12 -83.5 -22t-87.5 -11l-6 36q108 19 182.5 89.5t93.5 163.5l-48 -25q-33 -18 -58 -18q-87 0 -140 54t-53 135q0 35 14.5 71.5t42 69t72.5 53.5t99 21zM233 595q-38 0 -57.5 -40.5t-19.5 -94.5
q0 -66 33 -113t86 -47q25 0 55 13q5 35 5 74q0 85 -24.5 146.5t-77.5 61.5z" />
    <glyph glyph-name="colon" unicode=":" horiz-adv-x="254" 
d="M128 419q32 0 52.5 -21.5t20.5 -55.5q0 -32 -20.5 -53t-52.5 -21t-52.5 21t-20.5 53q0 34 20.5 55.5t52.5 21.5zM127 -12q-31 0 -51.5 21.5t-20.5 54.5t20.5 54t51.5 21q32 0 53 -21t21 -54q0 -34 -21 -55t-53 -21z" />
    <glyph glyph-name="semicolon" unicode=";" horiz-adv-x="254" 
d="M128 419q32 0 52.5 -21.5t20.5 -55.5q0 -32 -20.5 -53t-52.5 -21t-52.5 21t-20.5 53q0 34 20.5 55.5t52.5 21.5zM102 161q41 0 78.5 -36.5t37.5 -90.5q0 -65 -49.5 -107.5t-120.5 -59.5l-9 35q87 37 87 97q0 26 -19 46.5t-54 27.5q-4 1 -9 11t-5 25q0 23 18.5 37.5
t44.5 14.5z" />
    <glyph glyph-name="less" unicode="&#x3c;" horiz-adv-x="548" 
d="M497 0l-444 219v68l444 219v-71l-371 -181v-2l371 -182v-70z" />
    <glyph glyph-name="equal" unicode="=" horiz-adv-x="577" 
d="M531 313h-484v65h484v-65zM531 130h-484v65h484v-65z" />
    <glyph glyph-name="greater" unicode="&#x3e;" horiz-adv-x="548" 
d="M497 219l-444 -219v70l371 182v2l-371 181v71l444 -219v-68z" />
    <glyph glyph-name="question" unicode="?" horiz-adv-x="399" 
d="M228 226l-22 -24q-48 18 -87.5 54.5t-39.5 79.5q0 60 97 122q87 54 101 70q9 10 9 18q0 37 -46 37q-29 0 -59 -17.5t-50.5 -35.5t-26.5 -18q-18 0 -38 21.5t-20 46.5q0 22 23 43q22 20 56 31t57 11q66 0 123 -54t57 -122q0 -34 -11.5 -58t-47.5 -48q-6 -4 -23.5 -16
t-28 -20t-24 -19t-20 -21.5t-6.5 -20.5q0 -27 27 -60zM189 -12q-33 0 -54.5 22t-21.5 57q0 33 22 55.5t54 22.5q33 0 55 -22.5t22 -55.5q0 -35 -22 -57t-55 -22z" />
    <glyph glyph-name="at" unicode="@" horiz-adv-x="766" 
d="M552 -16l13 -30q-88 -54 -194 -54q-134 0 -225 81t-90 228q0 112 55 197.5t140 128t184 42.5q133 0 211.5 -74t78.5 -179q0 -106 -70.5 -179t-178.5 -73q-38 0 -47.5 16.5t-2.5 55.5l8 46l-2 1q-28 -40 -77.5 -79.5t-85.5 -39.5q-22 0 -37 23.5t-14 66.5q4 106 79 183
q31 32 79 53.5t95 21.5q15 0 55 -8q13 -4 36 -4q-22 -79 -48 -221q-5 -24 -5 -38t4.5 -21t13.5 -6q53 0 98 53t44 149q0 98 -66.5 154t-166.5 56q-132 0 -217.5 -91.5t-85.5 -229.5q0 -49 15 -94t45 -83.5t83.5 -62t122.5 -23.5q90 0 153 34zM422 376q-32 0 -57 -28
q-19 -21 -33 -64t-15 -87q-1 -49 19 -49q14 0 45.5 28.5t59.5 77.5q18 52 30 109q-24 13 -49 13z" />
    <glyph glyph-name="A" unicode="A" horiz-adv-x="706" 
d="M687 0h-286v35q43 7 52 19.5t-4 45.5q-14 41 -40 113h-192q-25 -71 -36 -107q-13 -36 -2 -50.5t63 -20.5v-35h-224l1 35q50 6 68 23t43 80l205 514l51 13q177 -483 191 -521q26 -66 44.5 -84.5t65.5 -24.5v-35zM390 266l-74 216h-3q-12 -32 -25.5 -68.5t-29 -80
t-24.5 -67.5h156z" />
    <glyph glyph-name="B" unicode="B" horiz-adv-x="637" 
d="M401 353v-4q193 -23 193 -156q0 -99 -94 -150q-76 -43 -211 -43h-254v35q58 5 72 20.5t14 78.5v382q0 63 -13 78.5t-67 20.5v35h292q112 0 165 -35q59 -38 59 -114q0 -65 -45.5 -100t-110.5 -48zM253 363h23q72 0 105.5 29.5t33.5 91.5q0 63 -31.5 93.5t-76.5 30.5
q-33 0 -45 -12q-9 -9 -9 -43v-190zM253 323v-187q0 -55 16.5 -75t56.5 -19q48 1 83.5 36.5t35.5 103.5q0 141 -172 141h-20z" />
    <glyph glyph-name="C" unicode="C" horiz-adv-x="676" 
d="M625 186l35 -16q-27 -99 -56 -159q-113 -26 -186 -26q-96 0 -170.5 29t-118.5 77.5t-66 106t-22 119.5q0 155 109.5 251.5t287.5 96.5q60 0 182 -27q15 -91 23 -164l-37 -7q-43 154 -187 154q-104 0 -164.5 -83.5t-60.5 -200.5q0 -137 66 -221t169 -84q118 0 196 154z
" />
    <glyph glyph-name="D" unicode="D" horiz-adv-x="761" 
d="M41 650h301q196 0 287 -87q88 -84 88 -212q0 -171 -125 -268q-110 -83 -303 -83h-257v35q60 5 74.5 20.5t14.5 78.5v382q0 63 -13 78.5t-67 20.5v35zM255 540v-400q0 -56 17 -76.5t68 -20.5q102 0 164 78t62 210q0 142 -74 216q-64 62 -163 62q-49 0 -63 -14
q-11 -11 -11 -55z" />
    <glyph glyph-name="E" unicode="E" horiz-adv-x="581" 
d="M536 173l35 -7q-9 -69 -35 -166h-510v35q65 5 80 20t15 78v384q0 64 -13 78.5t-68 19.5v35h471q0 -8 2 -31.5t4 -58t4 -60.5l-36 -5q-18 63 -41 86q-24 25 -100 25h-48q-28 0 -34.5 -5.5t-6.5 -29.5v-212h67q64 0 82.5 11.5t28.5 63.5h36v-202h-36q-10 53 -28 64.5
t-83 11.5h-67v-173q0 -70 24 -82q23 -10 90 -10q80 0 111 32q27 32 56 98z" />
    <glyph glyph-name="F" unicode="F" horiz-adv-x="554" 
d="M524 498l-35 -7q-18 61 -40 86q-28 29 -104 29h-50q-27 0 -33 -5.5t-6 -29.5v-221h81q66 0 84 12t27 61h36v-199h-36q-8 51 -26 63.5t-85 12.5h-81v-158q0 -70 14.5 -86t80.5 -21v-35h-312v35q56 5 69.5 21.5t13.5 85.5v369q0 66 -13.5 82t-69.5 21v36h474q5 -77 11 -152
z" />
    <glyph glyph-name="G" unicode="G" horiz-adv-x="727" 
d="M703 310v-34q-38 -8 -47 -20t-9 -61v-79q0 -63 6 -94q-148 -37 -228 -37q-174 0 -277.5 91t-103.5 241q0 110 55.5 190.5t144 119t196.5 38.5q69 0 195 -28q4 -52 16 -166l-37 -7q-18 80 -69 119.5t-125 39.5q-94 0 -159 -78.5t-65 -209.5q0 -79 24.5 -147t80 -114.5
t133.5 -46.5q39 0 56 12q23 14 23 55v95q0 30 -2 42.5t-14 23.5t-32 14t-62 7v34h300z" />
    <glyph glyph-name="H" unicode="H" horiz-adv-x="783" 
d="M746 650v-35q-59 -5 -71.5 -19.5t-12.5 -78.5v-385q0 -62 13 -77t71 -20v-35h-305v35q60 5 73.5 20t13.5 78v186h-273v-186q0 -63 13 -78t69 -20v-35h-298v35q56 5 69 20t13 78v384q0 63 -13.5 78t-72.5 20v35h300v-35q-55 -5 -67.5 -20t-12.5 -78v-147h273v147
q0 63 -13 78t-69 20v35h300z" />
    <glyph glyph-name="I" unicode="I" horiz-adv-x="378" 
d="M338 0h-300v35q56 5 69.5 20.5t13.5 77.5v383q0 63 -13.5 78.5t-69.5 20.5v35h300v-35q-56 -5 -69.5 -20.5t-13.5 -78.5v-383q0 -62 13.5 -77.5t69.5 -20.5v-35z" />
    <glyph glyph-name="J" unicode="J" horiz-adv-x="366" 
d="M338 650v-35q-53 -5 -66 -20.5t-13 -78.5v-330q0 -102 -19.5 -168.5t-82.5 -118.5q-53 -45 -122 -62l-15 37q80 34 94 121q11 68 11 195v326q0 63 -14 78.5t-72 20.5v35h299z" />
    <glyph glyph-name="K" unicode="K" horiz-adv-x="703" 
d="M699 0h-201q-86 118 -197 279q-26 38 -49 35v-180q0 -63 14 -78.5t72 -20.5v-35h-299v35q55 5 68.5 20.5t13.5 78.5v382q0 63 -13.5 78.5t-70.5 20.5v35h294v-35q-54 -5 -66.5 -20.5t-12.5 -78.5v-170q34 10 76 53q77 77 140 161q19 24 14 36t-39 16l-18 3v35h260v-35
q-50 -5 -84.5 -19.5t-73.5 -50.5q-27 -24 -50 -48t-55 -58t-41 -43q98 -145 210 -287q30 -38 53.5 -53.5t54.5 -20.5v-35z" />
    <glyph glyph-name="L" unicode="L" horiz-adv-x="551" 
d="M513 180l35 -11q-24 -124 -37 -169h-487v35q66 5 81.5 20.5t15.5 77.5v383q0 63 -14 78.5t-72 20.5v35h306v-35q-59 -5 -72.5 -20t-13.5 -79v-390q0 -37 5 -52t20 -22q22 -9 75 -9q72 0 102 34q29 32 56 103z" />
    <glyph glyph-name="M" unicode="M" horiz-adv-x="888" 
d="M860 0h-296v35q56 6 68.5 22t11.5 85l-2 385h-5l-221 -520h-28l-204 510h-4l-12 -261q-6 -117 0 -161q3 -33 21 -44t69 -16v-35h-240v35q41 4 58.5 17.5t22.5 40.5q13 70 21 189l16 197q6 86 -7.5 108t-77.5 28v35h207l193 -438l196 438h201v-35q-59 -6 -71.5 -21
t-10.5 -78l9 -374q2 -69 14.5 -85t70.5 -22v-35z" />
    <glyph glyph-name="N" unicode="N" horiz-adv-x="740" 
d="M724 650v-35q-41 -2 -58.5 -15t-21.5 -47q-9 -93 -9 -166v-397h-48l-416 498h-3v-225q0 -82 8 -162q4 -35 23.5 -49.5t72.5 -16.5v-35h-245v35q42 3 61 17t22 46q10 82 10 165v209q0 51 -3.5 70.5t-17.5 36.5q-23 30 -83 36v35h185l382 -439h4v176q0 48 -8 164
q-4 33 -24.5 47t-74.5 17v35h244z" />
    <glyph glyph-name="O" unicode="O" horiz-adv-x="766" 
d="M393 665q139 0 235 -93.5t96 -239.5q0 -158 -98.5 -252.5t-244.5 -94.5q-149 0 -244 97t-95 242q0 138 94 239.5t257 101.5zM375 623q-78 0 -129 -76.5t-51 -203.5q0 -133 55.5 -224.5t148.5 -91.5q75 0 123.5 72t48.5 205q0 147 -54 233t-142 86z" />
    <glyph glyph-name="P" unicode="P" horiz-adv-x="599" 
d="M43 650h275q121 0 175 -39q74 -50 74 -147q0 -94 -58 -145.5t-146 -62.5q-15 -2 -42 -2l-68 16v-137q0 -63 15 -78.5t80 -20.5v-34h-311v34q57 5 70.5 20.5t13.5 78.5v383q0 63 -12.5 78t-65.5 21v35zM253 570v-260q24 -10 54 -10q17 0 34.5 6.5t37.5 22.5t32.5 50.5
t12.5 81.5q0 78 -36.5 114t-88.5 36q-25 0 -37 -10q-9 -9 -9 -31z" />
    <glyph glyph-name="Q" unicode="Q" horiz-adv-x="758" 
d="M735 -137l-9 -27q-72 -12 -147 8q-82 20 -236 143q-51 3 -111.5 30t-100.5 70q-89 97 -89 232q0 91 38.5 168t120 127.5t192.5 50.5q139 0 235 -93.5t96 -238.5q0 -121 -63.5 -208.5t-157.5 -116.5q136 -96 232 -145zM358 30l82 26q6 -4 26 -19q41 17 73 85.5t32 180.5
q0 148 -54.5 234t-144.5 86q-80 0 -128.5 -80t-48.5 -201q0 -119 43 -204.5t120 -107.5z" />
    <glyph glyph-name="R" unicode="R" horiz-adv-x="659" 
d="M660 23l-6 -32q-2 0 -12.5 0.5t-17.5 0.5q-90 4 -131.5 25.5t-73.5 71.5l-82 147q-22 43 -66 44h-19v-146q0 -61 14 -77.5t71 -21.5v-35h-302v35q57 5 71.5 21.5t14.5 77.5v384q0 60 -13.5 76t-68.5 21v35h281q124 0 178 -38q68 -44 68 -133q0 -111 -125 -163
q28 -58 81 -142q57 -87 77 -108q31 -33 61 -43zM252 319h26q68 0 98 27q48 40 48 119q0 73 -35 109t-83 36q-35 0 -45 -10q-9 -8 -9 -37v-244z" />
    <glyph glyph-name="S" unicode="S" horiz-adv-x="505" 
d="M442 495l-34 -8q-46 137 -140 137q-42 0 -69.5 -28t-27.5 -71q0 -40 28 -68.5t96 -62.5q87 -42 132 -89.5t45 -116.5q0 -87 -67.5 -145t-175.5 -58q-54 0 -101 14q-29 8 -61 22q-14 39 -29 170l35 11q12 -38 32.5 -75t59.5 -69t83 -32q46 0 73 29t27 76q0 42 -29 73
t-90 63q-87 44 -130.5 89.5t-43.5 112.5q0 85 62.5 140.5t166.5 55.5q70 0 139 -27q2 -21 9 -70t10 -73z" />
    <glyph glyph-name="T" unicode="T" horiz-adv-x="641" 
d="M616 481l-36 -2q-18 77 -44 103q-23 24 -101 24h-46v-473q0 -63 15.5 -78t82.5 -20v-35h-326v35q64 5 79 20t15 78v473h-34q-56 0 -79 -6.5t-36 -20.5q-22 -23 -42 -101h-36q2 31 6.5 100t5.5 97h24q11 -16 22.5 -20.5t34.5 -4.5h402q36 0 58 25h24q2 -77 11 -194z" />
    <glyph glyph-name="U" unicode="U" horiz-adv-x="729" 
d="M724 650v-35q-77 -4 -85 -59q-9 -56 -9 -139v-109q0 -173 -72 -250q-70 -73 -185 -73q-111 0 -177 52q-83 64 -83 235v235q0 69 -13.5 86t-70.5 22v35h301v-35q-56 -5 -69.5 -22t-13.5 -86v-217q0 -114 41 -175.5t121 -61.5q171 0 171 257v107q0 79 -10 139
q-4 27 -26 41.5t-71 17.5v35h251z" />
    <glyph glyph-name="V" unicode="V" horiz-adv-x="711" 
d="M702 650v-36q-49 -5 -71.5 -25t-51.5 -90q-76 -178 -202 -510h-50q-112 301 -204 527q-22 58 -42 75.5t-66 22.5v36h298v-36q-52 -8 -62 -20.5t4 -44.5q17 -47 76 -200.5t68 -176.5h3q96 255 126 348q19 52 9 69.5t-69 24.5v36h234z" />
    <glyph glyph-name="W" unicode="W" horiz-adv-x="979" 
d="M969 650v-35q-51 -8 -70.5 -27t-39.5 -81q-64 -179 -166 -518h-52q-35 96 -163 444h-2q-97 -283 -150 -444h-53q-112 372 -160 525q-18 58 -36.5 76t-63.5 25v35h296v-35q-54 -6 -65 -21t2 -53q55 -194 102 -344h2q97 294 144 447h48q84 -229 168 -451h2q53 167 94 337
q11 47 -1 63t-71 22v35h235z" />
    <glyph glyph-name="X" unicode="X" horiz-adv-x="693" 
d="M699 0h-321v35q46 8 53.5 21.5t-9.5 37.5q-3 4 -14.5 23.5t-35.5 60t-56 95.5q-71 -105 -110 -176q-17 -32 -8 -43t61 -19v-35h-251v35q78 9 119 55q104 132 163 222q-108 178 -142 231q-22 36 -48 51.5t-75 20.5v35h302v-35q-39 -9 -46.5 -20t4.5 -28q16 -30 90 -151
q49 65 90 140q16 27 7.5 38.5t-55.5 20.5v35h241v-35q-50 -7 -76 -20t-56 -49q-30 -34 -125 -165q20 -32 76.5 -122t89.5 -141q30 -47 54.5 -62.5t77.5 -20.5v-35z" />
    <glyph glyph-name="Y" unicode="Y" horiz-adv-x="655" 
d="M646 650v-35q-47 -5 -69.5 -21.5t-50.5 -62.5q-58 -93 -112 -196q-18 -35 -18 -69v-128q0 -67 15 -82.5t82 -21.5v-34h-325v34q64 5 79 21t15 83v111q0 27 -13 54q-35 71 -124 227q-27 49 -47 64t-62 21v35h286v-35q-47 -6 -55 -18.5t8 -39.5q9 -18 114 -217
q91 179 104 212q15 30 4.5 43t-63.5 20v35h232z" />
    <glyph glyph-name="Z" unicode="Z" horiz-adv-x="619" 
d="M573 193l34 -8q-23 -140 -37 -185h-530l-12 17q125 188 382 588h-126q-71 0 -97.5 -8t-39.5 -27q-25 -34 -39 -95l-34 1q2 42 6.5 109t5.5 90h26q11 -17 21.5 -21t35.5 -4h407l8 -15q-257 -398 -374 -584q50 -6 124 -6q142 0 177 33q34 33 62 115z" />
    <glyph glyph-name="bracketleft" unicode="[" horiz-adv-x="351" 
d="M302 -162h-185v866h185v-36q-75 -7 -90 -21t-15 -73v-608q0 -33 1.5 -46t13 -24.5t30 -14.5t60.5 -7v-36z" />
    <glyph glyph-name="backslash" unicode="\" horiz-adv-x="332" 
d="M304 -45h-70l-206 710h70z" />
    <glyph glyph-name="bracketright" unicode="]" horiz-adv-x="351" 
d="M234 -162h-185v36q74 7 89.5 21t15.5 73v606q0 59 -15.5 73t-89.5 21v36h185v-866z" />
    <glyph glyph-name="asciicircum" unicode="^" horiz-adv-x="559" 
d="M506 213h-77l-151 335l-152 -335h-73l194 410h65z" />
    <glyph glyph-name="underscore" unicode="_" horiz-adv-x="500" 
d="M500 -125h-500v50h500v-50z" />
    <glyph glyph-name="grave" unicode="`" 
d="M241 502l-32 -13q-29 35 -76.5 92.5t-52.5 63.5l4 14q11 7 49 14t53 5q32 -100 55 -176z" />
    <glyph glyph-name="a" unicode="a" horiz-adv-x="466" 
d="M465 45l-109 -57q-38 0 -61 21q-16 14 -26 37q-88 -58 -104 -58q-61 0 -98 39t-37 89q0 38 18 59.5t58 36.5q13 5 45 16.5t49.5 18t37 15.5t27.5 16v30q0 47 -16.5 72.5t-44.5 25.5q-20 0 -33 -18q-16 -19 -29 -69q-9 -34 -42 -34q-21 0 -41.5 15.5t-20.5 34.5
q0 22 35 48q82 56 166 71q59 0 98 -29q30 -23 41 -54.5t11 -77.5v-165q0 -59 32 -59q12 0 34 8zM265 79v160q-10 -5 -29 -16t-26 -15q-47 -24 -47 -68q0 -38 19.5 -57.5t40.5 -19.5q19 0 42 16z" />
    <glyph glyph-name="b" unicode="b" horiz-adv-x="534" 
d="M196 417l37 18q41 19 64 19q89 0 148 -62.5t59 -148.5q0 -109 -75 -182t-185 -73q-80 0 -176 36v542q0 44 -9.5 55.5t-51.5 15.5v30q105 12 189 36v-286zM196 382v-274q0 -20 5 -33q6 -15 23 -30.5t38 -16.5q43 -1 73 47t30 137t-37.5 133t-90.5 44q-15 0 -41 -7z" />
    <glyph glyph-name="c" unicode="c" horiz-adv-x="422" 
d="M399 120l19 -24q-35 -49 -81 -78.5t-91 -29.5q-98 0 -157.5 63.5t-59.5 149.5q0 55 26.5 105.5t74.5 85.5q84 62 170 62q56 0 86 -25q18 -13 18 -36q0 -21 -14.5 -38t-28.5 -17q-10 0 -22 11q-61 52 -101 52q-34 0 -59 -35.5t-25 -109.5q0 -88 47 -132.5t91 -44.5
q59 0 107 41z" />
    <glyph glyph-name="d" unicode="d" horiz-adv-x="547" 
d="M541 58v-32q-147 -25 -197 -39v58l-60 -39q-30 -18 -51 -18q-33 0 -68 13.5t-66 39.5t-50.5 69.5t-19.5 96.5q0 103 79 175t195 72q4 0 41 -5v121q0 40 -10.5 50.5t-56.5 15.5v31q126 16 195 36v-577q0 -42 7.5 -52t39.5 -14zM344 80v280q-24 52 -72 52q-12 0 -26.5 -7
t-32.5 -24t-30 -55.5t-12 -91.5q1 -84 38.5 -127t79.5 -43q30 0 55 16z" />
    <glyph glyph-name="e" unicode="e" horiz-adv-x="437" 
d="M399 123l18 -24q-41 -61 -90.5 -86t-89.5 -25q-96 0 -151.5 62t-55.5 152q0 109 74 181q71 71 154 71q68 0 115.5 -49t46.5 -112q0 -32 -29 -36q-89 -10 -238 -16q4 -77 41.5 -119t93.5 -42q61 0 111 43zM237 414q-30 0 -52.5 -34t-26.5 -92q20 0 59.5 1t59.5 2
q12 1 16 4.5t5 15.5q0 41 -16.5 72t-44.5 31z" />
    <glyph glyph-name="f" unicode="f" horiz-adv-x="331" 
d="M52 442h41v22q0 26 12 67q22 65 86 117q55 47 118 55q53 -3 82 -30q19 -19 9 -44q-10 -21 -31 -36q-19 -15 -33 -1q-50 50 -84 50q-24 0 -31 -27q-7 -22 -2 -138l1 -35h115q3 -9 -0.5 -26t-13.5 -22h-101v-286q0 -46 13 -58t70 -18v-32h-272v32q43 6 52.5 17.5t9.5 58.5
v286h-65l-5 12z" />
    <glyph glyph-name="g" unicode="g" horiz-adv-x="492" 
d="M494 439l4 -7q-16 -44 -43 -61l-57 4q27 -32 27 -76q0 -74 -56 -115t-135 -41q-12 0 -49 5q-14 -14 -14 -28q0 -15 15.5 -27t48.5 -11q16 0 46 0.5t46 0.5q27 0 51 -4.5t49 -16.5t39.5 -38t14.5 -63q0 -84 -82.5 -144.5t-184.5 -60.5q-90 0 -138.5 37.5t-48.5 84.5
q0 29 31 55q13 10 76 49q-50 18 -75 55q-17 25 -15 54q56 23 102 66q-45 15 -71.5 51t-26.5 82q0 78 59 121t135 43q54 0 107 -27q41 2 145 12zM236 417q-25 0 -42.5 -29.5t-17.5 -81.5q0 -55 18 -90.5t51 -35.5q60 0 60 114q0 53 -17.5 88t-51.5 35zM243 -21q-65 0 -85 -21
q-23 -25 -23 -51q0 -38 36 -67t93 -29q56 0 88.5 26.5t32.5 67.5q0 51 -56 65q-35 9 -86 9z" />
    <glyph glyph-name="h" unicode="h" horiz-adv-x="550" 
d="M532 0h-236v32q35 5 43 16t8 53v176q0 103 -72 103q-44 0 -72 -28v-251q0 -41 7.5 -52.5t38.5 -16.5v-32h-237v32q43 5 53 15.5t10 57.5v466q0 45 -8 53.5t-48 13.5v29q85 11 184 36v-314q63 65 133 65q66 0 102 -42t36 -124v-183q0 -46 8.5 -56t49.5 -17v-32z" />
    <glyph glyph-name="i" unicode="i" horiz-adv-x="295" 
d="M148 517q-28 0 -49 21t-21 49q0 30 21 50t50 20q30 0 50.5 -20t20.5 -50q0 -29 -21 -49.5t-51 -20.5zM285 0h-256v32q44 5 54 17.5t10 64.5v198q0 48 -9 59.5t-46 17.5v29q95 11 182 36v-340q0 -51 10 -63.5t55 -18.5v-32z" />
    <glyph glyph-name="j" unicode="j" horiz-adv-x="288" 
d="M148 517q-28 0 -49 21t-21 49q0 30 21 50t50 20q30 0 50.5 -20t20.5 -50q0 -29 -21 -49.5t-51 -20.5zM31 388v30q73 8 189 36v-325q0 -98 -28 -162q-26 -63 -70.5 -121t-68.5 -75q-20 -15 -35 -15q-12 0 -26 16.5t-14 38.5q0 12 6.5 19.5t17.5 7.5q64 1 75 20q9 18 12 71
q4 118 4 188v188q0 52 -9.5 64t-52.5 19z" />
    <glyph glyph-name="k" unicode="k" horiz-adv-x="513" 
d="M536 0l-176 -2q-35 44 -130 198q-12 19 -22 19q-3 0 -7 -1v-106q0 -48 10 -59t55 -17v-32h-257v32q46 6 56 17t10 59v462q0 42 -10 53t-50 16v28q107 14 186 36v-459q27 6 57 38q34 38 58 87q10 16 3.5 26t-33.5 14v30l216 9v-30q-88 -15 -125 -52q-36 -36 -70 -82
q43 -72 145 -201q23 -26 40 -36t44 -15v-32z" />
    <glyph glyph-name="l" unicode="l" horiz-adv-x="278" 
d="M269 0h-259v32q45 7 55 19t10 59v458q0 44 -9 54.5t-51 15.5v29q107 13 187 36v-593q0 -50 10.5 -61.5t56.5 -16.5v-32z" />
    <glyph glyph-name="m" unicode="m" horiz-adv-x="843" 
d="M824 0h-236v32q34 5 43 16t9 57v172q0 98 -71 98q-38 0 -78 -33q3 -33 3 -40v-202q0 -42 8.5 -52.5t43.5 -15.5v-32h-231v32q36 5 43.5 15t7.5 53v182q0 94 -69 94q-34 0 -77 -32v-244q0 -42 8 -52.5t37 -15.5v-32h-235v32q44 5 53.5 16t9.5 57v210q0 43 -8.5 56
t-42.5 18v29q82 12 176 38v-77q42 31 63 43q50 32 87 32q40 0 70 -21.5t44 -57.5q11 8 23 16.5t26.5 18.5t22.5 16q41 28 79 28q65 0 99.5 -42t34.5 -119v-193q0 -42 8.5 -52t48.5 -16v-32z" />
    <glyph glyph-name="n" unicode="n" horiz-adv-x="566" 
d="M549 0h-233v32q32 5 39.5 17t7.5 64v170q0 94 -69 94q-34 0 -74 -31v-242q0 -45 7.5 -56t39.5 -16v-32h-241v32q48 7 57.5 17.5t9.5 59.5v207q0 44 -8.5 55t-45.5 18v29q86 11 181 38v-74q4 3 26.5 19.5t35.5 24.5q44 28 78 28q61 0 96 -42.5t35 -117.5v-189
q0 -46 9 -56.5t49 -16.5v-32z" />
    <glyph glyph-name="o" unicode="o" horiz-adv-x="525" 
d="M268 454q102 0 165 -66t63 -159q0 -114 -68.5 -177.5t-163.5 -63.5q-111 0 -172.5 67t-61.5 156q0 113 73 178t165 65zM255 415q-34 0 -58 -43.5t-24 -124.5q0 -95 28 -157.5t74 -62.5q78 0 78 172q0 104 -25.5 160t-72.5 56z" />
    <glyph glyph-name="p" unicode="p" horiz-adv-x="547" 
d="M211 391l70 44q32 19 55 19q84 0 132.5 -57.5t48.5 -135.5q0 -105 -70 -177.5t-173 -95.5q-31 0 -63 12v-127q0 -44 12.5 -55t70.5 -16v-32h-278v32q47 4 57.5 15t10.5 55v448q0 41 -10 52t-48 16v30q60 10 185 46v-73zM211 354v-277q15 -15 39.5 -27t42.5 -12
q42 0 67.5 47t25.5 125q0 84 -34 126t-77 42q-33 0 -64 -24z" />
    <glyph glyph-name="q" unicode="q" horiz-adv-x="536" 
d="M534 -230h-274v32q54 6 66.5 16.5t12.5 55.5v148l-80 -34q-111 0 -170.5 65t-59.5 148q0 106 83 180t197 73q42 -3 72 -14q18 -6 33 -6q18 0 51 12l5 -4q-3 -60 -3 -106v-463q0 -44 10 -55t57 -16v-32zM339 58v314q-33 41 -67 41q-39 0 -70.5 -46.5t-31.5 -131.5
q0 -83 42.5 -134t90.5 -51q20 0 36 8z" />
    <glyph glyph-name="r" unicode="r" horiz-adv-x="404" 
d="M220 349h3q61 105 112 105q29 0 48 -18t19 -44t-14 -46t-35 -28q-19 -7 -31 4q-25 21 -46 21q-33 0 -56 -52v-186q0 -46 12.5 -57t70.5 -16v-32h-274v32q42 5 53 16.5t11 56.5v218q0 37 -9 47t-45 19v28q101 13 181 38v-106z" />
    <glyph glyph-name="s" unicode="s" horiz-adv-x="383" 
d="M338 322l-30 -9q-45 102 -106 102q-20 0 -35.5 -15.5t-15.5 -38.5q0 -44 74 -77q69 -30 102 -62t33 -86q0 -69 -54.5 -108.5t-124.5 -39.5q-37 0 -73 10.5t-53 23.5q-5 12 -10 55.5t-6 78.5l30 3q19 -54 53 -93t76 -39q24 0 39.5 15.5t15.5 38.5q0 24 -16 43.5t-60 39.5
q-26 13 -40.5 21.5t-38.5 27.5t-36 44t-12 55q0 60 45.5 101t122.5 41q55 0 96 -18q16 -38 24 -114z" />
    <glyph glyph-name="t" unicode="t" horiz-adv-x="339" 
d="M329 37l-81 -38q-28 -11 -41 -11q-122 0 -122 126v280h-63l-5 12l28 36h40v73l113 78l14 -6v-145h98q9 -8 7.5 -25t-13.5 -23h-92v-247q0 -87 57 -87q25 0 50 12z" />
    <glyph glyph-name="u" unicode="u" horiz-adv-x="555" 
d="M542 56v-32q-70 -9 -183 -36l-8 7v60q-40 -31 -50 -37q-46 -30 -87 -30q-62 0 -96.5 37.5t-34.5 104.5v207q0 36 -8.5 45.5t-46.5 19.5v29q90 4 185 18q-3 -63 -3 -151v-145q0 -45 20 -66.5t49 -21.5q43 0 72 28v243q0 38 -9.5 48t-54.5 18v29q106 5 191 18v-325
q0 -40 7.5 -51.5t34.5 -14.5z" />
    <glyph glyph-name="v" unicode="v" horiz-adv-x="465" 
d="M483 442v-32q-37 -7 -52 -19.5t-31 -48.5q-49 -107 -146 -353h-39q-111 278 -144 355q-14 33 -28.5 45.5t-50.5 20.5v32h247v-32q-34 -7 -41 -16.5t3 -35.5q4 -11 76 -208q27 64 74 205q8 26 -0.5 37.5t-47.5 17.5v32h180z" />
    <glyph glyph-name="w" unicode="w" horiz-adv-x="683" 
d="M699 442v-32q-35 -6 -47.5 -17t-28.5 -51q-37 -93 -128 -353h-38q-15 37 -55.5 132.5t-61.5 146.5q-22 -54 -60.5 -152t-50.5 -127h-38q-22 68 -63.5 190.5t-56.5 167.5q-13 37 -25 48t-43 15v32h247v-32q-42 -7 -51.5 -16.5t-1.5 -35.5q5 -17 59 -195h2q3 7 104 274h39
q38 -98 113 -276h2q42 124 56 190q7 30 -3 41t-55 18v32h185z" />
    <glyph glyph-name="x" unicode="x" horiz-adv-x="482" 
d="M494 0h-249v32q28 5 33 15t-9 32l-50 87q-12 -17 -31 -49t-21 -36q-13 -21 -7 -31.5t36 -17.5v-32h-189v32q41 8 62 20.5t46 42.5q19 21 81 104l-88 145q-23 37 -38.5 48.5t-53.5 17.5v32h236v-32q-25 -6 -30.5 -14t5.5 -25l47 -78q19 28 49 78q11 17 5 25t-35 14v32h183
v-32q-41 -7 -57.5 -15t-43.5 -34q-3 -3 -79 -101l97 -155q24 -38 45.5 -53t55.5 -20v-32z" />
    <glyph glyph-name="y" unicode="y" horiz-adv-x="465" 
d="M483 442v-32q-36 -6 -50 -18.5t-33 -53.5q-11 -23 -116 -275q-67 -163 -105 -280q-9 -27 -37 -27q-23 0 -46.5 19t-23.5 44q0 21 27 39q57 30 82 71q13 25 19 41q6 20 -4 47q-83 231 -126 331q-14 33 -28 45t-49 17v32h248v-32q-33 -6 -40.5 -14t0.5 -32l75 -222
q33 82 75 213q8 25 -2 36.5t-46 18.5v32h180z" />
    <glyph glyph-name="z" unicode="z" horiz-adv-x="445" 
d="M410 152l29 -14q-46 -134 -47 -138h-355l-13 16q72 115 226 383h-53q-50 0 -74 -14.5t-46 -56.5l-17 -33l-31 13q23 75 41 156h22q11 -22 61 -22h245l9 -14q-33 -56 -220 -384h64q55 0 85 16t57 64z" />
    <glyph glyph-name="braceleft" unicode="{" horiz-adv-x="357" 
d="M310 -129v-39q-169 0 -169 140q0 30 3 96t3 100q0 15 -2.5 26t-10.5 25t-27.5 23t-50.5 11v36q31 2 51 10.5t28 22.5t10 25t2 27q0 35 -3 100t-3 93q0 143 169 143v-39q-87 -9 -87 -96q0 -30 6 -95t6 -91q0 -99 -90 -116v-4q90 -18 90 -116q0 -27 -6 -91.5t-6 -91.5
q0 -45 17.5 -69.5t69.5 -29.5z" />
    <glyph glyph-name="bar" unicode="|" horiz-adv-x="270" 
d="M177 -250h-84v1000h84v-1000z" />
    <glyph glyph-name="braceright" unicode="}" horiz-adv-x="357" 
d="M302 289v-36q-31 -2 -51 -11t-28 -24t-10 -27.5t-2 -32.5q0 -28 3 -92.5t3 -96.5q0 -137 -171 -137v37q91 11 91 100q0 24 -6.5 83.5t-6.5 96.5q0 102 90 120v4q-90 18 -90 116q0 35 6.5 97.5t6.5 90.5q0 85 -91 96v37q35 0 61.5 -5t53.5 -18.5t41.5 -42.5t14.5 -73
q0 -32 -3 -95.5t-3 -91.5q0 -21 2 -33t9.5 -27.5t27.5 -24t52 -10.5z" />
    <glyph glyph-name="asciitilde" unicode="~" horiz-adv-x="577" 
d="M483 322l46 -28q-41 -107 -133 -107q-50 0 -125 42q-51 28 -83 28q-54 0 -93 -75l-43 35q51 102 139 102q51 0 108 -33q63 -36 103 -36q49 0 81 72z" />
    <glyph glyph-name="uni00A0" unicode="&#xa0;" horiz-adv-x="217" 
 />
    <glyph glyph-name="exclamdown" unicode="&#xa1;" horiz-adv-x="285" 
d="M142 457q33 0 54.5 -22t21.5 -57q0 -34 -22 -56t-54 -22q-33 0 -54.5 22t-21.5 56q0 35 21.5 57t54.5 22zM143 -221q-82 0 -82 43q0 10 10 72q24 127 50 330q1 10 22 10t23 -10q26 -199 49 -330q10 -53 10 -72q0 -43 -82 -43z" />
    <glyph glyph-name="cent" unicode="&#xa2;" horiz-adv-x="500" 
d="M436 231l19 -27q-63 -89 -146 -103v-96h-39v93q-103 4 -163.5 63.5t-60.5 138.5q0 113 100 185q53 37 124 49v81h39v-77h17q64 0 96 -23q15 -10 15 -30q0 -19 -14 -35t-25 -16q-7 0 -17 12q-36 41 -72 48v-314q74 1 127 51zM270 187v309q-41 -4 -74 -41t-33 -108
q0 -68 30.5 -107.5t76.5 -52.5z" />
    <glyph glyph-name="sterling" unicode="&#xa3;" horiz-adv-x="500" 
d="M404 289h-152q1 0 0.5 -7t-0.5 -8q0 -44 -32.5 -84t-78.5 -65q59 3 111 -18q109 -44 137 -44q39 0 39 24q0 23 -7 40q-6 11 3 24q22 27 39 27q12 0 19.5 -12t7.5 -29q0 -35 -26 -69t-60 -58q-50 -37 -103 -37q-17 0 -37.5 7t-33 12.5t-39.5 21t-33 18.5q-44 22 -68 22
q-25 0 -33 -40q-4 -16 -16 -16q-14 0 -21.5 11.5t-1.5 32.5q4 12 14.5 27.5t27 35t22.5 28.5q39 50 39 112q0 25 -3 44h-95v46h87q-7 63 -7 83q0 44 23 90.5t72 80.5q61 43 116 46q62 0 98 -38q18 -21 3 -46q-9 -15 -25 -27q-17 -9 -33 3q-16 13 -19.5 15.5t-18 12.5t-22 13
t-19 7t-21.5 4q-42 0 -42 -64q0 -22 4 -47.5t14.5 -71.5t13.5 -61h157v-46z" />
    <glyph glyph-name="currency" unicode="&#xa4;" horiz-adv-x="500" 
d="M470 136l-50 -50l-67 75q-43 -36 -109 -36t-110 37l-67 -76l-49 50l71 68q-43 46 -43 121t43 121l-71 68l49 50l68 -76q43 37 110 37q65 0 108 -37l67 76l50 -50l-71 -68q43 -46 43 -121t-43 -121zM245 459q-49 0 -81 -38.5t-32 -95.5q0 -59 31.5 -96.5t81.5 -37.5
t81 37.5t31 96.5q0 58 -31.5 96t-80.5 38z" />
    <glyph glyph-name="yen" unicode="&#xa5;" horiz-adv-x="500" 
d="M489 623v-34q-36 -5 -52 -17t-37 -52q-12 -22 -87 -181h106v-41h-113v-67h114v-41h-114v-54q0 -67 14 -82.5t76 -19.5v-34h-303v34q59 4 72.5 20t13.5 83v53h-108v41h108v67h-108v41h96q-9 24 -20.5 50.5t-28.5 62.5t-28 62q-20 45 -35.5 57.5t-48.5 17.5v34h247v-34
l-23 -5q-18 -3 -22.5 -10.5t1.5 -22.5q13 -37 38.5 -99.5t34.5 -86.5q49 106 72 168q10 24 5.5 35.5t-26.5 15.5l-27 5v34h183z" />
    <glyph glyph-name="brokenbar" unicode="&#xa6;" horiz-adv-x="270" 
d="M177 325h-84v350h84v-350zM177 -175h-84v350h84v-350z" />
    <glyph glyph-name="section" unicode="&#xa7;" horiz-adv-x="482" 
d="M429 204q-1 -91 -100 -210q-69 -75 -150 -97q-44 0 -72 21q-19 15 -19 31q0 8 11.5 24t18.5 20q15 9 24 2q33 -27 84 -27q23 0 39.5 12t16.5 30t-12.5 34.5t-48.5 48.5q-18 19 -57 55.5t-54 52.5q-68 67 -67 153q0 104 85 193q72 77 150 96q41 0 72 -27q13 -12 13 -26
q-1 -22 -28 -43q-9 -7 -20 3q-36 27 -84 27q-23 0 -38.5 -11.5t-15.5 -26.5q0 -29 38 -60q17 -14 56 -45.5t55 -44.5q50 -40 77 -82.5t26 -102.5zM100 416q-1 -39 19 -75.5t70 -82.5q101 -93 122 -123q23 -36 24 -77h2q29 47 29 95q2 78 -88 150q-61 47 -106 92
q-46 49 -44 98l-1 2q-27 -38 -27 -79z" />
    <glyph glyph-name="dieresis" unicode="&#xa8;" 
d="M96 519q-27 0 -47 19.5t-20 46.5q0 28 20.5 47.5t47.5 19.5q29 0 48.5 -19.5t19.5 -47.5q0 -27 -20 -46.5t-49 -19.5zM302 519q-27 0 -47 19.5t-20 46.5q0 28 20 47.5t48 19.5t47.5 -19.5t19.5 -47.5q0 -27 -20 -46.5t-48 -19.5z" />
    <glyph glyph-name="copyright" unicode="&#xa9;" horiz-adv-x="699" 
d="M350 631q131 0 219.5 -89.5t88.5 -217.5q0 -127 -88.5 -216t-219.5 -89q-133 0 -221 89t-88 216q0 128 88 217.5t221 89.5zM351 592q-112 0 -184.5 -76.5t-72.5 -190.5q0 -113 73 -190t184 -77q110 0 182.5 77t72.5 190t-72.5 190t-182.5 77zM476 261l26 -6
q-24 -83 -25 -86q-60 -20 -110 -20q-91 0 -141 51.5t-50 120.5q0 82 58 130.5t140 48.5q62 0 106 -18q3 -45 11 -89l-25 -6q-15 40 -36 60.5t-58 20.5q-48 0 -77 -39t-29 -100q0 -64 32 -105t77 -41q36 0 59.5 19.5t41.5 58.5z" />
    <glyph glyph-name="ordfeminine" unicode="&#xaa;" horiz-adv-x="335" 
d="M318 307l-74 -36q-40 0 -57 36q-52 -36 -73 -36q-36 0 -61 24.5t-25 55.5q0 45 56 66q8 3 31.5 10.5t42 15t27.5 13.5v16q0 21 -11 33.5t-28 12.5q-27 0 -43 -53q-7 -21 -27 -21q-15 0 -29 10.5t-14 24.5q0 16 23 32q55 34 113 45q43 0 71 -22.5t28 -67.5v-106
q0 -35 21 -35q11 0 23 5zM185 334v92q-3 -2 -11 -5.5t-15 -7t-12 -6.5q-28 -15 -28 -39q0 -21 12.5 -32t25.5 -11q15 0 28 9z" />
    <glyph glyph-name="guillemotleft" unicode="&#xab;" horiz-adv-x="456" 
d="M237 51l-32 -19q-82 112 -158 192q76 80 158 192l32 -19l-83 -173zM412 51l-31 -19q-76 99 -159 192q78 84 159 192l31 -19l-83 -173z" />
    <glyph glyph-name="logicalnot" unicode="&#xac;" horiz-adv-x="577" 
d="M531 101h-75v209h-409v65h484v-274z" />
    <glyph glyph-name="uni00AD" unicode="&#xad;" horiz-adv-x="342" 
d="M302 265l-16 -72h-245l15 72h246z" />
    <glyph glyph-name="registered" unicode="&#xae;" horiz-adv-x="319" 
d="M160 659q56 0 95 -39t39 -94q0 -53 -39 -92.5t-95 -39.5t-94 38t-38 94q0 55 38 94t94 39zM161 635q-45 0 -74.5 -31.5t-29.5 -77.5t30 -77t74 -31t74 31t30 77t-30 77.5t-74 31.5zM237 469l-4 -13q-34 0 -50 22q-12 16 -20 30q-3 7 -12 7h-4v-22q0 -14 3 -16.5t16 -3.5
v-16h-70v16q15 1 17.5 3.5t2.5 16.5v70q0 13 -2.5 16t-16.5 4v15h71q49 0 49 -37q0 -23 -27 -35q13 -25 32 -45q9 -9 15 -12zM147 533h9q10 0 18 6q11 6 11 20q0 24 -25 24q-13 0 -13 -13v-37z" />
    <glyph glyph-name="macron" unicode="&#xaf;" 
d="M325 541h-250v73h250v-73z" />
    <glyph glyph-name="degree" unicode="&#xb0;" horiz-adv-x="331" 
d="M165 665q57 0 96.5 -36t39.5 -95q0 -60 -39 -95t-97 -35q-57 0 -96 35t-39 95q0 59 39 95t96 36zM167 621q-33 0 -54 -24t-21 -62t21 -63t54 -25q31 0 51.5 24.5t20.5 59.5q0 40 -20 65t-52 25z" />
    <glyph glyph-name="plusminus" unicode="&#xb1;" horiz-adv-x="577" 
d="M531 304h-204v-193h-75v193h-205v65h205v181h75v-181h204v-65zM531 0h-484v65h484v-65z" />
    <glyph glyph-name="twosuperior" unicode="&#xb2;" horiz-adv-x="348" 
d="M295 506l26 -7q-10 -27 -27 -101h-258v26q158 121 158 200q0 31 -15 48.5t-42 17.5q-45 0 -81 -50l-21 20l34 49q17 21 45.5 33.5t57.5 12.5q53 0 87.5 -29.5t34.5 -80.5q0 -34 -24 -64t-85 -78l-43 -34v-2h90q26 0 37.5 7t25.5 32z" />
    <glyph glyph-name="threesuperior" unicode="&#xb3;" horiz-adv-x="348" 
d="M208 605v-2q97 -14 97 -81q0 -41 -35.5 -73t-76 -45.5t-70.5 -13.5q-47 0 -74 22q-14 14 -7 33q8 20 25 31q11 6 23 -3q49 -42 75 -42q18 0 31 16t13 49q0 35 -18.5 52.5t-47.5 17.5q-23 0 -40 -7l-7 30q86 27 86 69q0 17 -12.5 28t-31.5 11q-35 0 -70 -39l-18 18l34 44
q35 35 91 35q49 0 77 -23.5t28 -55.5q0 -23 -19 -40q-20 -16 -53 -31z" />
    <glyph glyph-name="acute" unicode="&#xb4;" 
d="M204 489l-31 13q7 23 26.5 89t22.5 76q7 5 51.5 9.5t57.5 1.5l6 -10z" />
    <glyph glyph-name="mu" unicode="&#xb5;" horiz-adv-x="538" 
d="M527 69l12 -28q-16 -22 -46.5 -37.5t-68.5 -15.5q-73 0 -90 69h-2q-57 -69 -112 -69q-52 0 -78 43h-2v-15q0 -50 12 -129t23 -118l-15 -13q-22 2 -49.5 14t-41.5 28q-2 10 -2 49.5t1 109.5t1 112v261q0 57 -4 101l128 24q3 -29 3 -114v-172q0 -51 21.5 -76t50.5 -25
q34 0 63 32v331l127 24v-329q0 -65 38 -65q15 0 31 8z" />
    <glyph glyph-name="paragraph" unicode="&#xb6;" horiz-adv-x="519" 
d="M479 536l-30 -32l-87 -10v-469q0 -116 -74 -190q-25 -25 -55.5 -39t-41.5 -14q-46 0 -74 24q-15 14 -11 32q3 17 22 33q12 11 24 3q34 -23 71 -23q36 0 57 32t21 125v134l-70 -31q-8 -2 -17 -2q-56 0 -115.5 59.5t-59.5 149.5q0 102 74 168q71 63 161 63h201z" />
    <glyph glyph-name="periodcentered" unicode="&#xb7;" horiz-adv-x="254" 
d="M126 157q-31 0 -52.5 21.5t-21.5 55.5q0 33 21.5 55t52.5 22q33 0 54.5 -21.5t21.5 -55.5t-21.5 -55.5t-54.5 -21.5z" />
    <glyph glyph-name="cedilla" unicode="&#xb8;" 
d="M253 0l-24 -25q-16 -17 7 -40q39 -39 39 -69q0 -66 -124 -101l-13 25q28 12 44 29t16 31q0 16 -22 34q-21 19 -23 35t17 38l37 43h46z" />
    <glyph glyph-name="onesuperior" unicode="&#xb9;" horiz-adv-x="348" 
d="M289 398h-218v29q37 4 48.5 15.5t11.5 49.5v154q0 29 -5.5 37.5t-29.5 11.5l-25 2v29q76 7 158 29v-263q0 -38 11 -49.5t49 -15.5v-29z" />
    <glyph glyph-name="ordmasculine" unicode="&#xba;" horiz-adv-x="369" 
d="M188 556q70 0 112.5 -42t41.5 -100q-1 -68 -46.5 -105.5t-111.5 -37.5q-76 0 -118 41t-40 99q1 65 50.5 105t111.5 40zM179 522q-20 0 -34 -24t-15 -75t16 -85t43 -34q47 0 50 94q1 58 -15 91t-45 33z" />
    <glyph glyph-name="guillemotright" unicode="&#xbb;" horiz-adv-x="456" 
d="M47 396l32 20q62 -82 158 -192q-85 -93 -158 -192l-32 18l84 174zM219 396l32 20q72 -98 158 -192q-86 -92 -158 -192l-32 18l83 174z" />
    <glyph glyph-name="onequarter" unicode="&#xbc;" horiz-adv-x="784" 
d="M294 278h-218v29q38 4 49.5 15.5t11.5 49.5v154q0 30 -5.5 38.5t-29.5 10.5l-25 2v29q77 7 158 30v-264q0 -38 11 -49.5t48 -15.5v-29zM618 621l-406 -661l-38 28l404 660zM708 97h-55v-20q0 -26 10 -36.5t40 -13.5v-27h-201v27q38 3 49 13t11 37v20h-155v28
q109 145 185 233h61v-217h55v-44zM562 141v130h-2q-44 -58 -92 -130h94z" />
    <glyph glyph-name="onehalf" unicode="&#xbd;" horiz-adv-x="789" 
d="M285 278h-218v29q38 4 49.5 15.5t11.5 49.5v154q0 30 -5.5 38.5t-29.5 10.5l-25 2v29q76 7 158 30v-264q0 -38 11 -49.5t48 -15.5v-29zM598 621l-406 -661l-38 28l404 660zM699 109l25 -8q-12 -37 -27 -101h-258v26q159 120 159 200q0 31 -15.5 48.5t-42.5 17.5
q-44 0 -80 -50l-22 20l35 49q17 21 45.5 34t57.5 13q53 0 87.5 -30t34.5 -80q0 -35 -24 -64.5t-85 -78.5l-43 -34v-2h90q26 0 37.5 7t25.5 33z" />
    <glyph glyph-name="threequarters" unicode="&#xbe;" horiz-adv-x="789" 
d="M618 621l-405 -661l-38 28l404 660zM707 97h-55v-20q0 -26 10 -36.5t40 -13.5v-27h-202v27q38 3 49.5 13t11.5 37v20h-155v28q103 139 184 233h62v-217h55v-44zM561 141v130h-2q-55 -73 -92 -130h94zM241 486v-2q47 -7 72 -28.5t25 -53.5q0 -41 -36 -73t-76 -45t-71 -13
q-22 0 -43.5 7t-29.5 14q-14 14 -7 33q6 18 25 31q11 6 23 -3q49 -42 75 -42q18 0 30.5 16.5t12.5 49.5q0 35 -18.5 52t-47.5 17q-19 0 -39 -6l-7 29q86 28 86 69q0 17 -12.5 28t-31.5 11q-37 0 -70 -39l-18 18l33 45q35 35 92 35q48 0 76.5 -23.5t28.5 -55.5q0 -25 -20 -41
q-17 -13 -52 -30z" />
    <glyph glyph-name="questiondown" unicode="&#xbf;" horiz-adv-x="399" 
d="M207 457q33 0 54.5 -22t21.5 -57q0 -34 -22 -56t-54 -22q-33 0 -55 22t-22 56q0 35 22 57t55 22zM171 218l22 23q47 -17 87 -53.5t40 -80.5q0 -61 -97 -121q-11 -7 -32.5 -20.5t-31 -20t-22 -16t-17.5 -16.5t-5 -13q0 -37 46 -37q29 0 58.5 17t49.5 34.5t26 17.5
q18 0 38 -22t20 -47q0 -22 -23 -43q-22 -20 -55 -30.5t-57 -10.5q-67 0 -124 53.5t-57 122.5q0 33 12 56.5t47 48.5q4 3 23.5 16t29 20t23.5 19t20 22.5t6 20.5q0 27 -27 60z" />
    <glyph glyph-name="Agrave" unicode="&#xc0;" horiz-adv-x="706" 
d="M687 0h-286v35q43 7 52 19.5t-4 45.5q-14 41 -40 113h-192q-25 -71 -36 -107q-13 -36 -2 -50.5t63 -20.5v-35h-224l1 35q50 6 68 23t43 80l205 514l51 13q177 -483 191 -521q26 -66 44.5 -84.5t65.5 -24.5v-35zM390 266l-74 216h-3q-12 -32 -25.5 -68.5t-29 -80
t-24.5 -67.5h156zM420 713l-14 -29l-208 58l-2 12q3 17 20.5 45.5t30.5 36.5q66 -46 173 -123z" />
    <glyph glyph-name="Aacute" unicode="&#xc1;" horiz-adv-x="706" 
d="M687 0h-286v35q43 7 52 19.5t-4 45.5q-14 41 -40 113h-192q-25 -71 -36 -107q-13 -36 -2 -50.5t63 -20.5v-35h-224l1 35q50 6 68 23t43 80l205 514l51 13q177 -483 191 -521q26 -66 44.5 -84.5t65.5 -24.5v-35zM390 266l-74 216h-3q-12 -32 -25.5 -68.5t-29 -80
t-24.5 -67.5h156zM525 755l-4 -12l-206 -60l-14 28q66 48 173 122q14 -5 31.5 -32t19.5 -46z" />
    <glyph glyph-name="Acircumflex" unicode="&#xc2;" horiz-adv-x="706" 
d="M687 0h-286v35q43 7 52 19.5t-4 45.5q-14 41 -40 113h-192q-25 -71 -36 -107q-13 -36 -2 -50.5t63 -20.5v-35h-224l1 35q50 6 68 23t43 80l205 514l51 13q177 -483 191 -521q26 -66 44.5 -84.5t65.5 -24.5v-35zM390 266l-74 216h-3q-12 -32 -25.5 -68.5t-29 -80
t-24.5 -67.5h156zM513 710l-16 -26q-21 8 -43 18t-48.5 23.5t-40.5 19.5q-112 -53 -132 -61l-15 26q50 40 132 123h31q50 -54 132 -123z" />
    <glyph glyph-name="Atilde" unicode="&#xc3;" horiz-adv-x="706" 
d="M687 0h-286v35q43 7 52 19.5t-4 45.5q-14 41 -40 113h-192q-25 -71 -36 -107q-13 -36 -2 -50.5t63 -20.5v-35h-224l1 35q50 6 68 23t43 80l205 514l51 13q177 -483 191 -521q26 -66 44.5 -84.5t65.5 -24.5v-35zM390 266l-74 216h-3q-12 -32 -25.5 -68.5t-29 -80
t-24.5 -67.5h156zM310 798q21 0 64 -18q39 -17 61 -17q26 0 49 42l30 -15q-31 -98 -93 -98q-20 0 -70 21q-30 15 -52 15q-28 0 -51 -44l-29 20q33 94 91 94z" />
    <glyph glyph-name="Adieresis" unicode="&#xc4;" horiz-adv-x="706" 
d="M687 0h-286v35q43 7 52 19.5t-4 45.5q-14 41 -40 113h-192q-25 -71 -36 -107q-13 -36 -2 -50.5t63 -20.5v-35h-224l1 35q50 6 68 23t43 80l205 514l51 13q177 -483 191 -521q26 -66 44.5 -84.5t65.5 -24.5v-35zM390 266l-74 216h-3q-12 -32 -25.5 -68.5t-29 -80
t-24.5 -67.5h156zM464 828q29 0 48.5 -19.5t19.5 -47.5q0 -27 -20 -46.5t-48 -19.5q-27 0 -47 19.5t-20 46.5q0 28 20 47.5t47 19.5zM253 828q29 0 49 -19.5t20 -47.5q0 -27 -20 -46.5t-49 -19.5q-26 0 -46 19.5t-20 46.5q0 28 19.5 47.5t46.5 19.5z" />
    <glyph glyph-name="Aring" unicode="&#xc5;" horiz-adv-x="706" 
d="M687 0h-286v35q43 7 52 19.5t-4 45.5q-14 41 -40 113h-192q-25 -71 -36 -107q-13 -36 -2 -50.5t63 -20.5v-35h-224l1 35q50 6 68 23t43 80l205 514l51 13q177 -483 191 -521q26 -66 44.5 -84.5t65.5 -24.5v-35zM390 266l-74 216h-3q-12 -32 -25.5 -68.5t-29 -80
t-24.5 -67.5h156zM360 863q37 0 66 -25t29 -64q0 -41 -29 -66.5t-66 -25.5q-38 0 -66 25.5t-28 66.5q0 40 28 64.5t66 24.5zM361 825q-20 0 -33 -14.5t-13 -36.5q0 -23 13 -38t33 -15t32.5 14.5t12.5 37.5t-12.5 37.5t-32.5 14.5z" />
    <glyph glyph-name="AE" unicode="&#xc6;" horiz-adv-x="882" 
d="M838 175l34 -9q-20 -105 -37 -166h-501v35q61 5 75.5 23t14.5 87v147h-168q-16 -32 -82 -176q-19 -43 -9 -58.5t65 -22.5v-35h-244v35q47 6 71.5 24.5t52.5 69.5q95 173 226 433q12 24 9 33.5t-26 12.5l-60 7v35h553q5 -90 10 -147l-35 -5q-17 62 -39 84q-23 24 -101 24
h-52q-27 0 -33.5 -5.5t-6.5 -29.5v-232h65q66 0 85.5 12t27.5 62h37v-201h-37q-8 54 -27 66.5t-86 12.5l-65 1v-153q0 -44 5 -62t20 -25q21 -8 90 -8q81 0 109 32q36 38 59 99zM424 340v258q-11 0 -22 -4q-122 -249 -124 -254h146z" />
    <glyph glyph-name="Ccedilla" unicode="&#xc7;" horiz-adv-x="676" 
d="M624 185l36 -14q-26 -102 -54 -158q-91 -24 -167 -26l-10 -12q-9 -9 -7.5 -17.5t14.5 -23.5q39 -44 39 -71q0 -65 -125 -106l-17 31q28 14 44 30.5t17 29.5q0 9 -21 36q-19 21 -22 34t10 31l30 37q-89 4 -158 34t-109.5 78t-61 103t-20.5 115q-1 156 108.5 252.5
t291.5 96.5q29 0 59.5 -3.5t48.5 -7t42 -9t28 -6.5q14 -86 23 -164l-38 -8q-26 83 -71 118t-114 35q-102 0 -163 -81.5t-61 -200.5q0 -137 62.5 -222t161.5 -85q126 0 204 154z" />
    <glyph glyph-name="Egrave" unicode="&#xc8;" horiz-adv-x="581" 
d="M536 173l35 -7q-9 -69 -35 -166h-510v35q65 5 80 20t15 78v384q0 64 -13 78.5t-68 19.5v35h471q0 -8 2 -31.5t4 -58t4 -60.5l-36 -5q-18 63 -41 86q-24 25 -100 25h-48q-28 0 -34.5 -5.5t-6.5 -29.5v-212h67q64 0 82.5 11.5t28.5 63.5h36v-202h-36q-10 53 -28 64.5
t-83 11.5h-67v-173q0 -70 24 -82q23 -10 90 -10q80 0 111 32q27 32 56 98zM359 713l-14 -29l-207 58l-3 12q3 17 20.5 45.5t31.5 36.5q106 -75 172 -123z" />
    <glyph glyph-name="Eacute" unicode="&#xc9;" horiz-adv-x="581" 
d="M536 173l35 -7q-9 -69 -35 -166h-510v35q65 5 80 20t15 78v384q0 64 -13 78.5t-68 19.5v35h471q0 -8 2 -31.5t4 -58t4 -60.5l-36 -5q-18 63 -41 86q-24 25 -100 25h-48q-28 0 -34.5 -5.5t-6.5 -29.5v-212h67q64 0 82.5 11.5t28.5 63.5h36v-202h-36q-10 53 -28 64.5
t-83 11.5h-67v-173q0 -70 24 -82q23 -10 90 -10q80 0 111 32q27 32 56 98zM455 755l-4 -12l-206 -60l-14 28q4 3 172 122q14 -5 32 -32t20 -46z" />
    <glyph glyph-name="Ecircumflex" unicode="&#xca;" horiz-adv-x="581" 
d="M536 173l35 -7q-9 -69 -35 -166h-510v35q65 5 80 20t15 78v384q0 64 -13 78.5t-68 19.5v35h471q0 -8 2 -31.5t4 -58t4 -60.5l-36 -5q-18 63 -41 86q-24 25 -100 25h-48q-28 0 -34.5 -5.5t-6.5 -29.5v-212h67q64 0 82.5 11.5t28.5 63.5h36v-202h-36q-10 53 -28 64.5
t-83 11.5h-67v-173q0 -70 24 -82q23 -10 90 -10q80 0 111 32q27 32 56 98zM441 710l-16 -26q-20 8 -42 18.5t-48.5 23t-40.5 19.5q-110 -52 -132 -61l-16 26q50 40 133 123h30q57 -60 132 -123z" />
    <glyph glyph-name="Edieresis" unicode="&#xcb;" horiz-adv-x="581" 
d="M536 173l35 -7q-9 -69 -35 -166h-510v35q65 5 80 20t15 78v384q0 64 -13 78.5t-68 19.5v35h471q0 -8 2 -31.5t4 -58t4 -60.5l-36 -5q-18 63 -41 86q-24 25 -100 25h-48q-28 0 -34.5 -5.5t-6.5 -29.5v-212h67q64 0 82.5 11.5t28.5 63.5h36v-202h-36q-10 53 -28 64.5
t-83 11.5h-67v-173q0 -70 24 -82q23 -10 90 -10q80 0 111 32q27 32 56 98zM398 828q29 0 48.5 -19t19.5 -48q0 -27 -19.5 -46.5t-48.5 -19.5q-27 0 -47 19.5t-20 46.5q0 28 20 47.5t47 19.5zM188 828q29 0 48.5 -19.5t19.5 -47.5q0 -27 -20 -46.5t-48 -19.5q-27 0 -47 19.5
t-20 46.5q0 28 20 47.5t47 19.5z" />
    <glyph glyph-name="Igrave" unicode="&#xcc;" horiz-adv-x="378" 
d="M338 0h-300v35q56 5 69.5 20.5t13.5 77.5v383q0 63 -13.5 78.5t-69.5 20.5v35h300v-35q-56 -5 -69.5 -20.5t-13.5 -78.5v-383q0 -62 13.5 -77.5t69.5 -20.5v-35zM258 713l-15 -29l-207 58l-2 12q3 17 20 45.5t31 36.5q66 -46 173 -123z" />
    <glyph glyph-name="Iacute" unicode="&#xcd;" horiz-adv-x="378" 
d="M338 0h-300v35q56 5 69.5 20.5t13.5 77.5v383q0 63 -13.5 78.5t-69.5 20.5v35h300v-35q-56 -5 -69.5 -20.5t-13.5 -78.5v-383q0 -62 13.5 -77.5t69.5 -20.5v-35zM347 755l-4 -12l-206 -60l-15 28q24 17 83.5 59t89.5 63q14 -5 31.5 -31.5t20.5 -46.5z" />
    <glyph glyph-name="Icircumflex" unicode="&#xce;" horiz-adv-x="378" 
d="M338 0h-300v35q56 5 69.5 20.5t13.5 77.5v383q0 63 -13.5 78.5t-69.5 20.5v35h300v-35q-56 -5 -69.5 -20.5t-13.5 -78.5v-383q0 -62 13.5 -77.5t69.5 -20.5v-35zM336 710l-16 -26q-27 11 -75 34t-57 27q-101 -49 -131 -61l-16 26q50 40 133 123h30q57 -60 132 -123z" />
    <glyph glyph-name="Idieresis" unicode="&#xcf;" horiz-adv-x="378" 
d="M338 0h-300v35q56 5 69.5 20.5t13.5 77.5v383q0 63 -13.5 78.5t-69.5 20.5v35h300v-35q-56 -5 -69.5 -20.5t-13.5 -78.5v-383q0 -62 13.5 -77.5t69.5 -20.5v-35zM293 828q29 0 48.5 -19t19.5 -48q0 -27 -19.5 -46.5t-48.5 -19.5q-27 0 -47 19.5t-20 46.5q0 28 20 47.5
t47 19.5zM83 828q29 0 48.5 -19.5t19.5 -47.5q0 -27 -20 -46.5t-48 -19.5q-27 0 -47 19.5t-20 46.5q0 28 20 47.5t47 19.5z" />
    <glyph glyph-name="Eth" unicode="&#xd0;" horiz-adv-x="760" 
d="M52 650h300q188 0 280 -88q86 -83 86 -210q0 -176 -124 -268q-112 -84 -297 -84h-253v34q59 6 73.5 22.5t14.5 80.5v178h-94v50h94v148q0 64 -13 80.5t-67 21.5v35zM266 315v-178q0 -54 15 -73t66 -19q96 0 158.5 78.5t62.5 207.5q0 146 -72 220q-56 56 -157 56
q-52 0 -64 -14q-9 -9 -9 -49v-179h141v-50h-141z" />
    <glyph glyph-name="Ntilde" unicode="&#xd1;" horiz-adv-x="740" 
d="M724 650v-35q-41 -2 -58.5 -15t-21.5 -47q-9 -93 -9 -166v-397h-48l-416 498h-3v-225q0 -82 8 -162q4 -35 23.5 -49.5t72.5 -16.5v-35h-245v35q42 3 61 17t22 46q10 82 10 165v209q0 51 -3.5 70.5t-17.5 36.5q-23 30 -83 36v35h185l382 -439h4v176q0 48 -8 164
q-4 33 -24.5 47t-74.5 17v35h244zM324 798q22 0 64 -18q39 -17 61 -17q28 0 49 42l30 -15q-31 -98 -92 -98q-20 0 -70 21q-30 15 -53 15q-27 0 -50 -44l-30 20q33 94 91 94z" />
    <glyph glyph-name="Ograve" unicode="&#xd2;" horiz-adv-x="766" 
d="M393 665q139 0 235 -93.5t96 -239.5q0 -158 -98.5 -252.5t-244.5 -94.5q-149 0 -244 97t-95 242q0 138 94 239.5t257 101.5zM375 623q-78 0 -129 -76.5t-51 -203.5q0 -133 55.5 -224.5t148.5 -91.5q75 0 123.5 72t48.5 205q0 147 -54 233t-142 86zM456 722l-14 -30
l-208 58l-2 12q3 17 20 45.5t31 36.5q17 -12 173 -122z" />
    <glyph glyph-name="Oacute" unicode="&#xd3;" horiz-adv-x="766" 
d="M393 665q139 0 235 -93.5t96 -239.5q0 -158 -98.5 -252.5t-244.5 -94.5q-149 0 -244 97t-95 242q0 138 94 239.5t257 101.5zM375 623q-78 0 -129 -76.5t-51 -203.5q0 -133 55.5 -224.5t148.5 -91.5q75 0 123.5 72t48.5 205q0 147 -54 233t-142 86zM536 763l-4 -12
l-206 -60l-15 28q24 17 83.5 59t89.5 63q14 -5 31.5 -31.5t20.5 -46.5z" />
    <glyph glyph-name="Ocircumflex" unicode="&#xd4;" horiz-adv-x="766" 
d="M393 665q139 0 235 -93.5t96 -239.5q0 -158 -98.5 -252.5t-244.5 -94.5q-149 0 -244 97t-95 242q0 138 94 239.5t257 101.5zM375 623q-78 0 -129 -76.5t-51 -203.5q0 -133 55.5 -224.5t148.5 -91.5q75 0 123.5 72t48.5 205q0 147 -54 233t-142 86zM530 718l-16 -26
q-27 11 -75 34t-57 27q-101 -49 -131 -61l-16 26q50 40 133 123h30q57 -60 132 -123z" />
    <glyph glyph-name="Otilde" unicode="&#xd5;" horiz-adv-x="766" 
d="M393 665q139 0 235 -93.5t96 -239.5q0 -158 -98.5 -252.5t-244.5 -94.5q-149 0 -244 97t-95 242q0 138 94 239.5t257 101.5zM375 623q-78 0 -129 -76.5t-51 -203.5q0 -133 55.5 -224.5t148.5 -91.5q75 0 123.5 72t48.5 205q0 147 -54 233t-142 86zM333 806q22 0 64 -18
q39 -17 61 -17q28 0 49 42l30 -15q-31 -98 -93 -98q-18 0 -70 21q-30 15 -52 15q-27 0 -50 -44l-30 20q33 94 91 94z" />
    <glyph glyph-name="Odieresis" unicode="&#xd6;" horiz-adv-x="766" 
d="M393 665q139 0 235 -93.5t96 -239.5q0 -158 -98.5 -252.5t-244.5 -94.5q-149 0 -244 97t-95 242q0 138 94 239.5t257 101.5zM375 623q-78 0 -129 -76.5t-51 -203.5q0 -133 55.5 -224.5t148.5 -91.5q75 0 123.5 72t48.5 205q0 147 -54 233t-142 86zM487 832q29 0 48.5 -19
t19.5 -48q0 -27 -19.5 -46.5t-48.5 -19.5q-27 0 -47 19.5t-20 46.5q0 28 20 47.5t47 19.5zM277 832q29 0 48.5 -19.5t19.5 -47.5q0 -27 -20 -46.5t-48 -19.5q-27 0 -47 19.5t-20 46.5q0 28 20 47.5t47 19.5z" />
    <glyph glyph-name="multiply" unicode="&#xd7;" horiz-adv-x="577" 
d="M519 60l-49 -50l-182 186l-181 -186l-48 50l180 186l-180 184l48 51l181 -185l182 187l49 -50l-182 -187z" />
    <glyph glyph-name="Oslash" unicode="&#xd8;" horiz-adv-x="771" 
d="M652 674l-50 -77q58 -47 92.5 -114.5t34.5 -147.5q0 -156 -99.5 -253t-250.5 -97q-97 0 -172 45l-57 -82l-31 26l53 77q-60 46 -95 117.5t-35 154.5q0 61 22.5 120.5t64 109.5t111 81t154.5 31q98 0 174 -44l51 76zM237 141l278 405q-51 77 -137 77q-79 0 -133.5 -77.5
t-54.5 -208.5q0 -113 47 -196zM538 509l-277 -407q23 -36 59.5 -55.5t76.5 -19.5q80 0 131.5 73.5t51.5 210.5q0 119 -42 198z" />
    <glyph glyph-name="Ugrave" unicode="&#xd9;" horiz-adv-x="729" 
d="M724 650v-35q-77 -4 -85 -59q-9 -56 -9 -139v-109q0 -173 -72 -250q-70 -73 -185 -73q-111 0 -177 52q-83 64 -83 235v235q0 69 -13.5 86t-70.5 22v35h301v-35q-56 -5 -69.5 -22t-13.5 -86v-217q0 -114 41 -175.5t121 -61.5q171 0 171 257v107q0 79 -10 139
q-4 27 -26 41.5t-71 17.5v35h251zM452 713l-14 -29l-207 58l-3 12q3 17 20.5 45.5t30.5 36.5q66 -46 173 -123z" />
    <glyph glyph-name="Uacute" unicode="&#xda;" horiz-adv-x="729" 
d="M724 650v-35q-77 -4 -85 -59q-9 -56 -9 -139v-109q0 -173 -72 -250q-70 -73 -185 -73q-111 0 -177 52q-83 64 -83 235v235q0 69 -13.5 86t-70.5 22v35h301v-35q-56 -5 -69.5 -22t-13.5 -86v-217q0 -114 41 -175.5t121 -61.5q171 0 171 257v107q0 79 -10 139
q-4 27 -26 41.5t-71 17.5v35h251zM543 755l-4 -12l-205 -60l-15 28q145 103 173 122q14 -5 31.5 -32t19.5 -46z" />
    <glyph glyph-name="Ucircumflex" unicode="&#xdb;" horiz-adv-x="729" 
d="M724 650v-35q-77 -4 -85 -59q-9 -56 -9 -139v-109q0 -173 -72 -250q-70 -73 -185 -73q-111 0 -177 52q-83 64 -83 235v235q0 69 -13.5 86t-70.5 22v35h301v-35q-56 -5 -69.5 -22t-13.5 -86v-217q0 -114 41 -175.5t121 -61.5q171 0 171 257v107q0 79 -10 139
q-4 27 -26 41.5t-71 17.5v35h251zM532 710l-16 -26q-21 8 -43 18t-48.5 23.5t-40.5 19.5q-115 -55 -131 -61l-16 26q60 49 132 123h31q57 -60 132 -123z" />
    <glyph glyph-name="Udieresis" unicode="&#xdc;" horiz-adv-x="729" 
d="M724 650v-35q-77 -4 -85 -59q-9 -56 -9 -139v-109q0 -173 -72 -250q-70 -73 -185 -73q-111 0 -177 52q-83 64 -83 235v235q0 69 -13.5 86t-70.5 22v35h301v-35q-56 -5 -69.5 -22t-13.5 -86v-217q0 -114 41 -175.5t121 -61.5q171 0 171 257v107q0 79 -10 139
q-4 27 -26 41.5t-71 17.5v35h251zM488 828q29 0 48.5 -19t19.5 -48q0 -27 -19.5 -46.5t-48.5 -19.5q-27 0 -47 19.5t-20 46.5q0 28 20 47.5t47 19.5zM278 828q29 0 48.5 -19t19.5 -48q0 -27 -19.5 -46.5t-48.5 -19.5q-27 0 -47 19.5t-20 46.5q0 28 20 47.5t47 19.5z" />
    <glyph glyph-name="Yacute" unicode="&#xdd;" horiz-adv-x="655" 
d="M646 650v-35q-47 -5 -69.5 -21.5t-50.5 -62.5q-58 -93 -112 -196q-18 -35 -18 -69v-128q0 -67 15 -82.5t82 -21.5v-34h-325v34q64 5 79 21t15 83v111q0 27 -13 54q-35 71 -124 227q-27 49 -47 64t-62 21v35h286v-35q-47 -6 -55 -18.5t8 -39.5q9 -18 114 -217
q91 179 104 212q15 30 4.5 43t-63.5 20v35h232zM509 755l-3 -12l-206 -60l-15 28q145 103 173 122q14 -5 31.5 -31.5t19.5 -46.5z" />
    <glyph glyph-name="Thorn" unicode="&#xde;" horiz-adv-x="593" 
d="M330 650v-35q-52 -6 -65 -22.5t-13 -83.5q28 1 83 1q108 0 166.5 -43t58.5 -131q0 -83 -63 -135t-169 -52l-76 15v-45q0 -49 16.5 -63.5t75.5 -20.5v-35h-305v35q54 4 68 20.5t14 71.5v398q0 55 -12.5 70t-63.5 20v35h285zM252 432v-227q22 -8 47 -8q14 0 31 6t37.5 19.5
t34 43.5t13.5 71q0 69 -34.5 100.5t-84.5 31.5q-26 0 -36 -10q-8 -5 -8 -27z" />
    <glyph glyph-name="germandbls" unicode="&#xdf;" horiz-adv-x="572" 
d="M93 442v11q0 48 18 90q28 67 94 114q63 44 129 47q84 -1 130 -45.5t47 -110.5q0 -20 -10 -31q-46 -34 -67.5 -60.5t-21.5 -53.5q0 -18 10.5 -36.5t20.5 -29t35 -35.5q70 -66 70 -137q0 -65 -63 -121t-133 -56q-35 0 -59 15q-26 15 -16 41q6 17 21 27q11 10 21 1
q40 -35 77 -35q16 0 29.5 14t13.5 41q0 47 -52 102q-46 47 -66.5 77t-20.5 64q0 8 1 15t3.5 14.5t4.5 12.5t7 12.5t7.5 11t10 11.5t10 10.5t12 12.5t11.5 12q6 6 14 13.5t13 13t7 8.5q6 7 6 33q1 55 -31 97.5t-77 42.5q-18 0 -32 -9t-22 -28t-13.5 -38.5t-7.5 -51t-2.5 -53
t-0.5 -56.5v-314q0 -44 6.5 -55.5t32.5 -16.5v-33h-229v33q42 5 52 16.5t10 54.5v287h-62l-5 13l27 38h40z" />
    <glyph glyph-name="agrave" unicode="&#xe0;" horiz-adv-x="466" 
d="M465 45l-109 -57q-38 0 -61 21q-16 14 -26 37q-88 -58 -104 -58q-61 0 -98 39t-37 89q0 38 18 59.5t58 36.5q13 5 45 16.5t49.5 18t37 15.5t27.5 16v30q0 47 -16.5 72.5t-44.5 25.5q-20 0 -33 -18q-16 -19 -29 -69q-9 -34 -42 -34q-21 0 -41.5 15.5t-20.5 34.5
q0 22 35 48q82 56 166 71q59 0 98 -29q30 -23 41 -54.5t11 -77.5v-165q0 -59 32 -59q12 0 34 8zM265 79v160q-10 -5 -29 -16t-26 -15q-47 -24 -47 -68q0 -38 19.5 -57.5t40.5 -19.5q19 0 42 16zM270 502l-31 -13q-29 35 -76.5 92.5t-52.5 63.5l4 14q10 7 48.5 14t53.5 5
q34 -107 54 -176z" />
    <glyph glyph-name="aacute" unicode="&#xe1;" horiz-adv-x="466" 
d="M465 45l-109 -57q-38 0 -61 21q-16 14 -26 37q-88 -58 -104 -58q-61 0 -98 39t-37 89q0 38 18 59.5t58 36.5q13 5 45 16.5t49.5 18t37 15.5t27.5 16v30q0 47 -16.5 72.5t-44.5 25.5q-20 0 -33 -18q-16 -19 -29 -69q-9 -34 -42 -34q-21 0 -41.5 15.5t-20.5 34.5
q0 22 35 48q82 56 166 71q59 0 98 -29q30 -23 41 -54.5t11 -77.5v-165q0 -59 32 -59q12 0 34 8zM265 79v160q-10 -5 -29 -16t-26 -15q-47 -24 -47 -68q0 -38 19.5 -57.5t40.5 -19.5q19 0 42 16zM217 489l-31 13q7 23 26.5 89t22.5 76q7 5 51.5 9.5t57.5 1.5l6 -10z" />
    <glyph glyph-name="acircumflex" unicode="&#xe2;" horiz-adv-x="466" 
d="M465 45l-109 -57q-38 0 -61 21q-16 14 -26 37q-88 -58 -104 -58q-61 0 -98 39t-37 89q0 38 18 59.5t58 36.5q13 5 45 16.5t49.5 18t37 15.5t27.5 16v30q0 47 -16.5 72.5t-44.5 25.5q-20 0 -33 -18q-16 -19 -29 -69q-9 -34 -42 -34q-21 0 -41.5 15.5t-20.5 34.5
q0 22 35 48q82 56 166 71q59 0 98 -29q30 -23 41 -54.5t11 -77.5v-165q0 -59 32 -59q12 0 34 8zM265 79v160q-10 -5 -29 -16t-26 -15q-47 -24 -47 -68q0 -38 19.5 -57.5t40.5 -19.5q19 0 42 16zM351 506l-27 -22q-17 14 -33.5 29.5t-36 34.5t-29.5 28q-10 -9 -29 -28.5
t-36 -35t-34 -28.5l-26 22q48 71 106 173h37q50 -88 108 -173z" />
    <glyph glyph-name="atilde" unicode="&#xe3;" horiz-adv-x="466" 
d="M465 45l-109 -57q-38 0 -61 21q-16 14 -26 37q-88 -58 -104 -58q-61 0 -98 39t-37 89q0 38 18 59.5t58 36.5q13 5 45 16.5t49.5 18t37 15.5t27.5 16v30q0 47 -16.5 72.5t-44.5 25.5q-20 0 -33 -18q-16 -19 -29 -69q-9 -34 -42 -34q-21 0 -41.5 15.5t-20.5 34.5
q0 22 35 48q82 56 166 71q59 0 98 -29q30 -23 41 -54.5t11 -77.5v-165q0 -59 32 -59q12 0 34 8zM265 79v160q-10 -5 -29 -16t-26 -15q-47 -24 -47 -68q0 -38 19.5 -57.5t40.5 -19.5q19 0 42 16zM110 512l-29 19q34 105 93 105q20 0 62 -21q40 -20 58 -20q27 0 50 46l28 -14
q-31 -106 -87 -106q-25 0 -67 22q-34 20 -56 20q-30 0 -52 -51z" />
    <glyph glyph-name="adieresis" unicode="&#xe4;" horiz-adv-x="466" 
d="M465 45l-109 -57q-38 0 -61 21q-16 14 -26 37q-88 -58 -104 -58q-61 0 -98 39t-37 89q0 38 18 59.5t58 36.5q13 5 45 16.5t49.5 18t37 15.5t27.5 16v30q0 47 -16.5 72.5t-44.5 25.5q-20 0 -33 -18q-16 -19 -29 -69q-9 -34 -42 -34q-21 0 -41.5 15.5t-20.5 34.5
q0 22 35 48q82 56 166 71q59 0 98 -29q30 -23 41 -54.5t11 -77.5v-165q0 -59 32 -59q12 0 34 8zM265 79v160q-10 -5 -29 -16t-26 -15q-47 -24 -47 -68q0 -38 19.5 -57.5t40.5 -19.5q19 0 42 16zM121 519q-27 0 -47 19.5t-20 46.5q0 28 20.5 47.5t47.5 19.5q29 0 48.5 -19.5
t19.5 -47.5q0 -27 -20 -46.5t-49 -19.5zM327 519q-27 0 -47 19.5t-20 46.5q0 28 20 47.5t48 19.5t47.5 -19.5t19.5 -47.5q0 -27 -20 -46.5t-48 -19.5z" />
    <glyph glyph-name="aring" unicode="&#xe5;" horiz-adv-x="466" 
d="M465 45l-109 -57q-38 0 -61 21q-16 14 -26 37q-88 -58 -104 -58q-61 0 -98 39t-37 89q0 38 18 59.5t58 36.5q13 5 45 16.5t49.5 18t37 15.5t27.5 16v30q0 47 -16.5 72.5t-44.5 25.5q-20 0 -33 -18q-16 -19 -29 -69q-9 -34 -42 -34q-21 0 -41.5 15.5t-20.5 34.5
q0 22 35 48q82 56 166 71q59 0 98 -29q30 -23 41 -54.5t11 -77.5v-165q0 -59 32 -59q12 0 34 8zM265 79v160q-10 -5 -29 -16t-26 -15q-47 -24 -47 -68q0 -38 19.5 -57.5t40.5 -19.5q19 0 42 16zM226 499q-39 0 -67.5 25.5t-28.5 66.5q0 40 29 65t68 25q37 0 66 -25t29 -65
q0 -41 -29 -66.5t-67 -25.5zM228 538q19 0 31 14.5t12 38.5q0 22 -12 36t-32 14t-33 -14t-13 -36q0 -24 13.5 -38.5t33.5 -14.5z" />
    <glyph glyph-name="ae" unicode="&#xe6;" horiz-adv-x="671" 
d="M630 119l19 -25q-40 -57 -90 -81.5t-86 -24.5q-110 0 -163 84l-30 -25q-71 -59 -116 -59q-59 0 -96 38.5t-37 86.5q0 38 18 61.5t57 38.5q147 54 165 67v25q0 45 -20 72.5t-45 27.5q-20 0 -34 -17q-13 -16 -27 -67q-9 -33 -42 -33q-20 0 -41 14.5t-21 32.5q0 25 36 49
q79 53 164 70q46 0 81 -25q27 -18 35 -38q28 29 64.5 46t68.5 17q69 0 117 -49.5t48 -112.5q0 -18 -5.5 -26t-21.5 -12q-36 -7 -245 -15q0 -79 39 -120.5t99 -41.5q53 0 109 42zM468 412q-30 0 -52.5 -34t-27.5 -94q114 3 121 3q13 1 18.5 6t5.5 19q0 39 -18 69.5t-47 30.5z
M225 67q41 0 68 35q-23 54 -23 140q-2 -1 -61 -32q-46 -27 -46 -70q0 -35 19 -54t43 -19z" />
    <glyph glyph-name="ccedilla" unicode="&#xe7;" horiz-adv-x="422" 
d="M401 122l18 -25q-62 -86 -148 -104l-14 -18q-7 -10 -4 -17.5t18 -23.5q35 -43 35 -71q0 -65 -123 -104l-14 29q61 31 61 60q0 14 -20 36q-19 21 -22 34t11 31l32 39q-92 7 -146.5 66t-54.5 147q0 54 27 105t75 86q84 62 168 62q57 0 90 -25q17 -13 15 -31q0 -22 -15 -41
t-28 -19q-8 0 -22 11q-55 51 -102 51q-33 0 -57.5 -36t-24.5 -110q0 -88 46 -132t91 -44q53 0 108 44z" />
    <glyph glyph-name="egrave" unicode="&#xe8;" horiz-adv-x="437" 
d="M399 123l18 -24q-41 -61 -90.5 -86t-89.5 -25q-96 0 -151.5 62t-55.5 152q0 109 74 181q71 71 154 71q68 0 115.5 -49t46.5 -112q0 -32 -29 -36q-89 -10 -238 -16q4 -77 41.5 -119t93.5 -42q61 0 111 43zM237 414q-30 0 -52.5 -34t-26.5 -92q20 0 59.5 1t59.5 2
q12 1 16 4.5t5 15.5q0 41 -16.5 72t-44.5 31zM274 502l-31 -13q-17 21 -47 56.5t-50.5 60t-32.5 39.5l4 14q11 7 49 14t53 5q32 -100 55 -176z" />
    <glyph glyph-name="eacute" unicode="&#xe9;" horiz-adv-x="437" 
d="M399 123l18 -24q-41 -61 -90.5 -86t-89.5 -25q-96 0 -151.5 62t-55.5 152q0 109 74 181q71 71 154 71q68 0 115.5 -49t46.5 -112q0 -32 -29 -36q-89 -10 -238 -16q4 -77 41.5 -119t93.5 -42q61 0 111 43zM237 414q-30 0 -52.5 -34t-26.5 -92q20 0 59.5 1t59.5 2
q12 1 16 4.5t5 15.5q0 41 -16.5 72t-44.5 31zM233 489l-31 13q7 23 26.5 89t22.5 76q7 5 51.5 9.5t57.5 1.5l6 -10z" />
    <glyph glyph-name="ecircumflex" unicode="&#xea;" horiz-adv-x="437" 
d="M399 123l18 -24q-41 -61 -90.5 -86t-89.5 -25q-96 0 -151.5 62t-55.5 152q0 109 74 181q71 71 154 71q68 0 115.5 -49t46.5 -112q0 -32 -29 -36q-89 -10 -238 -16q4 -77 41.5 -119t93.5 -42q61 0 111 43zM237 414q-30 0 -52.5 -34t-26.5 -92q20 0 59.5 1t59.5 2
q12 1 16 4.5t5 15.5q0 41 -16.5 72t-44.5 31zM359 506l-28 -22q-16 14 -33 29.5t-36 34t-29 28.5q-10 -9 -29 -28.5t-36 -35t-34 -28.5l-27 22q48 70 107 173h37q50 -88 108 -173z" />
    <glyph glyph-name="edieresis" unicode="&#xeb;" horiz-adv-x="437" 
d="M399 123l18 -24q-41 -61 -90.5 -86t-89.5 -25q-96 0 -151.5 62t-55.5 152q0 109 74 181q71 71 154 71q68 0 115.5 -49t46.5 -112q0 -32 -29 -36q-89 -10 -238 -16q4 -77 41.5 -119t93.5 -42q61 0 111 43zM237 414q-30 0 -52.5 -34t-26.5 -92q20 0 59.5 1t59.5 2
q12 1 16 4.5t5 15.5q0 41 -16.5 72t-44.5 31zM127 519q-27 0 -47 19.5t-20 46.5q0 28 20.5 47.5t47.5 19.5q29 0 48.5 -19.5t19.5 -47.5q0 -27 -20 -46.5t-49 -19.5zM333 519q-27 0 -47 19.5t-20 46.5q0 28 20 47.5t48 19.5t47.5 -19.5t19.5 -47.5q0 -27 -20 -46.5
t-48 -19.5z" />
    <glyph glyph-name="igrave" unicode="&#xec;" horiz-adv-x="295" 
d="M284 0h-254v33q42 4 52.5 19t10.5 70v190q0 46 -8.5 58t-47.5 18v30q95 11 183 36v-332q0 -57 9.5 -70t54.5 -19v-33zM185 502l-32 -13q-29 35 -76.5 92.5t-52.5 63.5l4 14q11 7 49 14t53 5q32 -100 55 -176z" />
    <glyph glyph-name="iacute" unicode="&#xed;" horiz-adv-x="295" 
d="M284 0h-254v33q42 4 52.5 19t10.5 70v190q0 46 -8.5 58t-47.5 18v30q95 11 183 36v-332q0 -57 9.5 -70t54.5 -19v-33zM147 489l-31 13q7 23 26.5 89t22.5 76q7 5 51.5 9.5t57.5 1.5l6 -10z" />
    <glyph glyph-name="icircumflex" unicode="&#xee;" horiz-adv-x="295" 
d="M284 0h-254v33q42 4 52.5 19t10.5 70v190q0 46 -8.5 58t-47.5 18v30q95 11 183 36v-332q0 -57 9.5 -70t54.5 -19v-33zM273 506l-28 -22q-22 18 -56.5 51t-42.5 41q-7 -6 -28 -27.5t-37 -36t-33 -28.5l-27 22q57 85 106 173h38q50 -88 108 -173z" />
    <glyph glyph-name="idieresis" unicode="&#xef;" horiz-adv-x="295" 
d="M284 0h-254v33q42 4 52.5 19t10.5 70v190q0 46 -8.5 58t-47.5 18v30q95 11 183 36v-332q0 -57 9.5 -70t54.5 -19v-33zM41 519q-27 0 -47 19.5t-20 46.5q0 28 20.5 47.5t47.5 19.5q29 0 48.5 -19.5t19.5 -47.5q0 -27 -20 -46.5t-49 -19.5zM247 519q-27 0 -47 19.5
t-20 46.5q0 28 20 47.5t48 19.5t47.5 -19.5t19.5 -47.5q0 -27 -20 -46.5t-48 -19.5z" />
    <glyph glyph-name="eth" unicode="&#xf0;" horiz-adv-x="522" 
d="M465 656l-123 -63q144 -133 144 -324q0 -142 -66 -211.5t-165 -69.5q-106 0 -166.5 67.5t-58.5 159.5q1 110 72.5 174.5t168.5 64.5q27 0 48 -9q-13 50 -55 106l-145 -73l-19 37l137 67q-72 70 -167 86q-5 7 -2 19t11 16q122 -7 227 -80l140 71zM265 415q-41 0 -67 -45
t-26 -126q-1 -99 25 -157.5t71 -58.5q80 0 82 202q2 116 -23 150q-26 35 -62 35z" />
    <glyph glyph-name="ntilde" unicode="&#xf1;" horiz-adv-x="566" 
d="M549 0h-233v32q32 5 39.5 17t7.5 64v170q0 94 -69 94q-34 0 -74 -31v-242q0 -45 7.5 -56t39.5 -16v-32h-241v32q48 7 57.5 17.5t9.5 59.5v207q0 44 -8.5 55t-45.5 18v29q86 11 181 38v-74q4 3 26.5 19.5t35.5 24.5q44 28 78 28q61 0 96 -42.5t35 -117.5v-189
q0 -46 9 -56.5t49 -16.5v-32zM167 512l-29 19q34 105 93 105q21 0 62 -21q40 -20 58 -20q29 0 50 46l28 -14q-30 -106 -87 -106q-25 0 -67 22q-34 20 -56 20q-30 0 -52 -51z" />
    <glyph glyph-name="ograve" unicode="&#xf2;" horiz-adv-x="525" 
d="M268 454q102 0 165 -66t63 -159q0 -114 -68.5 -177.5t-163.5 -63.5q-111 0 -172.5 67t-61.5 156q0 113 73 178t165 65zM255 415q-34 0 -58 -43.5t-24 -124.5q0 -95 28 -157.5t74 -62.5q78 0 78 172q0 104 -25.5 160t-72.5 56zM298 502l-31 -13q-29 35 -76.5 92.5
t-52.5 63.5l4 14q10 7 48.5 14t53.5 5q34 -107 54 -176z" />
    <glyph glyph-name="oacute" unicode="&#xf3;" horiz-adv-x="525" 
d="M268 454q102 0 165 -66t63 -159q0 -114 -68.5 -177.5t-163.5 -63.5q-111 0 -172.5 67t-61.5 156q0 113 73 178t165 65zM255 415q-34 0 -58 -43.5t-24 -124.5q0 -95 28 -157.5t74 -62.5q78 0 78 172q0 104 -25.5 160t-72.5 56zM260 489l-31 13q7 23 26.5 89t22.5 76
q7 5 51.5 9.5t57.5 1.5l6 -10z" />
    <glyph glyph-name="ocircumflex" unicode="&#xf4;" horiz-adv-x="525" 
d="M268 454q102 0 165 -66t63 -159q0 -114 -68.5 -177.5t-163.5 -63.5q-111 0 -172.5 67t-61.5 156q0 113 73 178t165 65zM255 415q-34 0 -58 -43.5t-24 -124.5q0 -95 28 -157.5t74 -62.5q78 0 78 172q0 104 -25.5 160t-72.5 56zM388 506l-28 -22q-16 14 -33 29.5t-36 34
t-29 28.5q-10 -9 -29 -28.5t-36 -35t-34 -28.5l-27 22q57 85 106 173h38q50 -88 108 -173z" />
    <glyph glyph-name="otilde" unicode="&#xf5;" horiz-adv-x="525" 
d="M268 454q102 0 165 -66t63 -159q0 -114 -68.5 -177.5t-163.5 -63.5q-111 0 -172.5 67t-61.5 156q0 113 73 178t165 65zM255 415q-34 0 -58 -43.5t-24 -124.5q0 -95 28 -157.5t74 -62.5q78 0 78 172q0 104 -25.5 160t-72.5 56zM144 512l-29 19q34 105 93 105q21 0 62 -21
q40 -20 58 -20q29 0 50 46l28 -14q-30 -106 -87 -106q-25 0 -67 22q-34 20 -56 20q-30 0 -52 -51z" />
    <glyph glyph-name="odieresis" unicode="&#xf6;" horiz-adv-x="525" 
d="M268 454q102 0 165 -66t63 -159q0 -114 -68.5 -177.5t-163.5 -63.5q-111 0 -172.5 67t-61.5 156q0 113 73 178t165 65zM255 415q-34 0 -58 -43.5t-24 -124.5q0 -95 28 -157.5t74 -62.5q78 0 78 172q0 104 -25.5 160t-72.5 56zM159 519q-27 0 -47 19.5t-20 46.5
q0 28 20.5 47.5t47.5 19.5q29 0 48.5 -19.5t19.5 -47.5q0 -27 -20 -46.5t-49 -19.5zM365 519q-27 0 -47 19.5t-20 46.5q0 28 20 47.5t48 19.5t47.5 -19.5t19.5 -47.5q0 -27 -20 -46.5t-48 -19.5z" />
    <glyph glyph-name="divide" unicode="&#xf7;" horiz-adv-x="577" 
d="M290 349q-22 0 -40.5 18t-18.5 42t18.5 42.5t40.5 18.5q25 0 43 -18.5t18 -42.5q0 -25 -18 -42.5t-43 -17.5zM531 221h-484v65h484v-65zM289 159q24 0 42 -18t18 -42t-18.5 -42.5t-41.5 -18.5q-25 0 -42.5 18.5t-17.5 42.5q0 25 17.5 42.5t42.5 17.5z" />
    <glyph glyph-name="oslash" unicode="&#xf8;" horiz-adv-x="531" 
d="M443 457l-33 -49q91 -64 91 -177q0 -115 -69.5 -179t-167.5 -64q-63 0 -117 27l-36 -51l-29 23l35 50q-43 31 -65 77.5t-22 96.5q0 111 74 177t167 66q60 0 109 -26l35 50zM180 127l152 234q-27 52 -75 52q-35 0 -65 -43.5t-30 -133.5q0 -58 18 -109zM352 323l-154 -236
q29 -59 76 -59q95 0 95 182q0 66 -17 113z" />
    <glyph glyph-name="ugrave" unicode="&#xf9;" horiz-adv-x="555" 
d="M542 56v-32q-70 -9 -183 -36l-8 7v60q-40 -31 -50 -37q-46 -30 -87 -30q-62 0 -96.5 37.5t-34.5 104.5v207q0 36 -8.5 45.5t-46.5 19.5v29q90 4 185 18q-3 -63 -3 -151v-145q0 -45 20 -66.5t49 -21.5q43 0 72 28v243q0 38 -9.5 48t-54.5 18v29q106 5 191 18v-325
q0 -40 7.5 -51.5t34.5 -14.5zM314 502l-32 -13q-29 35 -76.5 92.5t-52.5 63.5l4 14q11 7 49 14t53 5q32 -100 55 -176z" />
    <glyph glyph-name="uacute" unicode="&#xfa;" horiz-adv-x="555" 
d="M542 56v-32q-70 -9 -183 -36l-8 7v60q-40 -31 -50 -37q-46 -30 -87 -30q-62 0 -96.5 37.5t-34.5 104.5v207q0 36 -8.5 45.5t-46.5 19.5v29q90 4 185 18q-3 -63 -3 -151v-145q0 -45 20 -66.5t49 -21.5q43 0 72 28v243q0 38 -9.5 48t-54.5 18v29q106 5 191 18v-325
q0 -40 7.5 -51.5t34.5 -14.5zM270 489l-31 13q7 23 26.5 89t22.5 76q7 5 51.5 9.5t57.5 1.5l6 -10z" />
    <glyph glyph-name="ucircumflex" unicode="&#xfb;" horiz-adv-x="555" 
d="M542 56v-32q-70 -9 -183 -36l-8 7v60q-40 -31 -50 -37q-46 -30 -87 -30q-62 0 -96.5 37.5t-34.5 104.5v207q0 36 -8.5 45.5t-46.5 19.5v29q90 4 185 18q-3 -63 -3 -151v-145q0 -45 20 -66.5t49 -21.5q43 0 72 28v243q0 38 -9.5 48t-54.5 18v29q106 5 191 18v-325
q0 -40 7.5 -51.5t34.5 -14.5zM399 506l-27 -22q-17 14 -33.5 29.5t-36 34.5t-29.5 28q-10 -9 -29 -28.5t-36 -35t-34 -28.5l-26 22q48 71 106 173h37q50 -88 108 -173z" />
    <glyph glyph-name="udieresis" unicode="&#xfc;" horiz-adv-x="555" 
d="M542 56v-32q-70 -9 -183 -36l-8 7v60q-40 -31 -50 -37q-46 -30 -87 -30q-62 0 -96.5 37.5t-34.5 104.5v207q0 36 -8.5 45.5t-46.5 19.5v29q90 4 185 18q-3 -63 -3 -151v-145q0 -45 20 -66.5t49 -21.5q43 0 72 28v243q0 38 -9.5 48t-54.5 18v29q106 5 191 18v-325
q0 -40 7.5 -51.5t34.5 -14.5zM165 519q-27 0 -47 19.5t-20 46.5q0 28 20.5 47.5t47.5 19.5q29 0 48.5 -19.5t19.5 -47.5q0 -27 -20 -46.5t-49 -19.5zM371 519q-27 0 -47 19.5t-20 46.5q0 28 20 47.5t48 19.5t47.5 -19.5t19.5 -47.5q0 -27 -20 -46.5t-48 -19.5z" />
    <glyph glyph-name="yacute" unicode="&#xfd;" horiz-adv-x="465" 
d="M483 442v-32q-36 -6 -50 -18.5t-33 -53.5q-11 -23 -116 -275q-67 -163 -105 -280q-9 -27 -37 -27q-23 0 -46.5 19t-23.5 44q0 21 27 39q57 30 82 71q13 25 19 41q6 20 -4 47q-83 231 -126 331q-14 33 -28 45t-49 17v32h248v-32q-33 -6 -40.5 -14t0.5 -32l75 -222
q33 82 75 213q8 25 -2 36.5t-46 18.5v32h180zM250 489l-31 13q7 23 26.5 89t22.5 76q7 5 51.5 9.5t57.5 1.5l6 -10z" />
    <glyph glyph-name="thorn" unicode="&#xfe;" horiz-adv-x="538" 
d="M200 703v-303q62 33 87 46q18 8 41 8q85 0 133 -59t48 -136q0 -104 -71 -176.5t-174 -94.5q-32 0 -64 12v-112q0 -53 14 -67.5t73 -18.5v-32h-280v32q44 4 54.5 16.5t10.5 65.5v679q0 44 -10 57t-54 18v29q100 10 192 36zM200 363v-289q41 -37 74 -37q42 0 73.5 45.5
t31.5 128.5q0 84 -36 126.5t-81 42.5q-24 0 -62 -17z" />
    <glyph glyph-name="ydieresis" unicode="&#xff;" horiz-adv-x="465" 
d="M483 442v-32q-36 -6 -50 -18.5t-33 -53.5q-11 -23 -116 -275q-67 -163 -105 -280q-9 -27 -37 -27q-23 0 -46.5 19t-23.5 44q0 21 27 39q57 30 82 71q13 25 19 41q6 20 -4 47q-83 231 -126 331q-14 33 -28 45t-49 17v32h248v-32q-33 -6 -40.5 -14t0.5 -32l75 -222
q33 82 75 213q8 25 -2 36.5t-46 18.5v32h180zM140 519q-26 0 -46 19.5t-20 46.5q0 28 20 47.5t47 19.5q29 0 48.5 -19.5t19.5 -47.5q0 -27 -20 -46.5t-49 -19.5zM346 519q-27 0 -47 19.5t-20 46.5q0 28 20 47.5t48 19.5q29 0 48 -19t19 -48q0 -27 -19.5 -46.5t-48.5 -19.5z
" />
    <glyph glyph-name="Amacron" unicode="&#x100;" horiz-adv-x="706" 
d="M687 0h-286v35q43 7 52 19.5t-4 45.5q-14 41 -40 113h-192q-25 -71 -36 -107q-13 -36 -2 -50.5t63 -20.5v-35h-224l1 35q50 6 68 23t43 80l205 514l51 13q177 -483 191 -521q26 -66 44.5 -84.5t65.5 -24.5v-35zM390 266l-74 216h-3q-12 -32 -25.5 -68.5t-29 -80
t-24.5 -67.5h156zM485 711h-245v68h245v-68z" />
    <glyph glyph-name="amacron" unicode="&#x101;" horiz-adv-x="466" 
d="M465 45l-109 -57q-38 0 -61 21q-16 14 -26 37q-88 -58 -104 -58q-61 0 -98 39t-37 89q0 38 18 59.5t58 36.5q13 5 45 16.5t49.5 18t37 15.5t27.5 16v30q0 47 -16.5 72.5t-44.5 25.5q-20 0 -33 -18q-16 -19 -29 -69q-9 -34 -42 -34q-21 0 -41.5 15.5t-20.5 34.5
q0 22 35 48q82 56 166 71q59 0 98 -29q30 -23 41 -54.5t11 -77.5v-165q0 -59 32 -59q12 0 34 8zM265 79v160q-10 -5 -29 -16t-26 -15q-47 -24 -47 -68q0 -38 19.5 -57.5t40.5 -19.5q19 0 42 16zM343 541h-249v73h249v-73z" />
    <glyph glyph-name="Abreve" unicode="&#x102;" horiz-adv-x="706" 
d="M687 0h-286v35q43 7 52 19.5t-4 45.5q-14 41 -40 113h-192q-25 -71 -36 -107q-13 -36 -2 -50.5t63 -20.5v-35h-224l1 35q50 6 68 23t43 80l205 514l51 13q177 -483 191 -521q26 -66 44.5 -84.5t65.5 -24.5v-35zM390 266l-74 216h-3q-12 -32 -25.5 -68.5t-29 -80
t-24.5 -67.5h156zM460 828h30q-1 -137 -127 -137q-127 0 -128 137h30q14 -65 98 -65q83 0 97 65z" />
    <glyph glyph-name="abreve" unicode="&#x103;" horiz-adv-x="466" 
d="M465 45l-109 -57q-38 0 -61 21q-16 14 -26 37q-88 -58 -104 -58q-61 0 -98 39t-37 89q0 38 18 59.5t58 36.5q13 5 45 16.5t49.5 18t37 15.5t27.5 16v30q0 47 -16.5 72.5t-44.5 25.5q-20 0 -33 -18q-16 -19 -29 -69q-9 -34 -42 -34q-21 0 -41.5 15.5t-20.5 34.5
q0 22 35 48q82 56 166 71q59 0 98 -29q30 -23 41 -54.5t11 -77.5v-165q0 -59 32 -59q12 0 34 8zM265 79v160q-10 -5 -29 -16t-26 -15q-47 -24 -47 -68q0 -38 19.5 -57.5t40.5 -19.5q19 0 42 16zM311 660h32q0 -154 -123 -154q-121 0 -121 154h32q18 -78 90 -78t90 78z" />
    <glyph glyph-name="Aogonek" unicode="&#x104;" horiz-adv-x="706" 
d="M687 0h-205q-22 -19 -39 -52t-17 -62q0 -26 16 -39.5t42 -13.5q17 0 38 8l9 -31l-64 -32q-17 -11 -36 -11q-43 0 -66 24.5t-23 61.5q0 25 9 48.5t30.5 49.5t33 37.5t38.5 37.5q14 13 8 33q-4 11 -15 44t-21.5 63t-17.5 47h-190q-33 -93 -36 -103q-14 -39 -4 -54t64 -22
v-34h-223l1 34q46 5 67 25t46 83q136 340 203 510q11 2 29 7t22 6q117 -325 189 -517q30 -69 49 -90t63 -27v-31zM390 265l-74 217h-2q-76 -206 -80 -217h156z" />
    <glyph glyph-name="aogonek" unicode="&#x105;" horiz-adv-x="467" 
d="M456 76l10 -30q-4 -2 -24.5 -12t-27.5 -14q-44 -22 -77.5 -61.5t-33.5 -78.5q0 -45 51 -45q20 0 42 11l8 -30l-61 -35q-21 -13 -37 -13q-41 0 -64 21.5t-23 56.5q0 65 100 147q-13 6 -28 20.5t-21 32.5q-88 -58 -105 -58q-61 0 -98 39t-37 89q0 38 18 59t58 37
q141 50 160 66v29q0 46 -16.5 72.5t-44.5 26.5q-21 0 -34 -18q-13 -16 -28 -69q-8 -34 -41 -34q-21 0 -42 15.5t-21 34.5q0 22 35 48q82 56 167 71q56 0 97 -29q30 -23 41 -54.5t11 -77.5v-166q0 -59 32 -59q16 0 34 8zM266 80v159q-6 -3 -25 -14.5t-31 -17.5
q-47 -23 -47 -67q0 -38 19.5 -57t40.5 -19q20 0 43 16z" />
    <glyph glyph-name="Cacute" unicode="&#x106;" horiz-adv-x="676" 
d="M625 186l35 -16q-27 -99 -56 -159q-113 -26 -186 -26q-96 0 -170.5 29t-118.5 77.5t-66 106t-22 119.5q0 155 109.5 251.5t287.5 96.5q60 0 182 -27q15 -91 23 -164l-37 -7q-43 154 -187 154q-104 0 -164.5 -83.5t-60.5 -200.5q0 -137 66 -221t169 -84q118 0 196 154z
M540 770l-4 -12l-205 -60l-15 28q145 102 173 122q14 -5 31.5 -32t19.5 -46z" />
    <glyph glyph-name="cacute" unicode="&#x107;" horiz-adv-x="422" 
d="M399 120l19 -24q-35 -49 -81 -78.5t-91 -29.5q-98 0 -157.5 63.5t-59.5 149.5q0 55 26.5 105.5t74.5 85.5q84 62 170 62q56 0 86 -25q18 -13 18 -36q0 -21 -14.5 -38t-28.5 -17q-10 0 -22 11q-61 52 -101 52q-34 0 -59 -35.5t-25 -109.5q0 -88 47 -132.5t91 -44.5
q59 0 107 41zM243 489l-31 13q7 23 26.5 89t22.5 76q7 5 51.5 9.5t57.5 1.5l6 -10z" />
    <glyph glyph-name="Ccircumflex" unicode="&#x108;" horiz-adv-x="676" 
d="M625 186l35 -16q-27 -99 -56 -159q-113 -26 -186 -26q-96 0 -170.5 29t-118.5 77.5t-66 106t-22 119.5q0 155 109.5 251.5t287.5 96.5q60 0 182 -27q15 -91 23 -164l-37 -7q-43 154 -187 154q-104 0 -164.5 -83.5t-60.5 -200.5q0 -137 66 -221t169 -84q118 0 196 154z
M557 722l-16 -26q-20 8 -42 18.5t-48.5 23t-40.5 19.5q-110 -52 -132 -61l-16 26q50 40 133 123h30q48 -50 132 -123z" />
    <glyph glyph-name="ccircumflex" unicode="&#x109;" horiz-adv-x="422" 
d="M399 120l19 -24q-35 -49 -81 -78.5t-91 -29.5q-98 0 -157.5 63.5t-59.5 149.5q0 55 26.5 105.5t74.5 85.5q84 62 170 62q56 0 86 -25q18 -13 18 -36q0 -21 -14.5 -38t-28.5 -17q-10 0 -22 11q-61 52 -101 52q-34 0 -59 -35.5t-25 -109.5q0 -88 47 -132.5t91 -44.5
q59 0 107 41zM371 506l-28 -22q-17 14 -33.5 29.5t-36 34.5t-29.5 28q-1 -1 -38.5 -37.5t-59.5 -54.5l-27 22q48 71 106 173h37q45 -80 109 -173z" />
    <glyph glyph-name="Cdotaccent" unicode="&#x10a;" horiz-adv-x="676" 
d="M625 186l35 -16q-27 -99 -56 -159q-113 -26 -186 -26q-96 0 -170.5 29t-118.5 77.5t-66 106t-22 119.5q0 155 109.5 251.5t287.5 96.5q60 0 182 -27q15 -91 23 -164l-37 -7q-43 154 -187 154q-104 0 -164.5 -83.5t-60.5 -200.5q0 -137 66 -221t169 -84q118 0 196 154z
M414 844q31 0 51.5 -20t20.5 -50q0 -29 -21 -49.5t-51 -20.5q-28 0 -49 21t-21 49q0 29 21 49.5t49 20.5z" />
    <glyph glyph-name="cdotaccent" unicode="&#x10b;" horiz-adv-x="422" 
d="M399 120l19 -24q-35 -49 -81 -78.5t-91 -29.5q-98 0 -157.5 63.5t-59.5 149.5q0 55 26.5 105.5t74.5 85.5q84 62 170 62q56 0 86 -25q18 -13 18 -36q0 -21 -14.5 -38t-28.5 -17q-10 0 -22 11q-61 52 -101 52q-34 0 -59 -35.5t-25 -109.5q0 -88 47 -132.5t91 -44.5
q59 0 107 41zM245 517q-28 0 -49 21t-21 49q0 30 21 50t50 20q30 0 50.5 -20t20.5 -50q0 -29 -21 -49.5t-51 -20.5z" />
    <glyph glyph-name="Ccaron" unicode="&#x10c;" horiz-adv-x="676" 
d="M625 186l35 -16q-27 -99 -56 -159q-113 -26 -186 -26q-96 0 -170.5 29t-118.5 77.5t-66 106t-22 119.5q0 155 109.5 251.5t287.5 96.5q60 0 182 -27q15 -91 23 -164l-37 -7q-43 154 -187 154q-104 0 -164.5 -83.5t-60.5 -200.5q0 -137 66 -221t169 -84q118 0 196 154z
M538 845l15 -26q-49 -38 -132 -123h-30q-65 70 -133 123l17 26q66 -27 131 -59q59 29 132 59z" />
    <glyph glyph-name="ccaron" unicode="&#x10d;" horiz-adv-x="422" 
d="M399 120l19 -24q-35 -49 -81 -78.5t-91 -29.5q-98 0 -157.5 63.5t-59.5 149.5q0 55 26.5 105.5t74.5 85.5q84 62 170 62q56 0 86 -25q18 -13 18 -36q0 -21 -14.5 -38t-28.5 -17q-10 0 -22 11q-61 52 -101 52q-34 0 -59 -35.5t-25 -109.5q0 -88 47 -132.5t91 -44.5
q59 0 107 41zM350 689l28 -22q-43 -62 -106 -173h-38q-44 80 -108 173l27 22q18 -14 34 -29t36.5 -35t29.5 -28q83 81 97 92z" />
    <glyph glyph-name="Dcaron" unicode="&#x10e;" horiz-adv-x="761" 
d="M41 650h301q196 0 287 -87q88 -84 88 -212q0 -171 -125 -268q-110 -83 -303 -83h-257v35q60 5 74.5 20.5t14.5 78.5v382q0 63 -13 78.5t-67 20.5v35zM255 540v-400q0 -56 17 -76.5t68 -20.5q102 0 164 78t62 210q0 142 -74 216q-64 62 -163 62q-49 0 -63 -14
q-11 -11 -11 -55zM491 830l16 -26q-54 -41 -132 -123h-31q-65 70 -133 123l17 26q73 -30 132 -59q56 28 131 59z" />
    <glyph glyph-name="dcaron" unicode="&#x10f;" horiz-adv-x="547" 
d="M541 58v-32q-147 -25 -197 -39v58l-60 -39q-30 -18 -51 -18q-33 0 -68 13.5t-66 39.5t-50.5 69.5t-19.5 96.5q0 103 79 175t195 72q4 0 41 -5v121q0 40 -10.5 50.5t-56.5 15.5v31q126 16 195 36v-577q0 -42 7.5 -52t39.5 -14zM344 80v280q-24 52 -72 52q-12 0 -26.5 -7
t-32.5 -24t-30 -55.5t-12 -91.5q1 -84 38.5 -127t79.5 -43q30 0 55 16zM567 710q31 0 53.5 -26.5t22.5 -66.5q0 -46 -29.5 -76t-77.5 -43l-11 26q54 28 54 69q0 35 -40 48q-15 5 -15 26q0 19 13.5 31t29.5 12z" />
    <glyph glyph-name="Dcroat" unicode="&#x110;" horiz-adv-x="760" 
d="M52 650h300q188 0 280 -88q86 -83 86 -210q0 -176 -124 -268q-112 -84 -297 -84h-253v34q59 6 73.5 22.5t14.5 80.5v178h-94v50h94v148q0 64 -13 80.5t-67 21.5v35zM266 315v-178q0 -54 15 -73t66 -19q96 0 158.5 78.5t62.5 207.5q0 146 -72 220q-56 56 -157 56
q-52 0 -64 -14q-9 -9 -9 -49v-179h141v-50h-141z" />
    <glyph glyph-name="dcroat" unicode="&#x111;" horiz-adv-x="548" 
d="M542 58v-32q-147 -25 -197 -39v57l-61 -38q-30 -18 -50 -18q-46 0 -91.5 22.5t-79.5 74.5t-34 122q0 103 79.5 175t197.5 72q2 0 39 -5v77h-138v42h138v21q0 33 -9.5 40t-54.5 15v30q121 15 192 36v-142h79v-42h-79v-396q0 -46 7.5 -56t40.5 -14zM345 81v280
q-23 51 -71 51q-11 0 -26 -7t-33.5 -24.5t-31 -55.5t-12.5 -91q1 -84 39 -127.5t80 -43.5q26 0 55 18z" />
    <glyph glyph-name="Emacron" unicode="&#x112;" horiz-adv-x="581" 
d="M536 173l35 -7q-9 -69 -35 -166h-510v35q65 5 80 20t15 78v384q0 64 -13 78.5t-68 19.5v35h471q0 -8 2 -31.5t4 -58t4 -60.5l-36 -5q-18 63 -41 86q-24 25 -100 25h-48q-28 0 -34.5 -5.5t-6.5 -29.5v-212h67q64 0 82.5 11.5t28.5 63.5h36v-202h-36q-10 53 -28 64.5
t-83 11.5h-67v-173q0 -70 24 -82q23 -10 90 -10q80 0 111 32q27 32 56 98zM431 712h-246v67h246v-67z" />
    <glyph glyph-name="emacron" unicode="&#x113;" horiz-adv-x="437" 
d="M399 123l18 -24q-41 -61 -90.5 -86t-89.5 -25q-96 0 -151.5 62t-55.5 152q0 109 74 181q71 71 154 71q68 0 115.5 -49t46.5 -112q0 -32 -29 -36q-89 -10 -238 -16q4 -77 41.5 -119t93.5 -42q61 0 111 43zM237 414q-30 0 -52.5 -34t-26.5 -92q20 0 59.5 1t59.5 2
q12 1 16 4.5t5 15.5q0 41 -16.5 72t-44.5 31zM360 541h-249v73h249v-73z" />
    <glyph glyph-name="Ebreve" unicode="&#x114;" horiz-adv-x="581" 
d="M536 173l35 -7q-9 -69 -35 -166h-510v35q65 5 80 20t15 78v384q0 64 -13 78.5t-68 19.5v35h471q0 -8 2 -31.5t4 -58t4 -60.5l-36 -5q-18 63 -41 86q-24 25 -100 25h-48q-28 0 -34.5 -5.5t-6.5 -29.5v-212h67q64 0 82.5 11.5t28.5 63.5h36v-202h-36q-10 53 -28 64.5
t-83 11.5h-67v-173q0 -70 24 -82q23 -10 90 -10q80 0 111 32q27 32 56 98zM406 830h30q-1 -137 -128 -137q-126 0 -127 137h30q14 -65 97 -65q84 0 98 65z" />
    <glyph glyph-name="ebreve" unicode="&#x115;" horiz-adv-x="437" 
d="M399 123l18 -24q-41 -61 -90.5 -86t-89.5 -25q-96 0 -151.5 62t-55.5 152q0 109 74 181q71 71 154 71q68 0 115.5 -49t46.5 -112q0 -32 -29 -36q-89 -10 -238 -16q4 -77 41.5 -119t93.5 -42q61 0 111 43zM237 414q-30 0 -52.5 -34t-26.5 -92q20 0 59.5 1t59.5 2
q12 1 16 4.5t5 15.5q0 41 -16.5 72t-44.5 31zM327 660h32q0 -154 -123 -154q-121 0 -121 154h32q18 -78 90 -78t90 78z" />
    <glyph glyph-name="Edotaccent" unicode="&#x116;" horiz-adv-x="581" 
d="M536 173l35 -7q-9 -69 -35 -166h-510v35q65 5 80 20t15 78v384q0 64 -13 78.5t-68 19.5v35h471q0 -8 2 -31.5t4 -58t4 -60.5l-36 -5q-18 63 -41 86q-24 25 -100 25h-48q-28 0 -34.5 -5.5t-6.5 -29.5v-212h67q64 0 82.5 11.5t28.5 63.5h36v-202h-36q-10 53 -28 64.5
t-83 11.5h-67v-173q0 -70 24 -82q23 -10 90 -10q80 0 111 32q27 32 56 98zM305 842q30 0 51 -20.5t21 -49.5t-21 -49.5t-51 -20.5q-29 0 -50 21t-21 49q0 29 21 49.5t50 20.5z" />
    <glyph glyph-name="edotaccent" unicode="&#x117;" horiz-adv-x="437" 
d="M399 123l18 -24q-41 -61 -90.5 -86t-89.5 -25q-96 0 -151.5 62t-55.5 152q0 109 74 181q71 71 154 71q68 0 115.5 -49t46.5 -112q0 -32 -29 -36q-89 -10 -238 -16q4 -77 41.5 -119t93.5 -42q61 0 111 43zM237 414q-30 0 -52.5 -34t-26.5 -92q20 0 59.5 1t59.5 2
q12 1 16 4.5t5 15.5q0 41 -16.5 72t-44.5 31zM236 517q-28 0 -49 21t-21 49q0 30 21 50t50 20q30 0 50.5 -20t20.5 -50q0 -29 -21 -49.5t-51 -20.5z" />
    <glyph glyph-name="Eogonek" unicode="&#x118;" horiz-adv-x="580" 
d="M536 176l35 -10q-9 -69 -35 -166h-49q-76 -67 -76 -129q0 -19 14 -29t33 -10q23 0 46 10l9 -30l-52 -32q-26 -15 -48 -15q-42 0 -63 22.5t-21 52.5q0 73 113 160h-416v35q65 5 80 20t15 78v384q0 63 -13.5 78t-67.5 20v35h471q0 -7 2 -30.5t4 -57.5t4 -60l-37 -5
q-16 58 -42 84q-24 24 -98 24h-46q-29 0 -36 -5.5t-7 -29.5v-209h62q67 0 86.5 12.5t29.5 62.5h36v-203h-36q-10 52 -29 64.5t-87 12.5h-62v-179q0 -67 25 -79q20 -9 89 -9q79 0 110 34q27 30 57 99z" />
    <glyph glyph-name="eogonek" unicode="&#x119;" horiz-adv-x="437" 
d="M275 -7l-2 2q-17 -7 -36 -7q-97 0 -152.5 62t-55.5 152q0 107 74 181q71 71 154 71q68 0 116 -49t47 -112q0 -32 -29 -36q-89 -10 -238 -16q3 -78 39.5 -120t92.5 -42q63 0 113 44l18 -23q-30 -37 -54 -57q-111 -107 -111 -166q0 -20 13.5 -31.5t32.5 -11.5q20 0 47 12
l9 -29l-60 -35q-18 -12 -40 -12q-43 0 -63 21t-20 53t30 72.5t75 76.5zM236 414q-30 0 -52 -34t-27 -92q23 1 64.5 2t54.5 1q21 0 22 21q0 41 -17.5 71.5t-44.5 30.5z" />
    <glyph glyph-name="Ecaron" unicode="&#x11a;" horiz-adv-x="581" 
d="M536 173l35 -7q-9 -69 -35 -166h-510v35q65 5 80 20t15 78v384q0 64 -13 78.5t-68 19.5v35h471q0 -8 2 -31.5t4 -58t4 -60.5l-36 -5q-18 63 -41 86q-24 25 -100 25h-48q-28 0 -34.5 -5.5t-6.5 -29.5v-212h67q64 0 82.5 11.5t28.5 63.5h36v-202h-36q-10 53 -28 64.5
t-83 11.5h-67v-173q0 -70 24 -82q23 -10 90 -10q80 0 111 32q27 32 56 98zM436 834l15 -26q-49 -38 -132 -123h-31q-58 64 -132 123l16 26q73 -30 132 -59q67 33 132 59z" />
    <glyph glyph-name="ecaron" unicode="&#x11b;" horiz-adv-x="437" 
d="M399 123l18 -24q-41 -61 -90.5 -86t-89.5 -25q-96 0 -151.5 62t-55.5 152q0 109 74 181q71 71 154 71q68 0 115.5 -49t46.5 -112q0 -32 -29 -36q-89 -10 -238 -16q4 -77 41.5 -119t93.5 -42q61 0 111 43zM237 414q-30 0 -52.5 -34t-26.5 -92q20 0 59.5 1t59.5 2
q12 1 16 4.5t5 15.5q0 41 -16.5 72t-44.5 31zM336 689l27 -22q-43 -62 -106 -173h-38q-50 91 -108 173l28 22q7 -5 99 -92q80 77 98 92z" />
    <glyph glyph-name="Gcircumflex" unicode="&#x11c;" horiz-adv-x="727" 
d="M703 310v-34q-38 -8 -47 -20t-9 -61v-79q0 -63 6 -94q-148 -37 -228 -37q-174 0 -277.5 91t-103.5 241q0 110 55.5 190.5t144 119t196.5 38.5q69 0 195 -28q4 -52 16 -166l-37 -7q-18 80 -69 119.5t-125 39.5q-94 0 -159 -78.5t-65 -209.5q0 -79 24.5 -147t80 -114.5
t133.5 -46.5q39 0 56 12q23 14 23 55v95q0 30 -2 42.5t-14 23.5t-32 14t-62 7v34h300zM563 718l-16 -26q-21 8 -43 18t-48.5 23.5t-40.5 19.5q-112 -53 -132 -61l-15 26q60 49 132 123h31q57 -60 132 -123z" />
    <glyph glyph-name="gcircumflex" unicode="&#x11d;" horiz-adv-x="492" 
d="M494 439l4 -7q-16 -44 -43 -61l-57 4q27 -32 27 -76q0 -74 -56 -115t-135 -41q-12 0 -49 5q-14 -14 -14 -28q0 -15 15.5 -27t48.5 -11q16 0 46 0.5t46 0.5q27 0 51 -4.5t49 -16.5t39.5 -38t14.5 -63q0 -84 -82.5 -144.5t-184.5 -60.5q-90 0 -138.5 37.5t-48.5 84.5
q0 29 31 55q13 10 76 49q-50 18 -75 55q-17 25 -15 54q56 23 102 66q-45 15 -71.5 51t-26.5 82q0 78 59 121t135 43q54 0 107 -27q41 2 145 12zM236 417q-25 0 -42.5 -29.5t-17.5 -81.5q0 -55 18 -90.5t51 -35.5q60 0 60 114q0 53 -17.5 88t-51.5 35zM243 -21q-65 0 -85 -21
q-23 -25 -23 -51q0 -38 36 -67t93 -29q56 0 88.5 26.5t32.5 67.5q0 51 -56 65q-35 9 -86 9zM367 506l-28 -22q-22 18 -56.5 51t-42.5 41q-7 -6 -28 -27.5t-37 -36t-33 -28.5l-27 22q57 85 106 173h38q50 -88 108 -173z" />
    <glyph glyph-name="Gbreve" unicode="&#x11e;" horiz-adv-x="727" 
d="M703 310v-34q-38 -8 -47 -20t-9 -61v-79q0 -63 6 -94q-148 -37 -228 -37q-174 0 -277.5 91t-103.5 241q0 110 55.5 190.5t144 119t196.5 38.5q69 0 195 -28q4 -52 16 -166l-37 -7q-18 80 -69 119.5t-125 39.5q-94 0 -159 -78.5t-65 -209.5q0 -79 24.5 -147t80 -114.5
t133.5 -46.5q39 0 56 12q23 14 23 55v95q0 30 -2 42.5t-14 23.5t-32 14t-62 7v34h300zM498 839h30q0 -137 -127 -137t-127 137h29q15 -65 98 -65t97 65z" />
    <glyph glyph-name="gbreve" unicode="&#x11f;" horiz-adv-x="492" 
d="M494 439l4 -7q-16 -44 -43 -61l-57 4q27 -32 27 -76q0 -74 -56 -115t-135 -41q-12 0 -49 5q-14 -14 -14 -28q0 -15 15.5 -27t48.5 -11q16 0 46 0.5t46 0.5q27 0 51 -4.5t49 -16.5t39.5 -38t14.5 -63q0 -84 -82.5 -144.5t-184.5 -60.5q-90 0 -138.5 37.5t-48.5 84.5
q0 29 31 55q13 10 76 49q-50 18 -75 55q-17 25 -15 54q56 23 102 66q-45 15 -71.5 51t-26.5 82q0 78 59 121t135 43q54 0 107 -27q41 2 145 12zM236 417q-25 0 -42.5 -29.5t-17.5 -81.5q0 -55 18 -90.5t51 -35.5q60 0 60 114q0 53 -17.5 88t-51.5 35zM243 -21q-65 0 -85 -21
q-23 -25 -23 -51q0 -38 36 -67t93 -29q56 0 88.5 26.5t32.5 67.5q0 51 -56 65q-35 9 -86 9zM330 660h32q0 -154 -123 -154q-121 0 -121 154h32q18 -78 90 -78t90 78z" />
    <glyph glyph-name="Gdotaccent" unicode="&#x120;" horiz-adv-x="727" 
d="M703 310v-34q-38 -8 -47 -20t-9 -61v-79q0 -63 6 -94q-148 -37 -228 -37q-174 0 -277.5 91t-103.5 241q0 110 55.5 190.5t144 119t196.5 38.5q69 0 195 -28q4 -52 16 -166l-37 -7q-18 80 -69 119.5t-125 39.5q-94 0 -159 -78.5t-65 -209.5q0 -79 24.5 -147t80 -114.5
t133.5 -46.5q39 0 56 12q23 14 23 55v95q0 30 -2 42.5t-14 23.5t-32 14t-62 7v34h300zM421 844q31 0 51.5 -20.5t20.5 -50.5q0 -29 -20.5 -49t-51.5 -20q-28 0 -49 20.5t-21 48.5q0 30 21 50.5t49 20.5z" />
    <glyph glyph-name="gdotaccent" unicode="&#x121;" horiz-adv-x="492" 
d="M494 439l4 -7q-16 -44 -43 -61l-57 4q27 -32 27 -76q0 -74 -56 -115t-135 -41q-12 0 -49 5q-14 -14 -14 -28q0 -15 15.5 -27t48.5 -11q16 0 46 0.5t46 0.5q27 0 51 -4.5t49 -16.5t39.5 -38t14.5 -63q0 -84 -82.5 -144.5t-184.5 -60.5q-90 0 -138.5 37.5t-48.5 84.5
q0 29 31 55q13 10 76 49q-50 18 -75 55q-17 25 -15 54q56 23 102 66q-45 15 -71.5 51t-26.5 82q0 78 59 121t135 43q54 0 107 -27q41 2 145 12zM236 417q-25 0 -42.5 -29.5t-17.5 -81.5q0 -55 18 -90.5t51 -35.5q60 0 60 114q0 53 -17.5 88t-51.5 35zM243 -21q-65 0 -85 -21
q-23 -25 -23 -51q0 -38 36 -67t93 -29q56 0 88.5 26.5t32.5 67.5q0 51 -56 65q-35 9 -86 9zM235 517q-28 0 -49 21t-21 49q0 30 21 50t50 20q30 0 50.5 -20t20.5 -50q0 -29 -21 -49.5t-51 -20.5z" />
    <glyph glyph-name="uni0122" unicode="&#x122;" horiz-adv-x="727" 
d="M703 310v-34q-38 -8 -47 -20t-9 -61v-79q0 -63 6 -94q-148 -37 -228 -37q-174 0 -277.5 91t-103.5 241q0 110 55.5 190.5t144 119t196.5 38.5q69 0 195 -28q4 -52 16 -166l-37 -7q-18 80 -69 119.5t-125 39.5q-94 0 -159 -78.5t-65 -209.5q0 -79 24.5 -147t80 -114.5
t133.5 -46.5q39 0 56 12q23 14 23 55v95q0 30 -2 42.5t-14 23.5t-32 14t-62 7v34h300zM397 -50q35 0 61 -26.5t26 -66.5q0 -88 -122 -119l-11 26q64 31 64 69q0 36 -50 49q-15 4 -15 26q0 20 14.5 31t32.5 11z" />
    <glyph glyph-name="uni0123" unicode="&#x123;" horiz-adv-x="492" 
d="M494 439l4 -7q-16 -44 -43 -61l-57 4q27 -32 27 -76q0 -74 -56 -115t-135 -41q-12 0 -49 5q-14 -14 -14 -28q0 -15 15.5 -27t48.5 -11q16 0 46 0.5t46 0.5q27 0 51 -4.5t49 -16.5t39.5 -38t14.5 -63q0 -84 -82.5 -144.5t-184.5 -60.5q-90 0 -138.5 37.5t-48.5 84.5
q0 29 31 55q13 10 76 49q-50 18 -75 55q-17 25 -15 54q56 23 102 66q-45 15 -71.5 51t-26.5 82q0 78 59 121t135 43q54 0 107 -27q41 2 145 12zM236 417q-25 0 -42.5 -29.5t-17.5 -81.5q0 -55 18 -90.5t51 -35.5q60 0 60 114q0 53 -17.5 88t-51.5 35zM243 -21q-65 0 -85 -21
q-23 -25 -23 -51q0 -38 36 -67t93 -29q56 0 88.5 26.5t32.5 67.5q0 51 -56 65q-35 9 -86 9zM249 505q-35 0 -61 26.5t-26 66.5q0 46 34 76t88 43l11 -26q-64 -29 -64 -68q0 -36 50 -49q15 -5 15 -26q0 -20 -14.5 -31.5t-32.5 -11.5z" />
    <glyph glyph-name="Hcircumflex" unicode="&#x124;" horiz-adv-x="783" 
d="M746 650v-35q-59 -5 -71.5 -19.5t-12.5 -78.5v-385q0 -62 13 -77t71 -20v-35h-305v35q60 5 73.5 20t13.5 78v186h-273v-186q0 -63 13 -78t69 -20v-35h-298v35q56 5 69 20t13 78v384q0 63 -13.5 78t-72.5 20v35h300v-35q-55 -5 -67.5 -20t-12.5 -78v-147h273v147
q0 63 -13 78t-69 20v35h300zM538 710l-16 -26q-27 11 -75 34t-57 27q-101 -49 -131 -61l-16 26q50 40 133 123h30q57 -60 132 -123z" />
    <glyph glyph-name="hcircumflex" unicode="&#x125;" horiz-adv-x="550" 
d="M532 0h-236v32q35 5 43 16t8 53v176q0 103 -72 103q-44 0 -72 -28v-251q0 -41 7.5 -52.5t38.5 -16.5v-32h-237v32q43 5 53 15.5t10 57.5v466q0 45 -8 53.5t-48 13.5v29q85 11 184 36v-314q63 65 133 65q66 0 102 -42t36 -124v-183q0 -46 8.5 -56t49.5 -17v-32zM278 740
l-16 -26q-21 8 -43 18t-48.5 23.5t-40.5 19.5q-112 -53 -132 -61l-15 26q49 41 132 123h31q50 -54 132 -123z" />
    <glyph glyph-name="Hbar" unicode="&#x126;" horiz-adv-x="783" 
d="M740 465h-78v-333q0 -63 13 -78t71 -20v-34h-305v34q60 5 73.5 20t13.5 78v169h-273v-169q0 -63 13 -78t69 -20v-34h-298v34q56 5 69 20t13 78v333h-80v43h80v15q0 61 -13 74t-73 18v35h300v-35q-40 -3 -54 -8.5t-20 -22.5t-6 -61v-15h273v14q0 44 -6 61.5t-20.5 23
t-55.5 8.5v35h300v-35q-60 -5 -72 -17.5t-12 -74.5v-15h78v-43zM528 351v114h-273v-114h273z" />
    <glyph glyph-name="hbar" unicode="&#x127;" horiz-adv-x="551" 
d="M533 0h-236v32q35 5 43 16t8 53v180q0 53 -20.5 76.5t-52.5 23.5q-39 0 -73 -31v-249q0 -43 7.5 -53.5t40.5 -15.5v-32h-237v32q41 5 51.5 16.5t10.5 58.5v419h-70v43h70v51q0 19 -5 25t-28 11v27q103 15 160 27v-141h154v-43h-154v-136q64 64 137 64q66 0 101 -42
t35 -122v-183q0 -46 10 -57.5t48 -17.5v-32z" />
    <glyph glyph-name="Itilde" unicode="&#x128;" horiz-adv-x="378" 
d="M338 0h-300v35q56 5 69.5 20.5t13.5 77.5v383q0 63 -13.5 78.5t-69.5 20.5v35h300v-35q-56 -5 -69.5 -20.5t-13.5 -78.5v-383q0 -62 13.5 -77.5t69.5 -20.5v-35zM135 798q22 0 64 -18q39 -17 61 -17q26 0 49 42l30 -15q-31 -98 -93 -98q-20 0 -70 21q-30 15 -52 15
q-28 0 -51 -44l-29 20q33 94 91 94z" />
    <glyph glyph-name="itilde" unicode="&#x129;" horiz-adv-x="295" 
d="M284 0h-254v33q42 4 52.5 19t10.5 70v190q0 46 -8.5 58t-47.5 18v30q95 11 183 36v-332q0 -57 9.5 -70t54.5 -19v-33zM31 512l-29 19q34 105 93 105q21 0 62 -21q40 -20 58 -20q29 0 50 46l28 -14q-30 -106 -87 -106q-25 0 -67 22q-34 20 -56 20q-30 0 -52 -51z" />
    <glyph glyph-name="Imacron" unicode="&#x12a;" horiz-adv-x="378" 
d="M338 0h-300v35q56 5 69.5 20.5t13.5 77.5v383q0 63 -13.5 78.5t-69.5 20.5v35h300v-35q-56 -5 -69.5 -20.5t-13.5 -78.5v-383q0 -62 13.5 -77.5t69.5 -20.5v-35zM312 711h-246v68h246v-68z" />
    <glyph glyph-name="imacron" unicode="&#x12b;" horiz-adv-x="295" 
d="M284 0h-254v33q42 4 52.5 19t10.5 70v190q0 46 -8.5 58t-47.5 18v30q95 11 183 36v-332q0 -57 9.5 -70t54.5 -19v-33zM268 541h-249v73h249v-73z" />
    <glyph glyph-name="Ibreve" unicode="&#x12c;" horiz-adv-x="378" 
d="M338 0h-300v35q56 5 69.5 20.5t13.5 77.5v383q0 63 -13.5 78.5t-69.5 20.5v35h300v-35q-56 -5 -69.5 -20.5t-13.5 -78.5v-383q0 -62 13.5 -77.5t69.5 -20.5v-35zM286 828h30q-1 -137 -128 -137q-126 0 -127 137h30q14 -65 97 -65q84 0 98 65z" />
    <glyph glyph-name="ibreve" unicode="&#x12d;" horiz-adv-x="295" 
d="M284 0h-254v33q42 4 52.5 19t10.5 70v190q0 46 -8.5 58t-47.5 18v30q95 11 183 36v-332q0 -57 9.5 -70t54.5 -19v-33zM235 660h32q0 -154 -123 -154q-121 0 -121 154h32q18 -78 90 -78t90 78z" />
    <glyph glyph-name="Iogonek" unicode="&#x12e;" horiz-adv-x="378" 
d="M338 0h-125q-32 -51 -32 -116q0 -25 15.5 -37.5t37.5 -12.5q24 0 44 9l9 -30l-60 -33q-21 -12 -42 -12q-41 0 -64 23t-23 58q0 26 17 61t26 47t33 43h-136v34q56 5 69.5 20.5t13.5 77.5v385q0 63 -13.5 78t-69.5 20v35h300v-35q-56 -5 -69.5 -20t-13.5 -78v-385
q0 -62 13.5 -77.5t69.5 -20.5v-34z" />
    <glyph glyph-name="iogonek" unicode="&#x12f;" horiz-adv-x="296" 
d="M288 0h-109q-29 -49 -29 -112q0 -23 14.5 -37t36.5 -14q23 0 43 11l10 -31l-53 -34q-24 -13 -42 -13q-45 0 -67.5 23t-22.5 59q0 11 2.5 23t8 25.5t10 22.5t14 23.5t12.5 19.5t14 20l10 14h-113v32q46 5 56 18t10 67v195q0 45 -9.5 58t-48.5 19v29q102 12 185 36v-337
q0 -53 11 -66.5t57 -18.5v-32zM148 517q-28 0 -49 21t-21 49q0 30 21 50t50 20q30 0 50.5 -20t20.5 -50q0 -29 -21 -49.5t-51 -20.5z" />
    <glyph glyph-name="Idotaccent" unicode="&#x130;" horiz-adv-x="378" 
d="M338 0h-300v35q56 5 69.5 20.5t13.5 77.5v383q0 63 -13.5 78.5t-69.5 20.5v35h300v-35q-56 -5 -69.5 -20.5t-13.5 -78.5v-383q0 -62 13.5 -77.5t69.5 -20.5v-35zM188 842q31 0 51.5 -20.5t20.5 -50.5q0 -29 -21 -49.5t-51 -20.5q-28 0 -49 21t-21 49q0 30 21 50.5
t49 20.5z" />
    <glyph glyph-name="dotlessi" unicode="&#x131;" horiz-adv-x="295" 
d="M284 0h-254v33q42 4 52.5 19t10.5 70v190q0 46 -8.5 58t-47.5 18v30q95 11 183 36v-332q0 -57 9.5 -70t54.5 -19v-33z" />
    <glyph glyph-name="IJ" unicode="&#x132;" horiz-adv-x="744" 
d="M338 0h-300v35q56 5 69.5 20.5t13.5 77.5v383q0 63 -13.5 78.5t-69.5 20.5v35h300v-35q-56 -5 -69.5 -20.5t-13.5 -78.5v-383q0 -62 13.5 -77.5t69.5 -20.5v-35zM715 650v-35q-53 -5 -65.5 -20.5t-12.5 -78.5v-330q0 -102 -19.5 -168.5t-83.5 -118.5q-52 -44 -121 -62
l-15 37q41 17 63.5 45.5t30.5 75.5q11 68 11 195v326q0 63 -14 78.5t-72 20.5v35h298z" />
    <glyph glyph-name="ij" unicode="&#x133;" horiz-adv-x="583" 
d="M148 517q-28 0 -49 21t-21 49q0 30 21 50t50 20q30 0 50.5 -20t20.5 -50q0 -29 -21 -49.5t-51 -20.5zM285 0h-256v32q44 5 54 17.5t10 64.5v198q0 48 -9 59.5t-46 17.5v29q95 11 182 36v-340q0 -51 10 -63.5t55 -18.5v-32zM438 517q-28 0 -49 20.5t-21 49.5q0 30 20.5 50
t50.5 20q29 0 49.5 -20t20.5 -50q0 -29 -20.5 -49.5t-50.5 -20.5zM321 388v30q74 9 189 36v-325q0 -98 -28 -162q-27 -64 -71.5 -122t-68.5 -74q-19 -15 -34 -15q-12 0 -26 16.5t-14 38.5q0 27 24 27q65 1 74 20q10 20 13 71q4 118 4 188v188q0 52 -9.5 64t-52.5 19z" />
    <glyph glyph-name="Jcircumflex" unicode="&#x134;" horiz-adv-x="366" 
d="M338 650v-35q-53 -5 -66 -20.5t-13 -78.5v-330q0 -102 -19.5 -168.5t-82.5 -118.5q-53 -45 -122 -62l-15 37q80 34 94 121q11 68 11 195v326q0 63 -14 78.5t-72 20.5v35h299zM338 710l-16 -26q-21 8 -43 18t-48.5 23.5t-40.5 19.5q-112 -53 -132 -61l-15 26
q60 49 132 123h31q57 -60 132 -123z" />
    <glyph glyph-name="jcircumflex" unicode="&#x135;" horiz-adv-x="291" 
d="M31 389v29q74 9 191 36v-330q0 -95 -28 -161q-27 -63 -71 -120.5t-69 -76.5q-21 -14 -37 -14q-11 0 -24 15t-13 36q0 27 23 27q63 0 75 21q9 16 12 71q4 116 4 191v192q0 53 -9.5 65.5t-53.5 18.5zM274 506l-28 -22q-16 14 -33 29.5t-36 34t-29 28.5q-10 -9 -29 -28.5
t-36 -35t-34 -28.5l-27 22q57 85 106 173h38q50 -88 108 -173z" />
    <glyph glyph-name="uni0136" unicode="&#x136;" horiz-adv-x="703" 
d="M699 0h-201q-86 118 -197 279q-26 38 -49 35v-180q0 -63 14 -78.5t72 -20.5v-35h-299v35q55 5 68.5 20.5t13.5 78.5v382q0 63 -13.5 78.5t-70.5 20.5v35h294v-35q-54 -5 -66.5 -20.5t-12.5 -78.5v-170q34 10 76 53q77 77 140 161q19 24 14 36t-39 16l-18 3v35h260v-35
q-50 -5 -84.5 -19.5t-73.5 -50.5q-27 -24 -50 -48t-55 -58t-41 -43q98 -145 210 -287q30 -38 53.5 -53.5t54.5 -20.5v-35zM371 -26q35 0 61 -26.5t26 -66.5q0 -88 -122 -119l-11 26q64 31 64 69q0 36 -50 49q-15 4 -15 26q0 20 14.5 31t32.5 11z" />
    <glyph glyph-name="uni0137" unicode="&#x137;" horiz-adv-x="513" 
d="M536 0l-176 -2q-35 44 -130 198q-12 19 -22 19q-3 0 -7 -1v-106q0 -48 10 -59t55 -17v-32h-257v32q46 6 56 17t10 59v462q0 42 -10 53t-50 16v28q107 14 186 36v-459q27 6 57 38q34 38 58 87q10 16 3.5 26t-33.5 14v30l216 9v-30q-88 -15 -125 -52q-36 -36 -70 -82
q43 -72 145 -201q23 -26 40 -36t44 -15v-32zM266 -36q35 0 61 -26.5t26 -66.5q0 -47 -33.5 -76.5t-88.5 -42.5l-11 26q64 31 64 69q0 35 -50 48q-15 4 -15 26q0 20 14.5 31.5t32.5 11.5z" />
    <glyph glyph-name="kgreenlandic" unicode="&#x138;" horiz-adv-x="553" 
d="M550 0h-185q-4 6 -45.5 80.5t-60.5 105.5q-16 28 -39 26v-98q0 -52 9.5 -64.5t51.5 -17.5v-32h-250v32q42 3 52 16t10 67v202q0 51 -10 65.5t-50 17.5v32q107 8 187 23v-212q23 3 45 23q50 45 83 94q25 39 -14 46l-20 4v32h217v-32q-40 -4 -65.5 -14t-51.5 -33
q-20 -17 -81 -82q89 -140 137 -200q21 -27 37.5 -37t42.5 -12v-32z" />
    <glyph glyph-name="Lacute" unicode="&#x139;" horiz-adv-x="551" 
d="M513 180l35 -11q-24 -124 -37 -169h-487v35q66 5 81.5 20.5t15.5 77.5v383q0 63 -14 78.5t-72 20.5v35h306v-35q-59 -5 -72.5 -20t-13.5 -79v-390q0 -37 5 -52t20 -22q22 -9 75 -9q72 0 102 34q29 32 56 103zM362 755l-3 -12l-206 -60l-15 28q145 103 173 122
q14 -5 31.5 -31.5t19.5 -46.5z" />
    <glyph glyph-name="lacute" unicode="&#x13a;" horiz-adv-x="278" 
d="M269 0h-259v32q45 7 55 19t10 59v458q0 44 -9 54.5t-51 15.5v29q107 13 187 36v-593q0 -50 10.5 -61.5t56.5 -16.5v-32zM279 791l-4 -12l-206 -60l-14 28q145 102 173 122q14 -6 31.5 -32.5t19.5 -45.5z" />
    <glyph glyph-name="uni013B" unicode="&#x13b;" horiz-adv-x="551" 
d="M513 180l35 -11q-24 -124 -37 -169h-487v35q66 5 81.5 20.5t15.5 77.5v383q0 63 -14 78.5t-72 20.5v35h306v-35q-59 -5 -72.5 -20t-13.5 -79v-390q0 -37 5 -52t20 -22q22 -9 75 -9q72 0 102 34q29 32 56 103zM303 -36q35 0 61 -26.5t26 -66.5q0 -88 -122 -119l-11 26
q64 31 64 69q0 36 -50 49q-16 2 -16 26q0 20 15 31t33 11z" />
    <glyph glyph-name="uni013C" unicode="&#x13c;" horiz-adv-x="278" 
d="M269 0h-259v32q45 7 55 19t10 59v458q0 44 -9 54.5t-51 15.5v29q107 13 187 36v-593q0 -50 10.5 -61.5t56.5 -16.5v-32zM129 -34q35 0 61 -26.5t26 -66.5q0 -88 -122 -119l-11 26q64 31 64 69q0 36 -50 49q-15 2 -15 26q0 20 14.5 31t32.5 11z" />
    <glyph glyph-name="Lcaron" unicode="&#x13d;" horiz-adv-x="551" 
d="M513 180l35 -11q-24 -124 -37 -169h-487v35q66 5 81.5 20.5t15.5 77.5v383q0 63 -14 78.5t-72 20.5v35h306v-35q-59 -5 -72.5 -20t-13.5 -79v-390q0 -37 5 -52t20 -22q22 -9 75 -9q72 0 102 34q29 32 56 103zM421 653q31 0 53.5 -26.5t22.5 -66.5q0 -46 -29.5 -76
t-77.5 -43l-11 26q54 28 54 69q0 35 -40 48q-15 5 -15 26q0 19 13.5 31t29.5 12z" />
    <glyph glyph-name="lcaron" unicode="&#x13e;" horiz-adv-x="278" 
d="M269 0h-259v32q45 7 55 19t10 59v458q0 44 -9 54.5t-51 15.5v29q107 13 187 36v-593q0 -50 10.5 -61.5t56.5 -16.5v-32zM288 710q31 0 53.5 -26.5t22.5 -66.5q0 -88 -107 -119l-10 26q53 30 53 69q0 36 -40 49q-5 1 -10 8t-5 17q0 20 13.5 31.5t29.5 11.5z" />
    <glyph glyph-name="Ldot" unicode="&#x13f;" horiz-adv-x="551" 
d="M513 180l35 -11q-24 -124 -37 -169h-487v35q66 5 81.5 20.5t15.5 77.5v383q0 63 -14 78.5t-72 20.5v35h306v-35q-59 -5 -72.5 -20t-13.5 -79v-390q0 -37 5 -52t20 -22q22 -9 75 -9q72 0 102 34q29 32 56 103zM396 428q31 0 51.5 -20.5t20.5 -50.5q0 -29 -21 -49.5
t-51 -20.5q-28 0 -49 21t-21 49q0 30 21 50.5t49 20.5z" />
    <glyph glyph-name="ldot" unicode="&#x140;" horiz-adv-x="335" 
d="M306 426q29 0 48 -19.5t19 -48.5q0 -28 -19 -48t-48 -20q-26 0 -45 20t-19 48t19 48t45 20zM269 0h-259v32q45 7 55 19t10 59v458q0 44 -9 54.5t-51 15.5v29q107 13 187 36v-593q0 -50 10.5 -61.5t56.5 -16.5v-32z" />
    <glyph glyph-name="Lslash" unicode="&#x141;" horiz-adv-x="563" 
d="M522 179l38 -10q-24 -128 -37 -169h-487v35q65 5 81 22t16 81v126l-100 -67v52l100 67v196q0 64 -14 81t-71 22v35h307l-2 -35q-58 -5 -72 -22t-14 -81v-112l133 89v-54l-133 -88v-217q0 -37 5 -54.5t20 -23.5q18 -8 77 -8q71 0 100 33q26 31 53 102z" />
    <glyph glyph-name="lslash" unicode="&#x142;" horiz-adv-x="302" 
d="M299 464l-84 -69v-275q0 -54 10.5 -67.5t57.5 -19.5v-33h-264v33q47 4 57.5 18t10.5 69v177l-71 -58v54l71 59v231q0 31 -10.5 41.5t-54.5 20.5v28q113 15 193 36v-259l84 68v-54z" />
    <glyph glyph-name="Nacute" unicode="&#x143;" horiz-adv-x="740" 
d="M724 650v-35q-41 -2 -58.5 -15t-21.5 -47q-9 -93 -9 -166v-397h-48l-416 498h-3v-225q0 -82 8 -162q4 -35 23.5 -49.5t72.5 -16.5v-35h-245v35q42 3 61 17t22 46q10 82 10 165v209q0 51 -3.5 70.5t-17.5 36.5q-23 30 -83 36v35h185l382 -439h4v176q0 48 -8 164
q-4 33 -24.5 47t-74.5 17v35h244zM527 755l-3 -12l-206 -60l-15 28q145 103 173 122q14 -5 31.5 -31.5t19.5 -46.5z" />
    <glyph glyph-name="nacute" unicode="&#x144;" horiz-adv-x="566" 
d="M549 0h-233v32q32 5 39.5 17t7.5 64v170q0 94 -69 94q-34 0 -74 -31v-242q0 -45 7.5 -56t39.5 -16v-32h-241v32q48 7 57.5 17.5t9.5 59.5v207q0 44 -8.5 55t-45.5 18v29q86 11 181 38v-74q4 3 26.5 19.5t35.5 24.5q44 28 78 28q61 0 96 -42.5t35 -117.5v-189
q0 -46 9 -56.5t49 -16.5v-32zM284 489l-31 13q7 23 26.5 89t22.5 76q7 5 51.5 9.5t57.5 1.5l6 -10z" />
    <glyph glyph-name="uni0145" unicode="&#x145;" horiz-adv-x="740" 
d="M724 650v-35q-41 -2 -58.5 -15t-21.5 -47q-9 -93 -9 -166v-397h-48l-416 498h-3v-225q0 -82 8 -162q4 -35 23.5 -49.5t72.5 -16.5v-35h-245v35q42 3 61 17t22 46q10 82 10 165v209q0 51 -3.5 70.5t-17.5 36.5q-23 30 -83 36v35h185l382 -439h4v176q0 48 -8 164
q-4 33 -24.5 47t-74.5 17v35h244zM378 -16q35 0 60.5 -26.5t25.5 -66.5q0 -90 -122 -119l-10 26q64 31 64 69q0 35 -51 48q-15 5 -15 26q0 20 14.5 31.5t33.5 11.5z" />
    <glyph glyph-name="uni0146" unicode="&#x146;" horiz-adv-x="566" 
d="M549 0h-233v32q32 5 39.5 17t7.5 64v170q0 94 -69 94q-34 0 -74 -31v-242q0 -45 7.5 -56t39.5 -16v-32h-241v32q48 7 57.5 17.5t9.5 59.5v207q0 44 -8.5 55t-45.5 18v29q86 11 181 38v-74q4 3 26.5 19.5t35.5 24.5q44 28 78 28q61 0 96 -42.5t35 -117.5v-189
q0 -46 9 -56.5t49 -16.5v-32zM287 -41q35 0 61 -26.5t26 -66.5q0 -47 -33.5 -76.5t-88.5 -42.5l-11 26q64 31 64 69q0 35 -50 48q-15 4 -15 26q0 20 14.5 31.5t32.5 11.5z" />
    <glyph glyph-name="Ncaron" unicode="&#x147;" horiz-adv-x="740" 
d="M724 650v-35q-41 -2 -58.5 -15t-21.5 -47q-9 -93 -9 -166v-397h-48l-416 498h-3v-225q0 -82 8 -162q4 -35 23.5 -49.5t72.5 -16.5v-35h-245v35q42 3 61 17t22 46q10 82 10 165v209q0 51 -3.5 70.5t-17.5 36.5q-23 30 -83 36v35h185l382 -439h4v176q0 48 -8 164
q-4 33 -24.5 47t-74.5 17v35h244zM509 815l15 -26q-49 -38 -132 -123h-31q-58 64 -132 123l16 26q73 -30 132 -59q67 33 132 59z" />
    <glyph glyph-name="ncaron" unicode="&#x148;" horiz-adv-x="566" 
d="M549 0h-233v32q32 5 39.5 17t7.5 64v170q0 94 -69 94q-34 0 -74 -31v-242q0 -45 7.5 -56t39.5 -16v-32h-241v32q48 7 57.5 17.5t9.5 59.5v207q0 44 -8.5 55t-45.5 18v29q86 11 181 38v-74q4 3 26.5 19.5t35.5 24.5q44 28 78 28q61 0 96 -42.5t35 -117.5v-189
q0 -46 9 -56.5t49 -16.5v-32zM380 689l27 -22q-37 -54 -106 -173h-38q-49 88 -107 173l27 22q14 -12 100 -92q83 81 97 92z" />
    <glyph glyph-name="napostrophe" unicode="&#x149;" horiz-adv-x="566" 
d="M53 717q43 0 76 -29t33 -80t-42 -84t-106 -48l-11 28q76 33 76 81q0 45 -66 57q-4 1 -8.5 9t-4.5 20q0 20 16 33t37 13zM549 0h-233v32q32 5 39.5 17t7.5 64v170q0 94 -69 94q-34 0 -74 -31v-242q0 -45 7.5 -56t39.5 -16v-32h-241v32q48 7 57.5 17.5t9.5 59.5v207
q0 44 -8.5 55t-45.5 18v29q86 11 181 38v-74q4 3 26.5 19.5t35.5 24.5q44 28 78 28q61 0 96 -42.5t35 -117.5v-189q0 -46 9 -56.5t49 -16.5v-32z" />
    <glyph glyph-name="Eng" unicode="&#x14a;" horiz-adv-x="740" 
d="M724 650v-34q-41 -2 -59 -15.5t-21 -46.5q-9 -70 -9 -168v-356q0 -113 -35 -172q-40 -65 -94 -65q-24 0 -42 17t-18 42t15 25q6 0 20 -4t27 -4q39 0 58 35t19 88l-413 494h-4v-219q0 -96 7 -166q4 -35 24 -49.5t74 -17.5v-34h-246v34q42 3 61 17.5t23 45.5q9 102 9 170
v204q0 51 -3.5 71.5t-17.5 37.5q-23 30 -83 36v34h183l385 -438h3v175q0 65 -7 166q-4 33 -25 46.5t-75 16.5v34h244z" />
    <glyph glyph-name="eng" unicode="&#x14b;" horiz-adv-x="558" 
d="M220 456v-71q6 4 26 17.5t33 21.5q47 30 79 30q61 0 96.5 -41t35.5 -116v-153q0 -124 -36 -200q-26 -55 -73 -102q-49 -49 -84 -49q-18 0 -32.5 17t-14.5 44q0 21 15 21q6 0 29.5 -8.5t31.5 -8.5q23 0 29 24q8 30 8 167v232q0 50 -19.5 73t-48.5 23q-33 0 -75 -32v-238
q0 -46 9.5 -58t52.5 -17v-32h-255v32q46 5 56 17t10 61v208q0 42 -8.5 54t-45.5 19v28q79 11 181 37z" />
    <glyph glyph-name="Omacron" unicode="&#x14c;" horiz-adv-x="766" 
d="M393 665q139 0 235 -93.5t96 -239.5q0 -158 -98.5 -252.5t-244.5 -94.5q-149 0 -244 97t-95 242q0 138 94 239.5t257 101.5zM375 623q-78 0 -129 -76.5t-51 -203.5q0 -133 55.5 -224.5t148.5 -91.5q75 0 123.5 72t48.5 205q0 147 -54 233t-142 86zM504 713h-245v67h245
v-67z" />
    <glyph glyph-name="omacron" unicode="&#x14d;" horiz-adv-x="525" 
d="M268 454q102 0 165 -66t63 -159q0 -114 -68.5 -177.5t-163.5 -63.5q-111 0 -172.5 67t-61.5 156q0 113 73 178t165 65zM255 415q-34 0 -58 -43.5t-24 -124.5q0 -95 28 -157.5t74 -62.5q78 0 78 172q0 104 -25.5 160t-72.5 56zM388 541h-250v73h250v-73z" />
    <glyph glyph-name="Obreve" unicode="&#x14e;" horiz-adv-x="766" 
d="M393 665q139 0 235 -93.5t96 -239.5q0 -158 -98.5 -252.5t-244.5 -94.5q-149 0 -244 97t-95 242q0 138 94 239.5t257 101.5zM375 623q-78 0 -129 -76.5t-51 -203.5q0 -133 55.5 -224.5t148.5 -91.5q75 0 123.5 72t48.5 205q0 147 -54 233t-142 86zM474 834h30
q0 -137 -127 -137t-127 137h30q14 -65 97 -65t97 65z" />
    <glyph glyph-name="obreve" unicode="&#x14f;" horiz-adv-x="525" 
d="M268 454q102 0 165 -66t63 -159q0 -114 -68.5 -177.5t-163.5 -63.5q-111 0 -172.5 67t-61.5 156q0 113 73 178t165 65zM255 415q-34 0 -58 -43.5t-24 -124.5q0 -95 28 -157.5t74 -62.5q78 0 78 172q0 104 -25.5 160t-72.5 56zM347 660h32q0 -154 -123 -154
q-121 0 -121 154h32q18 -78 90 -78t90 78z" />
    <glyph glyph-name="Ohungarumlaut" unicode="&#x150;" horiz-adv-x="766" 
d="M393 665q139 0 235 -93.5t96 -239.5q0 -158 -98.5 -252.5t-244.5 -94.5q-149 0 -244 97t-95 242q0 138 94 239.5t257 101.5zM375 623q-78 0 -129 -76.5t-51 -203.5q0 -133 55.5 -224.5t148.5 -91.5q75 0 123.5 72t48.5 205q0 147 -54 233t-142 86zM577 804l-106 -116
l-32 11q2 6 41 126q19 4 53.5 -1t42.5 -12zM418 804l-105 -116l-32 11q22 66 40 126q19 4 54 -1t43 -12v-8z" />
    <glyph glyph-name="ohungarumlaut" unicode="&#x151;" horiz-adv-x="525" 
d="M268 454q102 0 165 -66t63 -159q0 -114 -68.5 -177.5t-163.5 -63.5q-111 0 -172.5 67t-61.5 156q0 113 73 178t165 65zM255 415q-34 0 -58 -43.5t-24 -124.5q0 -95 28 -157.5t74 -62.5q78 0 78 172q0 104 -25.5 160t-72.5 56zM186 488l-29 11q5 22 13 59.5t15 70.5t8 38
q7 5 45 9.5t51 2.5l5 -11zM339 488l-30 11q8 34 21.5 98.5t14.5 69.5q7 5 45 9.5t51 2.5l5 -11z" />
    <glyph glyph-name="OE" unicode="&#x152;" horiz-adv-x="992" 
d="M947 179l35 -8q-18 -97 -35 -171h-325q-60 0 -105 -5q-60 -6 -102 -6q-183 0 -278.5 94t-95.5 234q0 151 107.5 247.5t284.5 96.5q8 0 104 -6q73 -5 89 -5h295q2 -40 11 -148l-37 -5q-16 58 -42 84q-22 25 -105 25h-46q-27 0 -33 -5.5t-6 -29.5v-212h70q64 0 83 12t29 63
h36v-202h-36q-11 53 -29 64.5t-83 11.5h-70v-162q0 -50 4.5 -69t19.5 -25q20 -9 88 -9q82 0 112 33q31 31 60 103zM531 100v457q0 37 -28 48q-30 13 -76 13q-105 0 -169.5 -77.5t-64.5 -211.5q0 -126 62 -212t173 -86q43 0 67 10q21 8 28.5 20.5t7.5 38.5z" />
    <glyph glyph-name="oe" unicode="&#x153;" horiz-adv-x="770" 
d="M726 119l18 -24q-38 -59 -87 -83t-86 -24q-100 0 -159 76q-64 -76 -155 -76q-106 0 -168 68t-62 157q0 111 73 176t164 65q101 0 161 -83q75 83 159 83q70 0 119 -49t49 -113q0 -30 -27 -36q-33 -9 -249 -17q1 -73 38.5 -117.5t102.5 -44.5q55 0 109 42zM563 412
q-29 0 -53.5 -34.5t-28.5 -94.5q81 2 126 4q13 0 17.5 4t4.5 18q0 40 -18.5 71.5t-47.5 31.5zM255 414q-33 0 -58 -44t-26 -126q-1 -89 27.5 -151.5t76.5 -63.5q19 0 35 12t30 53.5t14 108.5q1 103 -25.5 157t-73.5 54z" />
    <glyph glyph-name="Racute" unicode="&#x154;" horiz-adv-x="659" 
d="M660 23l-6 -32q-2 0 -12.5 0.5t-17.5 0.5q-90 4 -131.5 25.5t-73.5 71.5l-82 147q-22 43 -66 44h-19v-146q0 -61 14 -77.5t71 -21.5v-35h-302v35q57 5 71.5 21.5t14.5 77.5v384q0 60 -13.5 76t-68.5 21v35h281q124 0 178 -38q68 -44 68 -133q0 -111 -125 -163
q28 -58 81 -142q57 -87 77 -108q31 -33 61 -43zM252 319h26q68 0 98 27q48 40 48 119q0 73 -35 109t-83 36q-35 0 -45 -10q-9 -8 -9 -37v-244zM468 755l-4 -12l-206 -60l-14 28q145 103 173 122q14 -5 31.5 -32t19.5 -46z" />
    <glyph glyph-name="racute" unicode="&#x155;" horiz-adv-x="404" 
d="M220 349h3q61 105 112 105q29 0 48 -18t19 -44t-14 -46t-35 -28q-19 -7 -31 4q-25 21 -46 21q-33 0 -56 -52v-186q0 -46 12.5 -57t70.5 -16v-32h-274v32q42 5 53 16.5t11 56.5v218q0 37 -9 47t-45 19v28q101 13 181 38v-106zM215 489l-31 13q7 23 26.5 89t22.5 76
q7 5 51.5 9.5t57.5 1.5l6 -10z" />
    <glyph glyph-name="uni0156" unicode="&#x156;" horiz-adv-x="659" 
d="M660 23l-6 -32q-2 0 -12.5 0.5t-17.5 0.5q-90 4 -131.5 25.5t-73.5 71.5l-82 147q-22 43 -66 44h-19v-146q0 -61 14 -77.5t71 -21.5v-35h-302v35q57 5 71.5 21.5t14.5 77.5v384q0 60 -13.5 76t-68.5 21v35h281q124 0 178 -38q68 -44 68 -133q0 -111 -125 -163
q28 -58 81 -142q57 -87 77 -108q31 -33 61 -43zM252 319h26q68 0 98 27q48 40 48 119q0 73 -35 109t-83 36q-35 0 -45 -10q-9 -8 -9 -37v-244zM358 -27q35 0 61 -26.5t26 -66.5q0 -47 -33.5 -76.5t-88.5 -42.5l-11 26q64 31 64 69q0 35 -50 48q-15 4 -15 26q0 20 14.5 31.5
t32.5 11.5z" />
    <glyph glyph-name="uni0157" unicode="&#x157;" horiz-adv-x="404" 
d="M220 349h3q61 105 112 105q29 0 48 -18t19 -44t-14 -46t-35 -28q-19 -7 -31 4q-25 21 -46 21q-33 0 -56 -52v-186q0 -46 12.5 -57t70.5 -16v-32h-274v32q42 5 53 16.5t11 56.5v218q0 37 -9 47t-45 19v28q101 13 181 38v-106zM151 -41q35 0 60.5 -26.5t25.5 -66.5
q0 -90 -122 -119l-10 26q64 31 64 69q0 35 -51 48q-15 5 -15 26q0 20 14.5 31.5t33.5 11.5z" />
    <glyph glyph-name="Rcaron" unicode="&#x158;" horiz-adv-x="659" 
d="M660 23l-6 -32q-2 0 -12.5 0.5t-17.5 0.5q-90 4 -131.5 25.5t-73.5 71.5l-82 147q-22 43 -66 44h-19v-146q0 -61 14 -77.5t71 -21.5v-35h-302v35q57 5 71.5 21.5t14.5 77.5v384q0 60 -13.5 76t-68.5 21v35h281q124 0 178 -38q68 -44 68 -133q0 -111 -125 -163
q28 -58 81 -142q57 -87 77 -108q31 -33 61 -43zM252 319h26q68 0 98 27q48 40 48 119q0 73 -35 109t-83 36q-35 0 -45 -10q-9 -8 -9 -37v-244zM436 830l15 -26q-49 -38 -132 -123h-30q-61 66 -133 123l17 26q66 -27 131 -59q67 33 132 59z" />
    <glyph glyph-name="rcaron" unicode="&#x159;" horiz-adv-x="404" 
d="M220 349h3q61 105 112 105q29 0 48 -18t19 -44t-14 -46t-35 -28q-19 -7 -31 4q-25 21 -46 21q-33 0 -56 -52v-186q0 -46 12.5 -57t70.5 -16v-32h-274v32q42 5 53 16.5t11 56.5v218q0 37 -9 47t-45 19v28q101 13 181 38v-106zM311 689l27 -22q-37 -54 -106 -173h-38
q-49 88 -107 173l27 22q25 -20 99 -92q10 10 29 28.5t35.5 34t33.5 29.5z" />
    <glyph glyph-name="Sacute" unicode="&#x15a;" horiz-adv-x="505" 
d="M442 495l-34 -8q-46 137 -140 137q-42 0 -69.5 -28t-27.5 -71q0 -40 28 -68.5t96 -62.5q87 -42 132 -89.5t45 -116.5q0 -87 -67.5 -145t-175.5 -58q-54 0 -101 14q-29 8 -61 22q-14 39 -29 170l35 11q12 -38 32.5 -75t59.5 -69t83 -32q46 0 73 29t27 76q0 42 -29 73
t-90 63q-87 44 -130.5 89.5t-43.5 112.5q0 85 62.5 140.5t166.5 55.5q70 0 139 -27q2 -21 9 -70t10 -73zM411 764l-4 -12l-205 -60l-15 28q145 103 173 122q14 -6 31.5 -32.5t19.5 -45.5z" />
    <glyph glyph-name="sacute" unicode="&#x15b;" horiz-adv-x="383" 
d="M338 322l-30 -9q-45 102 -106 102q-20 0 -35.5 -15.5t-15.5 -38.5q0 -44 74 -77q69 -30 102 -62t33 -86q0 -69 -54.5 -108.5t-124.5 -39.5q-37 0 -73 10.5t-53 23.5q-5 12 -10 55.5t-6 78.5l30 3q19 -54 53 -93t76 -39q24 0 39.5 15.5t15.5 38.5q0 24 -16 43.5t-60 39.5
q-26 13 -40.5 21.5t-38.5 27.5t-36 44t-12 55q0 60 45.5 101t122.5 41q55 0 96 -18q16 -38 24 -114zM199 489l-31 13q7 23 26.5 89t22.5 76q7 5 51.5 9.5t57.5 1.5l6 -10z" />
    <glyph glyph-name="Scircumflex" unicode="&#x15c;" horiz-adv-x="505" 
d="M442 495l-34 -8q-46 137 -140 137q-42 0 -69.5 -28t-27.5 -71q0 -40 28 -68.5t96 -62.5q87 -42 132 -89.5t45 -116.5q0 -87 -67.5 -145t-175.5 -58q-54 0 -101 14q-29 8 -61 22q-14 39 -29 170l35 11q12 -38 32.5 -75t59.5 -69t83 -32q46 0 73 29t27 76q0 42 -29 73
t-90 63q-87 44 -130.5 89.5t-43.5 112.5q0 85 62.5 140.5t166.5 55.5q70 0 139 -27q2 -21 9 -70t10 -73zM412 715l-16 -26q-5 2 -132 61q-115 -55 -131 -61l-16 26q55 44 132 123h31q57 -60 132 -123z" />
    <glyph glyph-name="scircumflex" unicode="&#x15d;" horiz-adv-x="383" 
d="M338 322l-30 -9q-45 102 -106 102q-20 0 -35.5 -15.5t-15.5 -38.5q0 -44 74 -77q69 -30 102 -62t33 -86q0 -69 -54.5 -108.5t-124.5 -39.5q-37 0 -73 10.5t-53 23.5q-5 12 -10 55.5t-6 78.5l30 3q19 -54 53 -93t76 -39q24 0 39.5 15.5t15.5 38.5q0 24 -16 43.5t-60 39.5
q-26 13 -40.5 21.5t-38.5 27.5t-36 44t-12 55q0 60 45.5 101t122.5 41q55 0 96 -18q16 -38 24 -114zM322 506l-28 -22q-16 14 -33 29.5t-36 34t-29 28.5q-10 -9 -29 -28.5t-36 -35t-34 -28.5l-27 22q57 85 106 173h38q50 -88 108 -173z" />
    <glyph glyph-name="uni015E" unicode="&#x15e;" horiz-adv-x="505" 
d="M443 494l-32 -7q-47 136 -141 136q-44 0 -70.5 -28.5t-26.5 -68.5t28.5 -69t96.5 -61q85 -39 130 -87.5t45 -118.5q0 -73 -47.5 -127t-127.5 -69l-21 -23q-8 -10 -5.5 -18t15.5 -20q40 -40 40 -69q0 -67 -125 -100l-11 26q27 12 43.5 28.5t16.5 28.5q0 17 -23 35
q-21 19 -23.5 34t15.5 37l30 34q-6 -2 -19 -2q-53 0 -106 16q-2 0 -59 21q-15 36 -30 169l35 12q7 -26 22.5 -54.5t37.5 -57t54 -47t66 -18.5q45 0 73 29t28 73q0 46 -30.5 79t-91.5 64q-84 40 -128.5 86.5t-44.5 112.5q0 84 62 139.5t165 55.5q67 0 140 -27q5 -45 19 -144z
" />
    <glyph glyph-name="uni015F" unicode="&#x15f;" horiz-adv-x="387" 
d="M342 322l-31 -10q-46 103 -106 103q-22 0 -37.5 -15.5t-15.5 -39.5q0 -44 75 -76q69 -29 102.5 -62t33.5 -87q0 -57 -36.5 -92.5t-88.5 -46.5l-21 -24q-14 -15 9 -38q40 -36 40 -68q0 -33 -32 -60t-89 -43l-13 29q27 12 44 28.5t17 29.5q0 14 -23 34q-21 19 -23.5 34
t16.5 37l30 34q-7 -1 -17 -1q-33 0 -69.5 11t-54.5 24q-5 13 -10.5 58.5t-4.5 81.5l30 2q19 -55 55 -97t78 -42q24 0 40.5 16t16.5 41q0 22 -17 40.5t-61 40.5q-25 13 -32.5 17t-31.5 20t-34 29t-20 35t-10 47q0 61 45.5 101.5t123.5 40.5q57 0 98 -18q16 -36 24 -114z" />
    <glyph glyph-name="Scaron" unicode="&#x160;" horiz-adv-x="505" 
d="M442 495l-34 -8q-46 137 -140 137q-42 0 -69.5 -28t-27.5 -71q0 -40 28 -68.5t96 -62.5q87 -42 132 -89.5t45 -116.5q0 -87 -67.5 -145t-175.5 -58q-54 0 -101 14q-29 8 -61 22q-14 39 -29 170l35 11q12 -38 32.5 -75t59.5 -69t83 -32q46 0 73 29t27 76q0 42 -29 73
t-90 63q-87 44 -130.5 89.5t-43.5 112.5q0 85 62.5 140.5t166.5 55.5q70 0 139 -27q2 -21 9 -70t10 -73zM393 843l15 -26q-49 -38 -132 -123h-30q-66 69 -133 123l17 26q66 -27 131 -59q59 29 132 59z" />
    <glyph glyph-name="scaron" unicode="&#x161;" horiz-adv-x="383" 
d="M338 322l-30 -9q-45 102 -106 102q-20 0 -35.5 -15.5t-15.5 -38.5q0 -44 74 -77q69 -30 102 -62t33 -86q0 -69 -54.5 -108.5t-124.5 -39.5q-37 0 -73 10.5t-53 23.5q-5 12 -10 55.5t-6 78.5l30 3q19 -54 53 -93t76 -39q24 0 39.5 15.5t15.5 38.5q0 24 -16 43.5t-60 39.5
q-26 13 -40.5 21.5t-38.5 27.5t-36 44t-12 55q0 60 45.5 101t122.5 41q55 0 96 -18q16 -38 24 -114zM300 689l27 -22q-43 -62 -106 -173h-38q-44 80 -108 173l27 22q18 -14 34 -29t36.5 -35t29.5 -28q80 77 98 92z" />
    <glyph glyph-name="uni0162" unicode="&#x162;" horiz-adv-x="641" 
d="M581 675h24q2 -77 11 -194l-36 -2q-18 77 -44 103q-23 24 -101 24h-46v-473q0 -63 15.5 -78t82.5 -20v-35h-122l-25 -26q-9 -10 -7.5 -18t15.5 -22q41 -41 41 -71q0 -70 -129 -104l-13 26q29 13 46 30.5t17 31.5q0 16 -23 34q-22 20 -24 36t17 38l38 45h-157v35
q64 5 79 20t15 78v473h-34q-56 0 -79 -6.5t-36 -20.5q-22 -23 -42 -101h-36q2 31 6.5 100t5.5 97h24q11 -16 22.5 -20.5t34.5 -4.5h402q36 0 58 25z" />
    <glyph glyph-name="uni0163" unicode="&#x163;" horiz-adv-x="339" 
d="M231 -7l-17 -18q-16 -17 7 -40q39 -39 39 -69q0 -66 -124 -101l-13 25q28 12 44 29t16 31q0 16 -22 34q-21 19 -23 35t17 38l28 32q-98 13 -98 125v280h-63l-5 12l28 36h40v73l113 78l14 -6v-145h98q9 -8 7.5 -25t-13.5 -23h-92v-247q0 -87 57 -87q25 0 50 12l10 -35
l-81 -38q-3 -1 -8.5 -3t-8.5 -3z" />
    <glyph glyph-name="Tcaron" unicode="&#x164;" horiz-adv-x="641" 
d="M616 481l-36 -2q-18 77 -44 103q-23 24 -101 24h-46v-473q0 -63 15.5 -78t82.5 -20v-35h-326v35q64 5 79 20t15 78v473h-34q-56 0 -79 -6.5t-36 -20.5q-22 -23 -42 -101h-36q2 31 6.5 100t5.5 97h24q11 -16 22.5 -20.5t34.5 -4.5h402q36 0 58 25h24q2 -77 11 -194z
M453 830l15 -26q-49 -38 -132 -123h-30q-65 70 -133 123l17 26q66 -27 131 -59q59 29 132 59z" />
    <glyph glyph-name="tcaron" unicode="&#x165;" horiz-adv-x="339" 
d="M329 37l-81 -38q-28 -11 -41 -11q-122 0 -122 126v280h-63l-5 12l28 36h40v73l113 78l14 -6v-145h98q9 -8 7.5 -25t-13.5 -23h-92v-247q0 -87 57 -87q25 0 50 12zM308 716q31 0 53.5 -26.5t22.5 -66.5q0 -46 -30 -76t-77 -43l-11 26q54 28 54 68q0 36 -40 49
q-15 5 -15 26q0 19 13.5 31t29.5 12z" />
    <glyph glyph-name="Tbar" unicode="&#x166;" horiz-adv-x="637" 
d="M612 486l-35 -3q-17 76 -41 102q-22 22 -110 22h-39v-253h141v-45h-141v-176q0 -63 15.5 -78t82.5 -20v-35h-327v35q64 5 79 20t15 78v176h-141v45h141v253h-28q-96 0 -118 -27q-25 -28 -43 -97h-35q2 31 6.5 97.5t5.5 94.5h23q11 -16 22.5 -20.5t34.5 -4.5h400
q36 0 58 25h23q2 -72 11 -189z" />
    <glyph glyph-name="tbar" unicode="&#x167;" horiz-adv-x="336" 
d="M327 37l-81 -38q-28 -11 -41 -11q-122 0 -122 126v110h-66v43h66v125h-63l-6 12l29 38h40v73l113 78l14 -6v-145h99q9 -8 7 -26t-13 -24h-93v-125h96v-43h-96v-75q0 -36 11 -57.5t22 -27t24 -5.5q26 0 51 11z" />
    <glyph glyph-name="Utilde" unicode="&#x168;" horiz-adv-x="729" 
d="M724 650v-35q-77 -4 -85 -59q-9 -56 -9 -139v-109q0 -173 -72 -250q-70 -73 -185 -73q-111 0 -177 52q-83 64 -83 235v235q0 69 -13.5 86t-70.5 22v35h301v-35q-56 -5 -69.5 -22t-13.5 -86v-217q0 -114 41 -175.5t121 -61.5q171 0 171 257v107q0 79 -10 139
q-4 27 -26 41.5t-71 17.5v35h251zM345 798q22 0 64 -18q41 -17 61 -17q28 0 49 42l30 -15q-31 -98 -92 -98q-20 0 -70 21q-30 15 -53 15q-27 0 -50 -44l-30 20q33 94 91 94z" />
    <glyph glyph-name="utilde" unicode="&#x169;" horiz-adv-x="555" 
d="M542 56v-32q-70 -9 -183 -36l-8 7v60q-40 -31 -50 -37q-46 -30 -87 -30q-62 0 -96.5 37.5t-34.5 104.5v207q0 36 -8.5 45.5t-46.5 19.5v29q90 4 185 18q-3 -63 -3 -151v-145q0 -45 20 -66.5t49 -21.5q43 0 72 28v243q0 38 -9.5 48t-54.5 18v29q106 5 191 18v-325
q0 -40 7.5 -51.5t34.5 -14.5zM159 512l-29 19q34 105 93 105q21 0 62 -21q40 -20 58 -20q29 0 50 46l28 -14q-30 -106 -87 -106q-25 0 -67 22q-34 20 -56 20q-30 0 -52 -51z" />
    <glyph glyph-name="Umacron" unicode="&#x16a;" horiz-adv-x="729" 
d="M724 650v-35q-77 -4 -85 -59q-9 -56 -9 -139v-109q0 -173 -72 -250q-70 -73 -185 -73q-111 0 -177 52q-83 64 -83 235v235q0 69 -13.5 86t-70.5 22v35h301v-35q-56 -5 -69.5 -22t-13.5 -86v-217q0 -114 41 -175.5t121 -61.5q171 0 171 257v107q0 79 -10 139
q-4 27 -26 41.5t-71 17.5v35h251zM507 713h-246v67h246v-67z" />
    <glyph glyph-name="umacron" unicode="&#x16b;" horiz-adv-x="555" 
d="M542 56v-32q-70 -9 -183 -36l-8 7v60q-40 -31 -50 -37q-46 -30 -87 -30q-62 0 -96.5 37.5t-34.5 104.5v207q0 36 -8.5 45.5t-46.5 19.5v29q90 4 185 18q-3 -63 -3 -151v-145q0 -45 20 -66.5t49 -21.5q43 0 72 28v243q0 38 -9.5 48t-54.5 18v29q106 5 191 18v-325
q0 -40 7.5 -51.5t34.5 -14.5zM399 541h-250v73h250v-73z" />
    <glyph glyph-name="Ubreve" unicode="&#x16c;" horiz-adv-x="729" 
d="M724 650v-35q-77 -4 -85 -59q-9 -56 -9 -139v-109q0 -173 -72 -250q-70 -73 -185 -73q-111 0 -177 52q-83 64 -83 235v235q0 69 -13.5 86t-70.5 22v35h301v-35q-56 -5 -69.5 -22t-13.5 -86v-217q0 -114 41 -175.5t121 -61.5q171 0 171 257v107q0 79 -10 139
q-4 27 -26 41.5t-71 17.5v35h251zM496 823h30q0 -137 -127 -137t-127 137h29q15 -65 98 -65t97 65z" />
    <glyph glyph-name="ubreve" unicode="&#x16d;" horiz-adv-x="555" 
d="M542 56v-32q-70 -9 -183 -36l-8 7v60q-40 -31 -50 -37q-46 -30 -87 -30q-62 0 -96.5 37.5t-34.5 104.5v207q0 36 -8.5 45.5t-46.5 19.5v29q90 4 185 18q-3 -63 -3 -151v-145q0 -45 20 -66.5t49 -21.5q43 0 72 28v243q0 38 -9.5 48t-54.5 18v29q106 5 191 18v-325
q0 -40 7.5 -51.5t34.5 -14.5zM364 660h32q0 -154 -123 -154q-121 0 -121 154h32q18 -78 90 -78t90 78z" />
    <glyph glyph-name="Uring" unicode="&#x16e;" horiz-adv-x="729" 
d="M724 650v-35q-77 -4 -85 -59q-9 -56 -9 -139v-109q0 -173 -72 -250q-70 -73 -185 -73q-111 0 -177 52q-83 64 -83 235v235q0 69 -13.5 86t-70.5 22v35h301v-35q-56 -5 -69.5 -22t-13.5 -86v-217q0 -114 41 -175.5t121 -61.5q171 0 171 257v107q0 79 -10 139
q-4 27 -26 41.5t-71 17.5v35h251zM393 854q37 0 66.5 -25t29.5 -64q0 -41 -29 -66.5t-67 -25.5t-66 25.5t-28 66.5q0 40 28 64.5t66 24.5zM394 816q-20 0 -33 -14.5t-13 -36.5q0 -23 13 -38t33 -15t32.5 14.5t12.5 37.5t-12.5 37.5t-32.5 14.5z" />
    <glyph glyph-name="uring" unicode="&#x16f;" horiz-adv-x="555" 
d="M542 56v-32q-70 -9 -183 -36l-8 7v60q-40 -31 -50 -37q-46 -30 -87 -30q-62 0 -96.5 37.5t-34.5 104.5v207q0 36 -8.5 45.5t-46.5 19.5v29q90 4 185 18q-3 -63 -3 -151v-145q0 -45 20 -66.5t49 -21.5q43 0 72 28v243q0 38 -9.5 48t-54.5 18v29q106 5 191 18v-325
q0 -40 7.5 -51.5t34.5 -14.5zM277 499q-38 0 -66.5 25.5t-28.5 66.5q0 40 28.5 65t67.5 25q37 0 66 -25t29 -65q0 -41 -29 -66.5t-67 -25.5zM279 538q19 0 31 14.5t12 38.5q0 22 -12 36t-32 14t-33 -14t-13 -36q0 -24 13.5 -38.5t33.5 -14.5z" />
    <glyph glyph-name="Uhungarumlaut" unicode="&#x170;" horiz-adv-x="729" 
d="M724 650v-35q-77 -4 -85 -59q-9 -56 -9 -139v-109q0 -173 -72 -250q-70 -73 -185 -73q-111 0 -177 52q-83 64 -83 235v235q0 69 -13.5 86t-70.5 22v35h301v-35q-56 -5 -69.5 -22t-13.5 -86v-217q0 -114 41 -175.5t121 -61.5q171 0 171 257v107q0 79 -10 139
q-4 27 -26 41.5t-71 17.5v35h251zM570 800l-106 -116l-32 10q8 24 22.5 70t18.5 57q19 4 53.5 -1t42.5 -12zM411 800l-105 -116l-32 10q19 57 40 127q19 4 54 -1t43 -12v-8z" />
    <glyph glyph-name="uhungarumlaut" unicode="&#x171;" horiz-adv-x="555" 
d="M542 56v-32q-70 -9 -183 -36l-8 7v60q-40 -31 -50 -37q-46 -30 -87 -30q-62 0 -96.5 37.5t-34.5 104.5v207q0 36 -8.5 45.5t-46.5 19.5v29q90 4 185 18q-3 -63 -3 -151v-145q0 -45 20 -66.5t49 -21.5q43 0 72 28v243q0 38 -9.5 48t-54.5 18v29q106 5 191 18v-325
q0 -40 7.5 -51.5t34.5 -14.5zM200 488l-30 11q5 22 13 59.5t15 70.5t8 38q7 5 45 9.5t51 2.5l5 -11zM352 488l-30 11q8 34 21.5 98.5t14.5 69.5q8 5 46 9.5t50 2.5l6 -11z" />
    <glyph glyph-name="Uogonek" unicode="&#x172;" horiz-adv-x="729" 
d="M724 650v-35q-77 -4 -85 -59q-9 -56 -9 -139v-109q0 -173 -72 -250q-42 -45 -116 -63q-61 -64 -61 -117q0 -23 14.5 -33.5t35.5 -10.5q22 0 44 9l8 -29l-61 -36q-16 -10 -43 -10q-38 0 -59.5 22t-21.5 53q0 66 97 145q-126 -8 -199 49q-83 64 -83 235v235q0 69 -13.5 86
t-70.5 22v35h301v-35q-56 -5 -69.5 -22t-13.5 -86v-216q0 -114 40.5 -175t120.5 -61q172 0 172 257v105q0 85 -9 139q-5 28 -27 42t-72 17v35h252z" />
    <glyph glyph-name="uogonek" unicode="&#x173;" horiz-adv-x="555" 
d="M542 56v-32q-21 -2 -78 -13q-34 -26 -57 -64.5t-23 -66.5q0 -44 49 -44q20 0 46 11l8 -29l-67 -37q-20 -12 -38 -12q-41 0 -62.5 21t-21.5 55q0 39 33.5 82.5t72.5 70.5q-38 -8 -45 -10l-8 7v60q-40 -31 -50 -37q-46 -30 -87 -30q-62 0 -96.5 37.5t-34.5 104.5v207
q0 36 -8.5 45.5t-46.5 19.5v29q90 4 185 18q-3 -63 -3 -151v-145q0 -45 20 -66.5t49 -21.5q43 0 72 28v243q0 38 -9.5 48t-54.5 18v29q106 5 191 18v-325q0 -40 7.5 -51.5t34.5 -14.5z" />
    <glyph glyph-name="Wcircumflex" unicode="&#x174;" horiz-adv-x="979" 
d="M969 650v-35q-51 -8 -70.5 -27t-39.5 -81q-64 -179 -166 -518h-52q-35 96 -163 444h-2q-97 -283 -150 -444h-53q-112 372 -160 525q-18 58 -36.5 76t-63.5 25v35h296v-35q-54 -6 -65 -21t2 -53q55 -194 102 -344h2q97 294 144 447h48q84 -229 168 -451h2q53 167 94 337
q11 47 -1 63t-71 22v35h235zM665 702l-16 -26q-33 13 -132 61q-89 -45 -132 -61l-15 26q50 41 132 123h30q53 -56 133 -123z" />
    <glyph glyph-name="wcircumflex" unicode="&#x175;" horiz-adv-x="683" 
d="M699 442v-32q-35 -6 -47.5 -17t-28.5 -51q-37 -93 -128 -353h-38q-15 37 -55.5 132.5t-61.5 146.5q-22 -54 -60.5 -152t-50.5 -127h-38q-22 68 -63.5 190.5t-56.5 167.5q-13 37 -25 48t-43 15v32h247v-32q-42 -7 -51.5 -16.5t-1.5 -35.5q5 -17 59 -195h2q3 7 104 274h39
q38 -98 113 -276h2q42 124 56 190q7 30 -3 41t-55 18v32h185zM499 506l-27 -22q-17 14 -33.5 29.5t-36 34.5t-29.5 28q-10 -9 -29 -28.5t-36 -35t-34 -28.5l-26 22q48 71 106 173h37q50 -88 108 -173z" />
    <glyph glyph-name="Ycircumflex" unicode="&#x176;" horiz-adv-x="655" 
d="M646 650v-35q-47 -5 -69.5 -21.5t-50.5 -62.5q-58 -93 -112 -196q-18 -35 -18 -69v-128q0 -67 15 -82.5t82 -21.5v-34h-325v34q64 5 79 21t15 83v111q0 27 -13 54q-35 71 -124 227q-27 49 -47 64t-62 21v35h286v-35q-47 -6 -55 -18.5t8 -39.5q9 -18 114 -217
q91 179 104 212q15 30 4.5 43t-63.5 20v35h232zM496 710l-17 -26q-20 8 -42 18.5t-48.5 23t-40.5 19.5q-110 -52 -132 -61l-16 26q50 40 133 123h30q60 -63 133 -123z" />
    <glyph glyph-name="ycircumflex" unicode="&#x177;" horiz-adv-x="465" 
d="M483 442v-32q-36 -6 -50 -18.5t-33 -53.5q-11 -23 -116 -275q-67 -163 -105 -280q-9 -27 -37 -27q-23 0 -46.5 19t-23.5 44q0 21 27 39q57 30 82 71q13 25 19 41q6 20 -4 47q-83 231 -126 331q-14 33 -28 45t-49 17v32h248v-32q-33 -6 -40.5 -14t0.5 -32l75 -222
q33 82 75 213q8 25 -2 36.5t-46 18.5v32h180zM379 506l-28 -22q-17 14 -33.5 29.5t-36 34.5t-29.5 28q-1 -1 -38.5 -37.5t-59.5 -54.5l-27 22q48 71 106 173h37q45 -80 109 -173z" />
    <glyph glyph-name="Ydieresis" unicode="&#x178;" horiz-adv-x="655" 
d="M646 650v-35q-47 -5 -69.5 -21.5t-50.5 -62.5q-58 -93 -112 -196q-18 -35 -18 -69v-128q0 -67 15 -82.5t82 -21.5v-34h-325v34q64 5 79 21t15 83v111q0 27 -13 54q-35 71 -124 227q-27 49 -47 64t-62 21v35h286v-35q-47 -6 -55 -18.5t8 -39.5q9 -18 114 -217
q91 179 104 212q15 30 4.5 43t-63.5 20v35h232zM448 828q29 0 48.5 -19t19.5 -48q0 -27 -19.5 -46.5t-48.5 -19.5q-27 0 -47 19.5t-20 46.5q0 28 20 47.5t47 19.5zM238 828q29 0 48.5 -19.5t19.5 -47.5q0 -27 -20 -46.5t-48 -19.5q-27 0 -47 19.5t-20 46.5q0 28 20 47.5
t47 19.5z" />
    <glyph glyph-name="Zacute" unicode="&#x179;" horiz-adv-x="619" 
d="M573 193l34 -8q-23 -140 -37 -185h-530l-12 17q125 188 382 588h-126q-71 0 -97.5 -8t-39.5 -27q-25 -34 -39 -95l-34 1q2 42 6.5 109t5.5 90h26q11 -17 21.5 -21t35.5 -4h407l8 -15q-257 -398 -374 -584q50 -6 124 -6q142 0 177 33q34 33 62 115zM502 755l-4 -12
l-206 -60l-14 28q66 48 173 122q14 -5 31.5 -32t19.5 -46z" />
    <glyph glyph-name="zacute" unicode="&#x17a;" horiz-adv-x="445" 
d="M410 152l29 -14q-46 -134 -47 -138h-355l-13 16q72 115 226 383h-53q-50 0 -74 -14.5t-46 -56.5l-17 -33l-31 13q23 75 41 156h22q11 -22 61 -22h245l9 -14q-33 -56 -220 -384h64q55 0 85 16t57 64zM226 489l-31 13q7 23 26.5 89t22.5 76q7 5 51.5 9.5t57.5 1.5l6 -10z
" />
    <glyph glyph-name="Zdotaccent" unicode="&#x17b;" horiz-adv-x="619" 
d="M573 193l34 -8q-23 -140 -37 -185h-530l-12 17q125 188 382 588h-126q-71 0 -97.5 -8t-39.5 -27q-25 -34 -39 -95l-34 1q2 42 6.5 109t5.5 90h26q11 -17 21.5 -21t35.5 -4h407l8 -15q-257 -398 -374 -584q50 -6 124 -6q142 0 177 33q34 33 62 115zM330 843
q31 0 51.5 -20.5t20.5 -49.5t-21 -49.5t-51 -20.5q-28 0 -49 21t-21 49q0 29 21 49.5t49 20.5z" />
    <glyph glyph-name="zdotaccent" unicode="&#x17c;" horiz-adv-x="445" 
d="M410 152l29 -14q-46 -134 -47 -138h-355l-13 16q72 115 226 383h-53q-50 0 -74 -14.5t-46 -56.5l-17 -33l-31 13q23 75 41 156h22q11 -22 61 -22h245l9 -14q-33 -56 -220 -384h64q55 0 85 16t57 64zM233 517q-28 0 -49 21t-21 49q0 30 21 50t50 20q30 0 50.5 -20
t20.5 -50q0 -29 -21 -49.5t-51 -20.5z" />
    <glyph glyph-name="Zcaron" unicode="&#x17d;" horiz-adv-x="619" 
d="M573 193l34 -8q-23 -140 -37 -185h-530l-12 17q125 188 382 588h-126q-71 0 -97.5 -8t-39.5 -27q-25 -34 -39 -95l-34 1q2 42 6.5 109t5.5 90h26q11 -17 21.5 -21t35.5 -4h407l8 -15q-257 -398 -374 -584q50 -6 124 -6q142 0 177 33q34 33 62 115zM459 830l15 -26
q-49 -38 -132 -123h-31q-58 64 -132 123l16 26q73 -30 132 -59q67 33 132 59z" />
    <glyph glyph-name="zcaron" unicode="&#x17e;" horiz-adv-x="445" 
d="M410 152l29 -14q-46 -134 -47 -138h-355l-13 16q72 115 226 383h-53q-50 0 -74 -14.5t-46 -56.5l-17 -33l-31 13q23 75 41 156h22q11 -22 61 -22h245l9 -14q-33 -56 -220 -384h64q55 0 85 16t57 64zM326 689l27 -22q-43 -62 -106 -173h-38q-44 80 -108 173l27 22
q18 -14 34 -29t36.5 -35t29.5 -28q80 77 98 92z" />
    <glyph glyph-name="longs" unicode="&#x17f;" horiz-adv-x="296" 
d="M53 442h40v17q0 29 12 68q24 71 87 122q52 45 115 54q61 -3 89 -31q21 -19 8 -45q-7 -19 -30 -36q-19 -15 -34 -1q-50 54 -87 54q-27 0 -34 -39q-2 -26 -2 -42t1.5 -65.5t1.5 -85.5v-302q0 -48 9.5 -59.5t51.5 -18.5v-32h-248v32q41 6 50.5 17.5t9.5 57.5v287h-65l-4 12z
" />
    <glyph glyph-name="florin" unicode="&#x192;" horiz-adv-x="500" 
d="M163 376l7 37q22 112 104 179q75 60 139 60q25 0 48 -14.5t22 -36.5q-1 -18 -16 -37t-28 -20q-7 0 -35.5 27t-45.5 27t-26 -26q-13 -37 -33 -196h107v-46h-114l-22 -142q-9 -58 -23 -103.5t-28 -73.5t-35 -52t-36 -36t-39 -28q-49 -33 -95 -33q-23 0 -42 13.5t-19 32.5
q0 20 18 39t32 19q5 0 31 -22t41 -22q18 0 24 22q11 36 23 141l34 245h-88v46h95z" />
    <glyph glyph-name="Ohorn" unicode="&#x1a0;" horiz-adv-x="766" 
d="M374 623q-77 0 -128 -76.5t-51 -203.5q0 -133 55.5 -224.5t148.5 -91.5q75 0 123.5 72t48.5 205q0 147 -54.5 233t-142.5 86zM394 664q113 0 199 -63q19 -10 43 -10q26 0 39 11.5t13 24.5q0 11 -7.5 16t-28.5 8q-9 2 -19 11t-10 24q0 20 14.5 33.5t36.5 13.5
q31 0 50.5 -21.5t19.5 -60.5q0 -41 -28.5 -66t-75.5 -28q84 -89 84 -225q0 -158 -98.5 -252.5t-244.5 -94.5q-149 0 -244 97t-95 242q0 65 23 125.5t66 108.5t111.5 77t151.5 29z" />
    <glyph glyph-name="ohorn" unicode="&#x1a1;" horiz-adv-x="539" 
d="M254 415q-33 0 -57 -43.5t-24 -124.5q0 -95 28 -157.5t74 -62.5q78 0 78 172q0 104 -25.5 160t-73.5 56zM269 454q66 0 126 -33q18 -9 38 -9q24 0 37 8.5t13 18.5t-6.5 15t-23.5 9q-28 7 -28 33q0 19 14.5 31.5t36.5 12.5q25 0 42 -19t17 -54q0 -37 -26 -59.5t-70 -27.5
q57 -62 57 -151q0 -114 -68.5 -177.5t-163.5 -63.5q-111 0 -172.5 67t-61.5 156q0 113 73 178t166 65z" />
    <glyph glyph-name="Uhorn" unicode="&#x1af;" horiz-adv-x="729" 
d="M473 615v35h183q30 0 47.5 9t17.5 23q0 19 -35 28q-29 7 -29 35q0 20 14 33t35 13q30 0 48.5 -21t18.5 -60q0 -35 -19.5 -59t-45.5 -32q-37 -12 -51.5 -25.5t-18.5 -40.5q-8 -48 -8 -136v-109q0 -173 -72 -250q-70 -73 -185 -73q-111 0 -177 52q-83 64 -83 235v235
q0 69 -13.5 86t-70.5 22v35h301v-35q-56 -5 -69.5 -22t-13.5 -86v-217q0 -114 41 -175.5t121 -61.5q171 0 171 257v107q0 79 -10 139q-4 27 -26 41.5t-71 17.5z" />
    <glyph glyph-name="uhorn" unicode="&#x1b0;" horiz-adv-x="569" 
d="M542 56v-32q-74 -10 -183 -36l-8 7v60q-40 -31 -50 -37q-46 -30 -87 -30q-62 0 -96.5 37.5t-34.5 104.5v207q0 36 -8.5 46t-46.5 19v29q90 4 185 18q-3 -63 -3 -151v-145q0 -45 20 -66.5t49 -21.5q43 0 72 28v243q0 37 -9 47.5t-55 18.5v29q135 5 174 14q53 10 53 35
q0 20 -33 24q-28 6 -28 34q0 19 14 32t36 13q26 0 44 -19t18 -56q0 -39 -26 -61.5t-61 -32.5v-290q0 -40 7.5 -51.5t34.5 -14.5z" />
    <glyph glyph-name="Aringacute" unicode="&#x1fa;" horiz-adv-x="706" 
d="M687 0h-286v35q43 7 52 19.5t-4 45.5q-14 41 -40 113h-192q-25 -71 -36 -107q-13 -36 -2 -50.5t63 -20.5v-35h-224l1 35q50 6 68 23t43 80l205 514l51 13q177 -483 191 -521q26 -66 44.5 -84.5t65.5 -24.5v-35zM390 266l-74 216h-3q-12 -32 -25.5 -68.5t-29 -80
t-24.5 -67.5h156zM353 863q37 0 66 -25t29 -64q0 -41 -29 -66.5t-66 -25.5q-38 0 -66.5 25.5t-28.5 66.5q0 40 28.5 64.5t66.5 24.5zM354 825q-20 0 -33.5 -14.5t-13.5 -36.5q0 -23 13.5 -38t33.5 -15t32 14.5t12 37.5t-12 37.5t-32 14.5zM505 946l-3 -12l-206 -60l-15 28
q145 102 173 122q14 -5 31.5 -31.5t19.5 -46.5z" />
    <glyph glyph-name="aringacute" unicode="&#x1fb;" horiz-adv-x="466" 
d="M465 45l-109 -57q-38 0 -61 21q-16 14 -26 37q-88 -58 -104 -58q-61 0 -98 39t-37 89q0 38 18 59.5t58 36.5q13 5 45 16.5t49.5 18t37 15.5t27.5 16v30q0 47 -16.5 72.5t-44.5 25.5q-20 0 -33 -18q-16 -19 -29 -69q-9 -34 -42 -34q-21 0 -41.5 15.5t-20.5 34.5
q0 22 35 48q82 56 166 71q59 0 98 -29q30 -23 41 -54.5t11 -77.5v-165q0 -59 32 -59q12 0 34 8zM265 79v160q-10 -5 -29 -16t-26 -15q-47 -24 -47 -68q0 -38 19.5 -57.5t40.5 -19.5q19 0 42 16zM233 499q-39 0 -67.5 25.5t-28.5 66.5q0 40 29 65t68 25q37 0 66 -25t29 -65
q0 -41 -29 -66.5t-67 -25.5zM234 538q20 0 32 14.5t12 38.5q0 22 -12 36t-33 14q-19 0 -32 -14t-13 -36q0 -24 13 -38.5t33 -14.5zM237 707l-32 13q7 21 26.5 87.5t23.5 76.5q7 6 51.5 10.5t57.5 1.5l5 -11z" />
    <glyph glyph-name="AEacute" unicode="&#x1fc;" horiz-adv-x="882" 
d="M838 175l34 -9q-20 -105 -37 -166h-501v35q61 5 75.5 23t14.5 87v147h-168q-16 -32 -82 -176q-19 -43 -9 -58.5t65 -22.5v-35h-244v35q47 6 71.5 24.5t52.5 69.5q95 173 226 433q12 24 9 33.5t-26 12.5l-60 7v35h553q5 -90 10 -147l-35 -5q-17 62 -39 84q-23 24 -101 24
h-52q-27 0 -33.5 -5.5t-6.5 -29.5v-232h65q66 0 85.5 12t27.5 62h37v-201h-37q-8 54 -27 66.5t-86 12.5l-65 1v-153q0 -44 5 -62t20 -25q21 -8 90 -8q81 0 109 32q36 38 59 99zM424 340v258q-11 0 -22 -4q-122 -249 -124 -254h146zM709 755l-4 -12l-205 -60l-15 28
q145 103 173 122q14 -5 31.5 -32t19.5 -46z" />
    <glyph glyph-name="aeacute" unicode="&#x1fd;" horiz-adv-x="671" 
d="M630 119l19 -25q-40 -57 -90 -81.5t-86 -24.5q-110 0 -163 84l-30 -25q-71 -59 -116 -59q-59 0 -96 38.5t-37 86.5q0 38 18 61.5t57 38.5q147 54 165 67v25q0 45 -20 72.5t-45 27.5q-20 0 -34 -17q-13 -16 -27 -67q-9 -33 -42 -33q-20 0 -41 14.5t-21 32.5q0 25 36 49
q79 53 164 70q46 0 81 -25q27 -18 35 -38q28 29 64.5 46t68.5 17q69 0 117 -49.5t48 -112.5q0 -18 -5.5 -26t-21.5 -12q-36 -7 -245 -15q0 -79 39 -120.5t99 -41.5q53 0 109 42zM468 412q-30 0 -52.5 -34t-27.5 -94q114 3 121 3q13 1 18.5 6t5.5 19q0 39 -18 69.5t-47 30.5z
M225 67q41 0 68 35q-23 54 -23 140q-2 -1 -61 -32q-46 -27 -46 -70q0 -35 19 -54t43 -19zM343 489l-31 13q7 23 26.5 89t22.5 76q7 5 51.5 9.5t57.5 1.5l6 -10z" />
    <glyph glyph-name="Oslashacute" unicode="&#x1fe;" horiz-adv-x="771" 
d="M652 674l-50 -77q58 -47 92.5 -114.5t34.5 -147.5q0 -156 -99.5 -253t-250.5 -97q-97 0 -172 45l-57 -82l-31 26l53 77q-60 46 -95 117.5t-35 154.5q0 61 22.5 120.5t64 109.5t111 81t154.5 31q98 0 174 -44l51 76zM237 141l278 405q-51 77 -137 77q-79 0 -133.5 -77.5
t-54.5 -208.5q0 -113 47 -196zM538 509l-277 -407q23 -36 59.5 -55.5t76.5 -19.5q80 0 131.5 73.5t51.5 210.5q0 119 -42 198zM538 761l-4 -11l-206 -60l-14 27q66 48 173 122q14 -5 31.5 -31.5t19.5 -46.5z" />
    <glyph glyph-name="oslashacute" unicode="&#x1ff;" horiz-adv-x="531" 
d="M443 457l-33 -49q91 -64 91 -177q0 -115 -69.5 -179t-167.5 -64q-63 0 -117 27l-36 -51l-29 23l35 50q-43 31 -65 77.5t-22 96.5q0 111 74 177t167 66q60 0 109 -26l35 50zM180 127l152 234q-27 52 -75 52q-35 0 -65 -43.5t-30 -133.5q0 -58 18 -109zM352 323l-154 -236
q29 -59 76 -59q95 0 95 182q0 66 -17 113zM258 489l-31 13q7 23 26.5 89t22.5 76q7 5 51.5 9.5t57.5 1.5l6 -10z" />
    <glyph glyph-name="uni0218" unicode="&#x218;" horiz-adv-x="505" 
d="M442 495l-34 -8q-46 137 -140 137q-42 0 -69.5 -28t-27.5 -71q0 -40 28 -68.5t96 -62.5q87 -42 132 -89.5t45 -116.5q0 -87 -67.5 -145t-175.5 -58q-54 0 -101 14q-29 8 -61 22q-14 39 -29 170l35 11q12 -38 32.5 -75t59.5 -69t83 -32q46 0 73 29t27 76q0 42 -29 73
t-90 63q-87 44 -130.5 89.5t-43.5 112.5q0 85 62.5 140.5t166.5 55.5q70 0 139 -27q2 -21 9 -70t10 -73zM246 -54q35 0 61 -26.5t26 -66.5q0 -88 -122 -119l-11 26q64 31 64 69q0 36 -50 49q-16 5 -16 26q0 20 14.5 31t33.5 11z" />
    <glyph glyph-name="uni0219" unicode="&#x219;" horiz-adv-x="383" 
d="M338 322l-30 -9q-45 102 -106 102q-20 0 -35.5 -15.5t-15.5 -38.5q0 -44 74 -77q69 -30 102 -62t33 -86q0 -69 -54.5 -108.5t-124.5 -39.5q-37 0 -73 10.5t-53 23.5q-5 12 -10 55.5t-6 78.5l30 3q19 -54 53 -93t76 -39q24 0 39.5 15.5t15.5 38.5q0 24 -16 43.5t-60 39.5
q-26 13 -40.5 21.5t-38.5 27.5t-36 44t-12 55q0 60 45.5 101t122.5 41q55 0 96 -18q16 -38 24 -114zM186 -47q35 0 60.5 -26.5t25.5 -66.5q0 -88 -122 -119l-10 27q64 30 64 68q0 36 -51 49q-15 5 -15 26q0 20 14.5 31t33.5 11z" />
    <glyph glyph-name="uni021A" unicode="&#x21a;" horiz-adv-x="641" 
d="M616 481l-36 -2q-18 77 -44 103q-23 24 -101 24h-46v-473q0 -63 15.5 -78t82.5 -20v-35h-326v35q64 5 79 20t15 78v473h-34q-56 0 -79 -6.5t-36 -20.5q-22 -23 -42 -101h-36q2 31 6.5 100t5.5 97h24q11 -16 22.5 -20.5t34.5 -4.5h402q36 0 58 25h24q2 -77 11 -194z
M310 -36q35 0 61 -26.5t26 -66.5q0 -88 -123 -119l-10 26q64 31 64 69q0 36 -51 49q-15 5 -15 26q0 20 14.5 31t33.5 11z" />
    <glyph glyph-name="uni021B" unicode="&#x21b;" horiz-adv-x="339" 
d="M329 37l-81 -38q-28 -11 -41 -11q-122 0 -122 126v280h-63l-5 12l28 36h40v73l113 78l14 -6v-145h98q9 -8 7.5 -25t-13.5 -23h-92v-247q0 -87 57 -87q25 0 50 12zM177 -48q35 0 60.5 -26.5t25.5 -66.5q0 -47 -33.5 -76.5t-88.5 -42.5l-10 26q64 31 64 69q0 35 -51 48
q-15 4 -15 26q0 20 14.5 31.5t33.5 11.5z" />
    <glyph glyph-name="uni021C" unicode="&#x21c;" horiz-adv-x="542" 
d="M124 259l-14 40q109 41 156.5 85t47.5 113q0 56 -27.5 88.5t-68.5 32.5q-85 0 -137 -149l-38 7q17 92 24 148q15 4 45.5 13t48 13.5t46 9t56.5 4.5q84 0 138.5 -38t55.5 -101q0 -91 -130 -162v-2q78 -14 127.5 -62.5t49.5 -123.5q0 -114 -110 -197.5t-288 -103.5l-72 53
l11 25q66 -17 108 -17q88 0 145.5 51t57.5 141q0 77 -42 116t-92 39q-34 0 -98 -23z" />
    <glyph glyph-name="uni021D" unicode="&#x21d;" horiz-adv-x="406" 
d="M70 105l-12 33q82 33 116 69t34 82q0 41 -20.5 62.5t-52.5 21.5q-42 0 -101 -52l-24 26q86 107 180 107q62 0 104 -34t42 -96q0 -50 -55 -94q-11 -9 -39 -26v-3q59 -14 98 -55.5t39 -100.5q0 -101 -93 -176t-230 -93l-58 42l10 23q40 -10 70 -10q73 0 118.5 44.5
t45.5 125.5q0 61 -29.5 89.5t-66.5 28.5q-31 0 -76 -14z" />
    <glyph glyph-name="uni0232" unicode="&#x232;" horiz-adv-x="655" 
d="M646 650v-35q-47 -5 -69.5 -21.5t-50.5 -62.5q-58 -93 -112 -196q-18 -35 -18 -69v-128q0 -67 15 -82.5t82 -21.5v-34h-325v34q64 5 79 21t15 83v111q0 27 -13 54q-35 71 -124 227q-27 49 -47 64t-62 21v35h286v-35q-47 -6 -55 -18.5t8 -39.5q9 -18 114 -217
q91 179 104 212q15 30 4.5 43t-63.5 20v35h232zM476 713h-245v67h245v-67z" />
    <glyph glyph-name="uni0233" unicode="&#x233;" horiz-adv-x="465" 
d="M483 442v-32q-36 -6 -50 -18.5t-33 -53.5q-11 -23 -116 -275q-67 -163 -105 -280q-9 -27 -37 -27q-23 0 -46.5 19t-23.5 44q0 21 27 39q57 30 82 71q13 25 19 41q6 20 -4 47q-83 231 -126 331q-14 33 -28 45t-49 17v32h248v-32q-33 -6 -40.5 -14t0.5 -32l75 -222
q33 82 75 213q8 25 -2 36.5t-46 18.5v32h180zM381 541h-250v73h250v-73z" />
    <glyph glyph-name="uni0237" unicode="&#x237;" horiz-adv-x="288" 
d="M31 388v30q73 8 189 36v-325q0 -98 -28 -162q-26 -63 -70.5 -121t-68.5 -75q-20 -15 -35 -15q-12 0 -26 16.5t-14 38.5q0 12 6.5 19.5t17.5 7.5q64 1 75 20q9 18 12 71q4 118 4 188v188q0 52 -9.5 64t-52.5 19z" />
    <glyph glyph-name="circumflex" unicode="&#x2c6;" 
d="M326 506l-28 -22q-17 14 -33.5 29.5t-36 34.5t-29.5 28q-1 -1 -38.5 -37.5t-59.5 -54.5l-27 22q48 71 106 173h37q45 -80 109 -173z" />
    <glyph glyph-name="caron" unicode="&#x2c7;" 
d="M299 689l27 -22q-43 -62 -106 -173h-38q-44 80 -108 173l27 22q18 -14 34 -29t36.5 -35t29.5 -28q80 77 98 92z" />
    <glyph glyph-name="uni02C9" unicode="&#x2c9;" 
d="M325 541h-250v73h250v-73z" />
    <glyph glyph-name="breve" unicode="&#x2d8;" 
d="M290 660h32q0 -154 -123 -154q-121 0 -121 154h32q18 -78 90 -78t90 78z" />
    <glyph glyph-name="dotaccent" unicode="&#x2d9;" 
d="M199 517q-28 0 -49 21t-21 49q0 30 21 50t50 20q30 0 50.5 -20t20.5 -50q0 -29 -21 -49.5t-51 -20.5z" />
    <glyph glyph-name="ring" unicode="&#x2da;" 
d="M200 499q-39 0 -67.5 25.5t-28.5 66.5q0 40 29 65t68 25q37 0 66 -25t29 -65q0 -41 -29 -66.5t-67 -25.5zM202 538q19 0 31 14.5t12 38.5q0 22 -12 36t-32 14t-33 -14t-13 -36q0 -24 13.5 -38.5t33.5 -14.5z" />
    <glyph glyph-name="ogonek" unicode="&#x2db;" 
d="M286 -186l-50 -30q-17 -11 -38 -11q-38 0 -61 23t-23 54q0 52 79 150h38q-40 -68 -40 -118q0 -25 13.5 -37t33.5 -12q18 0 40 10z" />
    <glyph glyph-name="tilde" unicode="&#x2dc;" 
d="M81 512l-29 19q34 105 93 105q21 0 62 -21q40 -20 58 -20q29 0 50 46l28 -14q-30 -106 -87 -106q-25 0 -67 22q-34 20 -56 20q-30 0 -52 -51z" />
    <glyph glyph-name="hungarumlaut" unicode="&#x2dd;" 
d="M128 488l-30 11q5 22 13 59.5t15 70.5t8 38q8 5 46 9.5t50 2.5l5 -11zM281 488l-30 11q5 24 13.5 64t14.5 68.5t8 35.5q7 5 45 9.5t51 2.5l5 -11z" />
    <glyph glyph-name="uni0374" unicode="&#x374;" horiz-adv-x="264" 
d="M244 645l4 -19q-52 -95 -145 -256l-31 5q28 135 51 275q11 7 59 5t62 -10z" />
    <glyph glyph-name="uni0375" unicode="&#x375;" horiz-adv-x="264" 
d="M208 140l4 -19q-88 -161 -145 -256l-32 5q27 123 52 275q11 7 59.5 5t61.5 -10z" />
    <glyph glyph-name="uni037E" unicode="&#x37e;" horiz-adv-x="264" 
d="M138 249q-35 0 -58.5 24t-23.5 62q0 36 23.5 60t58.5 24q36 0 60 -24t24 -60q0 -38 -24 -62t-60 -24zM52 -135l-32 7q36 166 55 273q10 7 58.5 5t61.5 -10l5 -19q-73 -131 -148 -256z" />
    <glyph glyph-name="tonos" unicode="&#x384;" 
d="M290 678l-75 -181l-32 -1q3 173 3 179q5 7 44.5 13t51.5 2z" />
    <glyph glyph-name="dieresistonos" unicode="&#x385;" 
d="M323 507q-26 0 -42 16t-16 41q0 23 16.5 41.5t41.5 18.5q23 0 39 -18t16 -41q0 -25 -15.5 -41.5t-39.5 -16.5zM260 665l-55 -182h-30q-10 142 -12 181q6 4 44 9.5t47 3.5zM79 507q-25 0 -41 16t-16 41q0 23 16.5 41.5t40.5 18.5q23 0 39.5 -18.5t16.5 -41.5
q0 -25 -16 -41t-40 -16z" />
    <glyph glyph-name="Alphatonos" unicode="&#x386;" horiz-adv-x="706" 
d="M687 0h-286v35q43 7 52 19.5t-4 45.5q-14 41 -40 113h-192q-25 -71 -36 -107q-13 -36 -2 -50.5t63 -20.5v-35h-224l1 35q50 6 68 23t43 80l205 514l51 13q177 -483 191 -521q26 -66 44.5 -84.5t65.5 -24.5v-35zM390 266l-74 216h-3q-12 -32 -25.5 -68.5t-29 -80
t-24.5 -67.5h156zM225 708l-75 -181l-33 -1q5 138 4 179q5 7 44.5 13t51.5 2z" />
    <glyph glyph-name="anoteleia" unicode="&#x387;" horiz-adv-x="264" 
d="M131 186q-35 0 -58.5 23.5t-23.5 61.5q0 36 23.5 60t58.5 24q36 0 60 -23.5t24 -60.5q0 -38 -24 -61.5t-60 -23.5z" />
    <glyph glyph-name="Epsilontonos" unicode="&#x388;" horiz-adv-x="581" 
d="M536 173l35 -7q-9 -69 -35 -166h-510v35q65 5 80 20t15 78v384q0 64 -13 78.5t-68 19.5v35h471q0 -8 2 -31.5t4 -58t4 -60.5l-36 -5q-18 63 -41 86q-24 25 -100 25h-48q-28 0 -34.5 -5.5t-6.5 -29.5v-212h67q64 0 82.5 11.5t28.5 63.5h36v-202h-36q-10 53 -28 64.5
t-83 11.5h-67v-173q0 -70 24 -82q23 -10 90 -10q80 0 111 32q27 32 56 98zM10 708l-74 -181l-33 -1q3 175 3 179q6 7 45 13t52 2z" />
    <glyph glyph-name="Etatonos" unicode="&#x389;" horiz-adv-x="783" 
d="M746 650v-35q-59 -5 -71.5 -19.5t-12.5 -78.5v-385q0 -62 13 -77t71 -20v-35h-305v35q60 5 73.5 20t13.5 78v186h-273v-186q0 -63 13 -78t69 -20v-35h-298v35q56 5 69 20t13 78v384q0 63 -13.5 78t-72.5 20v35h300v-35q-55 -5 -67.5 -20t-12.5 -78v-147h273v147
q0 63 -13 78t-69 20v35h300zM6 708l-75 -181l-32 -1q3 173 3 179q5 7 44.5 13t52.5 2z" />
    <glyph glyph-name="Iotatonos" unicode="&#x38a;" horiz-adv-x="378" 
d="M338 0h-300v35q56 5 69.5 20.5t13.5 77.5v383q0 63 -13.5 78.5t-69.5 20.5v35h300v-35q-56 -5 -69.5 -20.5t-13.5 -78.5v-383q0 -62 13.5 -77.5t69.5 -20.5v-35zM8 708l-75 -181l-32 -1q3 173 3 179q5 7 44.5 13t51.5 2z" />
    <glyph glyph-name="Omicrontonos" unicode="&#x38c;" horiz-adv-x="766" 
d="M393 665q139 0 235 -93.5t96 -239.5q0 -158 -98.5 -252.5t-244.5 -94.5q-149 0 -244 97t-95 242q0 138 94 239.5t257 101.5zM375 623q-78 0 -129 -76.5t-51 -203.5q0 -133 55.5 -224.5t148.5 -91.5q75 0 123.5 72t48.5 205q0 147 -54 233t-142 86zM84 698l-74 -181
l-33 -1q3 175 3 179q6 7 45 13t52 2z" />
    <glyph glyph-name="Upsilontonos" unicode="&#x38e;" horiz-adv-x="666" 
d="M491 0h-318v36q64 5 78.5 18.5t14.5 74.5v68q0 147 -36 235q-65 161 -196 161q-12 0 -28 -3l-6 31q29 17 71.5 30.5t76.5 13.5q93 0 143 -68q26 -35 41.5 -93.5t19 -95t7.5 -101.5h8q9 75 37.5 152t72.5 131q63 75 130 75q19 0 34.5 -19.5t21.5 -42.5l-2 -9h-14
q-37 0 -82 -29t-84 -91q-81 -130 -81 -278v-67q0 -34 1.5 -49.5t13.5 -26t26 -12.5t50 -5v-36zM-13 708l-74 -181l-33 -1q3 175 3 179q6 7 45 13t52 2z" />
    <glyph glyph-name="Omegatonos" unicode="&#x38f;" horiz-adv-x="770" 
d="M733 164l-22 -164h-255l-9 14q113 206 113 353q0 122 -44.5 189t-127.5 67t-127 -69t-45 -197q0 -49 10.5 -99t32.5 -101.5t33 -74.5t35 -67l-7 -15h-260l-16 164h31q15 -38 30 -47.5t51 -9.5h74q-162 117 -162 256q0 134 90.5 218t230.5 84t229 -83t89 -215
q0 -45 -15 -85t-48 -77t-49 -51.5t-55 -46.5h86q33 0 46.5 9.5t29.5 47.5h31zM89 698l-74 -181l-33 -1q3 175 3 179q6 7 45 13t52 2z" />
    <glyph glyph-name="iotadieresistonos" unicode="&#x390;" horiz-adv-x="279" 
d="M270 72l10 -29q-65 -55 -122 -55q-39 0 -64.5 26.5t-25.5 88.5v328l128 24v-328q0 -63 37 -63q20 0 37 8zM263 523q-26 0 -42 16t-16 41q0 23 16.5 41.5t41.5 18.5q23 0 39 -18t16 -41q0 -26 -15.5 -42t-39.5 -16zM216 676l-91 -180l-32 8q18 115 24 173q6 4 45 9t48 3z
M19 523q-25 0 -41 16t-16 41q0 23 16.5 41.5t40.5 18.5q23 0 39.5 -18.5t16.5 -41.5q0 -25 -16 -41t-40 -16z" />
    <glyph glyph-name="Alpha" unicode="&#x391;" horiz-adv-x="706" 
d="M687 0h-286v35q43 7 52 19.5t-4 45.5q-14 41 -40 113h-192q-25 -71 -36 -107q-13 -36 -2 -50.5t63 -20.5v-35h-224l1 35q50 6 68 23t43 80l205 514l51 13q177 -483 191 -521q26 -66 44.5 -84.5t65.5 -24.5v-35zM390 266l-74 216h-3q-12 -32 -25.5 -68.5t-29 -80
t-24.5 -67.5h156z" />
    <glyph glyph-name="Beta" unicode="&#x392;" horiz-adv-x="637" 
d="M401 353v-4q193 -23 193 -156q0 -99 -94 -150q-76 -43 -211 -43h-254v35q58 5 72 20.5t14 78.5v382q0 63 -13 78.5t-67 20.5v35h292q112 0 165 -35q59 -38 59 -114q0 -65 -45.5 -100t-110.5 -48zM253 363h23q72 0 105.5 29.5t33.5 91.5q0 63 -31.5 93.5t-76.5 30.5
q-33 0 -45 -12q-9 -9 -9 -43v-190zM253 323v-187q0 -55 16.5 -75t56.5 -19q48 1 83.5 36.5t35.5 103.5q0 141 -172 141h-20z" />
    <glyph glyph-name="Gamma" unicode="&#x393;" horiz-adv-x="541" 
d="M518 494l-36 -6q-20 63 -36 84q-23 34 -99 34h-52q-26 0 -32.5 -6t-6.5 -30v-428q0 -70 14 -86t78 -21v-35h-310v35q57 5 70.5 21t13.5 86v369q0 66 -13.5 82.5t-70.5 21.5v35h469q5 -86 11 -156z" />
    <glyph glyph-name="uni0394" unicode="&#x394;" horiz-adv-x="662" 
d="M622 0h-583v29l271 626l40 10l272 -636v-29zM462 58l-172 429l-171 -429h343z" />
    <glyph glyph-name="Epsilon" unicode="&#x395;" horiz-adv-x="581" 
d="M536 173l35 -7q-9 -69 -35 -166h-510v35q65 5 80 20t15 78v384q0 64 -13 78.5t-68 19.5v35h471q0 -8 2 -31.5t4 -58t4 -60.5l-36 -5q-18 63 -41 86q-24 25 -100 25h-48q-28 0 -34.5 -5.5t-6.5 -29.5v-212h67q64 0 82.5 11.5t28.5 63.5h36v-202h-36q-10 53 -28 64.5
t-83 11.5h-67v-173q0 -70 24 -82q23 -10 90 -10q80 0 111 32q27 32 56 98z" />
    <glyph glyph-name="Zeta" unicode="&#x396;" horiz-adv-x="619" 
d="M573 193l34 -8q-23 -140 -37 -185h-530l-12 17q125 188 382 588h-126q-71 0 -97.5 -8t-39.5 -27q-25 -34 -39 -95l-34 1q2 42 6.5 109t5.5 90h26q11 -17 21.5 -21t35.5 -4h407l8 -15q-257 -398 -374 -584q50 -6 124 -6q142 0 177 33q34 33 62 115z" />
    <glyph glyph-name="Eta" unicode="&#x397;" horiz-adv-x="783" 
d="M746 650v-35q-59 -5 -71.5 -19.5t-12.5 -78.5v-385q0 -62 13 -77t71 -20v-35h-305v35q60 5 73.5 20t13.5 78v186h-273v-186q0 -63 13 -78t69 -20v-35h-298v35q56 5 69 20t13 78v384q0 63 -13.5 78t-72.5 20v35h300v-35q-55 -5 -67.5 -20t-12.5 -78v-147h273v147
q0 63 -13 78t-69 20v35h300z" />
    <glyph glyph-name="Theta" unicode="&#x398;" horiz-adv-x="760" 
d="M387 665q139 0 235 -94t96 -238q0 -155 -98 -251.5t-243 -96.5q-148 0 -241.5 96t-93.5 239q0 63 22.5 123.5t64 110.5t109 80.5t149.5 30.5zM372 621q-78 0 -127.5 -75.5t-49.5 -203.5q0 -135 54 -224t148 -89q76 0 122 69t46 204q0 149 -52 234t-141 85zM494 222h-34
q-6 42 -15 52.5t-38 10.5h-55q-29 0 -38.5 -10.5t-14.5 -52.5h-35v229h35q5 -41 14.5 -51.5t39.5 -10.5h55q29 0 37.5 10t14.5 52h34v-229z" />
    <glyph glyph-name="Iota" unicode="&#x399;" horiz-adv-x="378" 
d="M338 0h-300v35q56 5 69.5 20.5t13.5 77.5v383q0 63 -13.5 78.5t-69.5 20.5v35h300v-35q-56 -5 -69.5 -20.5t-13.5 -78.5v-383q0 -62 13.5 -77.5t69.5 -20.5v-35z" />
    <glyph glyph-name="Kappa" unicode="&#x39a;" horiz-adv-x="703" 
d="M699 0h-201q-86 118 -197 279q-26 38 -49 35v-180q0 -63 14 -78.5t72 -20.5v-35h-299v35q55 5 68.5 20.5t13.5 78.5v382q0 63 -13.5 78.5t-70.5 20.5v35h294v-35q-54 -5 -66.5 -20.5t-12.5 -78.5v-170q34 10 76 53q77 77 140 161q19 24 14 36t-39 16l-18 3v35h260v-35
q-50 -5 -84.5 -19.5t-73.5 -50.5q-27 -24 -50 -48t-55 -58t-41 -43q98 -145 210 -287q30 -38 53.5 -53.5t54.5 -20.5v-35z" />
    <glyph glyph-name="Lambda" unicode="&#x39b;" horiz-adv-x="699" 
d="M682 0h-287v35q46 7 55 21.5t-5 49.5q-6 18 -57.5 161.5t-76.5 213.5h-3q-100 -279 -129 -370q-14 -40 -4 -53.5t64 -22.5v-35h-223l1 35q46 6 66 25.5t46 84.5q16 41 89 223.5t111 282.5l52 14q162 -444 190 -516q26 -67 47.5 -88t63.5 -26v-35z" />
    <glyph glyph-name="Mu" unicode="&#x39c;" horiz-adv-x="888" 
d="M860 0h-296v35q56 6 68.5 22t11.5 85l-2 385h-5l-221 -520h-28l-204 510h-4l-12 -261q-6 -117 0 -161q3 -33 21 -44t69 -16v-35h-240v35q41 4 58.5 17.5t22.5 40.5q13 70 21 189l16 197q6 86 -7.5 108t-77.5 28v35h207l193 -438l196 438h201v-35q-59 -6 -71.5 -21
t-10.5 -78l9 -374q2 -69 14.5 -85t70.5 -22v-35z" />
    <glyph glyph-name="Nu" unicode="&#x39d;" horiz-adv-x="740" 
d="M724 650v-35q-41 -2 -58.5 -15t-21.5 -47q-9 -93 -9 -166v-397h-48l-416 498h-3v-225q0 -82 8 -162q4 -35 23.5 -49.5t72.5 -16.5v-35h-245v35q42 3 61 17t22 46q10 82 10 165v209q0 51 -3.5 70.5t-17.5 36.5q-23 30 -83 36v35h185l382 -439h4v176q0 48 -8 164
q-4 33 -24.5 47t-74.5 17v35h244z" />
    <glyph glyph-name="Xi" unicode="&#x39e;" horiz-adv-x="644" 
d="M570 469h-34q-13 52 -25 66t-55 14h-264q-42 0 -55 -14.5t-27 -65.5h-33l7 181h478zM499 225h-35q-7 42 -18.5 52.5t-51.5 10.5h-142q-42 0 -53 -10.5t-19 -54.5h-33v228h33q8 -42 19 -52t54 -10h141q40 0 51.5 10.5t18.5 51.5h34zM595 199l-12 -199h-519l-13 199h34
q11 -29 14.5 -36.5t13 -23.5t19 -20t26 -8t41.5 -4h249q20 0 34.5 1.5t26 9t17 10.5t14 19.5t10.5 21.5l12 30h33z" />
    <glyph glyph-name="Omicron" unicode="&#x39f;" horiz-adv-x="766" 
d="M393 665q139 0 235 -93.5t96 -239.5q0 -158 -98.5 -252.5t-244.5 -94.5q-149 0 -244 97t-95 242q0 138 94 239.5t257 101.5zM375 623q-78 0 -129 -76.5t-51 -203.5q0 -133 55.5 -224.5t148.5 -91.5q75 0 123.5 72t48.5 205q0 147 -54 233t-142 86z" />
    <glyph glyph-name="Pi" unicode="&#x3a0;" horiz-adv-x="761" 
d="M727 650v-35q-61 -5 -74 -20t-13 -79v-383q0 -63 13.5 -78t73.5 -20v-35h-301v35q55 5 67.5 20.5t12.5 77.5v439q0 23 -6 28.5t-29 5.5h-181q-23 0 -29 -6t-6 -30v-437q0 -62 12 -77.5t63 -20.5v-35h-295v35q58 5 72 20.5t14 77.5v383q0 63 -14 78.5t-75 20.5v35h695z
" />
    <glyph glyph-name="Rho" unicode="&#x3a1;" horiz-adv-x="599" 
d="M43 650h275q121 0 175 -39q74 -50 74 -147q0 -94 -58 -145.5t-146 -62.5q-15 -2 -42 -2l-68 16v-137q0 -63 15 -78.5t80 -20.5v-34h-311v34q57 5 70.5 20.5t13.5 78.5v383q0 63 -12.5 78t-65.5 21v35zM253 570v-260q24 -10 54 -10q17 0 34.5 6.5t37.5 22.5t32.5 50.5
t12.5 81.5q0 78 -36.5 114t-88.5 36q-25 0 -37 -10q-9 -9 -9 -31z" />
    <glyph glyph-name="Sigma" unicode="&#x3a3;" horiz-adv-x="612" 
d="M589 197l-39 -197h-520v25l250 278l-238 321v26h489q3 -43 11 -165l-35 -5q-11 40 -35 83q-13 24 -34.5 33.5t-66.5 9.5h-148l177 -240l-227 -258h252q55 0 79 18.5t50 77.5z" />
    <glyph glyph-name="Tau" unicode="&#x3a4;" horiz-adv-x="641" 
d="M616 481l-36 -2q-18 77 -44 103q-23 24 -101 24h-46v-473q0 -63 15.5 -78t82.5 -20v-35h-326v35q64 5 79 20t15 78v473h-34q-56 0 -79 -6.5t-36 -20.5q-22 -23 -42 -101h-36q2 31 6.5 100t5.5 97h24q11 -16 22.5 -20.5t34.5 -4.5h402q36 0 58 25h24q2 -77 11 -194z" />
    <glyph glyph-name="Upsilon" unicode="&#x3a5;" horiz-adv-x="666" 
d="M491 0h-318v36q64 5 78.5 18.5t14.5 74.5v68q0 147 -36 235q-65 161 -196 161q-12 0 -28 -3l-6 31q29 17 71.5 30.5t76.5 13.5q93 0 143 -68q26 -35 41.5 -93.5t19 -95t7.5 -101.5h8q9 75 37.5 152t72.5 131q63 75 130 75q19 0 34.5 -19.5t21.5 -42.5l-2 -9h-14
q-37 0 -82 -29t-84 -91q-81 -130 -81 -278v-67q0 -34 1.5 -49.5t13.5 -26t26 -12.5t50 -5v-36z" />
    <glyph glyph-name="Phi" unicode="&#x3a6;" horiz-adv-x="787" 
d="M521 658v-34q-42 -4 -52.5 -12t-10.5 -38q45 -2 91.5 -15t93 -39.5t75.5 -74.5t29 -111q0 -51 -20 -93.5t-50.5 -69.5t-70 -45.5t-76.5 -27t-72 -9.5q0 -32 10.5 -41.5t52.5 -13.5v-34h-255v34q42 4 52.5 13.5t10.5 41.5q-45 1 -91.5 14t-92.5 39.5t-75.5 74.5t-29.5 111
q0 62 29.5 111t75.5 76.5t93 42t91 16.5q0 29 -10 37.5t-48 12.5v34h250zM329 127v409q-25 -4 -49.5 -15.5t-49 -33.5t-39.5 -61t-15 -90q0 -99 46.5 -149.5t106.5 -59.5zM458 536v-409q21 4 40 11t40.5 22t37 36.5t26 56.5t10.5 79q0 51 -15 91t-39 62.5t-49 34.5t-51 16z
" />
    <glyph glyph-name="Chi" unicode="&#x3a7;" horiz-adv-x="693" 
d="M699 0h-321v35q46 8 53.5 21.5t-9.5 37.5q-3 4 -14.5 23.5t-35.5 60t-56 95.5q-71 -105 -110 -176q-17 -32 -8 -43t61 -19v-35h-251v35q78 9 119 55q104 132 163 222q-108 178 -142 231q-22 36 -48 51.5t-75 20.5v35h302v-35q-39 -9 -46.5 -20t4.5 -28q16 -30 90 -151
q49 65 90 140q16 27 7.5 38.5t-55.5 20.5v35h241v-35q-50 -7 -76 -20t-56 -49q-30 -34 -125 -165q20 -32 76.5 -122t89.5 -141q30 -47 54.5 -62.5t77.5 -20.5v-35z" />
    <glyph glyph-name="Psi" unicode="&#x3a8;" horiz-adv-x="788" 
d="M765 659l8 -34q-30 -12 -41.5 -33t-19.5 -69l-12 -68q-10 -57 -29 -88.5t-52 -55.5q-57 -42 -160 -48v-132q0 -60 13.5 -75.5t68.5 -21.5v-34h-298v34q54 6 68 21.5t14 75.5v132q-111 6 -166 48q-35 26 -54 58t-27 91l-9 63q-8 61 -17 75q-12 17 -38 27l9 34
q111 -8 148 -51q13 -15 20.5 -35.5t15.5 -67.5l10 -60q13 -78 33.5 -105.5t74.5 -34.5v213q0 60 -13 75.5t-64 21.5v35h287v-35q-51 -6 -63.5 -21.5t-12.5 -75.5v-213q53 7 73.5 35t35.5 110l10 54q8 45 17.5 67.5t26.5 38.5q40 41 143 49z" />
    <glyph glyph-name="uni03A9" unicode="&#x3a9;" horiz-adv-x="770" 
d="M733 164l-22 -164h-255l-9 14q113 206 113 353q0 122 -44.5 189t-127.5 67t-127 -69t-45 -197q0 -49 10.5 -99t32.5 -101.5t33 -74.5t35 -67l-7 -15h-260l-16 164h31q15 -38 30 -47.5t51 -9.5h74q-162 117 -162 256q0 134 90.5 218t230.5 84t229 -83t89 -215
q0 -45 -15 -85t-48 -77t-49 -51.5t-55 -46.5h86q33 0 46.5 9.5t29.5 47.5h31z" />
    <glyph glyph-name="Iotadieresis" unicode="&#x3aa;" horiz-adv-x="378" 
d="M338 0h-300v35q56 5 69.5 20.5t13.5 77.5v383q0 63 -13.5 78.5t-69.5 20.5v35h300v-35q-56 -5 -69.5 -20.5t-13.5 -78.5v-383q0 -62 13.5 -77.5t69.5 -20.5v-35zM293 828q29 0 48.5 -19t19.5 -48q0 -27 -19.5 -46.5t-48.5 -19.5q-27 0 -47 19.5t-20 46.5q0 28 20 47.5
t47 19.5zM83 828q29 0 48.5 -19.5t19.5 -47.5q0 -27 -20 -46.5t-48 -19.5q-27 0 -47 19.5t-20 46.5q0 28 20 47.5t47 19.5z" />
    <glyph glyph-name="Upsilondieresis" unicode="&#x3ab;" horiz-adv-x="666" 
d="M491 0h-318v36q64 5 78.5 18.5t14.5 74.5v68q0 147 -36 235q-65 161 -196 161q-12 0 -28 -3l-6 31q29 17 71.5 30.5t76.5 13.5q93 0 143 -68q26 -35 41.5 -93.5t19 -95t7.5 -101.5h8q9 75 37.5 152t72.5 131q63 75 130 75q19 0 34.5 -19.5t21.5 -42.5l-2 -9h-14
q-37 0 -82 -29t-84 -91q-81 -130 -81 -278v-67q0 -34 1.5 -49.5t13.5 -26t26 -12.5t50 -5v-36zM461 828q29 0 49 -19.5t20 -47.5q0 -27 -20 -46.5t-49 -19.5q-26 0 -46 19.5t-20 46.5q0 28 19.5 47.5t46.5 19.5zM251 828q29 0 49 -19.5t20 -47.5q0 -27 -20 -46.5t-49 -19.5
q-27 0 -47 19.5t-20 46.5q0 28 20 47.5t47 19.5z" />
    <glyph glyph-name="alphatonos" unicode="&#x3ac;" horiz-adv-x="537" 
d="M525 92l16 -25q-16 -37 -48 -58t-65 -21q-79 0 -99 105h-2q-61 -105 -140 -105q-58 0 -107.5 61t-49.5 145q0 73 35.5 132.5t91.5 95.5t92 36q25 0 49.5 -24.5t39.5 -63.5h3q4 24 11 40q15 13 47 26.5t57 18.5l16 -10q-11 -31 -22.5 -105.5t-11.5 -139.5q0 -61 14 -91.5
t35 -30.5q20 0 38 14zM221 398q-26 0 -46.5 -44.5t-20.5 -106.5q0 -73 28 -122t58 -49q35 0 60 37.5t25 98.5v26q0 70 -32.5 115t-71.5 45zM341 678l-75 -181l-33 -1q3 175 3 179q6 7 45 13t52 2z" />
    <glyph glyph-name="epsilontonos" unicode="&#x3ad;" horiz-adv-x="427" 
d="M395 131l24 -26q-72 -117 -203 -117q-79 0 -130.5 36.5t-51.5 98.5q0 47 32.5 70t91.5 39v2q-53 10 -79.5 33t-26.5 64q0 57 56 90t139 33q72 0 109.5 -23t37.5 -56q0 -18 -17 -33t-36 -14q-17 -1 -26 19q-14 33 -28.5 50t-40.5 17q-27 0 -44 -21t-17 -54
q0 -31 17.5 -48.5t51.5 -17.5q16 0 42 2t27 2l5 -9l-25 -64q-34 4 -56 4q-71 0 -71 -54q0 -39 27 -62.5t68 -23.5q69 0 124 63zM310 678l-75 -181l-33 -1q5 138 4 179q5 7 44.5 13t51.5 2z" />
    <glyph glyph-name="etatonos" unicode="&#x3ae;" horiz-adv-x="530" 
d="M467 -235l-8 -9q-23 0 -64 13.5t-63 30.5q7 376 7 475q0 101 -69 101q-7 0 -13 -1t-11.5 -3t-9.5 -3.5t-10 -5.5t-8 -5.5l-8 -6t-7 -5.5v-346q-43 -4 -131 -12q4 64 4 132v188q0 44 -8 54.5t-45 20.5v29q15 8 73 23.5t90 18.5q17 -20 17 -69q13 11 47 34q51 35 86 35
q126 0 126 -172v-120q1 -99 3 -242t2 -155zM346 678l-75 -181l-32 -1q3 173 3 179q5 7 44.5 13t51.5 2z" />
    <glyph glyph-name="iotatonos" unicode="&#x3af;" horiz-adv-x="279" 
d="M270 72l10 -29q-65 -55 -122 -55q-39 0 -64.5 26.5t-25.5 88.5v328l128 24v-328q0 -63 37 -63q20 0 37 8zM214 678l-75 -181l-33 -1q5 138 4 179q5 7 44.5 13t51.5 2z" />
    <glyph glyph-name="upsilondieresistonos" unicode="&#x3b0;" horiz-adv-x="479" 
d="M287 424v12q4 5 26 11.5t36 6.5q35 0 67 -47.5t32 -132.5q0 -113 -67.5 -199.5t-158.5 -86.5q-63 0 -103 37t-40 111q0 27 0.5 85.5t0.5 85.5q0 65 -42 65q-16 0 -28 -4l-9 31q22 17 62 36t74 19q70 0 70 -111q0 -33 -0.5 -102.5t-0.5 -98.5q0 -38 20 -60.5t49 -22.5
q43 0 64.5 41.5t21.5 138.5q0 135 -74 185zM357 523q-25 0 -41 16t-16 41q0 23 16.5 41.5t40.5 18.5q23 0 39.5 -18t16.5 -41q0 -26 -16 -42t-40 -16zM310 676l-91 -180l-31 8q9 61 24 173q6 4 45 9t48 3zM114 523q-26 0 -41.5 15.5t-15.5 41.5q0 24 16 42t41 18
q23 0 39 -18.5t16 -41.5q0 -25 -15.5 -41t-39.5 -16z" />
    <glyph glyph-name="alpha" unicode="&#x3b1;" horiz-adv-x="537" 
d="M525 92l16 -25q-16 -37 -48 -58t-65 -21q-79 0 -99 105h-2q-61 -105 -140 -105q-58 0 -107.5 61t-49.5 145q0 73 35.5 132.5t91.5 95.5t92 36q25 0 49.5 -24.5t39.5 -63.5h3q4 24 11 40q15 13 47 26.5t57 18.5l16 -10q-11 -31 -22.5 -105.5t-11.5 -139.5q0 -61 14 -91.5
t35 -30.5q20 0 38 14zM221 398q-26 0 -46.5 -44.5t-20.5 -106.5q0 -73 28 -122t58 -49q35 0 60 37.5t25 98.5v26q0 70 -32.5 115t-71.5 45z" />
    <glyph glyph-name="beta" unicode="&#x3b2;" horiz-adv-x="535" 
d="M68 -194v553q0 101 18.5 164.5t61.5 108.5q67 71 148 71q73 0 115.5 -41.5t42.5 -108.5q0 -28 -9 -50.5t-30.5 -43.5t-31.5 -29t-37 -27q60 -10 103 -46q56 -46 56 -129q0 -56 -30 -105t-72 -77t-81 -44t-62 -16q-34 0 -73 36q1 -42 6.5 -135.5t6.5 -119.5l-13 -11
q-32 1 -68.5 14t-50.5 36zM230 338l19 65q44 6 67 23q28 26 28 88q0 63 -27.5 100t-64.5 37q-47 0 -59.5 -59t-12.5 -196q0 -179 7 -317q49 -33 98 -33q45 0 69 27.5t24 97.5q0 80 -39 123.5t-92 43.5h-9q-8 1 -8 0z" />
    <glyph glyph-name="gamma" unicode="&#x3b3;" horiz-adv-x="504" 
d="M312 81h4q20 37 48.5 120.5t28.5 140.5q0 24 -16 61q-3 10 4 18q10 13 29 23.5t33 10.5q20 0 30 -19.5t10 -48.5q0 -35 -15.5 -80t-30 -75t-59.5 -115q-39 -74 -57 -124q1 -8 7.5 -82.5t7.5 -103.5q-18 -15 -60 -32.5t-69 -18.5l-17 15q1 20 9 56t19.5 82.5t14.5 62.5
q1 64 -24.5 159.5t-73.5 170.5q-28 43 -50.5 56.5t-66.5 7.5l-7 27q85 61 140 61q65 0 108 -122q36 -95 53 -251z" />
    <glyph glyph-name="delta" unicode="&#x3b4;" horiz-adv-x="509" 
d="M458 577l-11 -21q-92 79 -203 79q-44 0 -44 -20q0 -13 95 -101q13 -13 20 -19q88 -78 126 -137t38 -135q0 -110 -67 -172.5t-158 -62.5q-106 0 -165 65.5t-59 154.5q0 84 49.5 137.5t131.5 78.5q-89 91 -89 142q0 48 52.5 92.5t116.5 44.5q65 0 110.5 -40t56.5 -86z
M352 185q0 40 -11 74.5t-33.5 64t-34.5 42t-35 33.5q-69 -36 -69 -183q0 -81 29 -134.5t70 -53.5q42 0 63 41.5t21 115.5z" />
    <glyph glyph-name="epsilon" unicode="&#x3b5;" horiz-adv-x="427" 
d="M395 131l24 -26q-72 -117 -203 -117q-79 0 -130.5 36.5t-51.5 98.5q0 47 32.5 70t91.5 39v2q-53 10 -79.5 33t-26.5 64q0 57 56 90t139 33q72 0 109.5 -23t37.5 -56q0 -18 -17 -33t-36 -14q-17 -1 -26 19q-14 33 -28.5 50t-40.5 17q-27 0 -44 -21t-17 -54
q0 -31 17.5 -48.5t51.5 -17.5q16 0 42 2t27 2l5 -9l-25 -64q-34 4 -56 4q-71 0 -71 -54q0 -39 27 -62.5t68 -23.5q69 0 124 63z" />
    <glyph glyph-name="zeta" unicode="&#x3b6;" horiz-adv-x="383" 
d="M123 726l25 -9q-6 -44 24.5 -73.5t65.5 -31.5q83 76 126 76q21 0 22 -17q0 -19 -12 -45t-28 -35q-41 -26 -95 -27q-46 -51 -71.5 -132.5t-26.5 -167.5q0 -64 18.5 -99t61.5 -49q9 -3 41 -14q47 -15 70.5 -39.5t23.5 -74.5q0 -75 -84 -159l-29 17q20 44 20 80
q0 25 -16 42.5t-56 29.5q-11 4 -30.5 10.5l-28.5 9.5q-110 39 -110 196q0 101 48.5 193.5t118.5 160.5q-57 6 -90.5 29.5t-38.5 55.5q0 14 15 35.5t36 37.5z" />
    <glyph glyph-name="eta" unicode="&#x3b7;" horiz-adv-x="530" 
d="M467 -235l-8 -9q-23 0 -64 13.5t-63 30.5q7 376 7 475q0 101 -69 101q-7 0 -13 -1t-11.5 -3t-9.5 -3.5t-10 -5.5t-8 -5.5l-8 -6t-7 -5.5v-346q-43 -4 -131 -12q4 64 4 132v188q0 44 -8 54.5t-45 20.5v29q15 8 73 23.5t90 18.5q17 -20 17 -69q13 11 47 34q51 35 86 35
q126 0 126 -172v-120q1 -99 3 -242t2 -155z" />
    <glyph glyph-name="theta" unicode="&#x3b8;" horiz-adv-x="509" 
d="M477 344q0 -99 -23.5 -177.5t-76 -128.5t-128.5 -50q-71 0 -121.5 50t-73 128.5t-22.5 177.5q0 152 60.5 255.5t165.5 103.5q73 0 123.5 -50t73 -129.5t22.5 -179.5zM164 389h181q-8 275 -89 275q-41 0 -65.5 -80.5t-26.5 -194.5zM346 332h-182q1 -132 27 -218.5
t68 -86.5q85 0 87 305z" />
    <glyph glyph-name="iota" unicode="&#x3b9;" horiz-adv-x="279" 
d="M270 72l10 -29q-65 -55 -122 -55q-39 0 -64.5 26.5t-25.5 88.5v328l128 24v-328q0 -63 37 -63q20 0 37 8z" />
    <glyph glyph-name="kappa" unicode="&#x3ba;" horiz-adv-x="508" 
d="M496 74l12 -27q-47 -59 -119 -59q-29 0 -51.5 14t-46.5 53q-2 4 -75 145q-3 -4 -10 -13.5t-11 -14.5v-172l-126 -12q3 45 3 148v185q0 34 -8 42.5t-46 18.5v28q16 7 76.5 24t88.5 20q12 -16 12 -90v-138q77 106 135 171q50 57 89 57q26 0 41 -16t15 -39q0 -28 -20 -46
q-9 -7 -18 -3q-23 9 -42 9q-49 0 -96 -63q18 -39 52 -98.5t57 -90.5q30 -41 55 -41q15 0 33 8z" />
    <glyph glyph-name="lambda" unicode="&#x3bb;" horiz-adv-x="512" 
d="M495 61l11 -29q-54 -44 -127 -44q-45 0 -69 38t-49 128q-45 164 -50 181q-72 -238 -104 -326l-82 -21l-10 14q112 222 175 415q-19 68 -32 107q-19 59 -38.5 80.5t-44.5 21.5q-19 0 -36 -7l-9 27q60 57 116 57q54 0 87.5 -57t83.5 -235q57 -201 82 -272q30 -82 67 -82
q18 0 29 4z" />
    <glyph glyph-name="uni03BC" unicode="&#x3bc;" horiz-adv-x="538" 
d="M527 69l12 -28q-16 -22 -46.5 -37.5t-68.5 -15.5q-73 0 -90 69h-2q-57 -69 -112 -69q-52 0 -78 43h-2v-15q0 -50 12 -129t23 -118l-15 -13q-22 2 -49.5 14t-41.5 28q-2 10 -2 49.5t1 109.5t1 112v261q0 57 -4 101l128 24q3 -29 3 -114v-172q0 -51 21.5 -76t50.5 -25
q34 0 63 32v331l127 24v-329q0 -65 38 -65q15 0 31 8z" />
    <glyph glyph-name="nu" unicode="&#x3bd;" horiz-adv-x="485" 
d="M21 366l-8 30q32 23 74 40.5t69 17.5t46.5 -23.5t41.5 -88.5q17 -49 41.5 -128t26.5 -85q66 119 66 193q0 37 -22 70q-8 10 -4 22q8 17 24.5 28.5t33.5 11.5q23 0 38 -22.5t15 -53.5q0 -35 -22.5 -89.5t-47 -98.5t-72.5 -122l-47 -80h-37q-83 241 -110 306
q-17 42 -33 58.5t-37 16.5q-18 0 -36 -3z" />
    <glyph glyph-name="xi" unicode="&#x3be;" horiz-adv-x="425" 
d="M363 396l-46 -69q-38 5 -55 5q-56 0 -81.5 -28t-25.5 -73q0 -88 97 -111q30 -7 52 -14q48 -14 76.5 -41t28.5 -80q-1 -84 -90 -160l-31 16q24 50 24 82q0 60 -65 76q-37 11 -72 18q-143 33 -143 156q0 108 136 171q-48 13 -74.5 44t-26.5 74q0 35 25 70t70 60
q-28 5 -60 24.5t-38 45.5q0 17 16 40t34 33l26 -12q-6 -36 17 -62.5t51 -29.5q35 22 77.5 38t70.5 16q17 0 23 -4.5t3 -18.5q-2 -18 -15.5 -37.5t-27.5 -26.5q-51 -22 -130 -16q-33 -29 -33 -78q0 -42 26.5 -69.5t81.5 -27.5q44 0 72 3z" />
    <glyph glyph-name="omicron" unicode="&#x3bf;" horiz-adv-x="525" 
d="M268 454q102 0 165 -66t63 -159q0 -114 -68.5 -177.5t-163.5 -63.5q-111 0 -172.5 67t-61.5 156q0 113 73 178t165 65zM255 415q-34 0 -58 -43.5t-24 -124.5q0 -95 28 -157.5t74 -62.5q78 0 78 172q0 104 -25.5 160t-72.5 56z" />
    <glyph glyph-name="pi" unicode="&#x3c0;" horiz-adv-x="550" 
d="M502 472l30 -5q-2 -33 -10 -67.5t-16 -45.5q-18 -8 -73 -5q-6 -68 -4 -202q1 -75 37 -75q19 0 43 10l12 -27q-18 -27 -51 -47t-63 -20q-86 0 -86 129q0 127 8 234q-62 2 -116 2v-6q0 -99 -12.5 -180t-24.5 -116.5t-21 -44.5q-38 -16 -74 -18l-9 20q41 63 62.5 168
t21.5 179q-78 0 -128 -31l-17 26q14 19 23.5 29t32.5 29t57 28.5t76 8.5q219 -3 251 -3q22 0 32 5t19 25z" />
    <glyph glyph-name="rho" unicode="&#x3c1;" horiz-adv-x="520" 
d="M68 -244l-5 13q6 26 6 160q0 43 -1 134t-1 128q0 138 92 208q69 55 137 55q90 0 142 -60t52 -144q0 -48 -17 -90.5t-43 -72t-59 -51.5t-63.5 -33.5t-57.5 -14.5q-31 0 -57 18q7 -179 3 -198q-9 -16 -53 -33t-75 -19zM364 201q0 83 -34.5 140t-84.5 57q-34 0 -45.5 -30.5
t-10.5 -86.5q0 -101 4 -193q41 -47 83 -47q33 0 60.5 39.5t27.5 120.5z" />
    <glyph glyph-name="uni03C2" unicode="&#x3c2;" horiz-adv-x="411" 
d="M295 -165l-26 19q29 36 29 81q0 23 -21.5 41.5t-64.5 27.5l-64 16q-118 33 -118 178q0 122 110 202q78 54 151 54q45 0 78 -20q22 -15 22 -39q0 -25 -16 -42.5t-32 -17.5q-11 1 -31 18q-52 37 -93 37q-39 0 -59.5 -33t-20.5 -91q0 -68 24.5 -100t75.5 -45q19 -4 48 -13
q52 -14 77.5 -40.5t25.5 -75.5q0 -51 -31.5 -93.5t-63.5 -63.5z" />
    <glyph glyph-name="sigma" unicode="&#x3c3;" horiz-adv-x="528" 
d="M304 448q22 -1 51 -2t49 -2t35 -1q22 0 34 5t28 23l28 -12q-15 -80 -46 -98q-43 -2 -119 12l-2 -2q109 -55 109 -160q0 -104 -63.5 -163.5t-158.5 -59.5q-104 0 -161.5 67t-57.5 156q0 116 77.5 178t196.5 59zM270 380q-47 0 -76.5 -43t-29.5 -126q0 -76 27 -129.5
t70 -53.5q35 0 61 42.5t26 146.5q0 100 -31 138q-21 25 -47 25z" />
    <glyph glyph-name="tau" unicode="&#x3c4;" horiz-adv-x="461" 
d="M417 470l29 -4q-14 -91 -24 -110q-12 -5 -73 -5q-11 1 -31 1.5t-31 0.5q-6 -68 -4 -209q1 -44 14 -58.5t34 -14.5t43 10l12 -28q-18 -26 -51.5 -45.5t-66.5 -19.5q-93 0 -93 129q0 139 9 239q-63 2 -96.5 -4.5t-62.5 -29.5l-17 26q16 28 31.5 46.5t52 34.5t85.5 16
q36 -1 94.5 -2t93.5 -1q22 -1 32.5 4t19.5 24z" />
    <glyph glyph-name="upsilon" unicode="&#x3c5;" horiz-adv-x="479" 
d="M287 424v12q4 5 26 11.5t36 6.5q35 0 67 -47.5t32 -132.5q0 -113 -67.5 -199.5t-158.5 -86.5q-63 0 -103 37t-40 111q0 27 0.5 85.5t0.5 85.5q0 65 -42 65q-16 0 -28 -4l-9 31q22 17 62 36t74 19q70 0 70 -111q0 -33 -0.5 -102.5t-0.5 -98.5q0 -38 20 -60.5t49 -22.5
q43 0 64.5 41.5t21.5 138.5q0 135 -74 185z" />
    <glyph glyph-name="phi" unicode="&#x3c6;" horiz-adv-x="610" 
d="M249 466l14 -31q-100 -60 -100 -186q0 -81 29 -133t69 -66q-4 131 -3 210q1 100 44.5 147t106.5 47q69 0 120 -59.5t51 -152.5q0 -104 -61.5 -165.5t-146.5 -80.5q0 -26 1 -90.5t1 -95.5q-5 -19 -40 -36t-67 -18l-8 10q4 43 2 224q-104 5 -167.5 67t-63.5 163
q0 49 19.5 90.5t52.5 71t69 49.5t78 35zM390 410q-14 0 -18.5 -12.5t-4.5 -49.5q1 -50 2.5 -154.5t1.5 -152.5q40 4 72.5 52.5t32.5 134.5q0 84 -29.5 133t-56.5 49z" />
    <glyph glyph-name="chi" unicode="&#x3c7;" horiz-adv-x="482" 
d="M507 -171l7 -29q-51 -44 -118 -44q-34 0 -59 22t-49 85q-11 28 -29.5 85t-30.5 92q-43 -92 -132 -301l-15 -1q-36 16 -43 67q19 35 77.5 139.5t90.5 163.5q-37 116 -63 181q-19 48 -34.5 64.5t-37.5 16.5q-21 0 -46 -10l-10 29q72 65 132 65q34 0 58.5 -28t47.5 -89
q8 -18 21.5 -61t15.5 -47q23 47 92 203l80 22l11 -10q-80 -116 -163 -275q67 -200 93 -256q29 -62 48.5 -76.5t55.5 -7.5z" />
    <glyph glyph-name="psi" unicode="&#x3c8;" horiz-adv-x="607" 
d="M584 454l16 -30q-39 -29 -50 -94q-24 -128 -37 -178q-23 -88 -91 -135q-33 -20 -59 -24l-2 -231l-12 -6q-13 2 -22 8.5t-17 31t-9 67.5l-2 126q-92 4 -138.5 43.5t-62.5 131.5q-4 26 -8 54t-7 56t-5 39q-6 35 -14.5 47.5t-24.5 12.5q-10 0 -26 -2l-8 30q26 24 58.5 38.5
t58.5 14.5q72 0 81 -109q6 -69 12 -131q6 -82 24.5 -120t61.5 -50l-7 448l67 30l11 -4l-8 -479q43 4 59 32.5t24 88.5q3 25 9.5 84t8.5 79q5 57 22 73q43 43 97 58z" />
    <glyph glyph-name="omega" unicode="&#x3c9;" horiz-adv-x="646" 
d="M437 425v13q5 5 23.5 10.5t35.5 5.5q39 0 79.5 -55t40.5 -138q0 -119 -71.5 -196t-139.5 -77q-37 0 -65.5 20.5t-42.5 56.5q-61 -77 -111 -77q-65 0 -110.5 60t-45.5 148q0 170 174 262l20 -24q-64 -74 -64 -201q0 -78 25.5 -119t58.5 -41q19 0 33 20t13 60q0 6 -13 173
l122 26l12 -9q-11 -180 -11 -193q-1 -39 14 -63.5t45 -24.5q72 0 72 151q0 83 -30 137t-64 75z" />
    <glyph glyph-name="iotadieresis" unicode="&#x3ca;" horiz-adv-x="279" 
d="M270 72l10 -29q-65 -55 -122 -55q-39 0 -64.5 26.5t-25.5 88.5v328l128 24v-328q0 -63 37 -63q20 0 37 8zM38 519q-27 0 -47 19.5t-20 46.5q0 28 20 47.5t48 19.5q29 0 48 -19t19 -48q0 -27 -19.5 -46.5t-48.5 -19.5zM243 519q-26 0 -46 19.5t-20 46.5q0 28 20 47.5
t47 19.5q29 0 48.5 -19.5t19.5 -47.5q0 -27 -20 -46.5t-49 -19.5z" />
    <glyph glyph-name="upsilondieresis" unicode="&#x3cb;" horiz-adv-x="479" 
d="M287 424v12q4 5 26 11.5t36 6.5q35 0 67 -47.5t32 -132.5q0 -113 -67.5 -199.5t-158.5 -86.5q-63 0 -103 37t-40 111q0 27 0.5 85.5t0.5 85.5q0 65 -42 65q-16 0 -28 -4l-9 31q22 17 62 36t74 19q70 0 70 -111q0 -33 -0.5 -102.5t-0.5 -98.5q0 -38 20 -60.5t49 -22.5
q43 0 64.5 41.5t21.5 138.5q0 135 -74 185zM136 519q-27 0 -47 19.5t-20 46.5q0 28 20 47.5t48 19.5t47.5 -19.5t19.5 -47.5q0 -27 -20 -46.5t-48 -19.5zM341 519q-26 0 -46 19.5t-20 46.5q0 28 20 47.5t47 19.5q29 0 48.5 -19.5t19.5 -47.5q0 -27 -20 -46.5t-49 -19.5z" />
    <glyph glyph-name="omicrontonos" unicode="&#x3cc;" horiz-adv-x="525" 
d="M268 454q102 0 165 -66t63 -159q0 -114 -68.5 -177.5t-163.5 -63.5q-111 0 -172.5 67t-61.5 156q0 113 73 178t165 65zM255 415q-34 0 -58 -43.5t-24 -124.5q0 -95 28 -157.5t74 -62.5q78 0 78 172q0 104 -25.5 160t-72.5 56zM342 678l-74 -181l-33 -1q3 175 3 179
q6 7 45 13t52 2z" />
    <glyph glyph-name="upsilontonos" unicode="&#x3cd;" horiz-adv-x="479" 
d="M287 424v12q4 5 26 11.5t36 6.5q35 0 67 -47.5t32 -132.5q0 -113 -67.5 -199.5t-158.5 -86.5q-63 0 -103 37t-40 111q0 27 0.5 85.5t0.5 85.5q0 65 -42 65q-16 0 -28 -4l-9 31q22 17 62 36t74 19q70 0 70 -111q0 -33 -0.5 -102.5t-0.5 -98.5q0 -38 20 -60.5t49 -22.5
q43 0 64.5 41.5t21.5 138.5q0 135 -74 185zM321 678l-75 -181l-32 -1q3 173 3 179q5 7 44.5 13t51.5 2z" />
    <glyph glyph-name="omegatonos" unicode="&#x3ce;" horiz-adv-x="646" 
d="M437 425v13q5 5 23.5 10.5t35.5 5.5q39 0 79.5 -55t40.5 -138q0 -119 -71.5 -196t-139.5 -77q-37 0 -65.5 20.5t-42.5 56.5q-61 -77 -111 -77q-65 0 -110.5 60t-45.5 148q0 170 174 262l20 -24q-64 -74 -64 -201q0 -78 25.5 -119t58.5 -41q19 0 33 20t13 60q0 6 -13 173
l122 26l12 -9q-11 -180 -11 -193q-1 -39 14 -63.5t45 -24.5q72 0 72 151q0 83 -30 137t-64 75zM420 678l-75 -181l-32 -1q3 173 3 179q6 7 45 13t52 2z" />
    <glyph glyph-name="uni03D0" unicode="&#x3d0;" horiz-adv-x="518" 
d="M488 222q0 -109 -69.5 -171.5t-154.5 -62.5q-53 0 -94.5 18.5t-67 48.5t-42 72t-23 84.5t-6.5 90.5q0 207 118 327q75 74 156 74q62 0 100.5 -32.5t38.5 -94.5q0 -52 -34 -86t-100 -72q90 -12 134 -63.5t44 -132.5zM333 555q0 43 -18 71.5t-47 28.5q-31 0 -52.5 -26
t-32.5 -70t-16 -86.5t-6 -91.5q16 7 45.5 22t43.5 22q83 41 83 130zM350 194q0 88 -29 132t-75 44q-52 0 -84 -41q1 -121 31.5 -210t81.5 -89q75 0 75 164z" />
    <glyph glyph-name="uni03D1" unicode="&#x3d1;" horiz-adv-x="496" 
d="M18 207l-8 30q57 43 117 43q43 0 61.5 -23.5t24.5 -65.5q1 -3 7 -44q5 -33 9.5 -49.5t17.5 -31.5t35 -15q72 0 74 205q2 62 -8 122q-63 -52 -122 -52q-85 0 -133.5 48t-48.5 125q0 92 62 148t139 56q97 0 159 -89.5t62 -259.5q0 -95 -29 -181.5t-92 -138.5
q-56 -46 -111 -46q-112 0 -139 125q-2 7 -3.5 15.5t-3.5 20.5t-4 22q-7 48 -66 36zM210 657q-63 0 -63 -96q0 -72 36.5 -116t93.5 -44q35 0 66 12q-17 121 -55 182.5t-78 61.5z" />
    <glyph glyph-name="uni03D5" unicode="&#x3d5;" horiz-adv-x="604" 
d="M354 663l-4 -207q100 -14 162 -75t62 -154q0 -53 -20 -95.5t-54 -69.5t-73.5 -43.5t-83.5 -23.5l-3 -240l-7 -3q-18 2 -28.5 8t-21 33t-10.5 77l-1 122q-108 5 -175 66t-67 157q0 107 85 172q47 37 109 56l14 -32q-70 -49 -70 -180q0 -76 28 -125.5t74 -62.5l1 411
l-1 180l73 34zM348 401l-4 -361q48 7 83 49t35 130q0 71 -30 117.5t-84 64.5z" />
    <glyph glyph-name="uni03D6" unicode="&#x3d6;" horiz-adv-x="668" 
d="M140 488l-13 31q111 67 227 67q76 0 133.5 -24.5t90.5 -67t48.5 -93t15.5 -108.5q0 -71 -23 -131.5t-57 -97t-71.5 -56.5t-69.5 -20q-38 0 -68 21.5t-45 57.5q-24 -31 -58 -55t-65 -24q-65 0 -109.5 60.5t-44.5 148.5q0 167 176 261l20 -28q-67 -76 -67 -197
q0 -77 26.5 -117.5t59.5 -40.5q22 0 39 19.5t16 59.5q0 20 -12 172l122 26l12 -9q-11 -181 -11 -192q-1 -37 17.5 -61.5t48.5 -24.5q79 0 79 162q0 127 -66 211.5t-197 84.5q-80 0 -154 -35z" />
    <glyph glyph-name="uni03D9" unicode="&#x3d9;" horiz-adv-x="530" 
d="M270 454q102 0 166 -66t64 -159t-47.5 -153t-122.5 -78v-73q0 -50 -11 -73q-23 -50 -97 -79l-15 10q3 87 3 110v101q-86 16 -133 78t-47 138q0 113 73.5 178.5t166.5 65.5zM257 412q-35 0 -59.5 -42t-24.5 -123q0 -92 28.5 -154.5t74.5 -62.5q81 0 81 169
q0 101 -26.5 157t-73.5 56z" />
    <glyph glyph-name="uni03DB" unicode="&#x3db;" horiz-adv-x="419" 
d="M387 472l27 -9q-9 -62 -28 -89t-40 -27q-28 0 -61 12q-51 20 -81 20q-32 0 -52.5 -29t-20.5 -83q0 -66 29.5 -99.5t82.5 -46.5q27 -6 48 -12q53 -14 78 -40.5t25 -76.5q0 -62 -46 -109t-91 -47q-19 0 -31.5 11.5t-12.5 28.5q0 25 21 44q7 7 16 2q20 -10 44 -10q14 0 25 8
t11 22q0 17 -23.5 31t-88.5 28q-47 11 -67 17q-119 34 -119 177q0 63 30.5 117.5t81.5 90.5q72 51 133 51q24 0 62 -6q31 -3 48 24z" />
    <glyph glyph-name="uni03DD" unicode="&#x3dd;" horiz-adv-x="470" 
d="M448 460l-39 -79q-60 12 -182 12h-22v-258q84 0 196 10l5 -14l-37 -52q-37 5 -165 9v-98q0 -115 -33.5 -168.5t-121.5 -76.5l-6 8q34 56 34 226v463h184q135 0 174 25z" />
    <glyph glyph-name="uni03E1" unicode="&#x3e1;" horiz-adv-x="694" 
d="M81 608l-5 25l46 18q45 16 85 16q92 0 167.5 -25t126 -66t85 -97.5t50 -116.5t15.5 -125q1 -131 -47 -227t-124 -177l-26 20q41 64 71 157.5t30 196.5q0 15 -2 51q-146 -71 -242 -169q-47 -47 -47 -92l-1 -8q-11 -3 -23 -3q-14 0 -25.5 8.5t-17 24.5t-4 35t15.5 43.5
t40 47.5q38 35 93 70.5t95 56.5t106 53q-12 54 -32.5 93t-36.5 54q-79 -55 -191.5 -113.5t-148.5 -69.5q-29 -8 -56.5 5.5t-37.5 33.5l2 13q227 61 399 172q-104 100 -282 100q-48 0 -78 -5z" />
    <glyph glyph-name="uni03F0" unicode="&#x3f0;" horiz-adv-x="551" 
d="M522 107l16 -28q-19 -38 -51 -64.5t-72 -26.5q-87 0 -87 116q0 62 35 151l-5 4q-21 -24 -64.5 -74.5t-68.5 -79t-58 -62.5t-58 -54l-20 -1q-32 8 -48 35.5t-13 54.5q29 12 78 51q29 44 29 122q0 52 -19.5 82.5t-50.5 30.5q-23 0 -44 -11l-12 26q70 75 133 75
q37 0 58.5 -26t21.5 -78q0 -27 -8.5 -60t-15.5 -51t-24 -60l5 -1q38 40 72 81t62.5 78t40.5 51q5 6 14.5 17.5t14 17t12 13t14.5 12t15 6.5q54 2 75 -55q7 -15 1 -28q-68 -51 -72 -55q-24 -50 -24 -113q0 -58 17.5 -88.5t45.5 -30.5q27 0 55 23z" />
    <glyph glyph-name="uni0401" unicode="&#x401;" horiz-adv-x="581" 
d="M536 173l35 -7q-9 -69 -35 -166h-510v35q65 5 80 20t15 78v384q0 64 -13 78.5t-68 19.5v35h471q0 -8 2 -31.5t4 -58t4 -60.5l-36 -5q-18 63 -41 86q-24 25 -100 25h-48q-28 0 -34.5 -5.5t-6.5 -29.5v-212h67q64 0 82.5 11.5t28.5 63.5h36v-202h-36q-10 53 -28 64.5
t-83 11.5h-67v-173q0 -70 24 -82q23 -10 90 -10q80 0 111 32q27 32 56 98zM400 828q29 0 49 -19.5t20 -47.5q0 -27 -20 -46.5t-49 -19.5q-26 0 -46 19.5t-20 46.5q0 28 19.5 47.5t46.5 19.5zM190 828q29 0 49 -19.5t20 -47.5q0 -27 -20 -46.5t-49 -19.5q-26 0 -46 19.5
t-20 46.5q0 28 19.5 47.5t46.5 19.5z" />
    <glyph glyph-name="uni0402" unicode="&#x402;" horiz-adv-x="731" 
d="M375 606v-240q69 34 121 34q76 0 136 -62t60 -175q0 -119 -69.5 -200t-174.5 -125l-19 33q20 12 39 30t41 50t35.5 83t13.5 113q0 88 -35.5 139.5t-98.5 51.5q-22 0 -49 -9v-177q0 -55 6.5 -77t22.5 -29t60 -10v-36h-315v36q36 3 50.5 5.5t26 15.5t13.5 32.5t2 62.5v454
h-30q-58 0 -81 -6t-35 -25q-19 -31 -33 -89h-38q1 25 4 65.5t5 70.5t2 53h26q13 -16 23.5 -20.5t34.5 -4.5h397q33 0 57 25h26q5 -110 11 -185l-38 -3q-13 67 -37 94q-13 15 -32.5 20t-67.5 5h-60z" />
    <glyph glyph-name="uni0403" unicode="&#x403;" horiz-adv-x="534" 
d="M512 496l-38 -7q-25 75 -33 87q-12 18 -29 24t-57 6h-59q-30 0 -35 -4.5t-5 -32.5v-430q0 -69 14 -85t80 -20v-34h-311v34q56 5 69 21t13 84v374q0 67 -12.5 82t-69.5 20v35h464q0 -79 9 -154zM434 755l-3 -12l-206 -60l-15 28q145 103 173 122q14 -5 31.5 -31.5
t19.5 -46.5z" />
    <glyph glyph-name="uni0404" unicode="&#x404;" horiz-adv-x="661" 
d="M547 305l-353 8q5 -126 65 -204t145 -79q101 0 156 100q24 43 48 43q13 0 22 -9.5t9 -25.5q0 -41 -51 -86q-72 -67 -198 -67q-89 0 -158 29t-109.5 77t-61 105.5t-20.5 120.5q0 155 106 251.5t270 96.5q97 0 184 -35q8 -52 18 -154l-34 -7q-23 78 -65.5 116t-113.5 38
q-91 0 -149 -69.5t-62 -190.5l352 9v-67z" />
    <glyph glyph-name="uni0405" unicode="&#x405;" horiz-adv-x="505" 
d="M442 495l-34 -8q-46 137 -140 137q-42 0 -69.5 -28t-27.5 -71q0 -40 28 -68.5t96 -62.5q87 -42 132 -89.5t45 -116.5q0 -87 -67.5 -145t-175.5 -58q-54 0 -101 14q-29 8 -61 22q-14 39 -29 170l35 11q12 -38 32.5 -75t59.5 -69t83 -32q46 0 73 29t27 76q0 42 -29 73
t-90 63q-87 44 -130.5 89.5t-43.5 112.5q0 85 62.5 140.5t166.5 55.5q70 0 139 -27q2 -21 9 -70t10 -73z" />
    <glyph glyph-name="uni0406" unicode="&#x406;" horiz-adv-x="378" 
d="M338 0h-300v35q56 5 69.5 20.5t13.5 77.5v383q0 63 -13.5 78.5t-69.5 20.5v35h300v-35q-56 -5 -69.5 -20.5t-13.5 -78.5v-383q0 -62 13.5 -77.5t69.5 -20.5v-35z" />
    <glyph glyph-name="uni0407" unicode="&#x407;" horiz-adv-x="378" 
d="M338 0h-300v35q56 5 69.5 20.5t13.5 77.5v383q0 63 -13.5 78.5t-69.5 20.5v35h300v-35q-56 -5 -69.5 -20.5t-13.5 -78.5v-383q0 -62 13.5 -77.5t69.5 -20.5v-35zM293 828q29 0 48.5 -19t19.5 -48q0 -27 -19.5 -46.5t-48.5 -19.5q-27 0 -47 19.5t-20 46.5q0 28 20 47.5
t47 19.5zM83 828q29 0 48.5 -19.5t19.5 -47.5q0 -27 -20 -46.5t-48 -19.5q-27 0 -47 19.5t-20 46.5q0 28 20 47.5t47 19.5z" />
    <glyph glyph-name="uni0408" unicode="&#x408;" horiz-adv-x="366" 
d="M338 650v-35q-53 -5 -66 -20.5t-13 -78.5v-330q0 -102 -19.5 -168.5t-82.5 -118.5q-53 -45 -122 -62l-15 37q80 34 94 121q11 68 11 195v326q0 63 -14 78.5t-72 20.5v35h299z" />
    <glyph glyph-name="uni0409" unicode="&#x409;" horiz-adv-x="906" 
d="M566 0h-254v34q41 3 56 10.5t21.5 29.5t6.5 77v401q0 39 -4.5 46.5t-29.5 7.5h-103q-21 0 -26.5 -5t-5.5 -28q0 -404 -86 -537q-34 -51 -73 -51q-37 0 -60 9v20q37 24 60 52.5t43 74.5q60 133 60 413q0 33 -17 45t-76 16v35h534v-35q-42 -3 -57 -10t-21 -27t-6 -73v-112
q60 5 97 5q117 0 181 -49t64 -141q0 -111 -95 -167q-71 -41 -209 -41zM528 353v-215q0 -55 13.5 -75.5t51.5 -20.5q51 0 91 37.5t40 120.5q0 84 -38.5 120t-109.5 36q-12 0 -48 -3z" />
    <glyph glyph-name="uni040A" unicode="&#x40a;" horiz-adv-x="986" 
d="M336 0h-298v35q58 5 71 20.5t13 84.5v371q0 49 -6 68t-22 26t-59 10v35h297v-35q-54 -6 -66 -21.5t-12 -80.5v-133h227v129q0 70 -11.5 85.5t-61.5 20.5v35h289v-35q-58 -5 -71 -20.5t-13 -83.5v-131h106q107 0 170 -48t63 -131q0 -109 -91 -162q-68 -39 -197 -39h-262
v35q40 3 54 9.5t19.5 25.5t5.5 69v193h-227v-193q0 -68 12.5 -83.5t69.5 -20.5v-35zM613 332v-199q0 -56 13 -74t55 -17q51 0 88.5 35t37.5 115q0 72 -38 106t-102 34h-54z" />
    <glyph glyph-name="uni040B" unicode="&#x40b;" horiz-adv-x="788" 
d="M756 0h-262v35q36 4 45 17.5t9 61.5v105q0 25 -3.5 42.5t-13.5 37t-33.5 30t-59.5 10.5t-66 -13v-175q0 -54 5 -75.5t17.5 -29.5t45.5 -11v-35h-288v35q42 3 58 11t22 29.5t6 75.5v455h-45q-59 0 -79 -8t-32 -32q-13 -26 -26 -76h-37q11 139 13 185h20q13 -16 25.5 -20.5
t36.5 -4.5h399q32 0 56 25h24q2 -73 11 -182l-36 -3q-20 65 -33 85q-12 19 -33 25t-70 6h-60v-241q83 32 139 32q91 0 135 -48q36 -39 36 -119v-113q0 -52 11 -65t63 -17v-35z" />
    <glyph glyph-name="uni040C" unicode="&#x40c;" horiz-adv-x="691" 
d="M676 0h-114q-53 0 -81 21.5t-51 70.5q-27 60 -55 139q-36 101 -120 99v-188q0 -39 1.5 -57t12 -30t23.5 -14.5t45 -5.5v-35h-300v35q42 3 57 10t21 26.5t6 68.5v368q0 51 -6 70.5t-21 26.5t-57 10v35h300v-35q-41 -3 -56 -10t-20.5 -26.5t-5.5 -70.5v-139q80 2 120 43
q37 36 84 147q48 106 118 106q28 0 44.5 -14.5t16.5 -35.5q0 -17 -13 -26t-30 -10h-18q-29 0 -50.5 -21t-53.5 -85q-43 -86 -97 -113v-3q42 -10 73 -34t55 -70q8 -15 31.5 -66.5t37.5 -79.5q20 -40 42 -54t61 -18v-35zM517 755l-4 -12l-206 -60l-14 28q145 103 173 122
q14 -5 31.5 -32t19.5 -46z" />
    <glyph glyph-name="uni040E" unicode="&#x40e;" horiz-adv-x="661" 
d="M655 650v-35q-51 -8 -70 -25t-45 -73q-18 -38 -84.5 -188t-84.5 -190q-43 -94 -87 -129t-93 -35q-32 0 -56 17.5t-24 45.5q1 29 26 43q26 14 60 -7q29 -19 53 -19q20 0 37 20.5t17 47.5q0 22 -23 73q-7 13 -49 100t-78.5 162t-48.5 97q-16 31 -32 42.5t-62 17.5v35h279
v-35l-30 -8q-28 -7 -10 -44l135 -292q79 188 107 269q12 33 8.5 47t-27.5 19l-36 9v35h218zM344 690q-62 0 -98 25t-36 70q0 18 11.5 31.5t30.5 13.5q22 0 31.5 -14.5t8.5 -32.5q0 -22 12.5 -38t39.5 -16q53 0 53 54q-2 18 8 32.5t32 14.5q20 0 31 -13.5t11 -31.5
q0 -45 -36 -70t-99 -25z" />
    <glyph glyph-name="uni040F" unicode="&#x40f;" horiz-adv-x="781" 
d="M747 0h-251q-34 0 -46 -12t-19 -41q-8 -38 -21 -153h-40q-13 115 -22 152q-7 30 -20.5 42t-48.5 12h-248v36q45 3 61.5 10.5t23 27.5t6.5 72v362q0 69 -14 84.5t-74 20.5v37h300v-37q-30 -3 -43 -5.5t-22.5 -14.5t-11 -29.5t-1.5 -55.5v-427q0 -28 6 -33t35 -5h186
q28 0 34.5 5.5t6.5 33.5v426q0 50 -6 69.5t-20.5 26t-55.5 9.5v37h303v-37q-43 -3 -58.5 -9.5t-22 -26t-6.5 -69.5v-362q0 -52 6.5 -72.5t22.5 -27.5t60 -10v-36z" />
    <glyph glyph-name="uni0410" unicode="&#x410;" horiz-adv-x="706" 
d="M687 0h-286v35q43 7 52 19.5t-4 45.5q-14 41 -40 113h-192q-25 -71 -36 -107q-13 -36 -2 -50.5t63 -20.5v-35h-224l1 35q50 6 68 23t43 80l205 514l51 13q177 -483 191 -521q26 -66 44.5 -84.5t65.5 -24.5v-35zM390 266l-74 216h-3q-12 -32 -25.5 -68.5t-29 -80
t-24.5 -67.5h156z" />
    <glyph glyph-name="uni0411" unicode="&#x411;" horiz-adv-x="626" 
d="M294 0h-258v34q59 5 72.5 22t13.5 90v359q0 52 -6.5 72.5t-21 27.5t-55.5 10v35h478q4 -88 9 -158l-38 -5q-17 58 -38 89q-12 17 -31.5 23.5t-63.5 6.5h-63q-28 0 -33 -5t-5 -33v-189q46 3 104 3q109 0 171 -47t62 -131q0 -111 -91 -164q-66 -40 -206 -40zM254 337v-200
q0 -57 14.5 -76t52.5 -19q46 0 85 37t39 115q0 145 -146 145q-15 0 -45 -2z" />
    <glyph glyph-name="uni0412" unicode="&#x412;" horiz-adv-x="637" 
d="M401 353v-4q193 -23 193 -156q0 -99 -94 -150q-76 -43 -211 -43h-254v35q58 5 72 20.5t14 78.5v382q0 63 -13 78.5t-67 20.5v35h292q112 0 165 -35q59 -38 59 -114q0 -65 -45.5 -100t-110.5 -48zM253 363h23q72 0 105.5 29.5t33.5 91.5q0 63 -31.5 93.5t-76.5 30.5
q-33 0 -45 -12q-9 -9 -9 -43v-190zM253 323v-187q0 -55 16.5 -75t56.5 -19q48 1 83.5 36.5t35.5 103.5q0 141 -172 141h-20z" />
    <glyph glyph-name="uni0413" unicode="&#x413;" horiz-adv-x="534" 
d="M512 496l-38 -7q-25 75 -33 87q-12 18 -29 24t-57 6h-59q-30 0 -35 -4.5t-5 -32.5v-430q0 -69 14 -85t80 -20v-34h-311v34q56 5 69 21t13 84v374q0 67 -12.5 82t-69.5 20v35h464q0 -79 9 -154z" />
    <glyph glyph-name="uni0414" unicode="&#x414;" horiz-adv-x="679" 
d="M653 44l-27 -223h-40l-16 105q-7 46 -21 60t-53 14h-330q-33 0 -47.5 -17t-27.5 -69l-26 -93h-40l5 223h57q19 0 28 20q28 60 48 183t20 300q0 34 -10 45.5t-50 17.5l-37 5v35h558v-35q-61 -5 -73.5 -20.5t-12.5 -88.5v-410q0 -35 5 -43.5t26 -8.5h64zM423 108v442
q0 40 -5 48t-34 8h-105q-30 0 -35.5 -6t-5.5 -36q0 -115 -12 -253t-38 -236q-5 -18 -1 -24.5t24 -6.5h150q38 0 50 11.5t12 52.5z" />
    <glyph glyph-name="uni0415" unicode="&#x415;" horiz-adv-x="581" 
d="M536 173l35 -7q-9 -69 -35 -166h-510v35q65 5 80 20t15 78v384q0 64 -13 78.5t-68 19.5v35h471q0 -8 2 -31.5t4 -58t4 -60.5l-36 -5q-18 63 -41 86q-24 25 -100 25h-48q-28 0 -34.5 -5.5t-6.5 -29.5v-212h67q64 0 82.5 11.5t28.5 63.5h36v-202h-36q-10 53 -28 64.5
t-83 11.5h-67v-173q0 -70 24 -82q23 -10 90 -10q80 0 111 32q27 32 56 98z" />
    <glyph glyph-name="uni0416" unicode="&#x416;" horiz-adv-x="996" 
d="M982 0h-115q-53 0 -80.5 21.5t-50.5 70.5q-18 38 -55 141q-21 58 -48.5 78.5t-68.5 19.5v-186q0 -52 5.5 -72t21 -27.5t56.5 -10.5v-35h-298v35q57 5 70 21.5t13 88.5v186q-42 1 -71 -20t-50 -78q-50 -135 -53 -141q-22 -49 -49.5 -70.5t-80.5 -21.5h-113v35
q37 4 60 19.5t44 57.5q15 29 37.5 78.5t30.5 64.5q25 47 55 70t73 34v3q-12 5 -25.5 14.5t-35.5 35.5t-39 61q-33 64 -52.5 85t-48.5 21h-18q-18 0 -30 10t-12 27q0 22 17 35t48 13q35 0 62 -24t50 -78q47 -113 85 -148q26 -25 51 -33.5t65 -9.5v141q0 67 -13.5 82.5
t-70.5 20.5v35h299v-35q-57 -5 -70 -20.5t-13 -82.5v-141q77 1 118 43q21 20 38 51t44 94q46 105 115 105q29 0 46 -13.5t17 -34.5q0 -35 -42 -37h-20q-28 0 -48 -21.5t-51 -84.5q-42 -84 -99 -111v-3q43 -11 73 -34.5t54 -69.5q7 -13 30 -62.5t39 -80.5q21 -42 43.5 -57.5
t60.5 -19.5v-35z" />
    <glyph glyph-name="uni0417" unicode="&#x417;" horiz-adv-x="548" 
d="M328 361v-5q82 -11 132.5 -52t50.5 -118q0 -99 -80.5 -150t-195.5 -51q-103 0 -162 44q-46 35 -46 76q0 20 12.5 33t27.5 13q25 0 49 -37q42 -86 124 -88q48 -1 84 36t36 115q0 67 -31.5 108.5t-75.5 41.5q-13 0 -40 -6t-43 -6q-21 0 -33 11t-12 27t12.5 27.5t33.5 11.5
q16 0 43 -6t41 -6q31 1 57.5 30t26.5 82q0 61 -28.5 96t-75.5 35q-51 0 -85.5 -42.5t-53.5 -105.5l-36 10q7 31 18 142q48 15 61 19q70 19 123 19q105 0 161 -42.5t56 -113.5q0 -34 -16.5 -62.5t-40.5 -44.5q-42 -27 -94 -41z" />
    <glyph glyph-name="uni0418" unicode="&#x418;" horiz-adv-x="782" 
d="M747 0h-305v35q60 5 73.5 21.5t13.5 85.5v235q0 79 5 176h-3l-256 -500q-9 -17 -9 -39v-14h-231v35q59 5 73 22.5t14 88.5v358q0 39 -2 58t-12.5 31.5t-25.5 16t-47 5.5v35h298v-35q-30 -3 -43.5 -5.5t-23 -15t-11.5 -30.5t-2 -56v-204q0 -93 -6 -199h2l258 497
q11 18 11 34v14h229v-35q-58 -4 -72 -21t-14 -85v-367q0 -69 13.5 -85.5t72.5 -21.5v-35z" />
    <glyph glyph-name="uni0419" unicode="&#x419;" horiz-adv-x="782" 
d="M747 0h-305v35q60 5 73.5 21.5t13.5 85.5v235q0 79 5 176h-3l-256 -500q-9 -17 -9 -39v-14h-231v35q59 5 73 22.5t14 88.5v358q0 39 -2 58t-12.5 31.5t-25.5 16t-47 5.5v35h298v-35q-30 -3 -43.5 -5.5t-23 -15t-11.5 -30.5t-2 -56v-204q0 -93 -6 -199h2l258 497
q11 18 11 34v14h229v-35q-58 -4 -72 -21t-14 -85v-367q0 -69 13.5 -85.5t72.5 -21.5v-35zM401 690q-63 0 -99 25t-36 70q0 18 11.5 31.5t30.5 13.5q22 0 32 -14.5t8 -32.5q0 -22 13 -38t40 -16q52 0 52 54q-1 18 9 32.5t31 14.5q20 0 31 -13.5t11 -31.5q0 -45 -35.5 -70
t-98.5 -25z" />
    <glyph glyph-name="uni041A" unicode="&#x41a;" horiz-adv-x="691" 
d="M676 0h-114q-53 0 -81 21.5t-51 70.5q-27 60 -55 139q-36 101 -120 99v-188q0 -39 1.5 -57t12 -30t23.5 -14.5t45 -5.5v-35h-300v35q42 3 57 10t21 26.5t6 68.5v368q0 51 -6 70.5t-21 26.5t-57 10v35h300v-35q-41 -3 -56 -10t-20.5 -26.5t-5.5 -70.5v-139q80 2 120 43
q37 36 84 147q48 106 118 106q28 0 44.5 -14.5t16.5 -35.5q0 -17 -13 -26t-30 -10h-18q-29 0 -50.5 -21t-53.5 -85q-43 -86 -97 -113v-3q42 -10 73 -34t55 -70q8 -15 31.5 -66.5t37.5 -79.5q20 -40 42 -54t61 -18v-35z" />
    <glyph glyph-name="uni041B" unicode="&#x41b;" horiz-adv-x="670" 
d="M632 0h-302v35q41 3 56.5 11t21.5 28.5t6 71.5v406q0 39 -5 46.5t-30 7.5h-108q-21 0 -27 -7.5t-6 -31.5q0 -395 -89 -533q-32 -49 -68 -49q-41 0 -66 9v23q38 26 61 53t42 70q64 141 64 414q0 33 -17.5 45t-73.5 16v35h541v-35q-57 -4 -70 -18.5t-13 -69.5v-381
q0 -52 5.5 -72t21 -28t56.5 -11v-35z" />
    <glyph glyph-name="uni041C" unicode="&#x41c;" horiz-adv-x="888" 
d="M860 0h-296v35q56 6 68.5 22t11.5 85l-2 385h-5l-221 -520h-28l-204 510h-4l-12 -261q-6 -117 0 -161q3 -33 21 -44t69 -16v-35h-240v35q41 4 58.5 17.5t22.5 40.5q13 70 21 189l16 197q6 86 -7.5 108t-77.5 28v35h207l193 -438l196 438h201v-35q-59 -6 -71.5 -21
t-10.5 -78l9 -374q2 -69 14.5 -85t70.5 -22v-35z" />
    <glyph glyph-name="uni041D" unicode="&#x41d;" horiz-adv-x="783" 
d="M746 650v-35q-59 -5 -71.5 -19.5t-12.5 -78.5v-385q0 -62 13 -77t71 -20v-35h-305v35q60 5 73.5 20t13.5 78v186h-273v-186q0 -63 13 -78t69 -20v-35h-298v35q56 5 69 20t13 78v384q0 63 -13.5 78t-72.5 20v35h300v-35q-55 -5 -67.5 -20t-12.5 -78v-147h273v147
q0 63 -13 78t-69 20v35h300z" />
    <glyph glyph-name="uni041E" unicode="&#x41e;" horiz-adv-x="766" 
d="M393 665q139 0 235 -93.5t96 -239.5q0 -158 -98.5 -252.5t-244.5 -94.5q-149 0 -244 97t-95 242q0 138 94 239.5t257 101.5zM375 623q-78 0 -129 -76.5t-51 -203.5q0 -133 55.5 -224.5t148.5 -91.5q75 0 123.5 72t48.5 205q0 147 -54 233t-142 86z" />
    <glyph glyph-name="uni041F" unicode="&#x41f;" horiz-adv-x="766" 
d="M731 0h-304v35q58 5 71 21.5t13 89.5v422q0 28 -5.5 33t-34.5 5h-175q-29 0 -34.5 -5t-5.5 -30v-425q0 -52 6 -72.5t20.5 -28t54.5 -10.5v-35h-302v35q42 3 58 10.5t22 28t6 72.5v361q0 71 -14 87t-76 21v35h702v-35q-61 -5 -74.5 -21.5t-13.5 -88.5v-359q0 -52 6 -72.5
t22 -28t58 -10.5v-35z" />
    <glyph glyph-name="uni0420" unicode="&#x420;" horiz-adv-x="599" 
d="M43 650h275q121 0 175 -39q74 -50 74 -147q0 -94 -58 -145.5t-146 -62.5q-15 -2 -42 -2l-68 16v-137q0 -63 15 -78.5t80 -20.5v-34h-311v34q57 5 70.5 20.5t13.5 78.5v383q0 63 -12.5 78t-65.5 21v35zM253 570v-260q24 -10 54 -10q17 0 34.5 6.5t37.5 22.5t32.5 50.5
t12.5 81.5q0 78 -36.5 114t-88.5 36q-25 0 -37 -10q-9 -9 -9 -31z" />
    <glyph glyph-name="uni0421" unicode="&#x421;" horiz-adv-x="676" 
d="M625 186l35 -16q-27 -99 -56 -159q-113 -26 -186 -26q-96 0 -170.5 29t-118.5 77.5t-66 106t-22 119.5q0 155 109.5 251.5t287.5 96.5q60 0 182 -27q15 -91 23 -164l-37 -7q-43 154 -187 154q-104 0 -164.5 -83.5t-60.5 -200.5q0 -137 66 -221t169 -84q118 0 196 154z
" />
    <glyph glyph-name="uni0422" unicode="&#x422;" horiz-adv-x="641" 
d="M616 481l-36 -2q-18 77 -44 103q-23 24 -101 24h-46v-473q0 -63 15.5 -78t82.5 -20v-35h-326v35q64 5 79 20t15 78v473h-34q-56 0 -79 -6.5t-36 -20.5q-22 -23 -42 -101h-36q2 31 6.5 100t5.5 97h24q11 -16 22.5 -20.5t34.5 -4.5h402q36 0 58 25h24q2 -77 11 -194z" />
    <glyph glyph-name="uni0423" unicode="&#x423;" horiz-adv-x="661" 
d="M655 650v-35q-51 -8 -70 -25t-45 -73q-18 -38 -84.5 -188t-84.5 -190q-43 -94 -87 -129t-93 -35q-32 0 -56 17.5t-24 45.5q1 29 26 43q26 14 60 -7q29 -19 53 -19q20 0 37 20.5t17 47.5q0 22 -23 73q-7 13 -49 100t-78.5 162t-48.5 97q-16 31 -32 42.5t-62 17.5v35h279
v-35l-30 -8q-28 -7 -10 -44l135 -292q79 188 107 269q12 33 8.5 47t-27.5 19l-36 9v35h218z" />
    <glyph glyph-name="uni0424" unicode="&#x424;" horiz-adv-x="791" 
d="M526 658v-34q-47 -3 -57.5 -11.5t-9.5 -43.5q61 -3 108 -14.5t91.5 -36t68.5 -71.5t24 -114q0 -55 -17.5 -96t-44.5 -65.5t-68 -41t-78.5 -23t-84.5 -9.5q1 -40 11.5 -50t59.5 -14v-34h-275v34q52 4 63.5 14t11.5 50q-292 13 -292 234q0 220 291 238q1 36 -9 43.5
t-62 10.5v34h269zM329 171v308q0 24 -1 53q-75 -8 -115 -53.5t-40 -146.5q0 -102 42 -144.5t114 -51.5v35zM458 494v-338v-21q75 8 116.5 52t41.5 144q0 185 -158 200v-37z" />
    <glyph glyph-name="uni0425" unicode="&#x425;" horiz-adv-x="693" 
d="M699 0h-321v35q46 8 53.5 21.5t-9.5 37.5q-3 4 -14.5 23.5t-35.5 60t-56 95.5q-71 -105 -110 -176q-17 -32 -8 -43t61 -19v-35h-251v35q78 9 119 55q104 132 163 222q-108 178 -142 231q-22 36 -48 51.5t-75 20.5v35h302v-35q-39 -9 -46.5 -20t4.5 -28q16 -30 90 -151
q49 65 90 140q16 27 7.5 38.5t-55.5 20.5v35h241v-35q-50 -7 -76 -20t-56 -49q-30 -34 -125 -165q20 -32 76.5 -122t89.5 -141q30 -47 54.5 -62.5t77.5 -20.5v-35z" />
    </font>
</defs>
</svg>
